<svg width="801" height="526" viewBox="0 0 801 526" fill="none" xmlns="http://www.w3.org/2000/svg">
<rect width="801" height="526" fill="white"/>
<rect x="28.5" y="28.5" width="752" height="476" fill="white" stroke="black"/>
<rect x="28.5" y="28.5" width="752" height="83" fill="white" stroke="black"/>
<rect x="28" y="112" width="753" height="393" fill="#D9D9D9"/>
<path d="M313.17 449V422.818H316.188V432.483H316.443C316.665 432.142 316.972 431.707 317.364 431.179C317.764 430.642 318.335 430.165 319.077 429.747C319.827 429.321 320.841 429.108 322.119 429.108C323.773 429.108 325.23 429.521 326.491 430.348C327.753 431.175 328.737 432.347 329.445 433.864C330.152 435.381 330.506 437.17 330.506 439.233C330.506 441.312 330.152 443.115 329.445 444.641C328.737 446.158 327.757 447.334 326.504 448.169C325.251 448.996 323.807 449.409 322.17 449.409C320.909 449.409 319.899 449.2 319.141 448.783C318.382 448.357 317.798 447.875 317.389 447.338C316.98 446.793 316.665 446.341 316.443 445.983H316.085V449H313.17ZM316.136 439.182C316.136 440.665 316.354 441.973 316.788 443.107C317.223 444.232 317.858 445.114 318.693 445.753C319.528 446.384 320.551 446.699 321.761 446.699C323.023 446.699 324.075 446.366 324.919 445.702C325.771 445.028 326.411 444.125 326.837 442.991C327.271 441.849 327.489 440.58 327.489 439.182C327.489 437.801 327.276 436.557 326.849 435.449C326.432 434.332 325.797 433.45 324.945 432.803C324.101 432.146 323.04 431.818 321.761 431.818C320.534 431.818 319.503 432.129 318.668 432.751C317.832 433.365 317.202 434.226 316.776 435.334C316.349 436.433 316.136 437.716 316.136 439.182ZM340.899 449.46C339.655 449.46 338.526 449.226 337.511 448.757C336.497 448.28 335.692 447.594 335.095 446.699C334.499 445.795 334.2 444.705 334.2 443.426C334.2 442.301 334.422 441.389 334.865 440.69C335.308 439.983 335.901 439.429 336.642 439.028C337.384 438.628 338.202 438.33 339.097 438.134C340 437.929 340.908 437.767 341.82 437.648C343.013 437.494 343.98 437.379 344.722 437.303C345.472 437.217 346.017 437.077 346.358 436.881C346.707 436.685 346.882 436.344 346.882 435.858V435.756C346.882 434.494 346.537 433.514 345.847 432.815C345.165 432.116 344.129 431.767 342.74 431.767C341.3 431.767 340.17 432.082 339.352 432.713C338.534 433.344 337.959 434.017 337.626 434.733L334.763 433.71C335.274 432.517 335.956 431.588 336.808 430.923C337.669 430.25 338.607 429.781 339.621 429.517C340.643 429.244 341.649 429.108 342.638 429.108C343.268 429.108 343.993 429.185 344.811 429.338C345.638 429.483 346.435 429.786 347.202 430.246C347.977 430.706 348.621 431.401 349.132 432.33C349.643 433.259 349.899 434.503 349.899 436.062V449H346.882V446.341H346.729C346.524 446.767 346.183 447.223 345.706 447.709C345.229 448.195 344.594 448.608 343.801 448.949C343.009 449.29 342.041 449.46 340.899 449.46ZM341.359 446.75C342.553 446.75 343.558 446.516 344.376 446.047C345.203 445.578 345.825 444.973 346.243 444.232C346.669 443.49 346.882 442.71 346.882 441.892V439.131C346.754 439.284 346.473 439.425 346.038 439.553C345.612 439.672 345.118 439.778 344.555 439.872C344.001 439.957 343.46 440.034 342.932 440.102C342.412 440.162 341.99 440.213 341.666 440.256C340.882 440.358 340.149 440.524 339.467 440.754C338.794 440.976 338.249 441.312 337.831 441.764C337.422 442.207 337.217 442.812 337.217 443.58C337.217 444.628 337.605 445.42 338.381 445.957C339.165 446.486 340.158 446.75 341.359 446.75ZM363.383 449.409C361.542 449.409 359.957 448.974 358.627 448.105C357.298 447.236 356.275 446.038 355.559 444.513C354.843 442.987 354.485 441.244 354.485 439.284C354.485 437.29 354.852 435.53 355.585 434.004C356.326 432.47 357.358 431.273 358.679 430.412C360.008 429.543 361.559 429.108 363.332 429.108C364.713 429.108 365.957 429.364 367.065 429.875C368.173 430.386 369.081 431.102 369.788 432.023C370.495 432.943 370.934 434.017 371.105 435.244H368.088C367.858 434.349 367.346 433.557 366.554 432.866C365.77 432.168 364.713 431.818 363.383 431.818C362.207 431.818 361.176 432.125 360.289 432.739C359.412 433.344 358.725 434.2 358.231 435.308C357.745 436.408 357.502 437.699 357.502 439.182C357.502 440.699 357.741 442.02 358.218 443.145C358.704 444.27 359.386 445.143 360.264 445.766C361.15 446.388 362.19 446.699 363.383 446.699C364.167 446.699 364.879 446.562 365.518 446.29C366.157 446.017 366.699 445.625 367.142 445.114C367.585 444.602 367.9 443.989 368.088 443.273H371.105C370.934 444.432 370.512 445.476 369.839 446.405C369.174 447.325 368.292 448.058 367.193 448.604C366.102 449.141 364.832 449.409 363.383 449.409ZM378.328 441.841L378.277 438.108H378.89L387.481 429.364H391.214L382.061 438.619H381.805L378.328 441.841ZM375.515 449V422.818H378.532V449H375.515ZM387.993 449L380.322 439.284L382.47 437.188L391.828 449H387.993ZM402.215 456.773C400.757 456.773 399.505 456.585 398.456 456.21C397.408 455.844 396.534 455.358 395.836 454.753C395.145 454.156 394.596 453.517 394.186 452.835L396.59 451.148C396.863 451.506 397.208 451.915 397.625 452.375C398.043 452.844 398.614 453.249 399.338 453.589C400.071 453.939 401.03 454.114 402.215 454.114C403.8 454.114 405.108 453.73 406.14 452.963C407.171 452.196 407.686 450.994 407.686 449.358V445.369H407.431C407.209 445.727 406.894 446.17 406.485 446.699C406.084 447.219 405.505 447.683 404.746 448.092C403.996 448.493 402.982 448.693 401.703 448.693C400.118 448.693 398.695 448.318 397.434 447.568C396.181 446.818 395.188 445.727 394.455 444.295C393.73 442.864 393.368 441.125 393.368 439.08C393.368 437.068 393.722 435.317 394.429 433.825C395.137 432.325 396.121 431.166 397.382 430.348C398.644 429.521 400.101 429.108 401.755 429.108C403.033 429.108 404.047 429.321 404.797 429.747C405.556 430.165 406.135 430.642 406.536 431.179C406.945 431.707 407.26 432.142 407.482 432.483H407.789V429.364H410.703V449.562C410.703 451.25 410.32 452.622 409.553 453.679C408.794 454.744 407.772 455.524 406.485 456.018C405.206 456.521 403.783 456.773 402.215 456.773ZM402.113 445.983C403.323 445.983 404.346 445.706 405.181 445.152C406.016 444.598 406.651 443.801 407.086 442.761C407.52 441.722 407.738 440.477 407.738 439.028C407.738 437.614 407.525 436.365 407.098 435.283C406.672 434.2 406.042 433.352 405.206 432.739C404.371 432.125 403.34 431.818 402.113 431.818C400.834 431.818 399.769 432.142 398.917 432.79C398.073 433.437 397.438 434.307 397.012 435.398C396.594 436.489 396.385 437.699 396.385 439.028C396.385 440.392 396.598 441.598 397.025 442.646C397.459 443.686 398.098 444.504 398.942 445.101C399.794 445.689 400.851 445.983 402.113 445.983ZM416.226 449V429.364H419.141V432.33H419.346C419.703 431.358 420.351 430.57 421.289 429.964C422.226 429.359 423.283 429.057 424.459 429.057C424.681 429.057 424.958 429.061 425.29 429.07C425.623 429.078 425.874 429.091 426.044 429.108V432.176C425.942 432.151 425.708 432.112 425.341 432.061C424.983 432.001 424.604 431.972 424.203 431.972C423.249 431.972 422.397 432.172 421.647 432.572C420.905 432.964 420.317 433.51 419.882 434.209C419.456 434.899 419.243 435.687 419.243 436.574V449H416.226ZM437 449.409C435.228 449.409 433.672 448.987 432.334 448.143C431.005 447.3 429.965 446.119 429.215 444.602C428.473 443.085 428.103 441.312 428.103 439.284C428.103 437.239 428.473 435.453 429.215 433.928C429.965 432.402 431.005 431.217 432.334 430.374C433.672 429.53 435.228 429.108 437 429.108C438.773 429.108 440.324 429.53 441.654 430.374C442.992 431.217 444.032 432.402 444.773 433.928C445.523 435.453 445.898 437.239 445.898 439.284C445.898 441.312 445.523 443.085 444.773 444.602C444.032 446.119 442.992 447.3 441.654 448.143C440.324 448.987 438.773 449.409 437 449.409ZM437 446.699C438.347 446.699 439.455 446.354 440.324 445.663C441.194 444.973 441.837 444.065 442.255 442.94C442.672 441.815 442.881 440.597 442.881 439.284C442.881 437.972 442.672 436.749 442.255 435.615C441.837 434.482 441.194 433.565 440.324 432.866C439.455 432.168 438.347 431.818 437 431.818C435.654 431.818 434.546 432.168 433.676 432.866C432.807 433.565 432.164 434.482 431.746 435.615C431.328 436.749 431.12 437.972 431.12 439.284C431.12 440.597 431.328 441.815 431.746 442.94C432.164 444.065 432.807 444.973 433.676 445.663C434.546 446.354 435.654 446.699 437 446.699ZM462.879 440.972V429.364H465.896V449H462.879V445.676H462.674C462.214 446.673 461.498 447.521 460.526 448.22C459.555 448.911 458.327 449.256 456.844 449.256C455.617 449.256 454.526 448.987 453.572 448.45C452.617 447.905 451.867 447.087 451.322 445.996C450.776 444.896 450.504 443.511 450.504 441.841V429.364H453.521V441.636C453.521 443.068 453.921 444.21 454.722 445.062C455.532 445.915 456.563 446.341 457.816 446.341C458.566 446.341 459.329 446.149 460.104 445.766C460.888 445.382 461.545 444.794 462.073 444.001C462.61 443.209 462.879 442.199 462.879 440.972ZM474.439 437.188V449H471.422V429.364H474.336V432.432H474.592C475.052 431.435 475.751 430.634 476.689 430.028C477.626 429.415 478.836 429.108 480.319 429.108C481.649 429.108 482.812 429.381 483.809 429.926C484.806 430.463 485.582 431.281 486.136 432.381C486.69 433.472 486.967 434.852 486.967 436.523V449H483.95V436.727C483.95 435.185 483.549 433.983 482.748 433.122C481.947 432.253 480.848 431.818 479.45 431.818C478.487 431.818 477.626 432.027 476.868 432.445C476.118 432.862 475.525 433.472 475.091 434.273C474.656 435.074 474.439 436.045 474.439 437.188ZM499.895 449.409C498.259 449.409 496.814 448.996 495.561 448.169C494.308 447.334 493.328 446.158 492.621 444.641C491.913 443.115 491.56 441.312 491.56 439.233C491.56 437.17 491.913 435.381 492.621 433.864C493.328 432.347 494.313 431.175 495.574 430.348C496.835 429.521 498.293 429.108 499.946 429.108C501.224 429.108 502.234 429.321 502.976 429.747C503.726 430.165 504.297 430.642 504.689 431.179C505.089 431.707 505.401 432.142 505.622 432.483H505.878V422.818H508.895V449H505.98V445.983H505.622C505.401 446.341 505.085 446.793 504.676 447.338C504.267 447.875 503.683 448.357 502.925 448.783C502.166 449.2 501.156 449.409 499.895 449.409ZM500.304 446.699C501.514 446.699 502.537 446.384 503.372 445.753C504.207 445.114 504.842 444.232 505.277 443.107C505.712 441.973 505.929 440.665 505.929 439.182C505.929 437.716 505.716 436.433 505.29 435.334C504.864 434.226 504.233 433.365 503.398 432.751C502.563 432.129 501.531 431.818 500.304 431.818C499.026 431.818 497.96 432.146 497.108 432.803C496.264 433.45 495.629 434.332 495.203 435.449C494.786 436.557 494.577 437.801 494.577 439.182C494.577 440.58 494.79 441.849 495.216 442.991C495.651 444.125 496.29 445.028 497.134 445.702C497.986 446.366 499.043 446.699 500.304 446.699Z" fill="black"/>
<rect x="117.5" y="167.5" width="171" height="152" fill="#DFDFDF" stroke="black"/>
<path d="M123.176 257.409C121.54 257.409 120.095 256.996 118.842 256.169C117.589 255.334 116.609 254.158 115.902 252.641C115.195 251.115 114.841 249.312 114.841 247.233C114.841 245.17 115.195 243.381 115.902 241.864C116.609 240.347 117.594 239.175 118.855 238.348C120.116 237.521 121.574 237.108 123.227 237.108C124.506 237.108 125.516 237.321 126.257 237.747C127.007 238.165 127.578 238.642 127.97 239.179C128.371 239.707 128.682 240.142 128.903 240.483H129.159V230.818H132.176V257H129.261V253.983H128.903C128.682 254.341 128.366 254.793 127.957 255.338C127.548 255.875 126.964 256.357 126.206 256.783C125.447 257.2 124.438 257.409 123.176 257.409ZM123.585 254.699C124.795 254.699 125.818 254.384 126.653 253.753C127.489 253.114 128.124 252.232 128.558 251.107C128.993 249.973 129.21 248.665 129.21 247.182C129.21 245.716 128.997 244.433 128.571 243.334C128.145 242.226 127.514 241.365 126.679 240.751C125.844 240.129 124.813 239.818 123.585 239.818C122.307 239.818 121.241 240.146 120.389 240.803C119.545 241.45 118.911 242.332 118.484 243.449C118.067 244.557 117.858 245.801 117.858 247.182C117.858 248.58 118.071 249.849 118.497 250.991C118.932 252.125 119.571 253.028 120.415 253.702C121.267 254.366 122.324 254.699 123.585 254.699ZM138.121 257V237.364H141.036V240.33H141.24C141.598 239.358 142.246 238.57 143.183 237.964C144.121 237.359 145.178 237.057 146.354 237.057C146.575 237.057 146.852 237.061 147.185 237.07C147.517 237.078 147.768 237.091 147.939 237.108V240.176C147.837 240.151 147.602 240.112 147.236 240.061C146.878 240.001 146.499 239.972 146.098 239.972C145.143 239.972 144.291 240.172 143.541 240.572C142.8 240.964 142.212 241.51 141.777 242.209C141.351 242.899 141.138 243.687 141.138 244.574V257H138.121ZM151.515 257V237.364H154.532V257H151.515ZM153.049 234.091C152.461 234.091 151.954 233.891 151.528 233.49C151.11 233.089 150.902 232.608 150.902 232.045C150.902 231.483 151.11 231.001 151.528 230.601C151.954 230.2 152.461 230 153.049 230C153.637 230 154.14 230.2 154.558 230.601C154.984 231.001 155.197 231.483 155.197 232.045C155.197 232.608 154.984 233.089 154.558 233.49C154.14 233.891 153.637 234.091 153.049 234.091ZM176.115 237.364L168.854 257H165.786L158.524 237.364H161.797L167.217 253.011H167.422L172.842 237.364H176.115ZM187.627 257.409C185.735 257.409 184.103 256.991 182.731 256.156C181.367 255.312 180.315 254.136 179.573 252.628C178.84 251.111 178.474 249.347 178.474 247.335C178.474 245.324 178.84 243.551 179.573 242.017C180.315 240.474 181.346 239.273 182.667 238.412C183.996 237.543 185.548 237.108 187.32 237.108C188.343 237.108 189.353 237.278 190.35 237.619C191.347 237.96 192.255 238.514 193.073 239.281C193.891 240.04 194.543 241.045 195.029 242.298C195.515 243.551 195.758 245.094 195.758 246.926V248.205H180.621V245.597H192.69C192.69 244.489 192.468 243.5 192.025 242.631C191.59 241.761 190.968 241.075 190.158 240.572C189.357 240.07 188.411 239.818 187.32 239.818C186.119 239.818 185.079 240.116 184.201 240.713C183.332 241.301 182.663 242.068 182.194 243.014C181.725 243.96 181.491 244.974 181.491 246.057V247.795C181.491 249.278 181.746 250.536 182.258 251.567C182.778 252.589 183.498 253.369 184.418 253.906C185.339 254.435 186.408 254.699 187.627 254.699C188.42 254.699 189.136 254.588 189.775 254.366C190.423 254.136 190.981 253.795 191.45 253.344C191.918 252.884 192.281 252.312 192.536 251.631L195.451 252.449C195.144 253.438 194.629 254.307 193.904 255.057C193.18 255.798 192.285 256.378 191.219 256.795C190.154 257.205 188.957 257.409 187.627 257.409ZM200.347 257V237.364H203.262V240.33H203.467C203.825 239.358 204.472 238.57 205.41 237.964C206.347 237.359 207.404 237.057 208.58 237.057C208.802 237.057 209.079 237.061 209.411 237.07C209.744 237.078 209.995 237.091 210.165 237.108V240.176C210.063 240.151 209.829 240.112 209.462 240.061C209.104 240.001 208.725 239.972 208.325 239.972C207.37 239.972 206.518 240.172 205.768 240.572C205.026 240.964 204.438 241.51 204.004 242.209C203.577 242.899 203.364 243.687 203.364 244.574V257H200.347ZM235.219 239H232.049C231.861 238.088 231.533 237.287 231.064 236.597C230.604 235.906 230.042 235.327 229.377 234.858C228.721 234.381 227.992 234.023 227.191 233.784C226.39 233.545 225.554 233.426 224.685 233.426C223.1 233.426 221.664 233.827 220.377 234.628C219.098 235.429 218.08 236.609 217.321 238.169C216.571 239.729 216.196 241.642 216.196 243.909C216.196 246.176 216.571 248.089 217.321 249.649C218.08 251.209 219.098 252.389 220.377 253.19C221.664 253.991 223.1 254.392 224.685 254.392C225.554 254.392 226.39 254.273 227.191 254.034C227.992 253.795 228.721 253.442 229.377 252.973C230.042 252.496 230.604 251.912 231.064 251.222C231.533 250.523 231.861 249.722 232.049 248.818H235.219C234.98 250.156 234.546 251.354 233.915 252.411C233.284 253.467 232.5 254.366 231.563 255.108C230.625 255.841 229.573 256.399 228.405 256.783C227.246 257.166 226.006 257.358 224.685 257.358C222.452 257.358 220.466 256.812 218.728 255.722C216.989 254.631 215.621 253.08 214.624 251.068C213.627 249.057 213.128 246.67 213.128 243.909C213.128 241.148 213.627 238.761 214.624 236.75C215.621 234.739 216.989 233.188 218.728 232.097C220.466 231.006 222.452 230.46 224.685 230.46C226.006 230.46 227.246 230.652 228.405 231.036C229.573 231.419 230.625 231.982 231.563 232.723C232.5 233.456 233.284 234.351 233.915 235.408C234.546 236.456 234.98 237.653 235.219 239ZM245.712 257.46C244.467 257.46 243.338 257.226 242.324 256.757C241.31 256.28 240.504 255.594 239.908 254.699C239.311 253.795 239.013 252.705 239.013 251.426C239.013 250.301 239.234 249.389 239.678 248.69C240.121 247.983 240.713 247.429 241.455 247.028C242.196 246.628 243.014 246.33 243.909 246.134C244.813 245.929 245.72 245.767 246.632 245.648C247.825 245.494 248.793 245.379 249.534 245.303C250.284 245.217 250.83 245.077 251.17 244.881C251.52 244.685 251.695 244.344 251.695 243.858V243.756C251.695 242.494 251.349 241.514 250.659 240.815C249.977 240.116 248.942 239.767 247.553 239.767C246.112 239.767 244.983 240.082 244.165 240.713C243.347 241.344 242.771 242.017 242.439 242.733L239.575 241.71C240.087 240.517 240.768 239.588 241.621 238.923C242.482 238.25 243.419 237.781 244.433 237.517C245.456 237.244 246.462 237.108 247.45 237.108C248.081 237.108 248.805 237.185 249.624 237.338C250.45 237.483 251.247 237.786 252.014 238.246C252.79 238.706 253.433 239.401 253.945 240.33C254.456 241.259 254.712 242.503 254.712 244.062V257H251.695V254.341H251.541C251.337 254.767 250.996 255.223 250.518 255.709C250.041 256.195 249.406 256.608 248.614 256.949C247.821 257.29 246.854 257.46 245.712 257.46ZM246.172 254.75C247.365 254.75 248.371 254.516 249.189 254.047C250.016 253.578 250.638 252.973 251.055 252.232C251.482 251.49 251.695 250.71 251.695 249.892V247.131C251.567 247.284 251.286 247.425 250.851 247.553C250.425 247.672 249.93 247.778 249.368 247.872C248.814 247.957 248.273 248.034 247.744 248.102C247.224 248.162 246.803 248.213 246.479 248.256C245.695 248.358 244.962 248.524 244.28 248.754C243.607 248.976 243.061 249.312 242.643 249.764C242.234 250.207 242.03 250.812 242.03 251.58C242.03 252.628 242.418 253.42 243.193 253.957C243.977 254.486 244.97 254.75 246.172 254.75ZM260.218 257V237.364H263.133V240.33H263.338C263.696 239.358 264.343 238.57 265.281 237.964C266.218 237.359 267.275 237.057 268.451 237.057C268.673 237.057 268.95 237.061 269.282 237.07C269.615 237.078 269.866 237.091 270.037 237.108V240.176C269.934 240.151 269.7 240.112 269.333 240.061C268.975 240.001 268.596 239.972 268.196 239.972C267.241 239.972 266.389 240.172 265.639 240.572C264.897 240.964 264.309 241.51 263.875 242.209C263.449 242.899 263.235 243.687 263.235 244.574V257H260.218ZM280.43 257.409C278.794 257.409 277.349 256.996 276.096 256.169C274.843 255.334 273.863 254.158 273.156 252.641C272.449 251.115 272.095 249.312 272.095 247.233C272.095 245.17 272.449 243.381 273.156 241.864C273.863 240.347 274.848 239.175 276.109 238.348C277.37 237.521 278.828 237.108 280.481 237.108C281.76 237.108 282.77 237.321 283.511 237.747C284.261 238.165 284.832 238.642 285.224 239.179C285.625 239.707 285.936 240.142 286.157 240.483H286.413V230.818H289.43V257H286.515V253.983H286.157C285.936 254.341 285.62 254.793 285.211 255.338C284.802 255.875 284.218 256.357 283.46 256.783C282.701 257.2 281.691 257.409 280.43 257.409ZM280.839 254.699C282.049 254.699 283.072 254.384 283.907 253.753C284.743 253.114 285.377 252.232 285.812 251.107C286.247 249.973 286.464 248.665 286.464 247.182C286.464 245.716 286.251 244.433 285.825 243.334C285.399 242.226 284.768 241.365 283.933 240.751C283.098 240.129 282.066 239.818 280.839 239.818C279.561 239.818 278.495 240.146 277.643 240.803C276.799 241.45 276.164 242.332 275.738 243.449C275.321 244.557 275.112 245.801 275.112 247.182C275.112 248.58 275.325 249.849 275.751 250.991C276.186 252.125 276.825 253.028 277.669 253.702C278.521 254.366 279.578 254.699 280.839 254.699Z" fill="black"/>
<rect x="531.5" y="167.5" width="171" height="152" fill="#DFDFDF" stroke="black"/>
<path d="M537.176 257.409C535.54 257.409 534.095 256.996 532.842 256.169C531.589 255.334 530.609 254.158 529.902 252.641C529.195 251.115 528.841 249.312 528.841 247.233C528.841 245.17 529.195 243.381 529.902 241.864C530.609 240.347 531.594 239.175 532.855 238.348C534.116 237.521 535.574 237.108 537.227 237.108C538.506 237.108 539.516 237.321 540.257 237.747C541.007 238.165 541.578 238.642 541.97 239.179C542.371 239.707 542.682 240.142 542.903 240.483H543.159V230.818H546.176V257H543.261V253.983H542.903C542.682 254.341 542.366 254.793 541.957 255.338C541.548 255.875 540.964 256.357 540.206 256.783C539.447 257.2 538.438 257.409 537.176 257.409ZM537.585 254.699C538.795 254.699 539.818 254.384 540.653 253.753C541.489 253.114 542.124 252.232 542.558 251.107C542.993 249.973 543.21 248.665 543.21 247.182C543.21 245.716 542.997 244.433 542.571 243.334C542.145 242.226 541.514 241.365 540.679 240.751C539.844 240.129 538.813 239.818 537.585 239.818C536.307 239.818 535.241 240.146 534.389 240.803C533.545 241.45 532.911 242.332 532.484 243.449C532.067 244.557 531.858 245.801 531.858 247.182C531.858 248.58 532.071 249.849 532.497 250.991C532.932 252.125 533.571 253.028 534.415 253.702C535.267 254.366 536.324 254.699 537.585 254.699ZM552.121 257V237.364H555.036V240.33H555.24C555.598 239.358 556.246 238.57 557.183 237.964C558.121 237.359 559.178 237.057 560.354 237.057C560.575 237.057 560.852 237.061 561.185 237.07C561.517 237.078 561.768 237.091 561.939 237.108V240.176C561.837 240.151 561.602 240.112 561.236 240.061C560.878 240.001 560.499 239.972 560.098 239.972C559.143 239.972 558.291 240.172 557.541 240.572C556.8 240.964 556.212 241.51 555.777 242.209C555.351 242.899 555.138 243.687 555.138 244.574V257H552.121ZM565.515 257V237.364H568.532V257H565.515ZM567.049 234.091C566.461 234.091 565.954 233.891 565.528 233.49C565.11 233.089 564.902 232.608 564.902 232.045C564.902 231.483 565.11 231.001 565.528 230.601C565.954 230.2 566.461 230 567.049 230C567.637 230 568.14 230.2 568.558 230.601C568.984 231.001 569.197 231.483 569.197 232.045C569.197 232.608 568.984 233.089 568.558 233.49C568.14 233.891 567.637 234.091 567.049 234.091ZM590.115 237.364L582.854 257H579.786L572.524 237.364H575.797L581.217 253.011H581.422L586.842 237.364H590.115ZM601.627 257.409C599.735 257.409 598.103 256.991 596.731 256.156C595.367 255.312 594.315 254.136 593.573 252.628C592.84 251.111 592.474 249.347 592.474 247.335C592.474 245.324 592.84 243.551 593.573 242.017C594.315 240.474 595.346 239.273 596.667 238.412C597.996 237.543 599.548 237.108 601.32 237.108C602.343 237.108 603.353 237.278 604.35 237.619C605.347 237.96 606.255 238.514 607.073 239.281C607.891 240.04 608.543 241.045 609.029 242.298C609.515 243.551 609.758 245.094 609.758 246.926V248.205H594.621V245.597H606.69C606.69 244.489 606.468 243.5 606.025 242.631C605.59 241.761 604.968 241.075 604.158 240.572C603.357 240.07 602.411 239.818 601.32 239.818C600.119 239.818 599.079 240.116 598.201 240.713C597.332 241.301 596.663 242.068 596.194 243.014C595.725 243.96 595.491 244.974 595.491 246.057V247.795C595.491 249.278 595.746 250.536 596.258 251.567C596.778 252.589 597.498 253.369 598.418 253.906C599.339 254.435 600.408 254.699 601.627 254.699C602.42 254.699 603.136 254.588 603.775 254.366C604.423 254.136 604.981 253.795 605.45 253.344C605.918 252.884 606.281 252.312 606.536 251.631L609.451 252.449C609.144 253.438 608.629 254.307 607.904 255.057C607.18 255.798 606.285 256.378 605.219 256.795C604.154 257.205 602.957 257.409 601.627 257.409ZM614.347 257V237.364H617.262V240.33H617.467C617.825 239.358 618.472 238.57 619.41 237.964C620.347 237.359 621.404 237.057 622.58 237.057C622.802 237.057 623.079 237.061 623.411 237.07C623.744 237.078 623.995 237.091 624.165 237.108V240.176C624.063 240.151 623.829 240.112 623.462 240.061C623.104 240.001 622.725 239.972 622.325 239.972C621.37 239.972 620.518 240.172 619.768 240.572C619.026 240.964 618.438 241.51 618.004 242.209C617.577 242.899 617.364 243.687 617.364 244.574V257H614.347ZM649.219 239H646.049C645.861 238.088 645.533 237.287 645.064 236.597C644.604 235.906 644.042 235.327 643.377 234.858C642.721 234.381 641.992 234.023 641.191 233.784C640.39 233.545 639.554 233.426 638.685 233.426C637.1 233.426 635.664 233.827 634.377 234.628C633.098 235.429 632.08 236.609 631.321 238.169C630.571 239.729 630.196 241.642 630.196 243.909C630.196 246.176 630.571 248.089 631.321 249.649C632.08 251.209 633.098 252.389 634.377 253.19C635.664 253.991 637.1 254.392 638.685 254.392C639.554 254.392 640.39 254.273 641.191 254.034C641.992 253.795 642.721 253.442 643.377 252.973C644.042 252.496 644.604 251.912 645.064 251.222C645.533 250.523 645.861 249.722 646.049 248.818H649.219C648.98 250.156 648.546 251.354 647.915 252.411C647.284 253.467 646.5 254.366 645.563 255.108C644.625 255.841 643.573 256.399 642.405 256.783C641.246 257.166 640.006 257.358 638.685 257.358C636.452 257.358 634.466 256.812 632.728 255.722C630.989 254.631 629.621 253.08 628.624 251.068C627.627 249.057 627.128 246.67 627.128 243.909C627.128 241.148 627.627 238.761 628.624 236.75C629.621 234.739 630.989 233.188 632.728 232.097C634.466 231.006 636.452 230.46 638.685 230.46C640.006 230.46 641.246 230.652 642.405 231.036C643.573 231.419 644.625 231.982 645.563 232.723C646.5 233.456 647.284 234.351 647.915 235.408C648.546 236.456 648.98 237.653 649.219 239ZM659.712 257.46C658.467 257.46 657.338 257.226 656.324 256.757C655.31 256.28 654.504 255.594 653.908 254.699C653.311 253.795 653.013 252.705 653.013 251.426C653.013 250.301 653.234 249.389 653.678 248.69C654.121 247.983 654.713 247.429 655.455 247.028C656.196 246.628 657.014 246.33 657.909 246.134C658.813 245.929 659.72 245.767 660.632 245.648C661.825 245.494 662.793 245.379 663.534 245.303C664.284 245.217 664.83 245.077 665.17 244.881C665.52 244.685 665.695 244.344 665.695 243.858V243.756C665.695 242.494 665.349 241.514 664.659 240.815C663.977 240.116 662.942 239.767 661.553 239.767C660.112 239.767 658.983 240.082 658.165 240.713C657.347 241.344 656.771 242.017 656.439 242.733L653.575 241.71C654.087 240.517 654.768 239.588 655.621 238.923C656.482 238.25 657.419 237.781 658.433 237.517C659.456 237.244 660.462 237.108 661.45 237.108C662.081 237.108 662.805 237.185 663.624 237.338C664.45 237.483 665.247 237.786 666.014 238.246C666.79 238.706 667.433 239.401 667.945 240.33C668.456 241.259 668.712 242.503 668.712 244.062V257H665.695V254.341H665.541C665.337 254.767 664.996 255.223 664.518 255.709C664.041 256.195 663.406 256.608 662.614 256.949C661.821 257.29 660.854 257.46 659.712 257.46ZM660.172 254.75C661.365 254.75 662.371 254.516 663.189 254.047C664.016 253.578 664.638 252.973 665.055 252.232C665.482 251.49 665.695 250.71 665.695 249.892V247.131C665.567 247.284 665.286 247.425 664.851 247.553C664.425 247.672 663.93 247.778 663.368 247.872C662.814 247.957 662.273 248.034 661.744 248.102C661.224 248.162 660.803 248.213 660.479 248.256C659.695 248.358 658.962 248.524 658.28 248.754C657.607 248.976 657.061 249.312 656.643 249.764C656.234 250.207 656.03 250.812 656.03 251.58C656.03 252.628 656.418 253.42 657.193 253.957C657.977 254.486 658.97 254.75 660.172 254.75ZM674.218 257V237.364H677.133V240.33H677.338C677.696 239.358 678.343 238.57 679.281 237.964C680.218 237.359 681.275 237.057 682.451 237.057C682.673 237.057 682.95 237.061 683.282 237.07C683.615 237.078 683.866 237.091 684.037 237.108V240.176C683.934 240.151 683.7 240.112 683.333 240.061C682.975 240.001 682.596 239.972 682.196 239.972C681.241 239.972 680.389 240.172 679.639 240.572C678.897 240.964 678.309 241.51 677.875 242.209C677.449 242.899 677.235 243.687 677.235 244.574V257H674.218ZM694.43 257.409C692.794 257.409 691.349 256.996 690.096 256.169C688.843 255.334 687.863 254.158 687.156 252.641C686.449 251.115 686.095 249.312 686.095 247.233C686.095 245.17 686.449 243.381 687.156 241.864C687.863 240.347 688.848 239.175 690.109 238.348C691.37 237.521 692.828 237.108 694.481 237.108C695.76 237.108 696.77 237.321 697.511 237.747C698.261 238.165 698.832 238.642 699.224 239.179C699.625 239.707 699.936 240.142 700.157 240.483H700.413V230.818H703.43V257H700.515V253.983H700.157C699.936 254.341 699.62 254.793 699.211 255.338C698.802 255.875 698.218 256.357 697.46 256.783C696.701 257.2 695.691 257.409 694.43 257.409ZM694.839 254.699C696.049 254.699 697.072 254.384 697.907 253.753C698.743 253.114 699.377 252.232 699.812 251.107C700.247 249.973 700.464 248.665 700.464 247.182C700.464 245.716 700.251 244.433 699.825 243.334C699.399 242.226 698.768 241.365 697.933 240.751C697.098 240.129 696.066 239.818 694.839 239.818C693.561 239.818 692.495 240.146 691.643 240.803C690.799 241.45 690.164 242.332 689.738 243.449C689.321 244.557 689.112 245.801 689.112 247.182C689.112 248.58 689.325 249.849 689.751 250.991C690.186 252.125 690.825 253.028 691.669 253.702C692.521 254.366 693.578 254.699 694.839 254.699Z" fill="black"/>
<rect x="326.5" y="167.5" width="171" height="152" fill="#DFDFDF" stroke="black"/>
<path d="M332.176 257.409C330.54 257.409 329.095 256.996 327.842 256.169C326.589 255.334 325.609 254.158 324.902 252.641C324.195 251.115 323.841 249.312 323.841 247.233C323.841 245.17 324.195 243.381 324.902 241.864C325.609 240.347 326.594 239.175 327.855 238.348C329.116 237.521 330.574 237.108 332.227 237.108C333.506 237.108 334.516 237.321 335.257 237.747C336.007 238.165 336.578 238.642 336.97 239.179C337.371 239.707 337.682 240.142 337.903 240.483H338.159V230.818H341.176V257H338.261V253.983H337.903C337.682 254.341 337.366 254.793 336.957 255.338C336.548 255.875 335.964 256.357 335.206 256.783C334.447 257.2 333.438 257.409 332.176 257.409ZM332.585 254.699C333.795 254.699 334.818 254.384 335.653 253.753C336.489 253.114 337.124 252.232 337.558 251.107C337.993 249.973 338.21 248.665 338.21 247.182C338.21 245.716 337.997 244.433 337.571 243.334C337.145 242.226 336.514 241.365 335.679 240.751C334.844 240.129 333.813 239.818 332.585 239.818C331.307 239.818 330.241 240.146 329.389 240.803C328.545 241.45 327.911 242.332 327.484 243.449C327.067 244.557 326.858 245.801 326.858 247.182C326.858 248.58 327.071 249.849 327.497 250.991C327.932 252.125 328.571 253.028 329.415 253.702C330.267 254.366 331.324 254.699 332.585 254.699ZM347.121 257V237.364H350.036V240.33H350.24C350.598 239.358 351.246 238.57 352.183 237.964C353.121 237.359 354.178 237.057 355.354 237.057C355.575 237.057 355.852 237.061 356.185 237.07C356.517 237.078 356.768 237.091 356.939 237.108V240.176C356.837 240.151 356.602 240.112 356.236 240.061C355.878 240.001 355.499 239.972 355.098 239.972C354.143 239.972 353.291 240.172 352.541 240.572C351.8 240.964 351.212 241.51 350.777 242.209C350.351 242.899 350.138 243.687 350.138 244.574V257H347.121ZM360.515 257V237.364H363.532V257H360.515ZM362.049 234.091C361.461 234.091 360.954 233.891 360.528 233.49C360.11 233.089 359.902 232.608 359.902 232.045C359.902 231.483 360.11 231.001 360.528 230.601C360.954 230.2 361.461 230 362.049 230C362.637 230 363.14 230.2 363.558 230.601C363.984 231.001 364.197 231.483 364.197 232.045C364.197 232.608 363.984 233.089 363.558 233.49C363.14 233.891 362.637 234.091 362.049 234.091ZM385.115 237.364L377.854 257H374.786L367.524 237.364H370.797L376.217 253.011H376.422L381.842 237.364H385.115ZM396.627 257.409C394.735 257.409 393.103 256.991 391.731 256.156C390.367 255.312 389.315 254.136 388.573 252.628C387.84 251.111 387.474 249.347 387.474 247.335C387.474 245.324 387.84 243.551 388.573 242.017C389.315 240.474 390.346 239.273 391.667 238.412C392.996 237.543 394.548 237.108 396.32 237.108C397.343 237.108 398.353 237.278 399.35 237.619C400.347 237.96 401.255 238.514 402.073 239.281C402.891 240.04 403.543 241.045 404.029 242.298C404.515 243.551 404.758 245.094 404.758 246.926V248.205H389.621V245.597H401.69C401.69 244.489 401.468 243.5 401.025 242.631C400.59 241.761 399.968 241.075 399.158 240.572C398.357 240.07 397.411 239.818 396.32 239.818C395.119 239.818 394.079 240.116 393.201 240.713C392.332 241.301 391.663 242.068 391.194 243.014C390.725 243.96 390.491 244.974 390.491 246.057V247.795C390.491 249.278 390.746 250.536 391.258 251.567C391.778 252.589 392.498 253.369 393.418 253.906C394.339 254.435 395.408 254.699 396.627 254.699C397.42 254.699 398.136 254.588 398.775 254.366C399.423 254.136 399.981 253.795 400.45 253.344C400.918 252.884 401.281 252.312 401.536 251.631L404.451 252.449C404.144 253.438 403.629 254.307 402.904 255.057C402.18 255.798 401.285 256.378 400.219 256.795C399.154 257.205 397.957 257.409 396.627 257.409ZM409.347 257V237.364H412.262V240.33H412.467C412.825 239.358 413.472 238.57 414.41 237.964C415.347 237.359 416.404 237.057 417.58 237.057C417.802 237.057 418.079 237.061 418.411 237.07C418.744 237.078 418.995 237.091 419.165 237.108V240.176C419.063 240.151 418.829 240.112 418.462 240.061C418.104 240.001 417.725 239.972 417.325 239.972C416.37 239.972 415.518 240.172 414.768 240.572C414.026 240.964 413.438 241.51 413.004 242.209C412.577 242.899 412.364 243.687 412.364 244.574V257H409.347ZM444.219 239H441.049C440.861 238.088 440.533 237.287 440.064 236.597C439.604 235.906 439.042 235.327 438.377 234.858C437.721 234.381 436.992 234.023 436.191 233.784C435.39 233.545 434.554 233.426 433.685 233.426C432.1 233.426 430.664 233.827 429.377 234.628C428.098 235.429 427.08 236.609 426.321 238.169C425.571 239.729 425.196 241.642 425.196 243.909C425.196 246.176 425.571 248.089 426.321 249.649C427.08 251.209 428.098 252.389 429.377 253.19C430.664 253.991 432.1 254.392 433.685 254.392C434.554 254.392 435.39 254.273 436.191 254.034C436.992 253.795 437.721 253.442 438.377 252.973C439.042 252.496 439.604 251.912 440.064 251.222C440.533 250.523 440.861 249.722 441.049 248.818H444.219C443.98 250.156 443.546 251.354 442.915 252.411C442.284 253.467 441.5 254.366 440.563 255.108C439.625 255.841 438.573 256.399 437.405 256.783C436.246 257.166 435.006 257.358 433.685 257.358C431.452 257.358 429.466 256.812 427.728 255.722C425.989 254.631 424.621 253.08 423.624 251.068C422.627 249.057 422.128 246.67 422.128 243.909C422.128 241.148 422.627 238.761 423.624 236.75C424.621 234.739 425.989 233.188 427.728 232.097C429.466 231.006 431.452 230.46 433.685 230.46C435.006 230.46 436.246 230.652 437.405 231.036C438.573 231.419 439.625 231.982 440.563 232.723C441.5 233.456 442.284 234.351 442.915 235.408C443.546 236.456 443.98 237.653 444.219 239ZM454.712 257.46C453.467 257.46 452.338 257.226 451.324 256.757C450.31 256.28 449.504 255.594 448.908 254.699C448.311 253.795 448.013 252.705 448.013 251.426C448.013 250.301 448.234 249.389 448.678 248.69C449.121 247.983 449.713 247.429 450.455 247.028C451.196 246.628 452.014 246.33 452.909 246.134C453.813 245.929 454.72 245.767 455.632 245.648C456.825 245.494 457.793 245.379 458.534 245.303C459.284 245.217 459.83 245.077 460.17 244.881C460.52 244.685 460.695 244.344 460.695 243.858V243.756C460.695 242.494 460.349 241.514 459.659 240.815C458.977 240.116 457.942 239.767 456.553 239.767C455.112 239.767 453.983 240.082 453.165 240.713C452.347 241.344 451.771 242.017 451.439 242.733L448.575 241.71C449.087 240.517 449.768 239.588 450.621 238.923C451.482 238.25 452.419 237.781 453.433 237.517C454.456 237.244 455.462 237.108 456.45 237.108C457.081 237.108 457.805 237.185 458.624 237.338C459.45 237.483 460.247 237.786 461.014 238.246C461.79 238.706 462.433 239.401 462.945 240.33C463.456 241.259 463.712 242.503 463.712 244.062V257H460.695V254.341H460.541C460.337 254.767 459.996 255.223 459.518 255.709C459.041 256.195 458.406 256.608 457.614 256.949C456.821 257.29 455.854 257.46 454.712 257.46ZM455.172 254.75C456.365 254.75 457.371 254.516 458.189 254.047C459.016 253.578 459.638 252.973 460.055 252.232C460.482 251.49 460.695 250.71 460.695 249.892V247.131C460.567 247.284 460.286 247.425 459.851 247.553C459.425 247.672 458.93 247.778 458.368 247.872C457.814 247.957 457.273 248.034 456.744 248.102C456.224 248.162 455.803 248.213 455.479 248.256C454.695 248.358 453.962 248.524 453.28 248.754C452.607 248.976 452.061 249.312 451.643 249.764C451.234 250.207 451.03 250.812 451.03 251.58C451.03 252.628 451.418 253.42 452.193 253.957C452.977 254.486 453.97 254.75 455.172 254.75ZM469.218 257V237.364H472.133V240.33H472.338C472.696 239.358 473.343 238.57 474.281 237.964C475.218 237.359 476.275 237.057 477.451 237.057C477.673 237.057 477.95 237.061 478.282 237.07C478.615 237.078 478.866 237.091 479.037 237.108V240.176C478.934 240.151 478.7 240.112 478.333 240.061C477.975 240.001 477.596 239.972 477.196 239.972C476.241 239.972 475.389 240.172 474.639 240.572C473.897 240.964 473.309 241.51 472.875 242.209C472.449 242.899 472.235 243.687 472.235 244.574V257H469.218ZM489.43 257.409C487.794 257.409 486.349 256.996 485.096 256.169C483.843 255.334 482.863 254.158 482.156 252.641C481.449 251.115 481.095 249.312 481.095 247.233C481.095 245.17 481.449 243.381 482.156 241.864C482.863 240.347 483.848 239.175 485.109 238.348C486.37 237.521 487.828 237.108 489.481 237.108C490.76 237.108 491.77 237.321 492.511 237.747C493.261 238.165 493.832 238.642 494.224 239.179C494.625 239.707 494.936 240.142 495.157 240.483H495.413V230.818H498.43V257H495.515V253.983H495.157C494.936 254.341 494.62 254.793 494.211 255.338C493.802 255.875 493.218 256.357 492.46 256.783C491.701 257.2 490.691 257.409 489.43 257.409ZM489.839 254.699C491.049 254.699 492.072 254.384 492.907 253.753C493.743 253.114 494.377 252.232 494.812 251.107C495.247 249.973 495.464 248.665 495.464 247.182C495.464 245.716 495.251 244.433 494.825 243.334C494.399 242.226 493.768 241.365 492.933 240.751C492.098 240.129 491.066 239.818 489.839 239.818C488.561 239.818 487.495 240.146 486.643 240.803C485.799 241.45 485.164 242.332 484.738 243.449C484.321 244.557 484.112 245.801 484.112 247.182C484.112 248.58 484.325 249.849 484.751 250.991C485.186 252.125 485.825 253.028 486.669 253.702C487.521 254.366 488.578 254.699 489.839 254.699Z" fill="black"/>
<rect x="235" y="52" width="107" height="36" fill="#D9D9D9"/>
<rect x="438" y="52" width="107" height="36" fill="#D9D9D9"/>
<path d="M647.778 71.1875V83H644.761V63.3636H647.676V66.4318H647.932C648.392 65.4347 649.091 64.6335 650.028 64.0284C650.966 63.4148 652.176 63.108 653.659 63.108C654.989 63.108 656.152 63.3807 657.149 63.9261C658.146 64.4631 658.922 65.2812 659.476 66.3807C660.03 67.4716 660.307 68.8523 660.307 70.5227V83H657.29V70.7273C657.29 69.1847 656.889 67.983 656.088 67.1222C655.287 66.2528 654.188 65.8182 652.79 65.8182C651.827 65.8182 650.966 66.027 650.207 66.4446C649.457 66.8622 648.865 67.4716 648.43 68.2727C647.996 69.0739 647.778 70.0455 647.778 71.1875ZM671.598 83.4602C670.354 83.4602 669.225 83.2259 668.211 82.7571C667.196 82.2798 666.391 81.5938 665.794 80.6989C665.198 79.7955 664.9 78.7045 664.9 77.4261C664.9 76.3011 665.121 75.3892 665.564 74.6903C666.007 73.983 666.6 73.429 667.341 73.0284C668.083 72.6278 668.901 72.3295 669.796 72.1335C670.699 71.929 671.607 71.767 672.519 71.6477C673.712 71.4943 674.679 71.3793 675.421 71.3026C676.171 71.2173 676.716 71.0767 677.057 70.8807C677.407 70.6847 677.581 70.3437 677.581 69.858V69.7557C677.581 68.4943 677.236 67.5142 676.546 66.8153C675.864 66.1165 674.828 65.767 673.439 65.767C671.999 65.767 670.87 66.0824 670.051 66.7131C669.233 67.3437 668.658 68.017 668.326 68.733L665.462 67.7102C665.973 66.517 666.655 65.5881 667.507 64.9233C668.368 64.25 669.306 63.7812 670.32 63.517C671.343 63.2443 672.348 63.108 673.337 63.108C673.968 63.108 674.692 63.1847 675.51 63.3381C676.337 63.483 677.134 63.7855 677.901 64.2457C678.676 64.706 679.32 65.4006 679.831 66.3295C680.343 67.2585 680.598 68.5028 680.598 70.0625V83H677.581V80.3409H677.428C677.223 80.767 676.882 81.223 676.405 81.7088C675.928 82.1946 675.293 82.608 674.5 82.9489C673.708 83.2898 672.74 83.4602 671.598 83.4602ZM672.059 80.75C673.252 80.75 674.257 80.5156 675.076 80.0469C675.902 79.5781 676.525 78.973 676.942 78.2315C677.368 77.4901 677.581 76.7102 677.581 75.892V73.1307C677.453 73.2841 677.172 73.4247 676.738 73.5526C676.311 73.6719 675.817 73.7784 675.255 73.8722C674.701 73.9574 674.159 74.0341 673.631 74.1023C673.111 74.1619 672.689 74.2131 672.365 74.2557C671.581 74.358 670.848 74.5241 670.167 74.7543C669.493 74.9759 668.948 75.3125 668.53 75.7642C668.121 76.2074 667.917 76.8125 667.917 77.5795C667.917 78.6278 668.304 79.4205 669.08 79.9574C669.864 80.4858 670.857 80.75 672.059 80.75ZM701.459 63.3636L694.197 83H691.129L683.868 63.3636H687.141L692.561 79.0114H692.766L698.186 63.3636H701.459ZM705.85 83V56.8182H715.004C716.827 56.8182 718.332 57.1335 719.516 57.7642C720.701 58.3864 721.583 59.2259 722.163 60.2827C722.742 61.331 723.032 62.4943 723.032 63.7727C723.032 64.8977 722.832 65.8267 722.431 66.5597C722.039 67.2926 721.519 67.8722 720.871 68.2983C720.232 68.7244 719.538 69.0398 718.788 69.2443V69.5C719.589 69.5511 720.394 69.8324 721.204 70.3438C722.013 70.8551 722.691 71.5881 723.237 72.5426C723.782 73.4972 724.055 74.6648 724.055 76.0455C724.055 77.358 723.756 78.5384 723.16 79.5866C722.563 80.6349 721.621 81.4659 720.335 82.0795C719.048 82.6932 717.373 83 715.31 83H705.85ZM709.021 80.1875H715.31C717.381 80.1875 718.852 79.7869 719.721 78.9858C720.599 78.1761 721.038 77.196 721.038 76.0455C721.038 75.1591 720.812 74.3409 720.36 73.5909C719.908 72.8324 719.265 72.2273 718.43 71.7756C717.594 71.3153 716.606 71.0852 715.464 71.0852H709.021V80.1875ZM709.021 68.3239H714.901C715.856 68.3239 716.717 68.1364 717.484 67.7614C718.259 67.3864 718.873 66.858 719.325 66.1761C719.785 65.4943 720.015 64.6932 720.015 63.7727C720.015 62.6222 719.614 61.6463 718.813 60.8452C718.012 60.0355 716.742 59.6307 715.004 59.6307H709.021V68.3239ZM734.634 83.4602C733.389 83.4602 732.26 83.2259 731.246 82.7571C730.232 82.2798 729.426 81.5938 728.83 80.6989C728.233 79.7955 727.935 78.7045 727.935 77.4261C727.935 76.3011 728.156 75.3892 728.599 74.6903C729.043 73.983 729.635 73.429 730.376 73.0284C731.118 72.6278 731.936 72.3295 732.831 72.1335C733.734 71.929 734.642 71.767 735.554 71.6477C736.747 71.4943 737.714 71.3793 738.456 71.3026C739.206 71.2173 739.751 71.0767 740.092 70.8807C740.442 70.6847 740.616 70.3437 740.616 69.858V69.7557C740.616 68.4943 740.271 67.5142 739.581 66.8153C738.899 66.1165 737.864 65.767 736.474 65.767C735.034 65.767 733.905 66.0824 733.087 66.7131C732.268 67.3437 731.693 68.017 731.361 68.733L728.497 67.7102C729.009 66.517 729.69 65.5881 730.543 64.9233C731.403 64.25 732.341 63.7812 733.355 63.517C734.378 63.2443 735.384 63.108 736.372 63.108C737.003 63.108 737.727 63.1847 738.545 63.3381C739.372 63.483 740.169 63.7855 740.936 64.2457C741.712 64.706 742.355 65.4006 742.866 66.3295C743.378 67.2585 743.634 68.5028 743.634 70.0625V83H740.616V80.3409H740.463C740.259 80.767 739.918 81.223 739.44 81.7088C738.963 82.1946 738.328 82.608 737.536 82.9489C736.743 83.2898 735.776 83.4602 734.634 83.4602ZM735.094 80.75C736.287 80.75 737.293 80.5156 738.111 80.0469C738.938 79.5781 739.56 78.973 739.977 78.2315C740.403 77.4901 740.616 76.7102 740.616 75.892V73.1307C740.489 73.2841 740.207 73.4247 739.773 73.5526C739.347 73.6719 738.852 73.7784 738.29 73.8722C737.736 73.9574 737.195 74.0341 736.666 74.1023C736.146 74.1619 735.724 74.2131 735.401 74.2557C734.616 74.358 733.884 74.5241 733.202 74.7543C732.528 74.9759 731.983 75.3125 731.565 75.7642C731.156 76.2074 730.952 76.8125 730.952 77.5795C730.952 78.6278 731.339 79.4205 732.115 79.9574C732.899 80.4858 733.892 80.75 735.094 80.75ZM749.14 83V63.3636H752.055V66.3295H752.26C752.618 65.358 753.265 64.5696 754.203 63.9645C755.14 63.3594 756.197 63.0568 757.373 63.0568C757.595 63.0568 757.872 63.0611 758.204 63.0696C758.537 63.0781 758.788 63.0909 758.958 63.108V66.1761C758.856 66.1506 758.622 66.1122 758.255 66.0611C757.897 66.0014 757.518 65.9716 757.118 65.9716C756.163 65.9716 755.311 66.1719 754.561 66.5724C753.819 66.9645 753.231 67.5099 752.797 68.2088C752.37 68.8991 752.157 69.6875 752.157 70.5739V83H749.14Z" fill="black"/>
<path d="M439.17 83V56.8182H442.188V66.483H442.443C442.665 66.142 442.972 65.7074 443.364 65.179C443.764 64.642 444.335 64.1648 445.077 63.7472C445.827 63.321 446.841 63.108 448.119 63.108C449.773 63.108 451.23 63.5213 452.491 64.348C453.753 65.1747 454.737 66.3466 455.445 67.8636C456.152 69.3807 456.506 71.1705 456.506 73.233C456.506 75.3125 456.152 77.1151 455.445 78.6406C454.737 80.1577 453.757 81.3338 452.504 82.169C451.251 82.9957 449.807 83.4091 448.17 83.4091C446.909 83.4091 445.899 83.2003 445.141 82.7827C444.382 82.3565 443.798 81.875 443.389 81.3381C442.98 80.7926 442.665 80.3409 442.443 79.983H442.085V83H439.17ZM442.136 73.1818C442.136 74.6648 442.354 75.973 442.788 77.1065C443.223 78.2315 443.858 79.1136 444.693 79.7528C445.528 80.3835 446.551 80.6989 447.761 80.6989C449.023 80.6989 450.075 80.3665 450.919 79.7017C451.771 79.0284 452.411 78.125 452.837 76.9915C453.271 75.8494 453.489 74.5795 453.489 73.1818C453.489 71.8011 453.276 70.5568 452.849 69.4489C452.432 68.3324 451.797 67.4503 450.945 66.8026C450.101 66.1463 449.04 65.8182 447.761 65.8182C446.534 65.8182 445.503 66.1293 444.668 66.7514C443.832 67.3651 443.202 68.2259 442.776 69.3338C442.349 70.4332 442.136 71.7159 442.136 73.1818ZM473.496 74.9716V63.3636H476.513V83H473.496V79.6761H473.291C472.831 80.6733 472.115 81.5213 471.143 82.2202C470.172 82.9105 468.945 83.2557 467.462 83.2557C466.234 83.2557 465.143 82.9872 464.189 82.4503C463.234 81.9048 462.484 81.0866 461.939 79.9957C461.393 78.8963 461.121 77.5114 461.121 75.8409V63.3636H464.138V75.6364C464.138 77.0682 464.538 78.2102 465.339 79.0625C466.149 79.9148 467.18 80.3409 468.433 80.3409C469.183 80.3409 469.946 80.1491 470.722 79.7656C471.506 79.3821 472.162 78.794 472.69 78.0014C473.227 77.2088 473.496 76.1989 473.496 74.9716ZM490.578 63.3636V65.9205H480.402V63.3636H490.578ZM483.368 58.6591H486.385V77.375C486.385 78.2273 486.509 78.8665 486.756 79.2926C487.012 79.7102 487.336 79.9915 487.728 80.1364C488.128 80.2727 488.55 80.3409 488.993 80.3409C489.326 80.3409 489.598 80.3239 489.811 80.2898C490.025 80.2472 490.195 80.2131 490.323 80.1875L490.936 82.8977C490.732 82.9744 490.446 83.0511 490.08 83.1278C489.713 83.2131 489.249 83.2557 488.686 83.2557C487.834 83.2557 486.999 83.0724 486.181 82.706C485.371 82.3395 484.698 81.7812 484.161 81.0312C483.632 80.2812 483.368 79.3352 483.368 78.1932V58.6591ZM503.657 63.3636V65.9205H493.48V63.3636H503.657ZM496.446 58.6591H499.463V77.375C499.463 78.2273 499.587 78.8665 499.834 79.2926C500.09 79.7102 500.414 79.9915 500.806 80.1364C501.206 80.2727 501.628 80.3409 502.071 80.3409C502.404 80.3409 502.676 80.3239 502.89 80.2898C503.103 80.2472 503.273 80.2131 503.401 80.1875L504.015 82.8977C503.81 82.9744 503.525 83.0511 503.158 83.1278C502.792 83.2131 502.327 83.2557 501.765 83.2557C500.912 83.2557 500.077 83.0724 499.259 82.706C498.449 82.3395 497.776 81.7812 497.239 81.0312C496.711 80.2812 496.446 79.3352 496.446 78.1932V58.6591ZM515.961 83.4091C514.189 83.4091 512.633 82.9872 511.295 82.1435C509.966 81.2997 508.926 80.1193 508.176 78.6023C507.434 77.0852 507.064 75.3125 507.064 73.2841C507.064 71.2386 507.434 69.4531 508.176 67.9276C508.926 66.402 509.966 65.2173 511.295 64.3736C512.633 63.5298 514.189 63.108 515.961 63.108C517.734 63.108 519.285 63.5298 520.615 64.3736C521.953 65.2173 522.993 66.402 523.734 67.9276C524.484 69.4531 524.859 71.2386 524.859 73.2841C524.859 75.3125 524.484 77.0852 523.734 78.6023C522.993 80.1193 521.953 81.2997 520.615 82.1435C519.285 82.9872 517.734 83.4091 515.961 83.4091ZM515.961 80.6989C517.308 80.6989 518.416 80.3537 519.285 79.6634C520.154 78.973 520.798 78.0653 521.216 76.9403C521.633 75.8153 521.842 74.5966 521.842 73.2841C521.842 71.9716 521.633 70.7486 521.216 69.6151C520.798 68.4815 520.154 67.5653 519.285 66.8665C518.416 66.1676 517.308 65.8182 515.961 65.8182C514.615 65.8182 513.507 66.1676 512.637 66.8665C511.768 67.5653 511.125 68.4815 510.707 69.6151C510.289 70.7486 510.081 71.9716 510.081 73.2841C510.081 74.5966 510.289 75.8153 510.707 76.9403C511.125 78.0653 511.768 78.973 512.637 79.6634C513.507 80.3537 514.615 80.6989 515.961 80.6989ZM532.482 71.1875V83H529.464V63.3636H532.379V66.4318H532.635C533.095 65.4347 533.794 64.6335 534.732 64.0284C535.669 63.4148 536.879 63.108 538.362 63.108C539.692 63.108 540.855 63.3807 541.852 63.9261C542.849 64.4631 543.625 65.2812 544.179 66.3807C544.733 67.4716 545.01 68.8523 545.01 70.5227V83H541.993V70.7273C541.993 69.1847 541.592 67.983 540.791 67.1222C539.99 66.2528 538.891 65.8182 537.493 65.8182C536.53 65.8182 535.669 66.027 534.911 66.4446C534.161 66.8622 533.568 67.4716 533.134 68.2727C532.699 69.0739 532.482 70.0455 532.482 71.1875Z" fill="black"/>
<path d="M233.17 83V56.8182H236.188V66.483H236.443C236.665 66.142 236.972 65.7074 237.364 65.179C237.764 64.642 238.335 64.1648 239.077 63.7472C239.827 63.321 240.841 63.108 242.119 63.108C243.773 63.108 245.23 63.5213 246.491 64.348C247.753 65.1747 248.737 66.3466 249.445 67.8636C250.152 69.3807 250.506 71.1705 250.506 73.233C250.506 75.3125 250.152 77.1151 249.445 78.6406C248.737 80.1577 247.757 81.3338 246.504 82.169C245.251 82.9957 243.807 83.4091 242.17 83.4091C240.909 83.4091 239.899 83.2003 239.141 82.7827C238.382 82.3565 237.798 81.875 237.389 81.3381C236.98 80.7926 236.665 80.3409 236.443 79.983H236.085V83H233.17ZM236.136 73.1818C236.136 74.6648 236.354 75.973 236.788 77.1065C237.223 78.2315 237.858 79.1136 238.693 79.7528C239.528 80.3835 240.551 80.6989 241.761 80.6989C243.023 80.6989 244.075 80.3665 244.919 79.7017C245.771 79.0284 246.411 78.125 246.837 76.9915C247.271 75.8494 247.489 74.5795 247.489 73.1818C247.489 71.8011 247.276 70.5568 246.849 69.4489C246.432 68.3324 245.797 67.4503 244.945 66.8026C244.101 66.1463 243.04 65.8182 241.761 65.8182C240.534 65.8182 239.503 66.1293 238.668 66.7514C237.832 67.3651 237.202 68.2259 236.776 69.3338C236.349 70.4332 236.136 71.7159 236.136 73.1818ZM267.496 74.9716V63.3636H270.513V83H267.496V79.6761H267.291C266.831 80.6733 266.115 81.5213 265.143 82.2202C264.172 82.9105 262.945 83.2557 261.462 83.2557C260.234 83.2557 259.143 82.9872 258.189 82.4503C257.234 81.9048 256.484 81.0866 255.939 79.9957C255.393 78.8963 255.121 77.5114 255.121 75.8409V63.3636H258.138V75.6364C258.138 77.0682 258.538 78.2102 259.339 79.0625C260.149 79.9148 261.18 80.3409 262.433 80.3409C263.183 80.3409 263.946 80.1491 264.722 79.7656C265.506 79.3821 266.162 78.794 266.69 78.0014C267.227 77.2088 267.496 76.1989 267.496 74.9716ZM284.578 63.3636V65.9205H274.402V63.3636H284.578ZM277.368 58.6591H280.385V77.375C280.385 78.2273 280.509 78.8665 280.756 79.2926C281.012 79.7102 281.336 79.9915 281.728 80.1364C282.128 80.2727 282.55 80.3409 282.993 80.3409C283.326 80.3409 283.598 80.3239 283.811 80.2898C284.025 80.2472 284.195 80.2131 284.323 80.1875L284.936 82.8977C284.732 82.9744 284.446 83.0511 284.08 83.1278C283.713 83.2131 283.249 83.2557 282.686 83.2557C281.834 83.2557 280.999 83.0724 280.181 82.706C279.371 82.3395 278.698 81.7812 278.161 81.0312C277.632 80.2812 277.368 79.3352 277.368 78.1932V58.6591ZM297.657 63.3636V65.9205H287.48V63.3636H297.657ZM290.446 58.6591H293.463V77.375C293.463 78.2273 293.587 78.8665 293.834 79.2926C294.09 79.7102 294.414 79.9915 294.806 80.1364C295.206 80.2727 295.628 80.3409 296.071 80.3409C296.404 80.3409 296.676 80.3239 296.89 80.2898C297.103 80.2472 297.273 80.2131 297.401 80.1875L298.015 82.8977C297.81 82.9744 297.525 83.0511 297.158 83.1278C296.792 83.2131 296.327 83.2557 295.765 83.2557C294.912 83.2557 294.077 83.0724 293.259 82.706C292.449 82.3395 291.776 81.7812 291.239 81.0312C290.711 80.2812 290.446 79.3352 290.446 78.1932V58.6591ZM309.961 83.4091C308.189 83.4091 306.633 82.9872 305.295 82.1435C303.966 81.2997 302.926 80.1193 302.176 78.6023C301.434 77.0852 301.064 75.3125 301.064 73.2841C301.064 71.2386 301.434 69.4531 302.176 67.9276C302.926 66.402 303.966 65.2173 305.295 64.3736C306.633 63.5298 308.189 63.108 309.961 63.108C311.734 63.108 313.285 63.5298 314.615 64.3736C315.953 65.2173 316.993 66.402 317.734 67.9276C318.484 69.4531 318.859 71.2386 318.859 73.2841C318.859 75.3125 318.484 77.0852 317.734 78.6023C316.993 80.1193 315.953 81.2997 314.615 82.1435C313.285 82.9872 311.734 83.4091 309.961 83.4091ZM309.961 80.6989C311.308 80.6989 312.416 80.3537 313.285 79.6634C314.154 78.973 314.798 78.0653 315.216 76.9403C315.633 75.8153 315.842 74.5966 315.842 73.2841C315.842 71.9716 315.633 70.7486 315.216 69.6151C314.798 68.4815 314.154 67.5653 313.285 66.8665C312.416 66.1676 311.308 65.8182 309.961 65.8182C308.615 65.8182 307.507 66.1676 306.637 66.8665C305.768 67.5653 305.125 68.4815 304.707 69.6151C304.289 70.7486 304.081 71.9716 304.081 73.2841C304.081 74.5966 304.289 75.8153 304.707 76.9403C305.125 78.0653 305.768 78.973 306.637 79.6634C307.507 80.3537 308.615 80.6989 309.961 80.6989ZM326.482 71.1875V83H323.464V63.3636H326.379V66.4318H326.635C327.095 65.4347 327.794 64.6335 328.732 64.0284C329.669 63.4148 330.879 63.108 332.362 63.108C333.692 63.108 334.855 63.3807 335.852 63.9261C336.849 64.4631 337.625 65.2812 338.179 66.3807C338.733 67.4716 339.01 68.8523 339.01 70.5227V83H335.993V70.7273C335.993 69.1847 335.592 67.983 334.791 67.1222C333.99 66.2528 332.891 65.8182 331.493 65.8182C330.53 65.8182 329.669 66.027 328.911 66.4446C328.161 66.8622 327.568 67.4716 327.134 68.2727C326.699 69.0739 326.482 70.0455 326.482 71.1875Z" fill="black"/>
</svg>
