<svg width="907" height="526" viewBox="0 0 907 526" fill="none" xmlns="http://www.w3.org/2000/svg">
<rect width="907" height="526" fill="white"/>
<rect x="44.5" y="36.5" width="818" height="453" fill="#FBFBFB" stroke="black"/>
<rect x="142.5" y="138.5" width="606" height="305" fill="#D9D9D9" stroke="black"/>
<rect x="372" y="215" width="123" height="76" fill="white"/>
<path d="M403.264 263V248.455H413.065V250.99H406.339V254.456H412.561V256.991H406.339V260.464H413.094V263H403.264ZM420.382 263.213C419.265 263.213 418.304 262.976 417.499 262.503C416.699 262.025 416.083 261.362 415.652 260.514C415.226 259.667 415.013 258.691 415.013 257.588C415.013 256.471 415.229 255.491 415.659 254.648C416.095 253.8 416.713 253.14 417.513 252.666C418.313 252.188 419.265 251.949 420.368 251.949C421.32 251.949 422.153 252.122 422.868 252.467C423.583 252.813 424.149 253.298 424.566 253.923C424.982 254.548 425.212 255.282 425.255 256.125H422.4C422.319 255.58 422.106 255.143 421.76 254.811C421.419 254.475 420.972 254.307 420.418 254.307C419.949 254.307 419.54 254.435 419.189 254.69C418.844 254.941 418.574 255.308 418.38 255.791C418.185 256.274 418.088 256.859 418.088 257.545C418.088 258.241 418.183 258.833 418.373 259.321C418.567 259.809 418.839 260.18 419.189 260.436C419.54 260.692 419.949 260.82 420.418 260.82C420.764 260.82 421.074 260.749 421.348 260.607C421.628 260.464 421.857 260.259 422.037 259.989C422.222 259.714 422.343 259.385 422.4 259.001H425.255C425.207 259.835 424.98 260.569 424.573 261.203C424.17 261.833 423.614 262.325 422.904 262.68C422.194 263.036 421.353 263.213 420.382 263.213ZM434.188 258.355V252.091H437.213V263H434.308V261.018H434.195C433.948 261.658 433.539 262.171 432.966 262.56C432.398 262.948 431.704 263.142 430.885 263.142C430.156 263.142 429.514 262.976 428.96 262.645C428.406 262.313 427.973 261.842 427.661 261.232C427.353 260.621 427.196 259.889 427.192 259.037V252.091H430.217V258.497C430.222 259.141 430.395 259.65 430.736 260.024C431.077 260.398 431.534 260.585 432.107 260.585C432.471 260.585 432.812 260.502 433.129 260.337C433.446 260.166 433.702 259.915 433.896 259.584C434.095 259.252 434.192 258.843 434.188 258.355ZM439.633 263V252.091H442.566V253.994H442.68C442.879 253.317 443.213 252.806 443.681 252.46C444.15 252.11 444.69 251.935 445.301 251.935C445.452 251.935 445.616 251.944 445.791 251.963C445.966 251.982 446.12 252.008 446.252 252.041V254.726C446.11 254.683 445.914 254.645 445.663 254.612C445.412 254.579 445.182 254.562 444.974 254.562C444.529 254.562 444.131 254.66 443.781 254.854C443.435 255.043 443.161 255.308 442.957 255.649C442.758 255.99 442.659 256.383 442.659 256.828V263H439.633ZM447.817 263V252.091H450.842V263H447.817ZM449.337 250.685C448.887 250.685 448.501 250.536 448.179 250.237C447.862 249.934 447.703 249.572 447.703 249.151C447.703 248.734 447.862 248.376 448.179 248.078C448.501 247.775 448.887 247.624 449.337 247.624C449.786 247.624 450.17 247.775 450.487 248.078C450.809 248.376 450.97 248.734 450.97 249.151C450.97 249.572 450.809 249.934 450.487 250.237C450.17 250.536 449.786 250.685 449.337 250.685ZM458.238 263.213C457.115 263.213 456.15 262.986 455.34 262.531C454.535 262.072 453.915 261.423 453.479 260.585C453.043 259.742 452.826 258.746 452.826 257.595C452.826 256.473 453.043 255.488 453.479 254.641C453.915 253.793 454.528 253.133 455.319 252.659C456.114 252.186 457.047 251.949 458.117 251.949C458.837 251.949 459.507 252.065 460.127 252.297C460.752 252.524 461.296 252.867 461.76 253.327C462.229 253.786 462.594 254.364 462.854 255.06C463.114 255.751 463.245 256.561 463.245 257.489V258.32H454.033V256.445H460.397C460.397 256.009 460.302 255.623 460.113 255.287C459.923 254.951 459.66 254.688 459.324 254.499C458.993 254.304 458.607 254.207 458.167 254.207C457.707 254.207 457.3 254.314 456.945 254.527C456.595 254.735 456.32 255.017 456.121 255.372C455.922 255.723 455.82 256.113 455.816 256.544V258.327C455.816 258.866 455.915 259.333 456.114 259.726C456.318 260.119 456.604 260.422 456.973 260.635C457.343 260.848 457.781 260.955 458.287 260.955C458.623 260.955 458.931 260.907 459.211 260.812C459.49 260.718 459.729 260.576 459.928 260.386C460.127 260.197 460.278 259.965 460.382 259.69L463.181 259.875C463.039 260.547 462.748 261.134 462.307 261.636C461.872 262.134 461.308 262.522 460.617 262.801C459.93 263.076 459.137 263.213 458.238 263.213Z" fill="black"/>
<rect x="562" y="215" width="123" height="76" fill="white"/>
<path d="M593.264 263V248.455H603.065V250.99H596.339V254.456H602.561V256.991H596.339V260.464H603.094V263H593.264ZM610.382 263.213C609.265 263.213 608.304 262.976 607.499 262.503C606.699 262.025 606.083 261.362 605.652 260.514C605.226 259.667 605.013 258.691 605.013 257.588C605.013 256.471 605.229 255.491 605.659 254.648C606.095 253.8 606.713 253.14 607.513 252.666C608.313 252.188 609.265 251.949 610.368 251.949C611.32 251.949 612.153 252.122 612.868 252.467C613.583 252.813 614.149 253.298 614.566 253.923C614.982 254.548 615.212 255.282 615.255 256.125H612.4C612.319 255.58 612.106 255.143 611.76 254.811C611.419 254.475 610.972 254.307 610.418 254.307C609.949 254.307 609.54 254.435 609.189 254.69C608.844 254.941 608.574 255.308 608.38 255.791C608.185 256.274 608.088 256.859 608.088 257.545C608.088 258.241 608.183 258.833 608.373 259.321C608.567 259.809 608.839 260.18 609.189 260.436C609.54 260.692 609.949 260.82 610.418 260.82C610.764 260.82 611.074 260.749 611.348 260.607C611.628 260.464 611.857 260.259 612.037 259.989C612.222 259.714 612.343 259.385 612.4 259.001H615.255C615.207 259.835 614.98 260.569 614.573 261.203C614.17 261.833 613.614 262.325 612.904 262.68C612.194 263.036 611.353 263.213 610.382 263.213ZM624.188 258.355V252.091H627.213V263H624.308V261.018H624.195C623.948 261.658 623.539 262.171 622.966 262.56C622.398 262.948 621.704 263.142 620.885 263.142C620.156 263.142 619.514 262.976 618.96 262.645C618.406 262.313 617.973 261.842 617.661 261.232C617.353 260.621 617.196 259.889 617.192 259.037V252.091H620.217V258.497C620.222 259.141 620.395 259.65 620.736 260.024C621.077 260.398 621.534 260.585 622.107 260.585C622.471 260.585 622.812 260.502 623.129 260.337C623.446 260.166 623.702 259.915 623.896 259.584C624.095 259.252 624.192 258.843 624.188 258.355ZM629.633 263V252.091H632.566V253.994H632.68C632.879 253.317 633.213 252.806 633.681 252.46C634.15 252.11 634.69 251.935 635.301 251.935C635.452 251.935 635.616 251.944 635.791 251.963C635.966 251.982 636.12 252.008 636.252 252.041V254.726C636.11 254.683 635.914 254.645 635.663 254.612C635.412 254.579 635.182 254.562 634.974 254.562C634.529 254.562 634.131 254.66 633.781 254.854C633.435 255.043 633.161 255.308 632.957 255.649C632.758 255.99 632.659 256.383 632.659 256.828V263H629.633ZM637.817 263V252.091H640.842V263H637.817ZM639.337 250.685C638.887 250.685 638.501 250.536 638.179 250.237C637.862 249.934 637.703 249.572 637.703 249.151C637.703 248.734 637.862 248.376 638.179 248.078C638.501 247.775 638.887 247.624 639.337 247.624C639.786 247.624 640.17 247.775 640.487 248.078C640.809 248.376 640.97 248.734 640.97 249.151C640.97 249.572 640.809 249.934 640.487 250.237C640.17 250.536 639.786 250.685 639.337 250.685ZM648.238 263.213C647.115 263.213 646.15 262.986 645.34 262.531C644.535 262.072 643.915 261.423 643.479 260.585C643.043 259.742 642.826 258.746 642.826 257.595C642.826 256.473 643.043 255.488 643.479 254.641C643.915 253.793 644.528 253.133 645.319 252.659C646.114 252.186 647.047 251.949 648.117 251.949C648.837 251.949 649.507 252.065 650.127 252.297C650.752 252.524 651.296 252.867 651.76 253.327C652.229 253.786 652.594 254.364 652.854 255.06C653.114 255.751 653.245 256.561 653.245 257.489V258.32H644.033V256.445H650.397C650.397 256.009 650.302 255.623 650.113 255.287C649.923 254.951 649.66 254.688 649.324 254.499C648.993 254.304 648.607 254.207 648.167 254.207C647.707 254.207 647.3 254.314 646.945 254.527C646.595 254.735 646.32 255.017 646.121 255.372C645.922 255.723 645.82 256.113 645.816 256.544V258.327C645.816 258.866 645.915 259.333 646.114 259.726C646.318 260.119 646.604 260.422 646.973 260.635C647.343 260.848 647.781 260.955 648.287 260.955C648.623 260.955 648.931 260.907 649.211 260.812C649.49 260.718 649.729 260.576 649.928 260.386C650.127 260.197 650.278 259.965 650.382 259.69L653.181 259.875C653.039 260.547 652.748 261.134 652.307 261.636C651.872 262.134 651.308 262.522 650.617 262.801C649.93 263.076 649.137 263.213 648.238 263.213Z" fill="black"/>
<rect x="182" y="329" width="123" height="76" fill="white"/>
<path d="M213.264 377V362.455H223.065V364.99H216.339V368.456H222.561V370.991H216.339V374.464H223.094V377H213.264ZM230.382 377.213C229.265 377.213 228.304 376.976 227.499 376.503C226.699 376.025 226.083 375.362 225.652 374.514C225.226 373.667 225.013 372.691 225.013 371.588C225.013 370.471 225.229 369.491 225.659 368.648C226.095 367.8 226.713 367.14 227.513 366.666C228.313 366.188 229.265 365.949 230.368 365.949C231.32 365.949 232.153 366.122 232.868 366.467C233.583 366.813 234.149 367.298 234.566 367.923C234.982 368.548 235.212 369.282 235.255 370.125H232.4C232.319 369.58 232.106 369.143 231.76 368.811C231.419 368.475 230.972 368.307 230.418 368.307C229.949 368.307 229.54 368.435 229.189 368.69C228.844 368.941 228.574 369.308 228.38 369.791C228.185 370.274 228.088 370.859 228.088 371.545C228.088 372.241 228.183 372.833 228.373 373.321C228.567 373.809 228.839 374.18 229.189 374.436C229.54 374.692 229.949 374.82 230.418 374.82C230.764 374.82 231.074 374.749 231.348 374.607C231.628 374.464 231.857 374.259 232.037 373.989C232.222 373.714 232.343 373.385 232.4 373.001H235.255C235.207 373.835 234.98 374.569 234.573 375.203C234.17 375.833 233.614 376.325 232.904 376.68C232.194 377.036 231.353 377.213 230.382 377.213ZM244.188 372.355V366.091H247.213V377H244.308V375.018H244.195C243.948 375.658 243.539 376.171 242.966 376.56C242.398 376.948 241.704 377.142 240.885 377.142C240.156 377.142 239.514 376.976 238.96 376.645C238.406 376.313 237.973 375.842 237.661 375.232C237.353 374.621 237.196 373.889 237.192 373.037V366.091H240.217V372.497C240.222 373.141 240.395 373.65 240.736 374.024C241.077 374.398 241.534 374.585 242.107 374.585C242.471 374.585 242.812 374.502 243.129 374.337C243.446 374.166 243.702 373.915 243.896 373.584C244.095 373.252 244.192 372.843 244.188 372.355ZM249.633 377V366.091H252.566V367.994H252.68C252.879 367.317 253.213 366.806 253.681 366.46C254.15 366.11 254.69 365.935 255.301 365.935C255.452 365.935 255.616 365.944 255.791 365.963C255.966 365.982 256.12 366.008 256.252 366.041V368.726C256.11 368.683 255.914 368.645 255.663 368.612C255.412 368.579 255.182 368.562 254.974 368.562C254.529 368.562 254.131 368.66 253.781 368.854C253.435 369.043 253.161 369.308 252.957 369.649C252.758 369.99 252.659 370.383 252.659 370.828V377H249.633ZM257.817 377V366.091H260.842V377H257.817ZM259.337 364.685C258.887 364.685 258.501 364.536 258.179 364.237C257.862 363.934 257.703 363.572 257.703 363.151C257.703 362.734 257.862 362.376 258.179 362.078C258.501 361.775 258.887 361.624 259.337 361.624C259.786 361.624 260.17 361.775 260.487 362.078C260.809 362.376 260.97 362.734 260.97 363.151C260.97 363.572 260.809 363.934 260.487 364.237C260.17 364.536 259.786 364.685 259.337 364.685ZM268.238 377.213C267.115 377.213 266.15 376.986 265.34 376.531C264.535 376.072 263.915 375.423 263.479 374.585C263.043 373.742 262.826 372.746 262.826 371.595C262.826 370.473 263.043 369.488 263.479 368.641C263.915 367.793 264.528 367.133 265.319 366.659C266.114 366.186 267.047 365.949 268.117 365.949C268.837 365.949 269.507 366.065 270.127 366.297C270.752 366.524 271.296 366.867 271.76 367.327C272.229 367.786 272.594 368.364 272.854 369.06C273.114 369.751 273.245 370.561 273.245 371.489V372.32H264.033V370.445H270.397C270.397 370.009 270.302 369.623 270.113 369.287C269.923 368.951 269.66 368.688 269.324 368.499C268.993 368.304 268.607 368.207 268.167 368.207C267.707 368.207 267.3 368.314 266.945 368.527C266.595 368.735 266.32 369.017 266.121 369.372C265.922 369.723 265.82 370.113 265.816 370.544V372.327C265.816 372.866 265.915 373.333 266.114 373.726C266.318 374.119 266.604 374.422 266.973 374.635C267.343 374.848 267.781 374.955 268.287 374.955C268.623 374.955 268.931 374.907 269.211 374.812C269.49 374.718 269.729 374.576 269.928 374.386C270.127 374.197 270.278 373.965 270.382 373.69L273.181 373.875C273.039 374.547 272.748 375.134 272.307 375.636C271.872 376.134 271.308 376.522 270.617 376.801C269.93 377.076 269.137 377.213 268.238 377.213Z" fill="black"/>
<rect x="372" y="329" width="123" height="76" fill="white"/>
<path d="M403.264 377V362.455H413.065V364.99H406.339V368.456H412.561V370.991H406.339V374.464H413.094V377H403.264ZM420.382 377.213C419.265 377.213 418.304 376.976 417.499 376.503C416.699 376.025 416.083 375.362 415.652 374.514C415.226 373.667 415.013 372.691 415.013 371.588C415.013 370.471 415.229 369.491 415.659 368.648C416.095 367.8 416.713 367.14 417.513 366.666C418.313 366.188 419.265 365.949 420.368 365.949C421.32 365.949 422.153 366.122 422.868 366.467C423.583 366.813 424.149 367.298 424.566 367.923C424.982 368.548 425.212 369.282 425.255 370.125H422.4C422.319 369.58 422.106 369.143 421.76 368.811C421.419 368.475 420.972 368.307 420.418 368.307C419.949 368.307 419.54 368.435 419.189 368.69C418.844 368.941 418.574 369.308 418.38 369.791C418.185 370.274 418.088 370.859 418.088 371.545C418.088 372.241 418.183 372.833 418.373 373.321C418.567 373.809 418.839 374.18 419.189 374.436C419.54 374.692 419.949 374.82 420.418 374.82C420.764 374.82 421.074 374.749 421.348 374.607C421.628 374.464 421.857 374.259 422.037 373.989C422.222 373.714 422.343 373.385 422.4 373.001H425.255C425.207 373.835 424.98 374.569 424.573 375.203C424.17 375.833 423.614 376.325 422.904 376.68C422.194 377.036 421.353 377.213 420.382 377.213ZM434.188 372.355V366.091H437.213V377H434.308V375.018H434.195C433.948 375.658 433.539 376.171 432.966 376.56C432.398 376.948 431.704 377.142 430.885 377.142C430.156 377.142 429.514 376.976 428.96 376.645C428.406 376.313 427.973 375.842 427.661 375.232C427.353 374.621 427.196 373.889 427.192 373.037V366.091H430.217V372.497C430.222 373.141 430.395 373.65 430.736 374.024C431.077 374.398 431.534 374.585 432.107 374.585C432.471 374.585 432.812 374.502 433.129 374.337C433.446 374.166 433.702 373.915 433.896 373.584C434.095 373.252 434.192 372.843 434.188 372.355ZM439.633 377V366.091H442.566V367.994H442.68C442.879 367.317 443.213 366.806 443.681 366.46C444.15 366.11 444.69 365.935 445.301 365.935C445.452 365.935 445.616 365.944 445.791 365.963C445.966 365.982 446.12 366.008 446.252 366.041V368.726C446.11 368.683 445.914 368.645 445.663 368.612C445.412 368.579 445.182 368.562 444.974 368.562C444.529 368.562 444.131 368.66 443.781 368.854C443.435 369.043 443.161 369.308 442.957 369.649C442.758 369.99 442.659 370.383 442.659 370.828V377H439.633ZM447.817 377V366.091H450.842V377H447.817ZM449.337 364.685C448.887 364.685 448.501 364.536 448.179 364.237C447.862 363.934 447.703 363.572 447.703 363.151C447.703 362.734 447.862 362.376 448.179 362.078C448.501 361.775 448.887 361.624 449.337 361.624C449.786 361.624 450.17 361.775 450.487 362.078C450.809 362.376 450.97 362.734 450.97 363.151C450.97 363.572 450.809 363.934 450.487 364.237C450.17 364.536 449.786 364.685 449.337 364.685ZM458.238 377.213C457.115 377.213 456.15 376.986 455.34 376.531C454.535 376.072 453.915 375.423 453.479 374.585C453.043 373.742 452.826 372.746 452.826 371.595C452.826 370.473 453.043 369.488 453.479 368.641C453.915 367.793 454.528 367.133 455.319 366.659C456.114 366.186 457.047 365.949 458.117 365.949C458.837 365.949 459.507 366.065 460.127 366.297C460.752 366.524 461.296 366.867 461.76 367.327C462.229 367.786 462.594 368.364 462.854 369.06C463.114 369.751 463.245 370.561 463.245 371.489V372.32H454.033V370.445H460.397C460.397 370.009 460.302 369.623 460.113 369.287C459.923 368.951 459.66 368.688 459.324 368.499C458.993 368.304 458.607 368.207 458.167 368.207C457.707 368.207 457.3 368.314 456.945 368.527C456.595 368.735 456.32 369.017 456.121 369.372C455.922 369.723 455.82 370.113 455.816 370.544V372.327C455.816 372.866 455.915 373.333 456.114 373.726C456.318 374.119 456.604 374.422 456.973 374.635C457.343 374.848 457.781 374.955 458.287 374.955C458.623 374.955 458.931 374.907 459.211 374.812C459.49 374.718 459.729 374.576 459.928 374.386C460.127 374.197 460.278 373.965 460.382 373.69L463.181 373.875C463.039 374.547 462.748 375.134 462.307 375.636C461.872 376.134 461.308 376.522 460.617 376.801C459.93 377.076 459.137 377.213 458.238 377.213Z" fill="black"/>
<rect x="562" y="329" width="123" height="76" fill="white"/>
<path d="M593.264 377V362.455H603.065V364.99H596.339V368.456H602.561V370.991H596.339V374.464H603.094V377H593.264ZM610.382 377.213C609.265 377.213 608.304 376.976 607.499 376.503C606.699 376.025 606.083 375.362 605.652 374.514C605.226 373.667 605.013 372.691 605.013 371.588C605.013 370.471 605.229 369.491 605.659 368.648C606.095 367.8 606.713 367.14 607.513 366.666C608.313 366.188 609.265 365.949 610.368 365.949C611.32 365.949 612.153 366.122 612.868 366.467C613.583 366.813 614.149 367.298 614.566 367.923C614.982 368.548 615.212 369.282 615.255 370.125H612.4C612.319 369.58 612.106 369.143 611.76 368.811C611.419 368.475 610.972 368.307 610.418 368.307C609.949 368.307 609.54 368.435 609.189 368.69C608.844 368.941 608.574 369.308 608.38 369.791C608.185 370.274 608.088 370.859 608.088 371.545C608.088 372.241 608.183 372.833 608.373 373.321C608.567 373.809 608.839 374.18 609.189 374.436C609.54 374.692 609.949 374.82 610.418 374.82C610.764 374.82 611.074 374.749 611.348 374.607C611.628 374.464 611.857 374.259 612.037 373.989C612.222 373.714 612.343 373.385 612.4 373.001H615.255C615.207 373.835 614.98 374.569 614.573 375.203C614.17 375.833 613.614 376.325 612.904 376.68C612.194 377.036 611.353 377.213 610.382 377.213ZM624.188 372.355V366.091H627.213V377H624.308V375.018H624.195C623.948 375.658 623.539 376.171 622.966 376.56C622.398 376.948 621.704 377.142 620.885 377.142C620.156 377.142 619.514 376.976 618.96 376.645C618.406 376.313 617.973 375.842 617.661 375.232C617.353 374.621 617.196 373.889 617.192 373.037V366.091H620.217V372.497C620.222 373.141 620.395 373.65 620.736 374.024C621.077 374.398 621.534 374.585 622.107 374.585C622.471 374.585 622.812 374.502 623.129 374.337C623.446 374.166 623.702 373.915 623.896 373.584C624.095 373.252 624.192 372.843 624.188 372.355ZM629.633 377V366.091H632.566V367.994H632.68C632.879 367.317 633.213 366.806 633.681 366.46C634.15 366.11 634.69 365.935 635.301 365.935C635.452 365.935 635.616 365.944 635.791 365.963C635.966 365.982 636.12 366.008 636.252 366.041V368.726C636.11 368.683 635.914 368.645 635.663 368.612C635.412 368.579 635.182 368.562 634.974 368.562C634.529 368.562 634.131 368.66 633.781 368.854C633.435 369.043 633.161 369.308 632.957 369.649C632.758 369.99 632.659 370.383 632.659 370.828V377H629.633ZM637.817 377V366.091H640.842V377H637.817ZM639.337 364.685C638.887 364.685 638.501 364.536 638.179 364.237C637.862 363.934 637.703 363.572 637.703 363.151C637.703 362.734 637.862 362.376 638.179 362.078C638.501 361.775 638.887 361.624 639.337 361.624C639.786 361.624 640.17 361.775 640.487 362.078C640.809 362.376 640.97 362.734 640.97 363.151C640.97 363.572 640.809 363.934 640.487 364.237C640.17 364.536 639.786 364.685 639.337 364.685ZM648.238 377.213C647.115 377.213 646.15 376.986 645.34 376.531C644.535 376.072 643.915 375.423 643.479 374.585C643.043 373.742 642.826 372.746 642.826 371.595C642.826 370.473 643.043 369.488 643.479 368.641C643.915 367.793 644.528 367.133 645.319 366.659C646.114 366.186 647.047 365.949 648.117 365.949C648.837 365.949 649.507 366.065 650.127 366.297C650.752 366.524 651.296 366.867 651.76 367.327C652.229 367.786 652.594 368.364 652.854 369.06C653.114 369.751 653.245 370.561 653.245 371.489V372.32H644.033V370.445H650.397C650.397 370.009 650.302 369.623 650.113 369.287C649.923 368.951 649.66 368.688 649.324 368.499C648.993 368.304 648.607 368.207 648.167 368.207C647.707 368.207 647.3 368.314 646.945 368.527C646.595 368.735 646.32 369.017 646.121 369.372C645.922 369.723 645.82 370.113 645.816 370.544V372.327C645.816 372.866 645.915 373.333 646.114 373.726C646.318 374.119 646.604 374.422 646.973 374.635C647.343 374.848 647.781 374.955 648.287 374.955C648.623 374.955 648.931 374.907 649.211 374.812C649.49 374.718 649.729 374.576 649.928 374.386C650.127 374.197 650.278 373.965 650.382 373.69L653.181 373.875C653.039 374.547 652.748 375.134 652.307 375.636C651.872 376.134 651.308 376.522 650.617 376.801C649.93 377.076 649.137 377.213 648.238 377.213Z" fill="black"/>
<path d="M375.264 170V155.455H378.339V167.464H384.575V170H375.264ZM386.555 170V159.091H389.581V170H386.555ZM388.075 157.685C387.625 157.685 387.239 157.536 386.917 157.237C386.6 156.934 386.441 156.572 386.441 156.151C386.441 155.734 386.6 155.376 386.917 155.078C387.239 154.775 387.625 154.624 388.075 154.624C388.525 154.624 388.908 154.775 389.225 155.078C389.547 155.376 389.708 155.734 389.708 156.151C389.708 156.572 389.547 156.934 389.225 157.237C388.908 157.536 388.525 157.685 388.075 157.685ZM401.081 162.202L398.311 162.372C398.264 162.135 398.162 161.922 398.006 161.733C397.849 161.539 397.643 161.385 397.388 161.271C397.137 161.153 396.836 161.094 396.486 161.094C396.017 161.094 395.622 161.193 395.3 161.392C394.978 161.586 394.817 161.847 394.817 162.173C394.817 162.434 394.921 162.654 395.129 162.834C395.338 163.014 395.695 163.158 396.202 163.267L398.176 163.665C399.237 163.883 400.027 164.233 400.548 164.716C401.069 165.199 401.33 165.833 401.33 166.619C401.33 167.334 401.119 167.962 400.697 168.501C400.281 169.041 399.708 169.463 398.979 169.766C398.254 170.064 397.419 170.213 396.472 170.213C395.027 170.213 393.877 169.912 393.02 169.311C392.168 168.705 391.668 167.881 391.521 166.839L394.497 166.683C394.587 167.124 394.805 167.46 395.151 167.692C395.496 167.919 395.939 168.033 396.479 168.033C397.009 168.033 397.435 167.931 397.757 167.727C398.084 167.519 398.25 167.251 398.254 166.925C398.25 166.65 398.134 166.425 397.906 166.25C397.679 166.07 397.329 165.933 396.855 165.838L394.966 165.462C393.901 165.249 393.107 164.879 392.587 164.354C392.071 163.828 391.812 163.158 391.812 162.344C391.812 161.643 392.002 161.039 392.381 160.533C392.764 160.026 393.302 159.635 393.993 159.361C394.689 159.086 395.503 158.949 396.436 158.949C397.814 158.949 398.898 159.24 399.689 159.822C400.484 160.405 400.948 161.198 401.081 162.202ZM409.037 159.091V161.364H402.468V159.091H409.037ZM403.959 156.477H406.985V166.648C406.985 166.927 407.027 167.145 407.113 167.301C407.198 167.453 407.316 167.559 407.468 167.621C407.624 167.682 407.804 167.713 408.007 167.713C408.15 167.713 408.292 167.701 408.434 167.678C408.576 167.649 408.685 167.628 408.76 167.614L409.236 169.865C409.085 169.912 408.872 169.967 408.597 170.028C408.322 170.095 407.989 170.135 407.596 170.149C406.866 170.178 406.227 170.08 405.678 169.858C405.133 169.635 404.71 169.29 404.407 168.821C404.104 168.352 403.954 167.76 403.959 167.045V156.477ZM415.863 170.213C414.74 170.213 413.775 169.986 412.965 169.531C412.16 169.072 411.54 168.423 411.104 167.585C410.668 166.742 410.451 165.746 410.451 164.595C410.451 163.473 410.668 162.488 411.104 161.641C411.54 160.793 412.153 160.133 412.944 159.659C413.739 159.186 414.672 158.949 415.742 158.949C416.462 158.949 417.132 159.065 417.752 159.297C418.377 159.524 418.921 159.867 419.385 160.327C419.854 160.786 420.219 161.364 420.479 162.06C420.739 162.751 420.87 163.561 420.87 164.489V165.32H411.658V163.445H418.022C418.022 163.009 417.927 162.623 417.738 162.287C417.548 161.951 417.285 161.688 416.949 161.499C416.618 161.304 416.232 161.207 415.792 161.207C415.332 161.207 414.925 161.314 414.57 161.527C414.22 161.735 413.945 162.017 413.746 162.372C413.547 162.723 413.445 163.113 413.441 163.544V165.327C413.441 165.866 413.54 166.333 413.739 166.726C413.943 167.119 414.229 167.422 414.598 167.635C414.968 167.848 415.406 167.955 415.912 167.955C416.248 167.955 416.556 167.907 416.836 167.812C417.115 167.718 417.354 167.576 417.553 167.386C417.752 167.197 417.903 166.965 418.007 166.69L420.806 166.875C420.664 167.547 420.373 168.134 419.932 168.636C419.497 169.134 418.933 169.522 418.242 169.801C417.555 170.076 416.762 170.213 415.863 170.213ZM431.493 170.178C430.664 170.178 429.914 169.964 429.241 169.538C428.574 169.107 428.044 168.475 427.651 167.642C427.262 166.804 427.068 165.777 427.068 164.56C427.068 163.31 427.269 162.27 427.672 161.442C428.074 160.608 428.609 159.986 429.277 159.574C429.949 159.157 430.686 158.949 431.486 158.949C432.097 158.949 432.606 159.053 433.013 159.261C433.425 159.465 433.756 159.721 434.007 160.028C434.263 160.331 434.457 160.63 434.589 160.923H434.682V155.455H437.7V170H434.717V168.253H434.589C434.447 168.556 434.246 168.857 433.986 169.155C433.73 169.448 433.396 169.692 432.984 169.886C432.577 170.08 432.08 170.178 431.493 170.178ZM432.452 167.77C432.939 167.77 433.351 167.637 433.688 167.372C434.028 167.102 434.289 166.726 434.469 166.243C434.653 165.76 434.746 165.194 434.746 164.545C434.746 163.897 434.656 163.333 434.476 162.855C434.296 162.377 434.036 162.008 433.695 161.747C433.354 161.487 432.939 161.357 432.452 161.357C431.955 161.357 431.536 161.491 431.195 161.761C430.854 162.031 430.596 162.405 430.42 162.884C430.245 163.362 430.158 163.916 430.158 164.545C430.158 165.18 430.245 165.741 430.42 166.229C430.6 166.712 430.858 167.09 431.195 167.365C431.536 167.635 431.955 167.77 432.452 167.77ZM445.159 170.213C444.037 170.213 443.071 169.986 442.262 169.531C441.457 169.072 440.837 168.423 440.401 167.585C439.965 166.742 439.748 165.746 439.748 164.595C439.748 163.473 439.965 162.488 440.401 161.641C440.837 160.793 441.45 160.133 442.24 159.659C443.036 159.186 443.969 158.949 445.039 158.949C445.758 158.949 446.428 159.065 447.049 159.297C447.674 159.524 448.218 159.867 448.682 160.327C449.151 160.786 449.516 161.364 449.776 162.06C450.036 162.751 450.167 163.561 450.167 164.489V165.32H440.955V163.445H447.319C447.319 163.009 447.224 162.623 447.034 162.287C446.845 161.951 446.582 161.688 446.246 161.499C445.915 161.304 445.529 161.207 445.088 161.207C444.629 161.207 444.222 161.314 443.867 161.527C443.516 161.735 443.242 162.017 443.043 162.372C442.844 162.723 442.742 163.113 442.738 163.544V165.327C442.738 165.866 442.837 166.333 443.036 166.726C443.239 167.119 443.526 167.422 443.895 167.635C444.265 167.848 444.703 167.955 445.209 167.955C445.545 167.955 445.853 167.907 446.132 167.812C446.412 167.718 446.651 167.576 446.85 167.386C447.049 167.197 447.2 166.965 447.304 166.69L450.103 166.875C449.961 167.547 449.669 168.134 449.229 168.636C448.793 169.134 448.23 169.522 447.539 169.801C446.852 170.076 446.059 170.213 445.159 170.213ZM461.218 162.202L458.448 162.372C458.4 162.135 458.299 161.922 458.142 161.733C457.986 161.539 457.78 161.385 457.525 161.271C457.274 161.153 456.973 161.094 456.623 161.094C456.154 161.094 455.758 161.193 455.436 161.392C455.114 161.586 454.953 161.847 454.953 162.173C454.953 162.434 455.058 162.654 455.266 162.834C455.474 163.014 455.832 163.158 456.338 163.267L458.313 163.665C459.373 163.883 460.164 164.233 460.685 164.716C461.206 165.199 461.466 165.833 461.466 166.619C461.466 167.334 461.256 167.962 460.834 168.501C460.417 169.041 459.845 169.463 459.115 169.766C458.391 170.064 457.555 170.213 456.608 170.213C455.164 170.213 454.014 169.912 453.157 169.311C452.304 168.705 451.805 167.881 451.658 166.839L454.634 166.683C454.724 167.124 454.942 167.46 455.287 167.692C455.633 167.919 456.076 168.033 456.615 168.033C457.146 168.033 457.572 167.931 457.894 167.727C458.221 167.519 458.386 167.251 458.391 166.925C458.386 166.65 458.27 166.425 458.043 166.25C457.816 166.07 457.465 165.933 456.992 165.838L455.103 165.462C454.037 165.249 453.244 164.879 452.723 164.354C452.207 163.828 451.949 163.158 451.949 162.344C451.949 161.643 452.139 161.039 452.517 160.533C452.901 160.026 453.438 159.635 454.13 159.361C454.826 159.086 455.64 158.949 456.573 158.949C457.951 158.949 459.035 159.24 459.826 159.822C460.621 160.405 461.085 161.198 461.218 162.202ZM472.972 170.213C471.85 170.213 470.884 169.986 470.074 169.531C469.269 169.072 468.649 168.423 468.213 167.585C467.778 166.742 467.56 165.746 467.56 164.595C467.56 163.473 467.778 162.488 468.213 161.641C468.649 160.793 469.262 160.133 470.053 159.659C470.848 159.186 471.781 158.949 472.851 158.949C473.571 158.949 474.241 159.065 474.861 159.297C475.486 159.524 476.031 159.867 476.495 160.327C476.963 160.786 477.328 161.364 477.588 162.06C477.849 162.751 477.979 163.561 477.979 164.489V165.32H468.767V163.445H475.131C475.131 163.009 475.036 162.623 474.847 162.287C474.658 161.951 474.395 161.688 474.059 161.499C473.727 161.304 473.341 161.207 472.901 161.207C472.442 161.207 472.034 161.314 471.679 161.527C471.329 161.735 471.054 162.017 470.855 162.372C470.657 162.723 470.555 163.113 470.55 163.544V165.327C470.55 165.866 470.65 166.333 470.848 166.726C471.052 167.119 471.338 167.422 471.708 167.635C472.077 167.848 472.515 167.955 473.022 167.955C473.358 167.955 473.666 167.907 473.945 167.812C474.224 167.718 474.463 167.576 474.662 167.386C474.861 167.197 475.013 166.965 475.117 166.69L477.915 166.875C477.773 167.547 477.482 168.134 477.042 168.636C476.606 169.134 476.042 169.522 475.351 169.801C474.665 170.076 473.872 170.213 472.972 170.213ZM471.694 157.685L473.199 154.453H475.998L473.831 157.685H471.694ZM484.882 170.213C483.765 170.213 482.804 169.976 481.999 169.503C481.199 169.025 480.583 168.362 480.152 167.514C479.726 166.667 479.513 165.691 479.513 164.588C479.513 163.471 479.729 162.491 480.159 161.648C480.595 160.8 481.213 160.14 482.013 159.666C482.813 159.188 483.765 158.949 484.868 158.949C485.82 158.949 486.653 159.122 487.368 159.467C488.083 159.813 488.649 160.298 489.066 160.923C489.482 161.548 489.712 162.282 489.755 163.125H486.9C486.819 162.58 486.606 162.143 486.26 161.811C485.919 161.475 485.472 161.307 484.918 161.307C484.449 161.307 484.04 161.435 483.689 161.69C483.344 161.941 483.074 162.308 482.88 162.791C482.685 163.274 482.588 163.859 482.588 164.545C482.588 165.241 482.683 165.833 482.873 166.321C483.067 166.809 483.339 167.18 483.689 167.436C484.04 167.692 484.449 167.82 484.918 167.82C485.264 167.82 485.574 167.749 485.848 167.607C486.128 167.464 486.357 167.259 486.537 166.989C486.722 166.714 486.843 166.385 486.9 166.001H489.755C489.707 166.835 489.48 167.569 489.073 168.203C488.67 168.833 488.114 169.325 487.404 169.68C486.694 170.036 485.853 170.213 484.882 170.213ZM498.688 165.355V159.091H501.713V170H498.808V168.018H498.695C498.448 168.658 498.039 169.171 497.466 169.56C496.898 169.948 496.204 170.142 495.385 170.142C494.656 170.142 494.014 169.976 493.46 169.645C492.906 169.313 492.473 168.842 492.161 168.232C491.853 167.621 491.696 166.889 491.692 166.037V159.091H494.717V165.497C494.722 166.141 494.895 166.65 495.236 167.024C495.577 167.398 496.034 167.585 496.607 167.585C496.971 167.585 497.312 167.502 497.629 167.337C497.946 167.166 498.202 166.915 498.396 166.584C498.595 166.252 498.692 165.843 498.688 165.355ZM504.133 170V159.091H507.066V160.994H507.18C507.379 160.317 507.713 159.806 508.181 159.46C508.65 159.11 509.19 158.935 509.801 158.935C509.952 158.935 510.116 158.944 510.291 158.963C510.466 158.982 510.62 159.008 510.752 159.041V161.726C510.61 161.683 510.414 161.645 510.163 161.612C509.912 161.579 509.682 161.562 509.474 161.562C509.029 161.562 508.631 161.66 508.281 161.854C507.935 162.043 507.661 162.308 507.457 162.649C507.258 162.99 507.159 163.383 507.159 163.828V170H504.133ZM512.317 170V159.091H515.342V170H512.317ZM513.837 157.685C513.387 157.685 513.001 157.536 512.679 157.237C512.362 156.934 512.203 156.572 512.203 156.151C512.203 155.734 512.362 155.376 512.679 155.078C513.001 154.775 513.387 154.624 513.837 154.624C514.286 154.624 514.67 154.775 514.987 155.078C515.309 155.376 515.47 155.734 515.47 156.151C515.47 156.572 515.309 156.934 514.987 157.237C514.67 157.536 514.286 157.685 513.837 157.685ZM522.738 170.213C521.615 170.213 520.65 169.986 519.84 169.531C519.035 169.072 518.415 168.423 517.979 167.585C517.543 166.742 517.326 165.746 517.326 164.595C517.326 163.473 517.543 162.488 517.979 161.641C518.415 160.793 519.028 160.133 519.819 159.659C520.614 159.186 521.547 158.949 522.617 158.949C523.337 158.949 524.007 159.065 524.627 159.297C525.252 159.524 525.796 159.867 526.26 160.327C526.729 160.786 527.094 161.364 527.354 162.06C527.614 162.751 527.745 163.561 527.745 164.489V165.32H518.533V163.445H524.897C524.897 163.009 524.802 162.623 524.613 162.287C524.423 161.951 524.16 161.688 523.824 161.499C523.493 161.304 523.107 161.207 522.667 161.207C522.207 161.207 521.8 161.314 521.445 161.527C521.095 161.735 520.82 162.017 520.621 162.372C520.422 162.723 520.32 163.113 520.316 163.544V165.327C520.316 165.866 520.415 166.333 520.614 166.726C520.818 167.119 521.104 167.422 521.473 167.635C521.843 167.848 522.281 167.955 522.787 167.955C523.123 167.955 523.431 167.907 523.711 167.812C523.99 167.718 524.229 167.576 524.428 167.386C524.627 167.197 524.778 166.965 524.882 166.69L527.681 166.875C527.539 167.547 527.248 168.134 526.807 168.636C526.372 169.134 525.808 169.522 525.117 169.801C524.43 170.076 523.637 170.213 522.738 170.213ZM538.796 162.202L536.026 162.372C535.979 162.135 535.877 161.922 535.721 161.733C535.564 161.539 535.358 161.385 535.103 161.271C534.852 161.153 534.551 161.094 534.201 161.094C533.732 161.094 533.337 161.193 533.015 161.392C532.693 161.586 532.532 161.847 532.532 162.173C532.532 162.434 532.636 162.654 532.844 162.834C533.052 163.014 533.41 163.158 533.917 163.267L535.891 163.665C536.952 163.883 537.742 164.233 538.263 164.716C538.784 165.199 539.044 165.833 539.044 166.619C539.044 167.334 538.834 167.962 538.412 168.501C537.996 169.041 537.423 169.463 536.694 169.766C535.969 170.064 535.133 170.213 534.186 170.213C532.742 170.213 531.592 169.912 530.735 169.311C529.882 168.705 529.383 167.881 529.236 166.839L532.212 166.683C532.302 167.124 532.52 167.46 532.865 167.692C533.211 167.919 533.654 168.033 534.194 168.033C534.724 168.033 535.15 167.931 535.472 167.727C535.799 167.519 535.964 167.251 535.969 166.925C535.964 166.65 535.848 166.425 535.621 166.25C535.394 166.07 535.043 165.933 534.57 165.838L532.681 165.462C531.615 165.249 530.822 164.879 530.301 164.354C529.785 163.828 529.527 163.158 529.527 162.344C529.527 161.643 529.717 161.039 530.096 160.533C530.479 160.026 531.016 159.635 531.708 159.361C532.404 159.086 533.218 158.949 534.151 158.949C535.529 158.949 536.613 159.24 537.404 159.822C538.199 160.405 538.663 161.198 538.796 162.202Z" fill="black"/>
<rect x="142.5" y="58.5" width="606" height="59" fill="white" stroke="black"/>
<rect x="595" y="67" width="131" height="41" fill="#D9D9D9"/>
<path d="M596.264 95V80.4545H599.339V92.4645H605.575V95H596.264ZM612.484 95.2131C611.381 95.2131 610.427 94.9787 609.622 94.5099C608.822 94.0365 608.204 93.3783 607.768 92.5355C607.333 91.688 607.115 90.7055 607.115 89.5881C607.115 88.4612 607.333 87.4763 607.768 86.6335C608.204 85.786 608.822 85.1278 609.622 84.6591C610.427 84.1856 611.381 83.9489 612.484 83.9489C613.587 83.9489 614.539 84.1856 615.339 84.6591C616.144 85.1278 616.764 85.786 617.2 86.6335C617.636 87.4763 617.853 88.4612 617.853 89.5881C617.853 90.7055 617.636 91.688 617.2 92.5355C616.764 93.3783 616.144 94.0365 615.339 94.5099C614.539 94.9787 613.587 95.2131 612.484 95.2131ZM612.498 92.8693C613 92.8693 613.419 92.7273 613.755 92.4432C614.092 92.1544 614.345 91.7614 614.515 91.2642C614.69 90.767 614.778 90.2012 614.778 89.5668C614.778 88.9323 614.69 88.3665 614.515 87.8693C614.345 87.3722 614.092 86.9792 613.755 86.6903C613.419 86.4015 613 86.2571 612.498 86.2571C611.992 86.2571 611.565 86.4015 611.22 86.6903C610.879 86.9792 610.621 87.3722 610.446 87.8693C610.275 88.3665 610.19 88.9323 610.19 89.5668C610.19 90.2012 610.275 90.767 610.446 91.2642C610.621 91.7614 610.879 92.1544 611.22 92.4432C611.565 92.7273 611.992 92.8693 612.498 92.8693ZM624.735 99.3182C623.755 99.3182 622.915 99.1832 622.214 98.9134C621.518 98.6482 620.964 98.286 620.552 97.8267C620.14 97.3674 619.873 96.8513 619.75 96.2784L622.548 95.902C622.633 96.1198 622.768 96.3234 622.953 96.5128C623.137 96.7022 623.381 96.8537 623.684 96.9673C623.992 97.0857 624.366 97.1449 624.806 97.1449C625.465 97.1449 626.007 96.9839 626.433 96.6619C626.864 96.3447 627.079 95.812 627.079 95.0639V93.0682H626.951C626.819 93.3712 626.62 93.6577 626.355 93.9276C626.09 94.1974 625.749 94.4176 625.332 94.5881C624.915 94.7585 624.418 94.8438 623.841 94.8438C623.021 94.8438 622.276 94.6544 621.603 94.2756C620.936 93.892 620.403 93.3073 620.005 92.5213C619.612 91.7306 619.416 90.7315 619.416 89.5241C619.416 88.2884 619.617 87.2562 620.02 86.4276C620.422 85.599 620.957 84.9787 621.625 84.5668C622.297 84.1548 623.033 83.9489 623.833 83.9489C624.444 83.9489 624.956 84.053 625.368 84.2614C625.779 84.465 626.111 84.7206 626.362 85.0284C626.618 85.3314 626.814 85.6297 626.951 85.9233H627.065V84.0909H630.069V95.1065C630.069 96.0346 629.842 96.8111 629.387 97.4361C628.933 98.0611 628.303 98.5298 627.498 98.8423C626.698 99.1596 625.777 99.3182 624.735 99.3182ZM624.799 92.571C625.287 92.571 625.699 92.4503 626.035 92.2088C626.376 91.9626 626.636 91.6122 626.816 91.1577C627.001 90.6984 627.093 90.1491 627.093 89.5099C627.093 88.8707 627.003 88.3168 626.824 87.848C626.644 87.3745 626.383 87.0076 626.042 86.7472C625.701 86.4867 625.287 86.3565 624.799 86.3565C624.302 86.3565 623.883 86.4915 623.542 86.7614C623.201 87.0265 622.943 87.3958 622.768 87.8693C622.593 88.3428 622.505 88.8897 622.505 89.5099C622.505 90.1397 622.593 90.6842 622.768 91.1435C622.948 91.598 623.206 91.9508 623.542 92.2017C623.883 92.4479 624.302 92.571 624.799 92.571ZM632.477 95V84.0909H635.502V95H632.477ZM633.997 82.6847C633.547 82.6847 633.161 82.5355 632.839 82.2372C632.522 81.9342 632.363 81.572 632.363 81.1506C632.363 80.7339 632.522 80.3764 632.839 80.0781C633.161 79.7751 633.547 79.6236 633.997 79.6236C634.447 79.6236 634.83 79.7751 635.147 80.0781C635.469 80.3764 635.63 80.7339 635.63 81.1506C635.63 81.572 635.469 81.9342 635.147 82.2372C634.83 82.5355 634.447 82.6847 633.997 82.6847ZM640.952 88.6932V95H637.926V84.0909H640.81V86.0156H640.938C641.179 85.3812 641.584 84.8793 642.152 84.5099C642.72 84.1359 643.409 83.9489 644.219 83.9489C644.976 83.9489 645.637 84.1146 646.2 84.446C646.764 84.7775 647.202 85.2509 647.514 85.8665C647.827 86.4773 647.983 87.2064 647.983 88.054V95H644.957V88.5938C644.962 87.9261 644.792 87.4053 644.446 87.0312C644.1 86.6525 643.625 86.4631 643.018 86.4631C642.611 86.4631 642.251 86.5507 641.939 86.7259C641.631 86.901 641.39 87.1567 641.214 87.4929C641.044 87.8243 640.956 88.2244 640.952 88.6932ZM656.703 79.7727L652.015 97.1875H649.409L654.096 79.7727H656.703ZM658.217 95V80.4545H661.293V92.4645H667.528V95H658.217ZM674.437 95.2131C673.334 95.2131 672.38 94.9787 671.575 94.5099C670.775 94.0365 670.157 93.3783 669.721 92.5355C669.286 91.688 669.068 90.7055 669.068 89.5881C669.068 88.4612 669.286 87.4763 669.721 86.6335C670.157 85.786 670.775 85.1278 671.575 84.6591C672.38 84.1856 673.334 83.9489 674.437 83.9489C675.54 83.9489 676.492 84.1856 677.292 84.6591C678.097 85.1278 678.717 85.786 679.153 86.6335C679.589 87.4763 679.806 88.4612 679.806 89.5881C679.806 90.7055 679.589 91.688 679.153 92.5355C678.717 93.3783 678.097 94.0365 677.292 94.5099C676.492 94.9787 675.54 95.2131 674.437 95.2131ZM674.451 92.8693C674.953 92.8693 675.372 92.7273 675.708 92.4432C676.045 92.1544 676.298 91.7614 676.468 91.2642C676.644 90.767 676.731 90.2012 676.731 89.5668C676.731 88.9323 676.644 88.3665 676.468 87.8693C676.298 87.3722 676.045 86.9792 675.708 86.6903C675.372 86.4015 674.953 86.2571 674.451 86.2571C673.945 86.2571 673.519 86.4015 673.173 86.6903C672.832 86.9792 672.574 87.3722 672.399 87.8693C672.228 88.3665 672.143 88.9323 672.143 89.5668C672.143 90.2012 672.228 90.767 672.399 91.2642C672.574 91.7614 672.832 92.1544 673.173 92.4432C673.519 92.7273 673.945 92.8693 674.451 92.8693ZM686.689 99.3182C685.708 99.3182 684.868 99.1832 684.167 98.9134C683.471 98.6482 682.917 98.286 682.505 97.8267C682.093 97.3674 681.826 96.8513 681.703 96.2784L684.501 95.902C684.586 96.1198 684.721 96.3234 684.906 96.5128C685.091 96.7022 685.334 96.8537 685.637 96.9673C685.945 97.0857 686.319 97.1449 686.76 97.1449C687.418 97.1449 687.96 96.9839 688.386 96.6619C688.817 96.3447 689.032 95.812 689.032 95.0639V93.0682H688.904C688.772 93.3712 688.573 93.6577 688.308 93.9276C688.043 94.1974 687.702 94.4176 687.285 94.5881C686.868 94.7585 686.371 94.8438 685.794 94.8438C684.975 94.8438 684.229 94.6544 683.556 94.2756C682.889 93.892 682.356 93.3073 681.958 92.5213C681.565 91.7306 681.369 90.7315 681.369 89.5241C681.369 88.2884 681.57 87.2562 681.973 86.4276C682.375 85.599 682.91 84.9787 683.578 84.5668C684.25 84.1548 684.986 83.9489 685.787 83.9489C686.397 83.9489 686.909 84.053 687.321 84.2614C687.733 84.465 688.064 84.7206 688.315 85.0284C688.571 85.3314 688.767 85.6297 688.904 85.9233H689.018V84.0909H692.022V95.1065C692.022 96.0346 691.795 96.8111 691.341 97.4361C690.886 98.0611 690.256 98.5298 689.451 98.8423C688.651 99.1596 687.73 99.3182 686.689 99.3182ZM686.752 92.571C687.24 92.571 687.652 92.4503 687.988 92.2088C688.329 91.9626 688.59 91.6122 688.77 91.1577C688.954 90.6984 689.047 90.1491 689.047 89.5099C689.047 88.8707 688.957 88.3168 688.777 87.848C688.597 87.3745 688.336 87.0076 687.995 86.7472C687.654 86.4867 687.24 86.3565 686.752 86.3565C686.255 86.3565 685.836 86.4915 685.495 86.7614C685.154 87.0265 684.896 87.3958 684.721 87.8693C684.546 88.3428 684.458 88.8897 684.458 89.5099C684.458 90.1397 684.546 90.6842 684.721 91.1435C684.901 91.598 685.159 91.9508 685.495 92.2017C685.836 92.4479 686.255 92.571 686.752 92.571ZM699.359 95.2131C698.256 95.2131 697.302 94.9787 696.497 94.5099C695.697 94.0365 695.079 93.3783 694.643 92.5355C694.208 91.688 693.99 90.7055 693.99 89.5881C693.99 88.4612 694.208 87.4763 694.643 86.6335C695.079 85.786 695.697 85.1278 696.497 84.6591C697.302 84.1856 698.256 83.9489 699.359 83.9489C700.462 83.9489 701.414 84.1856 702.214 84.6591C703.019 85.1278 703.639 85.786 704.075 86.6335C704.511 87.4763 704.728 88.4612 704.728 89.5881C704.728 90.7055 704.511 91.688 704.075 92.5355C703.639 93.3783 703.019 94.0365 702.214 94.5099C701.414 94.9787 700.462 95.2131 699.359 95.2131ZM699.373 92.8693C699.875 92.8693 700.294 92.7273 700.63 92.4432C700.967 92.1544 701.22 91.7614 701.39 91.2642C701.565 90.767 701.653 90.2012 701.653 89.5668C701.653 88.9323 701.565 88.3665 701.39 87.8693C701.22 87.3722 700.967 86.9792 700.63 86.6903C700.294 86.4015 699.875 86.2571 699.373 86.2571C698.867 86.2571 698.44 86.4015 698.095 86.6903C697.754 86.9792 697.496 87.3722 697.321 87.8693C697.15 88.3665 697.065 88.9323 697.065 89.5668C697.065 90.2012 697.15 90.767 697.321 91.2642C697.496 91.7614 697.754 92.1544 698.095 92.4432C698.44 92.7273 698.867 92.8693 699.373 92.8693ZM713.691 90.3551V84.0909H716.717V95H713.812V93.0185H713.699C713.452 93.6577 713.043 94.1714 712.47 94.5597C711.902 94.9479 711.208 95.142 710.389 95.142C709.66 95.142 709.018 94.9763 708.464 94.6449C707.91 94.3134 707.477 93.8423 707.164 93.2315C706.857 92.6207 706.7 91.8892 706.696 91.0369V84.0909H709.721V90.4972C709.726 91.1411 709.899 91.6501 710.24 92.0241C710.581 92.3982 711.038 92.5852 711.61 92.5852C711.975 92.5852 712.316 92.5024 712.633 92.3366C712.95 92.1662 713.206 91.9152 713.4 91.5838C713.599 91.2524 713.696 90.8428 713.691 90.3551ZM724.94 84.0909V86.3636H718.37V84.0909H724.94ZM719.862 81.4773H722.887V91.6477C722.887 91.9271 722.93 92.1449 723.015 92.3011C723.1 92.4527 723.219 92.5592 723.37 92.6207C723.526 92.6823 723.706 92.7131 723.91 92.7131C724.052 92.7131 724.194 92.7012 724.336 92.6776C724.478 92.6491 724.587 92.6278 724.663 92.6136L725.138 94.8651C724.987 94.9124 724.774 94.9669 724.499 95.0284C724.225 95.0947 723.891 95.1349 723.498 95.1491C722.769 95.1776 722.129 95.0805 721.58 94.858C721.036 94.6354 720.612 94.2898 720.309 93.821C720.006 93.3523 719.857 92.7604 719.862 92.0455V81.4773Z" fill="black"/>
<rect x="482" y="67" width="74" height="41" fill="#D9D9D9"/>
<path d="M486.264 95V80.4545H492.003C493.106 80.4545 494.046 80.6652 494.822 81.0866C495.599 81.5033 496.191 82.0833 496.598 82.8267C497.01 83.5653 497.216 84.4176 497.216 85.3835C497.216 86.3494 497.008 87.2017 496.591 87.9403C496.174 88.679 495.571 89.2543 494.78 89.6662C493.994 90.0781 493.042 90.2841 491.925 90.2841H488.267V87.8196H491.428C492.019 87.8196 492.507 87.7178 492.891 87.5142C493.279 87.3059 493.568 87.0194 493.757 86.6548C493.951 86.2855 494.048 85.8617 494.048 85.3835C494.048 84.9006 493.951 84.4792 493.757 84.1193C493.568 83.7547 493.279 83.473 492.891 83.2741C492.502 83.0705 492.01 82.9688 491.413 82.9688H489.339V95H486.264ZM499.157 95V84.0909H502.182V95H499.157ZM500.676 82.6847C500.227 82.6847 499.841 82.5355 499.519 82.2372C499.202 81.9342 499.043 81.572 499.043 81.1506C499.043 80.7339 499.202 80.3764 499.519 80.0781C499.841 79.7751 500.227 79.6236 500.676 79.6236C501.126 79.6236 501.51 79.7751 501.827 80.0781C502.149 80.3764 502.31 80.7339 502.31 81.1506C502.31 81.572 502.149 81.9342 501.827 82.2372C501.51 82.5355 501.126 82.6847 500.676 82.6847ZM507.631 80.4545V95H504.606V80.4545H507.631ZM514.984 95.2131C513.881 95.2131 512.927 94.9787 512.122 94.5099C511.322 94.0365 510.704 93.3783 510.268 92.5355C509.833 91.688 509.615 90.7055 509.615 89.5881C509.615 88.4612 509.833 87.4763 510.268 86.6335C510.704 85.786 511.322 85.1278 512.122 84.6591C512.927 84.1856 513.881 83.9489 514.984 83.9489C516.087 83.9489 517.039 84.1856 517.839 84.6591C518.644 85.1278 519.264 85.786 519.7 86.6335C520.136 87.4763 520.353 88.4612 520.353 89.5881C520.353 90.7055 520.136 91.688 519.7 92.5355C519.264 93.3783 518.644 94.0365 517.839 94.5099C517.039 94.9787 516.087 95.2131 514.984 95.2131ZM514.998 92.8693C515.5 92.8693 515.919 92.7273 516.255 92.4432C516.592 92.1544 516.845 91.7614 517.015 91.2642C517.19 90.767 517.278 90.2012 517.278 89.5668C517.278 88.9323 517.19 88.3665 517.015 87.8693C516.845 87.3722 516.592 86.9792 516.255 86.6903C515.919 86.4015 515.5 86.2571 514.998 86.2571C514.492 86.2571 514.065 86.4015 513.72 86.6903C513.379 86.9792 513.121 87.3722 512.946 87.8693C512.775 88.3665 512.69 88.9323 512.69 89.5668C512.69 90.2012 512.775 90.767 512.946 91.2642C513.121 91.7614 513.379 92.1544 513.72 92.4432C514.065 92.7273 514.492 92.8693 514.998 92.8693ZM528.123 84.0909V86.3636H521.554V84.0909H528.123ZM523.045 81.4773H526.071V91.6477C526.071 91.9271 526.113 92.1449 526.199 92.3011C526.284 92.4527 526.402 92.5592 526.554 92.6207C526.71 92.6823 526.89 92.7131 527.093 92.7131C527.235 92.7131 527.377 92.7012 527.52 92.6776C527.662 92.6491 527.77 92.6278 527.846 92.6136L528.322 94.8651C528.171 94.9124 527.958 94.9669 527.683 95.0284C527.408 95.0947 527.074 95.1349 526.681 95.1491C525.952 95.1776 525.313 95.0805 524.764 94.858C524.219 94.6354 523.796 94.2898 523.493 93.821C523.19 93.3523 523.04 92.7604 523.045 92.0455V81.4773ZM534.949 95.2131C533.826 95.2131 532.86 94.9858 532.051 94.5312C531.246 94.072 530.626 93.4233 530.19 92.5852C529.754 91.7424 529.537 90.7457 529.537 89.5952C529.537 88.473 529.754 87.4882 530.19 86.6406C530.626 85.7931 531.239 85.1326 532.029 84.6591C532.825 84.1856 533.758 83.9489 534.828 83.9489C535.547 83.9489 536.217 84.0649 536.838 84.2969C537.463 84.5241 538.007 84.8674 538.471 85.3267C538.94 85.786 539.305 86.3636 539.565 87.0597C539.825 87.7509 539.956 88.5606 539.956 89.4886V90.3196H530.744V88.4446H537.108C537.108 88.009 537.013 87.6231 536.824 87.2869C536.634 86.9508 536.371 86.688 536.035 86.4986C535.704 86.3045 535.318 86.2074 534.877 86.2074C534.418 86.2074 534.011 86.3139 533.656 86.527C533.306 86.7353 533.031 87.017 532.832 87.3722C532.633 87.7225 532.531 88.1132 532.527 88.544V90.3267C532.527 90.8665 532.626 91.3329 532.825 91.7259C533.029 92.1188 533.315 92.4219 533.684 92.6349C534.054 92.848 534.492 92.9545 534.998 92.9545C535.334 92.9545 535.642 92.9072 535.922 92.8125C536.201 92.7178 536.44 92.5758 536.639 92.3864C536.838 92.197 536.989 91.965 537.093 91.6903L539.892 91.875C539.75 92.5473 539.458 93.1345 539.018 93.6364C538.583 94.1335 538.019 94.5218 537.328 94.8011C536.641 95.0758 535.848 95.2131 534.949 95.2131ZM551.007 87.2017L548.237 87.3722C548.19 87.1354 548.088 86.9223 547.931 86.733C547.775 86.5388 547.569 86.3849 547.314 86.2713C547.063 86.1529 546.762 86.0938 546.412 86.0938C545.943 86.0938 545.547 86.1932 545.225 86.392C544.904 86.5862 544.743 86.8466 544.743 87.1733C544.743 87.4337 544.847 87.6539 545.055 87.8338C545.263 88.0137 545.621 88.1581 546.127 88.267L548.102 88.6648C549.163 88.8826 549.953 89.233 550.474 89.7159C550.995 90.1989 551.255 90.8333 551.255 91.6193C551.255 92.3343 551.045 92.9616 550.623 93.5014C550.207 94.0412 549.634 94.4626 548.904 94.7656C548.18 95.0639 547.344 95.2131 546.397 95.2131C544.953 95.2131 543.803 94.9124 542.946 94.3111C542.093 93.705 541.594 92.8812 541.447 91.8395L544.423 91.6832C544.513 92.1236 544.731 92.4598 545.076 92.6918C545.422 92.919 545.865 93.0327 546.404 93.0327C546.935 93.0327 547.361 92.9309 547.683 92.7273C548.01 92.5189 548.175 92.2514 548.18 91.9247C548.175 91.6501 548.059 91.4252 547.832 91.25C547.605 91.0701 547.254 90.9328 546.781 90.8381L544.892 90.4616C543.826 90.2486 543.033 89.8793 542.512 89.3537C541.996 88.8281 541.738 88.1581 541.738 87.3438C541.738 86.643 541.928 86.0393 542.306 85.5327C542.69 85.026 543.227 84.6354 543.919 84.3608C544.615 84.0862 545.429 83.9489 546.362 83.9489C547.74 83.9489 548.824 84.2401 549.615 84.8224C550.41 85.4048 550.874 86.1979 551.007 87.2017Z" fill="black"/>
<rect x="372" y="67" width="74" height="41" fill="#FF0000"/>
<path d="M373.264 95V80.4545H383.065V82.9901H376.339V86.456H382.561V88.9915H376.339V92.4645H383.094V95H373.264ZM390.382 95.2131C389.265 95.2131 388.304 94.9763 387.499 94.5028C386.699 94.0246 386.083 93.3617 385.652 92.5142C385.226 91.6667 385.013 90.6913 385.013 89.5881C385.013 88.4706 385.229 87.4905 385.659 86.6477C386.095 85.8002 386.713 85.1397 387.513 84.6662C388.313 84.188 389.265 83.9489 390.368 83.9489C391.32 83.9489 392.153 84.1217 392.868 84.4673C393.583 84.813 394.149 85.2983 394.566 85.9233C394.982 86.5483 395.212 87.2822 395.255 88.125H392.4C392.319 87.5805 392.106 87.1425 391.76 86.8111C391.419 86.4749 390.972 86.3068 390.418 86.3068C389.949 86.3068 389.54 86.4347 389.189 86.6903C388.844 86.9413 388.574 87.3082 388.38 87.7912C388.185 88.2741 388.088 88.8589 388.088 89.5455C388.088 90.2415 388.183 90.8333 388.373 91.321C388.567 91.8087 388.839 92.1804 389.189 92.4361C389.54 92.6918 389.949 92.8196 390.418 92.8196C390.764 92.8196 391.074 92.7486 391.348 92.6065C391.628 92.4645 391.857 92.2585 392.037 91.9886C392.222 91.714 392.343 91.3849 392.4 91.0014H395.255C395.207 91.8348 394.98 92.5687 394.573 93.2031C394.17 93.8329 393.614 94.3253 392.904 94.6804C392.194 95.0355 391.353 95.2131 390.382 95.2131ZM404.188 90.3551V84.0909H407.213V95H404.308V93.0185H404.195C403.948 93.6577 403.539 94.1714 402.966 94.5597C402.398 94.9479 401.704 95.142 400.885 95.142C400.156 95.142 399.514 94.9763 398.96 94.6449C398.406 94.3134 397.973 93.8423 397.661 93.2315C397.353 92.6207 397.196 91.8892 397.192 91.0369V84.0909H400.217V90.4972C400.222 91.1411 400.395 91.6501 400.736 92.0241C401.077 92.3982 401.534 92.5852 402.107 92.5852C402.471 92.5852 402.812 92.5024 403.129 92.3366C403.446 92.1662 403.702 91.9152 403.896 91.5838C404.095 91.2524 404.192 90.8428 404.188 90.3551ZM409.633 95V84.0909H412.566V85.9943H412.68C412.879 85.3172 413.213 84.8059 413.681 84.4602C414.15 84.1098 414.69 83.9347 415.301 83.9347C415.452 83.9347 415.616 83.9441 415.791 83.9631C415.966 83.982 416.12 84.008 416.252 84.0412V86.7259C416.11 86.6832 415.914 86.6454 415.663 86.6122C415.412 86.5791 415.182 86.5625 414.974 86.5625C414.529 86.5625 414.131 86.6596 413.781 86.8537C413.435 87.0431 413.161 87.3082 412.957 87.6491C412.758 87.9901 412.659 88.383 412.659 88.8281V95H409.633ZM417.817 95V84.0909H420.842V95H417.817ZM419.337 82.6847C418.887 82.6847 418.501 82.5355 418.179 82.2372C417.862 81.9342 417.703 81.572 417.703 81.1506C417.703 80.7339 417.862 80.3764 418.179 80.0781C418.501 79.7751 418.887 79.6236 419.337 79.6236C419.786 79.6236 420.17 79.7751 420.487 80.0781C420.809 80.3764 420.97 80.7339 420.97 81.1506C420.97 81.572 420.809 81.9342 420.487 82.2372C420.17 82.5355 419.786 82.6847 419.337 82.6847ZM428.238 95.2131C427.115 95.2131 426.15 94.9858 425.34 94.5312C424.535 94.072 423.915 93.4233 423.479 92.5852C423.043 91.7424 422.826 90.7457 422.826 89.5952C422.826 88.473 423.043 87.4882 423.479 86.6406C423.915 85.7931 424.528 85.1326 425.319 84.6591C426.114 84.1856 427.047 83.9489 428.117 83.9489C428.837 83.9489 429.507 84.0649 430.127 84.2969C430.752 84.5241 431.296 84.8674 431.76 85.3267C432.229 85.786 432.594 86.3636 432.854 87.0597C433.114 87.7509 433.245 88.5606 433.245 89.4886V90.3196H424.033V88.4446H430.397C430.397 88.009 430.302 87.6231 430.113 87.2869C429.923 86.9508 429.66 86.688 429.324 86.4986C428.993 86.3045 428.607 86.2074 428.167 86.2074C427.707 86.2074 427.3 86.3139 426.945 86.527C426.595 86.7353 426.32 87.017 426.121 87.3722C425.922 87.7225 425.82 88.1132 425.816 88.544V90.3267C425.816 90.8665 425.915 91.3329 426.114 91.7259C426.318 92.1188 426.604 92.4219 426.973 92.6349C427.343 92.848 427.781 92.9545 428.287 92.9545C428.623 92.9545 428.931 92.9072 429.211 92.8125C429.49 92.7178 429.729 92.5758 429.928 92.3864C430.127 92.197 430.278 91.965 430.382 91.6903L433.181 91.875C433.039 92.5473 432.748 93.1345 432.307 93.6364C431.872 94.1335 431.308 94.5218 430.617 94.8011C429.93 95.0758 429.137 95.2131 428.238 95.2131ZM444.296 87.2017L441.526 87.3722C441.479 87.1354 441.377 86.9223 441.221 86.733C441.064 86.5388 440.858 86.3849 440.603 86.2713C440.352 86.1529 440.051 86.0938 439.701 86.0938C439.232 86.0938 438.837 86.1932 438.515 86.392C438.193 86.5862 438.032 86.8466 438.032 87.1733C438.032 87.4337 438.136 87.6539 438.344 87.8338C438.552 88.0137 438.91 88.1581 439.417 88.267L441.391 88.6648C442.452 88.8826 443.242 89.233 443.763 89.7159C444.284 90.1989 444.544 90.8333 444.544 91.6193C444.544 92.3343 444.334 92.9616 443.912 93.5014C443.496 94.0412 442.923 94.4626 442.194 94.7656C441.469 95.0639 440.633 95.2131 439.686 95.2131C438.242 95.2131 437.092 94.9124 436.235 94.3111C435.382 93.705 434.883 92.8812 434.736 91.8395L437.712 91.6832C437.802 92.1236 438.02 92.4598 438.365 92.6918C438.711 92.919 439.154 93.0327 439.694 93.0327C440.224 93.0327 440.65 92.9309 440.972 92.7273C441.299 92.5189 441.464 92.2514 441.469 91.9247C441.464 91.6501 441.348 91.4252 441.121 91.25C440.894 91.0701 440.543 90.9328 440.07 90.8381L438.181 90.4616C437.115 90.2486 436.322 89.8793 435.801 89.3537C435.285 88.8281 435.027 88.1581 435.027 87.3438C435.027 86.643 435.217 86.0393 435.596 85.5327C435.979 85.026 436.516 84.6354 437.208 84.3608C437.904 84.0862 438.718 83.9489 439.651 83.9489C441.029 83.9489 442.113 84.2401 442.904 84.8224C443.699 85.4048 444.163 86.1979 444.296 87.2017Z" fill="black"/>
<rect x="182" y="215" width="123" height="76" fill="white"/>
<path d="M213.264 263V248.455H223.065V250.99H216.339V254.456H222.561V256.991H216.339V260.464H223.094V263H213.264ZM230.382 263.213C229.265 263.213 228.304 262.976 227.499 262.503C226.699 262.025 226.083 261.362 225.652 260.514C225.226 259.667 225.013 258.691 225.013 257.588C225.013 256.471 225.229 255.491 225.659 254.648C226.095 253.8 226.713 253.14 227.513 252.666C228.313 252.188 229.265 251.949 230.368 251.949C231.32 251.949 232.153 252.122 232.868 252.467C233.583 252.813 234.149 253.298 234.566 253.923C234.982 254.548 235.212 255.282 235.255 256.125H232.4C232.319 255.58 232.106 255.143 231.76 254.811C231.419 254.475 230.972 254.307 230.418 254.307C229.949 254.307 229.54 254.435 229.189 254.69C228.844 254.941 228.574 255.308 228.38 255.791C228.185 256.274 228.088 256.859 228.088 257.545C228.088 258.241 228.183 258.833 228.373 259.321C228.567 259.809 228.839 260.18 229.189 260.436C229.54 260.692 229.949 260.82 230.418 260.82C230.764 260.82 231.074 260.749 231.348 260.607C231.628 260.464 231.857 260.259 232.037 259.989C232.222 259.714 232.343 259.385 232.4 259.001H235.255C235.207 259.835 234.98 260.569 234.573 261.203C234.17 261.833 233.614 262.325 232.904 262.68C232.194 263.036 231.353 263.213 230.382 263.213ZM244.188 258.355V252.091H247.213V263H244.308V261.018H244.195C243.948 261.658 243.539 262.171 242.966 262.56C242.398 262.948 241.704 263.142 240.885 263.142C240.156 263.142 239.514 262.976 238.96 262.645C238.406 262.313 237.973 261.842 237.661 261.232C237.353 260.621 237.196 259.889 237.192 259.037V252.091H240.217V258.497C240.222 259.141 240.395 259.65 240.736 260.024C241.077 260.398 241.534 260.585 242.107 260.585C242.471 260.585 242.812 260.502 243.129 260.337C243.446 260.166 243.702 259.915 243.896 259.584C244.095 259.252 244.192 258.843 244.188 258.355ZM249.633 263V252.091H252.566V253.994H252.68C252.879 253.317 253.213 252.806 253.681 252.46C254.15 252.11 254.69 251.935 255.301 251.935C255.452 251.935 255.616 251.944 255.791 251.963C255.966 251.982 256.12 252.008 256.252 252.041V254.726C256.11 254.683 255.914 254.645 255.663 254.612C255.412 254.579 255.182 254.562 254.974 254.562C254.529 254.562 254.131 254.66 253.781 254.854C253.435 255.043 253.161 255.308 252.957 255.649C252.758 255.99 252.659 256.383 252.659 256.828V263H249.633ZM257.817 263V252.091H260.842V263H257.817ZM259.337 250.685C258.887 250.685 258.501 250.536 258.179 250.237C257.862 249.934 257.703 249.572 257.703 249.151C257.703 248.734 257.862 248.376 258.179 248.078C258.501 247.775 258.887 247.624 259.337 247.624C259.786 247.624 260.17 247.775 260.487 248.078C260.809 248.376 260.97 248.734 260.97 249.151C260.97 249.572 260.809 249.934 260.487 250.237C260.17 250.536 259.786 250.685 259.337 250.685ZM268.238 263.213C267.115 263.213 266.15 262.986 265.34 262.531C264.535 262.072 263.915 261.423 263.479 260.585C263.043 259.742 262.826 258.746 262.826 257.595C262.826 256.473 263.043 255.488 263.479 254.641C263.915 253.793 264.528 253.133 265.319 252.659C266.114 252.186 267.047 251.949 268.117 251.949C268.837 251.949 269.507 252.065 270.127 252.297C270.752 252.524 271.296 252.867 271.76 253.327C272.229 253.786 272.594 254.364 272.854 255.06C273.114 255.751 273.245 256.561 273.245 257.489V258.32H264.033V256.445H270.397C270.397 256.009 270.302 255.623 270.113 255.287C269.923 254.951 269.66 254.688 269.324 254.499C268.993 254.304 268.607 254.207 268.167 254.207C267.707 254.207 267.3 254.314 266.945 254.527C266.595 254.735 266.32 255.017 266.121 255.372C265.922 255.723 265.82 256.113 265.816 256.544V258.327C265.816 258.866 265.915 259.333 266.114 259.726C266.318 260.119 266.604 260.422 266.973 260.635C267.343 260.848 267.781 260.955 268.287 260.955C268.623 260.955 268.931 260.907 269.211 260.812C269.49 260.718 269.729 260.576 269.928 260.386C270.127 260.197 270.278 259.965 270.382 259.69L273.181 259.875C273.039 260.547 272.748 261.134 272.307 261.636C271.872 262.134 271.308 262.522 270.617 262.801C269.93 263.076 269.137 263.213 268.238 263.213Z" fill="black"/>
<rect x="253" y="67" width="80" height="41" fill="#D9D9D9"/>
<path d="M270.098 85.5469H266.987C266.93 85.1444 266.814 84.7869 266.639 84.4744C266.464 84.1572 266.239 83.8873 265.964 83.6648C265.69 83.4422 265.373 83.2718 265.013 83.1534C264.658 83.035 264.272 82.9759 263.855 82.9759C263.102 82.9759 262.446 83.1629 261.888 83.5369C261.329 83.9062 260.896 84.446 260.588 85.1562C260.28 85.8617 260.126 86.7187 260.126 87.7273C260.126 88.7642 260.28 89.6354 260.588 90.3409C260.901 91.0464 261.336 91.5791 261.895 91.9389C262.454 92.2988 263.1 92.4787 263.834 92.4787C264.246 92.4787 264.627 92.4242 264.977 92.3153C265.332 92.2064 265.647 92.0478 265.922 91.8395C266.196 91.6264 266.424 91.3684 266.604 91.0653C266.788 90.7623 266.916 90.4167 266.987 90.0284L270.098 90.0426C270.018 90.7102 269.816 91.3542 269.494 91.9744C269.177 92.59 268.749 93.1416 268.209 93.6293C267.674 94.1122 267.035 94.4957 266.291 94.7798C265.553 95.0592 264.717 95.1989 263.784 95.1989C262.487 95.1989 261.327 94.9053 260.304 94.3182C259.286 93.7311 258.481 92.8812 257.889 91.7685C257.302 90.6558 257.009 89.3087 257.009 87.7273C257.009 86.1411 257.307 84.7917 257.903 83.679C258.5 82.5663 259.31 81.7187 260.332 81.1364C261.355 80.5492 262.506 80.2557 263.784 80.2557C264.627 80.2557 265.408 80.3741 266.128 80.6108C266.852 80.8475 267.494 81.1932 268.053 81.6477C268.611 82.0975 269.066 82.6491 269.416 83.3026C269.771 83.956 269.999 84.7041 270.098 85.5469ZM272.246 95V84.0909H275.272V95H272.246ZM273.766 82.6847C273.317 82.6847 272.931 82.5355 272.609 82.2372C272.291 81.9342 272.133 81.572 272.133 81.1506C272.133 80.7339 272.291 80.3764 272.609 80.0781C272.931 79.7751 273.317 79.6236 273.766 79.6236C274.216 79.6236 274.6 79.7751 274.917 80.0781C275.239 80.3764 275.4 80.7339 275.4 81.1506C275.4 81.572 275.239 81.9342 274.917 82.2372C274.6 82.5355 274.216 82.6847 273.766 82.6847ZM277.696 95V84.0909H280.629V85.9943H280.743C280.941 85.3172 281.275 84.8059 281.744 84.4602C282.213 84.1098 282.752 83.9347 283.363 83.9347C283.515 83.9347 283.678 83.9441 283.853 83.9631C284.029 83.982 284.182 84.008 284.315 84.0412V86.7259C284.173 86.6832 283.976 86.6454 283.725 86.6122C283.475 86.5791 283.245 86.5625 283.037 86.5625C282.592 86.5625 282.194 86.6596 281.843 86.8537C281.498 87.0431 281.223 87.3082 281.02 87.6491C280.821 87.9901 280.721 88.383 280.721 88.8281V95H277.696ZM290.3 95.2131C289.183 95.2131 288.222 94.9763 287.417 94.5028C286.617 94.0246 286.001 93.3617 285.57 92.5142C285.144 91.6667 284.931 90.6913 284.931 89.5881C284.931 88.4706 285.147 87.4905 285.577 86.6477C286.013 85.8002 286.631 85.1397 287.431 84.6662C288.231 84.188 289.183 83.9489 290.286 83.9489C291.238 83.9489 292.071 84.1217 292.786 84.4673C293.501 84.813 294.067 85.2983 294.484 85.9233C294.9 86.5483 295.13 87.2822 295.173 88.125H292.317C292.237 87.5805 292.024 87.1425 291.678 86.8111C291.337 86.4749 290.89 86.3068 290.336 86.3068C289.867 86.3068 289.458 86.4347 289.107 86.6903C288.762 86.9413 288.492 87.3082 288.298 87.7912C288.103 88.2741 288.006 88.8589 288.006 89.5455C288.006 90.2415 288.101 90.8333 288.29 91.321C288.485 91.8087 288.757 92.1804 289.107 92.4361C289.458 92.6918 289.867 92.8196 290.336 92.8196C290.682 92.8196 290.992 92.7486 291.266 92.6065C291.546 92.4645 291.775 92.2585 291.955 91.9886C292.14 91.714 292.261 91.3849 292.317 91.0014H295.173C295.125 91.8348 294.898 92.5687 294.491 93.2031C294.088 93.8329 293.532 94.3253 292.822 94.6804C292.112 95.0355 291.271 95.2131 290.3 95.2131ZM304.105 90.3551V84.0909H307.131V95H304.226V93.0185H304.113C303.866 93.6577 303.457 94.1714 302.884 94.5597C302.316 94.9479 301.622 95.142 300.803 95.142C300.074 95.142 299.432 94.9763 298.878 94.6449C298.324 94.3134 297.891 93.8423 297.578 93.2315C297.271 92.6207 297.114 91.8892 297.11 91.0369V84.0909H300.135V90.4972C300.14 91.1411 300.313 91.6501 300.654 92.0241C300.995 92.3982 301.452 92.5852 302.025 92.5852C302.389 92.5852 302.73 92.5024 303.047 92.3366C303.364 92.1662 303.62 91.9152 303.814 91.5838C304.013 91.2524 304.11 90.8428 304.105 90.3551ZM309.551 95V84.0909H312.577V95H309.551ZM311.071 82.6847C310.621 82.6847 310.235 82.5355 309.913 82.2372C309.596 81.9342 309.438 81.572 309.438 81.1506C309.438 80.7339 309.596 80.3764 309.913 80.0781C310.235 79.7751 310.621 79.6236 311.071 79.6236C311.521 79.6236 311.904 79.7751 312.222 80.0781C312.544 80.3764 312.705 80.7339 312.705 81.1506C312.705 81.572 312.544 81.9342 312.222 82.2372C311.904 82.5355 311.521 82.6847 311.071 82.6847ZM320.803 84.0909V86.3636H314.233V84.0909H320.803ZM315.725 81.4773H318.75V91.6477C318.75 91.9271 318.793 92.1449 318.878 92.3011C318.963 92.4527 319.082 92.5592 319.233 92.6207C319.39 92.6823 319.569 92.7131 319.773 92.7131C319.915 92.7131 320.057 92.7012 320.199 92.6776C320.341 92.6491 320.45 92.6278 320.526 92.6136L321.002 94.8651C320.85 94.9124 320.637 94.9669 320.363 95.0284C320.088 95.0947 319.754 95.1349 319.361 95.1491C318.632 95.1776 317.993 95.0805 317.444 94.858C316.899 94.6354 316.475 94.2898 316.172 93.821C315.869 93.3523 315.72 92.7604 315.725 92.0455V81.4773ZM331.714 87.2017L328.944 87.3722C328.897 87.1354 328.795 86.9223 328.638 86.733C328.482 86.5388 328.276 86.3849 328.021 86.2713C327.77 86.1529 327.469 86.0938 327.119 86.0938C326.65 86.0938 326.254 86.1932 325.933 86.392C325.611 86.5862 325.45 86.8466 325.45 87.1733C325.45 87.4337 325.554 87.6539 325.762 87.8338C325.97 88.0137 326.328 88.1581 326.835 88.267L328.809 88.6648C329.87 88.8826 330.66 89.233 331.181 89.7159C331.702 90.1989 331.962 90.8333 331.962 91.6193C331.962 92.3343 331.752 92.9616 331.33 93.5014C330.914 94.0412 330.341 94.4626 329.612 94.7656C328.887 95.0639 328.051 95.2131 327.104 95.2131C325.66 95.2131 324.51 94.9124 323.653 94.3111C322.8 93.705 322.301 92.8812 322.154 91.8395L325.13 91.6832C325.22 92.1236 325.438 92.4598 325.783 92.6918C326.129 92.919 326.572 93.0327 327.112 93.0327C327.642 93.0327 328.068 92.9309 328.39 92.7273C328.717 92.5189 328.882 92.2514 328.887 91.9247C328.882 91.6501 328.766 91.4252 328.539 91.25C328.312 91.0701 327.961 90.9328 327.488 90.8381L325.599 90.4616C324.533 90.2486 323.74 89.8793 323.219 89.3537C322.703 88.8281 322.445 88.1581 322.445 87.3438C322.445 86.643 322.635 86.0393 323.013 85.5327C323.397 85.026 323.934 84.6354 324.626 84.3608C325.322 84.0862 326.136 83.9489 327.069 83.9489C328.447 83.9489 329.531 84.2401 330.322 84.8224C331.117 85.4048 331.581 86.1979 331.714 87.2017Z" fill="black"/>
</svg>
