<svg width="907" height="526" viewBox="0 0 907 526" fill="none" xmlns="http://www.w3.org/2000/svg">
<rect width="907" height="526" fill="white"/>
<rect x="44.5" y="36.5" width="818" height="453" fill="#FBFBFB" stroke="black"/>
<rect x="142.5" y="138.5" width="606" height="305" fill="#D9D9D9" stroke="black"/>
<rect x="372" y="215" width="123" height="76" fill="white"/>
<path d="M416.098 253.547H412.987C412.93 253.144 412.814 252.787 412.639 252.474C412.464 252.157 412.239 251.887 411.964 251.665C411.69 251.442 411.373 251.272 411.013 251.153C410.658 251.035 410.272 250.976 409.855 250.976C409.102 250.976 408.446 251.163 407.888 251.537C407.329 251.906 406.896 252.446 406.588 253.156C406.28 253.862 406.126 254.719 406.126 255.727C406.126 256.764 406.28 257.635 406.588 258.341C406.901 259.046 407.336 259.579 407.895 259.939C408.454 260.299 409.1 260.479 409.834 260.479C410.246 260.479 410.627 260.424 410.977 260.315C411.332 260.206 411.647 260.048 411.922 259.839C412.196 259.626 412.424 259.368 412.604 259.065C412.788 258.762 412.916 258.417 412.987 258.028L416.098 258.043C416.018 258.71 415.816 259.354 415.494 259.974C415.177 260.59 414.749 261.142 414.209 261.629C413.674 262.112 413.035 262.496 412.291 262.78C411.553 263.059 410.717 263.199 409.784 263.199C408.487 263.199 407.327 262.905 406.304 262.318C405.286 261.731 404.481 260.881 403.889 259.768C403.302 258.656 403.009 257.309 403.009 255.727C403.009 254.141 403.307 252.792 403.903 251.679C404.5 250.566 405.31 249.719 406.332 249.136C407.355 248.549 408.506 248.256 409.784 248.256C410.627 248.256 411.408 248.374 412.128 248.611C412.852 248.848 413.494 249.193 414.053 249.648C414.611 250.098 415.066 250.649 415.416 251.303C415.771 251.956 415.999 252.704 416.098 253.547ZM418.246 263V252.091H421.272V263H418.246ZM419.766 250.685C419.317 250.685 418.931 250.536 418.609 250.237C418.291 249.934 418.133 249.572 418.133 249.151C418.133 248.734 418.291 248.376 418.609 248.078C418.931 247.775 419.317 247.624 419.766 247.624C420.216 247.624 420.6 247.775 420.917 248.078C421.239 248.376 421.4 248.734 421.4 249.151C421.4 249.572 421.239 249.934 420.917 250.237C420.6 250.536 420.216 250.685 419.766 250.685ZM423.696 263V252.091H426.629V253.994H426.743C426.941 253.317 427.275 252.806 427.744 252.46C428.213 252.11 428.752 251.935 429.363 251.935C429.515 251.935 429.678 251.944 429.853 251.963C430.029 251.982 430.182 252.008 430.315 252.041V254.726C430.173 254.683 429.976 254.645 429.725 254.612C429.475 254.579 429.245 254.562 429.037 254.562C428.592 254.562 428.194 254.66 427.843 254.854C427.498 255.043 427.223 255.308 427.02 255.649C426.821 255.99 426.721 256.383 426.721 256.828V263H423.696ZM436.3 263.213C435.183 263.213 434.222 262.976 433.417 262.503C432.617 262.025 432.001 261.362 431.57 260.514C431.144 259.667 430.931 258.691 430.931 257.588C430.931 256.471 431.147 255.491 431.577 254.648C432.013 253.8 432.631 253.14 433.431 252.666C434.231 252.188 435.183 251.949 436.286 251.949C437.238 251.949 438.071 252.122 438.786 252.467C439.501 252.813 440.067 253.298 440.484 253.923C440.9 254.548 441.13 255.282 441.173 256.125H438.317C438.237 255.58 438.024 255.143 437.678 254.811C437.337 254.475 436.89 254.307 436.336 254.307C435.867 254.307 435.458 254.435 435.107 254.69C434.762 254.941 434.492 255.308 434.298 255.791C434.103 256.274 434.006 256.859 434.006 257.545C434.006 258.241 434.101 258.833 434.29 259.321C434.485 259.809 434.757 260.18 435.107 260.436C435.458 260.692 435.867 260.82 436.336 260.82C436.682 260.82 436.992 260.749 437.266 260.607C437.546 260.464 437.775 260.259 437.955 259.989C438.14 259.714 438.261 259.385 438.317 259.001H441.173C441.125 259.835 440.898 260.569 440.491 261.203C440.088 261.833 439.532 262.325 438.822 262.68C438.112 263.036 437.271 263.213 436.3 263.213ZM450.105 258.355V252.091H453.131V263H450.226V261.018H450.113C449.866 261.658 449.457 262.171 448.884 262.56C448.316 262.948 447.622 263.142 446.803 263.142C446.074 263.142 445.432 262.976 444.878 262.645C444.324 262.313 443.891 261.842 443.578 261.232C443.271 260.621 443.114 259.889 443.11 259.037V252.091H446.135V258.497C446.14 259.141 446.313 259.65 446.654 260.024C446.995 260.398 447.452 260.585 448.025 260.585C448.389 260.585 448.73 260.502 449.047 260.337C449.364 260.166 449.62 259.915 449.814 259.584C450.013 259.252 450.11 258.843 450.105 258.355ZM455.551 263V252.091H458.577V263H455.551ZM457.071 250.685C456.621 250.685 456.235 250.536 455.913 250.237C455.596 249.934 455.438 249.572 455.438 249.151C455.438 248.734 455.596 248.376 455.913 248.078C456.235 247.775 456.621 247.624 457.071 247.624C457.521 247.624 457.904 247.775 458.222 248.078C458.544 248.376 458.705 248.734 458.705 249.151C458.705 249.572 458.544 249.934 458.222 250.237C457.904 250.536 457.521 250.685 457.071 250.685ZM466.803 252.091V254.364H460.233V252.091H466.803ZM461.725 249.477H464.75V259.648C464.75 259.927 464.793 260.145 464.878 260.301C464.963 260.453 465.082 260.559 465.233 260.621C465.39 260.682 465.569 260.713 465.773 260.713C465.915 260.713 466.057 260.701 466.199 260.678C466.341 260.649 466.45 260.628 466.526 260.614L467.002 262.865C466.85 262.912 466.637 262.967 466.363 263.028C466.088 263.095 465.754 263.135 465.361 263.149C464.632 263.178 463.993 263.08 463.444 262.858C462.899 262.635 462.475 262.29 462.172 261.821C461.869 261.352 461.72 260.76 461.725 260.045V249.477Z" fill="black"/>
<rect x="562" y="215" width="123" height="76" fill="white"/>
<path d="M606.098 253.547H602.987C602.93 253.144 602.814 252.787 602.639 252.474C602.464 252.157 602.239 251.887 601.964 251.665C601.69 251.442 601.373 251.272 601.013 251.153C600.658 251.035 600.272 250.976 599.855 250.976C599.102 250.976 598.446 251.163 597.888 251.537C597.329 251.906 596.896 252.446 596.588 253.156C596.28 253.862 596.126 254.719 596.126 255.727C596.126 256.764 596.28 257.635 596.588 258.341C596.901 259.046 597.336 259.579 597.895 259.939C598.454 260.299 599.1 260.479 599.834 260.479C600.246 260.479 600.627 260.424 600.977 260.315C601.332 260.206 601.647 260.048 601.922 259.839C602.196 259.626 602.424 259.368 602.604 259.065C602.788 258.762 602.916 258.417 602.987 258.028L606.098 258.043C606.018 258.71 605.816 259.354 605.494 259.974C605.177 260.59 604.749 261.142 604.209 261.629C603.674 262.112 603.035 262.496 602.291 262.78C601.553 263.059 600.717 263.199 599.784 263.199C598.487 263.199 597.327 262.905 596.304 262.318C595.286 261.731 594.481 260.881 593.889 259.768C593.302 258.656 593.009 257.309 593.009 255.727C593.009 254.141 593.307 252.792 593.903 251.679C594.5 250.566 595.31 249.719 596.332 249.136C597.355 248.549 598.506 248.256 599.784 248.256C600.627 248.256 601.408 248.374 602.128 248.611C602.852 248.848 603.494 249.193 604.053 249.648C604.611 250.098 605.066 250.649 605.416 251.303C605.771 251.956 605.999 252.704 606.098 253.547ZM608.246 263V252.091H611.272V263H608.246ZM609.766 250.685C609.317 250.685 608.931 250.536 608.609 250.237C608.291 249.934 608.133 249.572 608.133 249.151C608.133 248.734 608.291 248.376 608.609 248.078C608.931 247.775 609.317 247.624 609.766 247.624C610.216 247.624 610.6 247.775 610.917 248.078C611.239 248.376 611.4 248.734 611.4 249.151C611.4 249.572 611.239 249.934 610.917 250.237C610.6 250.536 610.216 250.685 609.766 250.685ZM613.696 263V252.091H616.629V253.994H616.743C616.941 253.317 617.275 252.806 617.744 252.46C618.213 252.11 618.752 251.935 619.363 251.935C619.515 251.935 619.678 251.944 619.853 251.963C620.029 251.982 620.182 252.008 620.315 252.041V254.726C620.173 254.683 619.976 254.645 619.725 254.612C619.475 254.579 619.245 254.562 619.037 254.562C618.592 254.562 618.194 254.66 617.843 254.854C617.498 255.043 617.223 255.308 617.02 255.649C616.821 255.99 616.721 256.383 616.721 256.828V263H613.696ZM626.3 263.213C625.183 263.213 624.222 262.976 623.417 262.503C622.617 262.025 622.001 261.362 621.57 260.514C621.144 259.667 620.931 258.691 620.931 257.588C620.931 256.471 621.147 255.491 621.577 254.648C622.013 253.8 622.631 253.14 623.431 252.666C624.231 252.188 625.183 251.949 626.286 251.949C627.238 251.949 628.071 252.122 628.786 252.467C629.501 252.813 630.067 253.298 630.484 253.923C630.9 254.548 631.13 255.282 631.173 256.125H628.317C628.237 255.58 628.024 255.143 627.678 254.811C627.337 254.475 626.89 254.307 626.336 254.307C625.867 254.307 625.458 254.435 625.107 254.69C624.762 254.941 624.492 255.308 624.298 255.791C624.103 256.274 624.006 256.859 624.006 257.545C624.006 258.241 624.101 258.833 624.29 259.321C624.485 259.809 624.757 260.18 625.107 260.436C625.458 260.692 625.867 260.82 626.336 260.82C626.682 260.82 626.992 260.749 627.266 260.607C627.546 260.464 627.775 260.259 627.955 259.989C628.14 259.714 628.261 259.385 628.317 259.001H631.173C631.125 259.835 630.898 260.569 630.491 261.203C630.088 261.833 629.532 262.325 628.822 262.68C628.112 263.036 627.271 263.213 626.3 263.213ZM640.105 258.355V252.091H643.131V263H640.226V261.018H640.113C639.866 261.658 639.457 262.171 638.884 262.56C638.316 262.948 637.622 263.142 636.803 263.142C636.074 263.142 635.432 262.976 634.878 262.645C634.324 262.313 633.891 261.842 633.578 261.232C633.271 260.621 633.114 259.889 633.11 259.037V252.091H636.135V258.497C636.14 259.141 636.313 259.65 636.654 260.024C636.995 260.398 637.452 260.585 638.025 260.585C638.389 260.585 638.73 260.502 639.047 260.337C639.364 260.166 639.62 259.915 639.814 259.584C640.013 259.252 640.11 258.843 640.105 258.355ZM645.551 263V252.091H648.577V263H645.551ZM647.071 250.685C646.621 250.685 646.235 250.536 645.913 250.237C645.596 249.934 645.438 249.572 645.438 249.151C645.438 248.734 645.596 248.376 645.913 248.078C646.235 247.775 646.621 247.624 647.071 247.624C647.521 247.624 647.904 247.775 648.222 248.078C648.544 248.376 648.705 248.734 648.705 249.151C648.705 249.572 648.544 249.934 648.222 250.237C647.904 250.536 647.521 250.685 647.071 250.685ZM656.803 252.091V254.364H650.233V252.091H656.803ZM651.725 249.477H654.75V259.648C654.75 259.927 654.793 260.145 654.878 260.301C654.963 260.453 655.082 260.559 655.233 260.621C655.39 260.682 655.569 260.713 655.773 260.713C655.915 260.713 656.057 260.701 656.199 260.678C656.341 260.649 656.45 260.628 656.526 260.614L657.002 262.865C656.85 262.912 656.637 262.967 656.363 263.028C656.088 263.095 655.754 263.135 655.361 263.149C654.632 263.178 653.993 263.08 653.444 262.858C652.899 262.635 652.475 262.29 652.172 261.821C651.869 261.352 651.72 260.76 651.725 260.045V249.477Z" fill="black"/>
<rect x="182" y="329" width="123" height="76" fill="white"/>
<path d="M226.098 367.547H222.987C222.93 367.144 222.814 366.787 222.639 366.474C222.464 366.157 222.239 365.887 221.964 365.665C221.69 365.442 221.373 365.272 221.013 365.153C220.658 365.035 220.272 364.976 219.855 364.976C219.102 364.976 218.446 365.163 217.888 365.537C217.329 365.906 216.896 366.446 216.588 367.156C216.28 367.862 216.126 368.719 216.126 369.727C216.126 370.764 216.28 371.635 216.588 372.341C216.901 373.046 217.336 373.579 217.895 373.939C218.454 374.299 219.1 374.479 219.834 374.479C220.246 374.479 220.627 374.424 220.977 374.315C221.332 374.206 221.647 374.048 221.922 373.839C222.196 373.626 222.424 373.368 222.604 373.065C222.788 372.762 222.916 372.417 222.987 372.028L226.098 372.043C226.018 372.71 225.816 373.354 225.494 373.974C225.177 374.59 224.749 375.142 224.209 375.629C223.674 376.112 223.035 376.496 222.291 376.78C221.553 377.059 220.717 377.199 219.784 377.199C218.487 377.199 217.327 376.905 216.304 376.318C215.286 375.731 214.481 374.881 213.889 373.768C213.302 372.656 213.009 371.309 213.009 369.727C213.009 368.141 213.307 366.792 213.903 365.679C214.5 364.566 215.31 363.719 216.332 363.136C217.355 362.549 218.506 362.256 219.784 362.256C220.627 362.256 221.408 362.374 222.128 362.611C222.852 362.848 223.494 363.193 224.053 363.648C224.611 364.098 225.066 364.649 225.416 365.303C225.771 365.956 225.999 366.704 226.098 367.547ZM228.246 377V366.091H231.272V377H228.246ZM229.766 364.685C229.317 364.685 228.931 364.536 228.609 364.237C228.291 363.934 228.133 363.572 228.133 363.151C228.133 362.734 228.291 362.376 228.609 362.078C228.931 361.775 229.317 361.624 229.766 361.624C230.216 361.624 230.6 361.775 230.917 362.078C231.239 362.376 231.4 362.734 231.4 363.151C231.4 363.572 231.239 363.934 230.917 364.237C230.6 364.536 230.216 364.685 229.766 364.685ZM233.696 377V366.091H236.629V367.994H236.743C236.941 367.317 237.275 366.806 237.744 366.46C238.213 366.11 238.752 365.935 239.363 365.935C239.515 365.935 239.678 365.944 239.853 365.963C240.029 365.982 240.182 366.008 240.315 366.041V368.726C240.173 368.683 239.976 368.645 239.725 368.612C239.475 368.579 239.245 368.562 239.037 368.562C238.592 368.562 238.194 368.66 237.843 368.854C237.498 369.043 237.223 369.308 237.02 369.649C236.821 369.99 236.721 370.383 236.721 370.828V377H233.696ZM246.3 377.213C245.183 377.213 244.222 376.976 243.417 376.503C242.617 376.025 242.001 375.362 241.57 374.514C241.144 373.667 240.931 372.691 240.931 371.588C240.931 370.471 241.147 369.491 241.577 368.648C242.013 367.8 242.631 367.14 243.431 366.666C244.231 366.188 245.183 365.949 246.286 365.949C247.238 365.949 248.071 366.122 248.786 366.467C249.501 366.813 250.067 367.298 250.484 367.923C250.9 368.548 251.13 369.282 251.173 370.125H248.317C248.237 369.58 248.024 369.143 247.678 368.811C247.337 368.475 246.89 368.307 246.336 368.307C245.867 368.307 245.458 368.435 245.107 368.69C244.762 368.941 244.492 369.308 244.298 369.791C244.103 370.274 244.006 370.859 244.006 371.545C244.006 372.241 244.101 372.833 244.29 373.321C244.485 373.809 244.757 374.18 245.107 374.436C245.458 374.692 245.867 374.82 246.336 374.82C246.682 374.82 246.992 374.749 247.266 374.607C247.546 374.464 247.775 374.259 247.955 373.989C248.14 373.714 248.261 373.385 248.317 373.001H251.173C251.125 373.835 250.898 374.569 250.491 375.203C250.088 375.833 249.532 376.325 248.822 376.68C248.112 377.036 247.271 377.213 246.3 377.213ZM260.105 372.355V366.091H263.131V377H260.226V375.018H260.113C259.866 375.658 259.457 376.171 258.884 376.56C258.316 376.948 257.622 377.142 256.803 377.142C256.074 377.142 255.432 376.976 254.878 376.645C254.324 376.313 253.891 375.842 253.578 375.232C253.271 374.621 253.114 373.889 253.11 373.037V366.091H256.135V372.497C256.14 373.141 256.313 373.65 256.654 374.024C256.995 374.398 257.452 374.585 258.025 374.585C258.389 374.585 258.73 374.502 259.047 374.337C259.364 374.166 259.62 373.915 259.814 373.584C260.013 373.252 260.11 372.843 260.105 372.355ZM265.551 377V366.091H268.577V377H265.551ZM267.071 364.685C266.621 364.685 266.235 364.536 265.913 364.237C265.596 363.934 265.438 363.572 265.438 363.151C265.438 362.734 265.596 362.376 265.913 362.078C266.235 361.775 266.621 361.624 267.071 361.624C267.521 361.624 267.904 361.775 268.222 362.078C268.544 362.376 268.705 362.734 268.705 363.151C268.705 363.572 268.544 363.934 268.222 364.237C267.904 364.536 267.521 364.685 267.071 364.685ZM276.803 366.091V368.364H270.233V366.091H276.803ZM271.725 363.477H274.75V373.648C274.75 373.927 274.793 374.145 274.878 374.301C274.963 374.453 275.082 374.559 275.233 374.621C275.39 374.682 275.569 374.713 275.773 374.713C275.915 374.713 276.057 374.701 276.199 374.678C276.341 374.649 276.45 374.628 276.526 374.614L277.002 376.865C276.85 376.912 276.637 376.967 276.363 377.028C276.088 377.095 275.754 377.135 275.361 377.149C274.632 377.178 273.993 377.08 273.444 376.858C272.899 376.635 272.475 376.29 272.172 375.821C271.869 375.352 271.72 374.76 271.725 374.045V363.477Z" fill="black"/>
<rect x="372" y="329" width="123" height="76" fill="white"/>
<path d="M416.098 367.547H412.987C412.93 367.144 412.814 366.787 412.639 366.474C412.464 366.157 412.239 365.887 411.964 365.665C411.69 365.442 411.373 365.272 411.013 365.153C410.658 365.035 410.272 364.976 409.855 364.976C409.102 364.976 408.446 365.163 407.888 365.537C407.329 365.906 406.896 366.446 406.588 367.156C406.28 367.862 406.126 368.719 406.126 369.727C406.126 370.764 406.28 371.635 406.588 372.341C406.901 373.046 407.336 373.579 407.895 373.939C408.454 374.299 409.1 374.479 409.834 374.479C410.246 374.479 410.627 374.424 410.977 374.315C411.332 374.206 411.647 374.048 411.922 373.839C412.196 373.626 412.424 373.368 412.604 373.065C412.788 372.762 412.916 372.417 412.987 372.028L416.098 372.043C416.018 372.71 415.816 373.354 415.494 373.974C415.177 374.59 414.749 375.142 414.209 375.629C413.674 376.112 413.035 376.496 412.291 376.78C411.553 377.059 410.717 377.199 409.784 377.199C408.487 377.199 407.327 376.905 406.304 376.318C405.286 375.731 404.481 374.881 403.889 373.768C403.302 372.656 403.009 371.309 403.009 369.727C403.009 368.141 403.307 366.792 403.903 365.679C404.5 364.566 405.31 363.719 406.332 363.136C407.355 362.549 408.506 362.256 409.784 362.256C410.627 362.256 411.408 362.374 412.128 362.611C412.852 362.848 413.494 363.193 414.053 363.648C414.611 364.098 415.066 364.649 415.416 365.303C415.771 365.956 415.999 366.704 416.098 367.547ZM418.246 377V366.091H421.272V377H418.246ZM419.766 364.685C419.317 364.685 418.931 364.536 418.609 364.237C418.291 363.934 418.133 363.572 418.133 363.151C418.133 362.734 418.291 362.376 418.609 362.078C418.931 361.775 419.317 361.624 419.766 361.624C420.216 361.624 420.6 361.775 420.917 362.078C421.239 362.376 421.4 362.734 421.4 363.151C421.4 363.572 421.239 363.934 420.917 364.237C420.6 364.536 420.216 364.685 419.766 364.685ZM423.696 377V366.091H426.629V367.994H426.743C426.941 367.317 427.275 366.806 427.744 366.46C428.213 366.11 428.752 365.935 429.363 365.935C429.515 365.935 429.678 365.944 429.853 365.963C430.029 365.982 430.182 366.008 430.315 366.041V368.726C430.173 368.683 429.976 368.645 429.725 368.612C429.475 368.579 429.245 368.562 429.037 368.562C428.592 368.562 428.194 368.66 427.843 368.854C427.498 369.043 427.223 369.308 427.02 369.649C426.821 369.99 426.721 370.383 426.721 370.828V377H423.696ZM436.3 377.213C435.183 377.213 434.222 376.976 433.417 376.503C432.617 376.025 432.001 375.362 431.57 374.514C431.144 373.667 430.931 372.691 430.931 371.588C430.931 370.471 431.147 369.491 431.577 368.648C432.013 367.8 432.631 367.14 433.431 366.666C434.231 366.188 435.183 365.949 436.286 365.949C437.238 365.949 438.071 366.122 438.786 366.467C439.501 366.813 440.067 367.298 440.484 367.923C440.9 368.548 441.13 369.282 441.173 370.125H438.317C438.237 369.58 438.024 369.143 437.678 368.811C437.337 368.475 436.89 368.307 436.336 368.307C435.867 368.307 435.458 368.435 435.107 368.69C434.762 368.941 434.492 369.308 434.298 369.791C434.103 370.274 434.006 370.859 434.006 371.545C434.006 372.241 434.101 372.833 434.29 373.321C434.485 373.809 434.757 374.18 435.107 374.436C435.458 374.692 435.867 374.82 436.336 374.82C436.682 374.82 436.992 374.749 437.266 374.607C437.546 374.464 437.775 374.259 437.955 373.989C438.14 373.714 438.261 373.385 438.317 373.001H441.173C441.125 373.835 440.898 374.569 440.491 375.203C440.088 375.833 439.532 376.325 438.822 376.68C438.112 377.036 437.271 377.213 436.3 377.213ZM450.105 372.355V366.091H453.131V377H450.226V375.018H450.113C449.866 375.658 449.457 376.171 448.884 376.56C448.316 376.948 447.622 377.142 446.803 377.142C446.074 377.142 445.432 376.976 444.878 376.645C444.324 376.313 443.891 375.842 443.578 375.232C443.271 374.621 443.114 373.889 443.11 373.037V366.091H446.135V372.497C446.14 373.141 446.313 373.65 446.654 374.024C446.995 374.398 447.452 374.585 448.025 374.585C448.389 374.585 448.73 374.502 449.047 374.337C449.364 374.166 449.62 373.915 449.814 373.584C450.013 373.252 450.11 372.843 450.105 372.355ZM455.551 377V366.091H458.577V377H455.551ZM457.071 364.685C456.621 364.685 456.235 364.536 455.913 364.237C455.596 363.934 455.438 363.572 455.438 363.151C455.438 362.734 455.596 362.376 455.913 362.078C456.235 361.775 456.621 361.624 457.071 361.624C457.521 361.624 457.904 361.775 458.222 362.078C458.544 362.376 458.705 362.734 458.705 363.151C458.705 363.572 458.544 363.934 458.222 364.237C457.904 364.536 457.521 364.685 457.071 364.685ZM466.803 366.091V368.364H460.233V366.091H466.803ZM461.725 363.477H464.75V373.648C464.75 373.927 464.793 374.145 464.878 374.301C464.963 374.453 465.082 374.559 465.233 374.621C465.39 374.682 465.569 374.713 465.773 374.713C465.915 374.713 466.057 374.701 466.199 374.678C466.341 374.649 466.45 374.628 466.526 374.614L467.002 376.865C466.85 376.912 466.637 376.967 466.363 377.028C466.088 377.095 465.754 377.135 465.361 377.149C464.632 377.178 463.993 377.08 463.444 376.858C462.899 376.635 462.475 376.29 462.172 375.821C461.869 375.352 461.72 374.76 461.725 374.045V363.477Z" fill="black"/>
<rect x="562" y="329" width="123" height="76" fill="white"/>
<path d="M606.098 367.547H602.987C602.93 367.144 602.814 366.787 602.639 366.474C602.464 366.157 602.239 365.887 601.964 365.665C601.69 365.442 601.373 365.272 601.013 365.153C600.658 365.035 600.272 364.976 599.855 364.976C599.102 364.976 598.446 365.163 597.888 365.537C597.329 365.906 596.896 366.446 596.588 367.156C596.28 367.862 596.126 368.719 596.126 369.727C596.126 370.764 596.28 371.635 596.588 372.341C596.901 373.046 597.336 373.579 597.895 373.939C598.454 374.299 599.1 374.479 599.834 374.479C600.246 374.479 600.627 374.424 600.977 374.315C601.332 374.206 601.647 374.048 601.922 373.839C602.196 373.626 602.424 373.368 602.604 373.065C602.788 372.762 602.916 372.417 602.987 372.028L606.098 372.043C606.018 372.71 605.816 373.354 605.494 373.974C605.177 374.59 604.749 375.142 604.209 375.629C603.674 376.112 603.035 376.496 602.291 376.78C601.553 377.059 600.717 377.199 599.784 377.199C598.487 377.199 597.327 376.905 596.304 376.318C595.286 375.731 594.481 374.881 593.889 373.768C593.302 372.656 593.009 371.309 593.009 369.727C593.009 368.141 593.307 366.792 593.903 365.679C594.5 364.566 595.31 363.719 596.332 363.136C597.355 362.549 598.506 362.256 599.784 362.256C600.627 362.256 601.408 362.374 602.128 362.611C602.852 362.848 603.494 363.193 604.053 363.648C604.611 364.098 605.066 364.649 605.416 365.303C605.771 365.956 605.999 366.704 606.098 367.547ZM608.246 377V366.091H611.272V377H608.246ZM609.766 364.685C609.317 364.685 608.931 364.536 608.609 364.237C608.291 363.934 608.133 363.572 608.133 363.151C608.133 362.734 608.291 362.376 608.609 362.078C608.931 361.775 609.317 361.624 609.766 361.624C610.216 361.624 610.6 361.775 610.917 362.078C611.239 362.376 611.4 362.734 611.4 363.151C611.4 363.572 611.239 363.934 610.917 364.237C610.6 364.536 610.216 364.685 609.766 364.685ZM613.696 377V366.091H616.629V367.994H616.743C616.941 367.317 617.275 366.806 617.744 366.46C618.213 366.11 618.752 365.935 619.363 365.935C619.515 365.935 619.678 365.944 619.853 365.963C620.029 365.982 620.182 366.008 620.315 366.041V368.726C620.173 368.683 619.976 368.645 619.725 368.612C619.475 368.579 619.245 368.562 619.037 368.562C618.592 368.562 618.194 368.66 617.843 368.854C617.498 369.043 617.223 369.308 617.02 369.649C616.821 369.99 616.721 370.383 616.721 370.828V377H613.696ZM626.3 377.213C625.183 377.213 624.222 376.976 623.417 376.503C622.617 376.025 622.001 375.362 621.57 374.514C621.144 373.667 620.931 372.691 620.931 371.588C620.931 370.471 621.147 369.491 621.577 368.648C622.013 367.8 622.631 367.14 623.431 366.666C624.231 366.188 625.183 365.949 626.286 365.949C627.238 365.949 628.071 366.122 628.786 366.467C629.501 366.813 630.067 367.298 630.484 367.923C630.9 368.548 631.13 369.282 631.173 370.125H628.317C628.237 369.58 628.024 369.143 627.678 368.811C627.337 368.475 626.89 368.307 626.336 368.307C625.867 368.307 625.458 368.435 625.107 368.69C624.762 368.941 624.492 369.308 624.298 369.791C624.103 370.274 624.006 370.859 624.006 371.545C624.006 372.241 624.101 372.833 624.29 373.321C624.485 373.809 624.757 374.18 625.107 374.436C625.458 374.692 625.867 374.82 626.336 374.82C626.682 374.82 626.992 374.749 627.266 374.607C627.546 374.464 627.775 374.259 627.955 373.989C628.14 373.714 628.261 373.385 628.317 373.001H631.173C631.125 373.835 630.898 374.569 630.491 375.203C630.088 375.833 629.532 376.325 628.822 376.68C628.112 377.036 627.271 377.213 626.3 377.213ZM640.105 372.355V366.091H643.131V377H640.226V375.018H640.113C639.866 375.658 639.457 376.171 638.884 376.56C638.316 376.948 637.622 377.142 636.803 377.142C636.074 377.142 635.432 376.976 634.878 376.645C634.324 376.313 633.891 375.842 633.578 375.232C633.271 374.621 633.114 373.889 633.11 373.037V366.091H636.135V372.497C636.14 373.141 636.313 373.65 636.654 374.024C636.995 374.398 637.452 374.585 638.025 374.585C638.389 374.585 638.73 374.502 639.047 374.337C639.364 374.166 639.62 373.915 639.814 373.584C640.013 373.252 640.11 372.843 640.105 372.355ZM645.551 377V366.091H648.577V377H645.551ZM647.071 364.685C646.621 364.685 646.235 364.536 645.913 364.237C645.596 363.934 645.438 363.572 645.438 363.151C645.438 362.734 645.596 362.376 645.913 362.078C646.235 361.775 646.621 361.624 647.071 361.624C647.521 361.624 647.904 361.775 648.222 362.078C648.544 362.376 648.705 362.734 648.705 363.151C648.705 363.572 648.544 363.934 648.222 364.237C647.904 364.536 647.521 364.685 647.071 364.685ZM656.803 366.091V368.364H650.233V366.091H656.803ZM651.725 363.477H654.75V373.648C654.75 373.927 654.793 374.145 654.878 374.301C654.963 374.453 655.082 374.559 655.233 374.621C655.39 374.682 655.569 374.713 655.773 374.713C655.915 374.713 656.057 374.701 656.199 374.678C656.341 374.649 656.45 374.628 656.526 374.614L657.002 376.865C656.85 376.912 656.637 376.967 656.363 377.028C656.088 377.095 655.754 377.135 655.361 377.149C654.632 377.178 653.993 377.08 653.444 376.858C652.899 376.635 652.475 376.29 652.172 375.821C651.869 375.352 651.72 374.76 651.725 374.045V363.477Z" fill="black"/>
<path d="M375.264 170V155.455H378.339V167.464H384.575V170H375.264ZM386.555 170V159.091H389.581V170H386.555ZM388.075 157.685C387.625 157.685 387.239 157.536 386.917 157.237C386.6 156.934 386.441 156.572 386.441 156.151C386.441 155.734 386.6 155.376 386.917 155.078C387.239 154.775 387.625 154.624 388.075 154.624C388.525 154.624 388.908 154.775 389.225 155.078C389.547 155.376 389.708 155.734 389.708 156.151C389.708 156.572 389.547 156.934 389.225 157.237C388.908 157.536 388.525 157.685 388.075 157.685ZM401.081 162.202L398.311 162.372C398.264 162.135 398.162 161.922 398.006 161.733C397.849 161.539 397.643 161.385 397.388 161.271C397.137 161.153 396.836 161.094 396.486 161.094C396.017 161.094 395.622 161.193 395.3 161.392C394.978 161.586 394.817 161.847 394.817 162.173C394.817 162.434 394.921 162.654 395.129 162.834C395.338 163.014 395.695 163.158 396.202 163.267L398.176 163.665C399.237 163.883 400.027 164.233 400.548 164.716C401.069 165.199 401.33 165.833 401.33 166.619C401.33 167.334 401.119 167.962 400.697 168.501C400.281 169.041 399.708 169.463 398.979 169.766C398.254 170.064 397.419 170.213 396.472 170.213C395.027 170.213 393.877 169.912 393.02 169.311C392.168 168.705 391.668 167.881 391.521 166.839L394.497 166.683C394.587 167.124 394.805 167.46 395.151 167.692C395.496 167.919 395.939 168.033 396.479 168.033C397.009 168.033 397.435 167.931 397.757 167.727C398.084 167.519 398.25 167.251 398.254 166.925C398.25 166.65 398.134 166.425 397.906 166.25C397.679 166.07 397.329 165.933 396.855 165.838L394.966 165.462C393.901 165.249 393.107 164.879 392.587 164.354C392.071 163.828 391.812 163.158 391.812 162.344C391.812 161.643 392.002 161.039 392.381 160.533C392.764 160.026 393.302 159.635 393.993 159.361C394.689 159.086 395.503 158.949 396.436 158.949C397.814 158.949 398.898 159.24 399.689 159.822C400.484 160.405 400.948 161.198 401.081 162.202ZM409.037 159.091V161.364H402.468V159.091H409.037ZM403.959 156.477H406.985V166.648C406.985 166.927 407.027 167.145 407.113 167.301C407.198 167.453 407.316 167.559 407.468 167.621C407.624 167.682 407.804 167.713 408.007 167.713C408.15 167.713 408.292 167.701 408.434 167.678C408.576 167.649 408.685 167.628 408.76 167.614L409.236 169.865C409.085 169.912 408.872 169.967 408.597 170.028C408.322 170.095 407.989 170.135 407.596 170.149C406.866 170.178 406.227 170.08 405.678 169.858C405.133 169.635 404.71 169.29 404.407 168.821C404.104 168.352 403.954 167.76 403.959 167.045V156.477ZM415.863 170.213C414.74 170.213 413.775 169.986 412.965 169.531C412.16 169.072 411.54 168.423 411.104 167.585C410.668 166.742 410.451 165.746 410.451 164.595C410.451 163.473 410.668 162.488 411.104 161.641C411.54 160.793 412.153 160.133 412.944 159.659C413.739 159.186 414.672 158.949 415.742 158.949C416.462 158.949 417.132 159.065 417.752 159.297C418.377 159.524 418.921 159.867 419.385 160.327C419.854 160.786 420.219 161.364 420.479 162.06C420.739 162.751 420.87 163.561 420.87 164.489V165.32H411.658V163.445H418.022C418.022 163.009 417.927 162.623 417.738 162.287C417.548 161.951 417.285 161.688 416.949 161.499C416.618 161.304 416.232 161.207 415.792 161.207C415.332 161.207 414.925 161.314 414.57 161.527C414.22 161.735 413.945 162.017 413.746 162.372C413.547 162.723 413.445 163.113 413.441 163.544V165.327C413.441 165.866 413.54 166.333 413.739 166.726C413.943 167.119 414.229 167.422 414.598 167.635C414.968 167.848 415.406 167.955 415.912 167.955C416.248 167.955 416.556 167.907 416.836 167.812C417.115 167.718 417.354 167.576 417.553 167.386C417.752 167.197 417.903 166.965 418.007 166.69L420.806 166.875C420.664 167.547 420.373 168.134 419.932 168.636C419.497 169.134 418.933 169.522 418.242 169.801C417.555 170.076 416.762 170.213 415.863 170.213ZM431.493 170.178C430.664 170.178 429.914 169.964 429.241 169.538C428.574 169.107 428.044 168.475 427.651 167.642C427.262 166.804 427.068 165.777 427.068 164.56C427.068 163.31 427.269 162.27 427.672 161.442C428.074 160.608 428.609 159.986 429.277 159.574C429.949 159.157 430.686 158.949 431.486 158.949C432.097 158.949 432.606 159.053 433.013 159.261C433.425 159.465 433.756 159.721 434.007 160.028C434.263 160.331 434.457 160.63 434.589 160.923H434.682V155.455H437.7V170H434.717V168.253H434.589C434.447 168.556 434.246 168.857 433.986 169.155C433.73 169.448 433.396 169.692 432.984 169.886C432.577 170.08 432.08 170.178 431.493 170.178ZM432.452 167.77C432.939 167.77 433.351 167.637 433.688 167.372C434.028 167.102 434.289 166.726 434.469 166.243C434.653 165.76 434.746 165.194 434.746 164.545C434.746 163.897 434.656 163.333 434.476 162.855C434.296 162.377 434.036 162.008 433.695 161.747C433.354 161.487 432.939 161.357 432.452 161.357C431.955 161.357 431.536 161.491 431.195 161.761C430.854 162.031 430.596 162.405 430.42 162.884C430.245 163.362 430.158 163.916 430.158 164.545C430.158 165.18 430.245 165.741 430.42 166.229C430.6 166.712 430.858 167.09 431.195 167.365C431.536 167.635 431.955 167.77 432.452 167.77ZM445.159 170.213C444.037 170.213 443.071 169.986 442.262 169.531C441.457 169.072 440.837 168.423 440.401 167.585C439.965 166.742 439.748 165.746 439.748 164.595C439.748 163.473 439.965 162.488 440.401 161.641C440.837 160.793 441.45 160.133 442.24 159.659C443.036 159.186 443.969 158.949 445.039 158.949C445.758 158.949 446.428 159.065 447.049 159.297C447.674 159.524 448.218 159.867 448.682 160.327C449.151 160.786 449.516 161.364 449.776 162.06C450.036 162.751 450.167 163.561 450.167 164.489V165.32H440.955V163.445H447.319C447.319 163.009 447.224 162.623 447.034 162.287C446.845 161.951 446.582 161.688 446.246 161.499C445.915 161.304 445.529 161.207 445.088 161.207C444.629 161.207 444.222 161.314 443.867 161.527C443.516 161.735 443.242 162.017 443.043 162.372C442.844 162.723 442.742 163.113 442.738 163.544V165.327C442.738 165.866 442.837 166.333 443.036 166.726C443.239 167.119 443.526 167.422 443.895 167.635C444.265 167.848 444.703 167.955 445.209 167.955C445.545 167.955 445.853 167.907 446.132 167.812C446.412 167.718 446.651 167.576 446.85 167.386C447.049 167.197 447.2 166.965 447.304 166.69L450.103 166.875C449.961 167.547 449.669 168.134 449.229 168.636C448.793 169.134 448.23 169.522 447.539 169.801C446.852 170.076 446.059 170.213 445.159 170.213ZM461.218 162.202L458.448 162.372C458.4 162.135 458.299 161.922 458.142 161.733C457.986 161.539 457.78 161.385 457.525 161.271C457.274 161.153 456.973 161.094 456.623 161.094C456.154 161.094 455.758 161.193 455.436 161.392C455.114 161.586 454.953 161.847 454.953 162.173C454.953 162.434 455.058 162.654 455.266 162.834C455.474 163.014 455.832 163.158 456.338 163.267L458.313 163.665C459.373 163.883 460.164 164.233 460.685 164.716C461.206 165.199 461.466 165.833 461.466 166.619C461.466 167.334 461.256 167.962 460.834 168.501C460.417 169.041 459.845 169.463 459.115 169.766C458.391 170.064 457.555 170.213 456.608 170.213C455.164 170.213 454.014 169.912 453.157 169.311C452.304 168.705 451.805 167.881 451.658 166.839L454.634 166.683C454.724 167.124 454.942 167.46 455.287 167.692C455.633 167.919 456.076 168.033 456.615 168.033C457.146 168.033 457.572 167.931 457.894 167.727C458.221 167.519 458.386 167.251 458.391 166.925C458.386 166.65 458.27 166.425 458.043 166.25C457.816 166.07 457.465 165.933 456.992 165.838L455.103 165.462C454.037 165.249 453.244 164.879 452.723 164.354C452.207 163.828 451.949 163.158 451.949 162.344C451.949 161.643 452.139 161.039 452.517 160.533C452.901 160.026 453.438 159.635 454.13 159.361C454.826 159.086 455.64 158.949 456.573 158.949C457.951 158.949 459.035 159.24 459.826 159.822C460.621 160.405 461.085 161.198 461.218 162.202ZM472.929 170.213C471.812 170.213 470.851 169.976 470.046 169.503C469.246 169.025 468.63 168.362 468.199 167.514C467.773 166.667 467.56 165.691 467.56 164.588C467.56 163.471 467.775 162.491 468.206 161.648C468.642 160.8 469.26 160.14 470.06 159.666C470.86 159.188 471.812 158.949 472.915 158.949C473.867 158.949 474.7 159.122 475.415 159.467C476.13 159.813 476.696 160.298 477.113 160.923C477.529 161.548 477.759 162.282 477.801 163.125H474.946C474.866 162.58 474.653 162.143 474.307 161.811C473.966 161.475 473.519 161.307 472.965 161.307C472.496 161.307 472.087 161.435 471.736 161.69C471.391 161.941 471.121 162.308 470.926 162.791C470.732 163.274 470.635 163.859 470.635 164.545C470.635 165.241 470.73 165.833 470.919 166.321C471.114 166.809 471.386 167.18 471.736 167.436C472.087 167.692 472.496 167.82 472.965 167.82C473.31 167.82 473.621 167.749 473.895 167.607C474.175 167.464 474.404 167.259 474.584 166.989C474.769 166.714 474.89 166.385 474.946 166.001H477.801C477.754 166.835 477.527 167.569 477.12 168.203C476.717 168.833 476.161 169.325 475.451 169.68C474.74 170.036 473.9 170.213 472.929 170.213ZM479.739 170V159.091H482.764V170H479.739ZM481.259 157.685C480.809 157.685 480.423 157.536 480.101 157.237C479.784 156.934 479.625 156.572 479.625 156.151C479.625 155.734 479.784 155.376 480.101 155.078C480.423 154.775 480.809 154.624 481.259 154.624C481.708 154.624 482.092 154.775 482.409 155.078C482.731 155.376 482.892 155.734 482.892 156.151C482.892 156.572 482.731 156.934 482.409 157.237C482.092 157.536 481.708 157.685 481.259 157.685ZM485.188 170V159.091H488.121V160.994H488.235C488.434 160.317 488.767 159.806 489.236 159.46C489.705 159.11 490.245 158.935 490.855 158.935C491.007 158.935 491.17 158.944 491.346 158.963C491.521 158.982 491.675 159.008 491.807 159.041V161.726C491.665 161.683 491.469 161.645 491.218 161.612C490.967 161.579 490.737 161.562 490.529 161.562C490.084 161.562 489.686 161.66 489.336 161.854C488.99 162.043 488.715 162.308 488.512 162.649C488.313 162.99 488.213 163.383 488.213 163.828V170H485.188ZM497.793 170.213C496.675 170.213 495.714 169.976 494.909 169.503C494.109 169.025 493.493 168.362 493.062 167.514C492.636 166.667 492.423 165.691 492.423 164.588C492.423 163.471 492.639 162.491 493.07 161.648C493.505 160.8 494.123 160.14 494.923 159.666C495.723 159.188 496.675 158.949 497.778 158.949C498.73 158.949 499.563 159.122 500.278 159.467C500.993 159.813 501.559 160.298 501.976 160.923C502.393 161.548 502.622 162.282 502.665 163.125H499.81C499.729 162.58 499.516 162.143 499.17 161.811C498.83 161.475 498.382 161.307 497.828 161.307C497.359 161.307 496.95 161.435 496.599 161.69C496.254 161.941 495.984 162.308 495.79 162.791C495.596 163.274 495.499 163.859 495.499 164.545C495.499 165.241 495.593 165.833 495.783 166.321C495.977 166.809 496.249 167.18 496.599 167.436C496.95 167.692 497.359 167.82 497.828 167.82C498.174 167.82 498.484 167.749 498.759 167.607C499.038 167.464 499.268 167.259 499.447 166.989C499.632 166.714 499.753 166.385 499.81 166.001H502.665C502.617 166.835 502.39 167.569 501.983 168.203C501.58 168.833 501.024 169.325 500.314 169.68C499.604 170.036 498.763 170.213 497.793 170.213ZM511.598 165.355V159.091H514.623V170H511.718V168.018H511.605C511.359 168.658 510.949 169.171 510.376 169.56C509.808 169.948 509.114 170.142 508.295 170.142C507.566 170.142 506.924 169.976 506.37 169.645C505.816 169.313 505.383 168.842 505.071 168.232C504.763 167.621 504.607 166.889 504.602 166.037V159.091H507.627V165.497C507.632 166.141 507.805 166.65 508.146 167.024C508.487 167.398 508.944 167.585 509.517 167.585C509.881 167.585 510.222 167.502 510.539 167.337C510.857 167.166 511.112 166.915 511.306 166.584C511.505 166.252 511.602 165.843 511.598 165.355ZM517.043 170V159.091H520.069V170H517.043ZM518.563 157.685C518.113 157.685 517.728 157.536 517.406 157.237C517.088 156.934 516.93 156.572 516.93 156.151C516.93 155.734 517.088 155.376 517.406 155.078C517.728 154.775 518.113 154.624 518.563 154.624C519.013 154.624 519.397 154.775 519.714 155.078C520.036 155.376 520.197 155.734 520.197 156.151C520.197 156.572 520.036 156.934 519.714 157.237C519.397 157.536 519.013 157.685 518.563 157.685ZM528.295 159.091V161.364H521.725V159.091H528.295ZM523.217 156.477H526.243V166.648C526.243 166.927 526.285 167.145 526.37 167.301C526.456 167.453 526.574 167.559 526.725 167.621C526.882 167.682 527.062 167.713 527.265 167.713C527.407 167.713 527.549 167.701 527.691 167.678C527.833 167.649 527.942 167.628 528.018 167.614L528.494 169.865C528.342 169.912 528.129 169.967 527.855 170.028C527.58 170.095 527.246 170.135 526.853 170.149C526.124 170.178 525.485 170.08 524.936 169.858C524.391 169.635 523.967 169.29 523.664 168.821C523.361 168.352 523.212 167.76 523.217 167.045V156.477ZM539.206 162.202L536.436 162.372C536.389 162.135 536.287 161.922 536.131 161.733C535.974 161.539 535.768 161.385 535.513 161.271C535.262 161.153 534.961 161.094 534.611 161.094C534.142 161.094 533.747 161.193 533.425 161.392C533.103 161.586 532.942 161.847 532.942 162.173C532.942 162.434 533.046 162.654 533.254 162.834C533.463 163.014 533.82 163.158 534.327 163.267L536.301 163.665C537.362 163.883 538.152 164.233 538.673 164.716C539.194 165.199 539.455 165.833 539.455 166.619C539.455 167.334 539.244 167.962 538.822 168.501C538.406 169.041 537.833 169.463 537.104 169.766C536.379 170.064 535.544 170.213 534.597 170.213C533.152 170.213 532.002 169.912 531.145 169.311C530.293 168.705 529.793 167.881 529.646 166.839L532.622 166.683C532.712 167.124 532.93 167.46 533.276 167.692C533.621 167.919 534.064 168.033 534.604 168.033C535.134 168.033 535.56 167.931 535.882 167.727C536.209 167.519 536.375 167.251 536.379 166.925C536.375 166.65 536.259 166.425 536.031 166.25C535.804 166.07 535.454 165.933 534.98 165.838L533.091 165.462C532.026 165.249 531.232 164.879 530.712 164.354C530.196 163.828 529.938 163.158 529.938 162.344C529.938 161.643 530.127 161.039 530.506 160.533C530.889 160.026 531.427 159.635 532.118 159.361C532.814 159.086 533.628 158.949 534.561 158.949C535.939 158.949 537.023 159.24 537.814 159.822C538.609 160.405 539.073 161.198 539.206 162.202Z" fill="black"/>
<rect x="142.5" y="58.5" width="606" height="59" fill="white" stroke="black"/>
<rect x="595" y="67" width="131" height="41" fill="#D9D9D9"/>
<path d="M596.264 95V80.4545H599.339V92.4645H605.575V95H596.264ZM612.484 95.2131C611.381 95.2131 610.427 94.9787 609.622 94.5099C608.822 94.0365 608.204 93.3783 607.768 92.5355C607.333 91.688 607.115 90.7055 607.115 89.5881C607.115 88.4612 607.333 87.4763 607.768 86.6335C608.204 85.786 608.822 85.1278 609.622 84.6591C610.427 84.1856 611.381 83.9489 612.484 83.9489C613.587 83.9489 614.539 84.1856 615.339 84.6591C616.144 85.1278 616.764 85.786 617.2 86.6335C617.636 87.4763 617.853 88.4612 617.853 89.5881C617.853 90.7055 617.636 91.688 617.2 92.5355C616.764 93.3783 616.144 94.0365 615.339 94.5099C614.539 94.9787 613.587 95.2131 612.484 95.2131ZM612.498 92.8693C613 92.8693 613.419 92.7273 613.755 92.4432C614.092 92.1544 614.345 91.7614 614.515 91.2642C614.69 90.767 614.778 90.2012 614.778 89.5668C614.778 88.9323 614.69 88.3665 614.515 87.8693C614.345 87.3722 614.092 86.9792 613.755 86.6903C613.419 86.4015 613 86.2571 612.498 86.2571C611.992 86.2571 611.565 86.4015 611.22 86.6903C610.879 86.9792 610.621 87.3722 610.446 87.8693C610.275 88.3665 610.19 88.9323 610.19 89.5668C610.19 90.2012 610.275 90.767 610.446 91.2642C610.621 91.7614 610.879 92.1544 611.22 92.4432C611.565 92.7273 611.992 92.8693 612.498 92.8693ZM624.735 99.3182C623.755 99.3182 622.915 99.1832 622.214 98.9134C621.518 98.6482 620.964 98.286 620.552 97.8267C620.14 97.3674 619.873 96.8513 619.75 96.2784L622.548 95.902C622.633 96.1198 622.768 96.3234 622.953 96.5128C623.137 96.7022 623.381 96.8537 623.684 96.9673C623.992 97.0857 624.366 97.1449 624.806 97.1449C625.465 97.1449 626.007 96.9839 626.433 96.6619C626.864 96.3447 627.079 95.812 627.079 95.0639V93.0682H626.951C626.819 93.3712 626.62 93.6577 626.355 93.9276C626.09 94.1974 625.749 94.4176 625.332 94.5881C624.915 94.7585 624.418 94.8438 623.841 94.8438C623.021 94.8438 622.276 94.6544 621.603 94.2756C620.936 93.892 620.403 93.3073 620.005 92.5213C619.612 91.7306 619.416 90.7315 619.416 89.5241C619.416 88.2884 619.617 87.2562 620.02 86.4276C620.422 85.599 620.957 84.9787 621.625 84.5668C622.297 84.1548 623.033 83.9489 623.833 83.9489C624.444 83.9489 624.956 84.053 625.368 84.2614C625.779 84.465 626.111 84.7206 626.362 85.0284C626.618 85.3314 626.814 85.6297 626.951 85.9233H627.065V84.0909H630.069V95.1065C630.069 96.0346 629.842 96.8111 629.387 97.4361C628.933 98.0611 628.303 98.5298 627.498 98.8423C626.698 99.1596 625.777 99.3182 624.735 99.3182ZM624.799 92.571C625.287 92.571 625.699 92.4503 626.035 92.2088C626.376 91.9626 626.636 91.6122 626.816 91.1577C627.001 90.6984 627.093 90.1491 627.093 89.5099C627.093 88.8707 627.003 88.3168 626.824 87.848C626.644 87.3745 626.383 87.0076 626.042 86.7472C625.701 86.4867 625.287 86.3565 624.799 86.3565C624.302 86.3565 623.883 86.4915 623.542 86.7614C623.201 87.0265 622.943 87.3958 622.768 87.8693C622.593 88.3428 622.505 88.8897 622.505 89.5099C622.505 90.1397 622.593 90.6842 622.768 91.1435C622.948 91.598 623.206 91.9508 623.542 92.2017C623.883 92.4479 624.302 92.571 624.799 92.571ZM632.477 95V84.0909H635.502V95H632.477ZM633.997 82.6847C633.547 82.6847 633.161 82.5355 632.839 82.2372C632.522 81.9342 632.363 81.572 632.363 81.1506C632.363 80.7339 632.522 80.3764 632.839 80.0781C633.161 79.7751 633.547 79.6236 633.997 79.6236C634.447 79.6236 634.83 79.7751 635.147 80.0781C635.469 80.3764 635.63 80.7339 635.63 81.1506C635.63 81.572 635.469 81.9342 635.147 82.2372C634.83 82.5355 634.447 82.6847 633.997 82.6847ZM640.952 88.6932V95H637.926V84.0909H640.81V86.0156H640.938C641.179 85.3812 641.584 84.8793 642.152 84.5099C642.72 84.1359 643.409 83.9489 644.219 83.9489C644.976 83.9489 645.637 84.1146 646.2 84.446C646.764 84.7775 647.202 85.2509 647.514 85.8665C647.827 86.4773 647.983 87.2064 647.983 88.054V95H644.957V88.5938C644.962 87.9261 644.792 87.4053 644.446 87.0312C644.1 86.6525 643.625 86.4631 643.018 86.4631C642.611 86.4631 642.251 86.5507 641.939 86.7259C641.631 86.901 641.39 87.1567 641.214 87.4929C641.044 87.8243 640.956 88.2244 640.952 88.6932ZM656.703 79.7727L652.015 97.1875H649.409L654.096 79.7727H656.703ZM658.217 95V80.4545H661.293V92.4645H667.528V95H658.217ZM674.437 95.2131C673.334 95.2131 672.38 94.9787 671.575 94.5099C670.775 94.0365 670.157 93.3783 669.721 92.5355C669.286 91.688 669.068 90.7055 669.068 89.5881C669.068 88.4612 669.286 87.4763 669.721 86.6335C670.157 85.786 670.775 85.1278 671.575 84.6591C672.38 84.1856 673.334 83.9489 674.437 83.9489C675.54 83.9489 676.492 84.1856 677.292 84.6591C678.097 85.1278 678.717 85.786 679.153 86.6335C679.589 87.4763 679.806 88.4612 679.806 89.5881C679.806 90.7055 679.589 91.688 679.153 92.5355C678.717 93.3783 678.097 94.0365 677.292 94.5099C676.492 94.9787 675.54 95.2131 674.437 95.2131ZM674.451 92.8693C674.953 92.8693 675.372 92.7273 675.708 92.4432C676.045 92.1544 676.298 91.7614 676.468 91.2642C676.644 90.767 676.731 90.2012 676.731 89.5668C676.731 88.9323 676.644 88.3665 676.468 87.8693C676.298 87.3722 676.045 86.9792 675.708 86.6903C675.372 86.4015 674.953 86.2571 674.451 86.2571C673.945 86.2571 673.519 86.4015 673.173 86.6903C672.832 86.9792 672.574 87.3722 672.399 87.8693C672.228 88.3665 672.143 88.9323 672.143 89.5668C672.143 90.2012 672.228 90.767 672.399 91.2642C672.574 91.7614 672.832 92.1544 673.173 92.4432C673.519 92.7273 673.945 92.8693 674.451 92.8693ZM686.689 99.3182C685.708 99.3182 684.868 99.1832 684.167 98.9134C683.471 98.6482 682.917 98.286 682.505 97.8267C682.093 97.3674 681.826 96.8513 681.703 96.2784L684.501 95.902C684.586 96.1198 684.721 96.3234 684.906 96.5128C685.091 96.7022 685.334 96.8537 685.637 96.9673C685.945 97.0857 686.319 97.1449 686.76 97.1449C687.418 97.1449 687.96 96.9839 688.386 96.6619C688.817 96.3447 689.032 95.812 689.032 95.0639V93.0682H688.904C688.772 93.3712 688.573 93.6577 688.308 93.9276C688.043 94.1974 687.702 94.4176 687.285 94.5881C686.868 94.7585 686.371 94.8438 685.794 94.8438C684.975 94.8438 684.229 94.6544 683.556 94.2756C682.889 93.892 682.356 93.3073 681.958 92.5213C681.565 91.7306 681.369 90.7315 681.369 89.5241C681.369 88.2884 681.57 87.2562 681.973 86.4276C682.375 85.599 682.91 84.9787 683.578 84.5668C684.25 84.1548 684.986 83.9489 685.787 83.9489C686.397 83.9489 686.909 84.053 687.321 84.2614C687.733 84.465 688.064 84.7206 688.315 85.0284C688.571 85.3314 688.767 85.6297 688.904 85.9233H689.018V84.0909H692.022V95.1065C692.022 96.0346 691.795 96.8111 691.341 97.4361C690.886 98.0611 690.256 98.5298 689.451 98.8423C688.651 99.1596 687.73 99.3182 686.689 99.3182ZM686.752 92.571C687.24 92.571 687.652 92.4503 687.988 92.2088C688.329 91.9626 688.59 91.6122 688.77 91.1577C688.954 90.6984 689.047 90.1491 689.047 89.5099C689.047 88.8707 688.957 88.3168 688.777 87.848C688.597 87.3745 688.336 87.0076 687.995 86.7472C687.654 86.4867 687.24 86.3565 686.752 86.3565C686.255 86.3565 685.836 86.4915 685.495 86.7614C685.154 87.0265 684.896 87.3958 684.721 87.8693C684.546 88.3428 684.458 88.8897 684.458 89.5099C684.458 90.1397 684.546 90.6842 684.721 91.1435C684.901 91.598 685.159 91.9508 685.495 92.2017C685.836 92.4479 686.255 92.571 686.752 92.571ZM699.359 95.2131C698.256 95.2131 697.302 94.9787 696.497 94.5099C695.697 94.0365 695.079 93.3783 694.643 92.5355C694.208 91.688 693.99 90.7055 693.99 89.5881C693.99 88.4612 694.208 87.4763 694.643 86.6335C695.079 85.786 695.697 85.1278 696.497 84.6591C697.302 84.1856 698.256 83.9489 699.359 83.9489C700.462 83.9489 701.414 84.1856 702.214 84.6591C703.019 85.1278 703.639 85.786 704.075 86.6335C704.511 87.4763 704.728 88.4612 704.728 89.5881C704.728 90.7055 704.511 91.688 704.075 92.5355C703.639 93.3783 703.019 94.0365 702.214 94.5099C701.414 94.9787 700.462 95.2131 699.359 95.2131ZM699.373 92.8693C699.875 92.8693 700.294 92.7273 700.63 92.4432C700.967 92.1544 701.22 91.7614 701.39 91.2642C701.565 90.767 701.653 90.2012 701.653 89.5668C701.653 88.9323 701.565 88.3665 701.39 87.8693C701.22 87.3722 700.967 86.9792 700.63 86.6903C700.294 86.4015 699.875 86.2571 699.373 86.2571C698.867 86.2571 698.44 86.4015 698.095 86.6903C697.754 86.9792 697.496 87.3722 697.321 87.8693C697.15 88.3665 697.065 88.9323 697.065 89.5668C697.065 90.2012 697.15 90.767 697.321 91.2642C697.496 91.7614 697.754 92.1544 698.095 92.4432C698.44 92.7273 698.867 92.8693 699.373 92.8693ZM713.691 90.3551V84.0909H716.717V95H713.812V93.0185H713.699C713.452 93.6577 713.043 94.1714 712.47 94.5597C711.902 94.9479 711.208 95.142 710.389 95.142C709.66 95.142 709.018 94.9763 708.464 94.6449C707.91 94.3134 707.477 93.8423 707.164 93.2315C706.857 92.6207 706.7 91.8892 706.696 91.0369V84.0909H709.721V90.4972C709.726 91.1411 709.899 91.6501 710.24 92.0241C710.581 92.3982 711.038 92.5852 711.61 92.5852C711.975 92.5852 712.316 92.5024 712.633 92.3366C712.95 92.1662 713.206 91.9152 713.4 91.5838C713.599 91.2524 713.696 90.8428 713.691 90.3551ZM724.94 84.0909V86.3636H718.37V84.0909H724.94ZM719.862 81.4773H722.887V91.6477C722.887 91.9271 722.93 92.1449 723.015 92.3011C723.1 92.4527 723.219 92.5592 723.37 92.6207C723.526 92.6823 723.706 92.7131 723.91 92.7131C724.052 92.7131 724.194 92.7012 724.336 92.6776C724.478 92.6491 724.587 92.6278 724.663 92.6136L725.138 94.8651C724.987 94.9124 724.774 94.9669 724.499 95.0284C724.225 95.0947 723.891 95.1349 723.498 95.1491C722.769 95.1776 722.129 95.0805 721.58 94.858C721.036 94.6354 720.612 94.2898 720.309 93.821C720.006 93.3523 719.857 92.7604 719.862 92.0455V81.4773Z" fill="black"/>
<rect x="482" y="67" width="74" height="41" fill="#D9D9D9"/>
<path d="M486.264 95V80.4545H492.003C493.106 80.4545 494.046 80.6652 494.822 81.0866C495.599 81.5033 496.191 82.0833 496.598 82.8267C497.01 83.5653 497.216 84.4176 497.216 85.3835C497.216 86.3494 497.008 87.2017 496.591 87.9403C496.174 88.679 495.571 89.2543 494.78 89.6662C493.994 90.0781 493.042 90.2841 491.925 90.2841H488.267V87.8196H491.428C492.019 87.8196 492.507 87.7178 492.891 87.5142C493.279 87.3059 493.568 87.0194 493.757 86.6548C493.951 86.2855 494.048 85.8617 494.048 85.3835C494.048 84.9006 493.951 84.4792 493.757 84.1193C493.568 83.7547 493.279 83.473 492.891 83.2741C492.502 83.0705 492.01 82.9688 491.413 82.9688H489.339V95H486.264ZM499.157 95V84.0909H502.182V95H499.157ZM500.676 82.6847C500.227 82.6847 499.841 82.5355 499.519 82.2372C499.202 81.9342 499.043 81.572 499.043 81.1506C499.043 80.7339 499.202 80.3764 499.519 80.0781C499.841 79.7751 500.227 79.6236 500.676 79.6236C501.126 79.6236 501.51 79.7751 501.827 80.0781C502.149 80.3764 502.31 80.7339 502.31 81.1506C502.31 81.572 502.149 81.9342 501.827 82.2372C501.51 82.5355 501.126 82.6847 500.676 82.6847ZM507.631 80.4545V95H504.606V80.4545H507.631ZM514.984 95.2131C513.881 95.2131 512.927 94.9787 512.122 94.5099C511.322 94.0365 510.704 93.3783 510.268 92.5355C509.833 91.688 509.615 90.7055 509.615 89.5881C509.615 88.4612 509.833 87.4763 510.268 86.6335C510.704 85.786 511.322 85.1278 512.122 84.6591C512.927 84.1856 513.881 83.9489 514.984 83.9489C516.087 83.9489 517.039 84.1856 517.839 84.6591C518.644 85.1278 519.264 85.786 519.7 86.6335C520.136 87.4763 520.353 88.4612 520.353 89.5881C520.353 90.7055 520.136 91.688 519.7 92.5355C519.264 93.3783 518.644 94.0365 517.839 94.5099C517.039 94.9787 516.087 95.2131 514.984 95.2131ZM514.998 92.8693C515.5 92.8693 515.919 92.7273 516.255 92.4432C516.592 92.1544 516.845 91.7614 517.015 91.2642C517.19 90.767 517.278 90.2012 517.278 89.5668C517.278 88.9323 517.19 88.3665 517.015 87.8693C516.845 87.3722 516.592 86.9792 516.255 86.6903C515.919 86.4015 515.5 86.2571 514.998 86.2571C514.492 86.2571 514.065 86.4015 513.72 86.6903C513.379 86.9792 513.121 87.3722 512.946 87.8693C512.775 88.3665 512.69 88.9323 512.69 89.5668C512.69 90.2012 512.775 90.767 512.946 91.2642C513.121 91.7614 513.379 92.1544 513.72 92.4432C514.065 92.7273 514.492 92.8693 514.998 92.8693ZM528.123 84.0909V86.3636H521.554V84.0909H528.123ZM523.045 81.4773H526.071V91.6477C526.071 91.9271 526.113 92.1449 526.199 92.3011C526.284 92.4527 526.402 92.5592 526.554 92.6207C526.71 92.6823 526.89 92.7131 527.093 92.7131C527.235 92.7131 527.377 92.7012 527.52 92.6776C527.662 92.6491 527.77 92.6278 527.846 92.6136L528.322 94.8651C528.171 94.9124 527.958 94.9669 527.683 95.0284C527.408 95.0947 527.074 95.1349 526.681 95.1491C525.952 95.1776 525.313 95.0805 524.764 94.858C524.219 94.6354 523.796 94.2898 523.493 93.821C523.19 93.3523 523.04 92.7604 523.045 92.0455V81.4773ZM534.949 95.2131C533.826 95.2131 532.86 94.9858 532.051 94.5312C531.246 94.072 530.626 93.4233 530.19 92.5852C529.754 91.7424 529.537 90.7457 529.537 89.5952C529.537 88.473 529.754 87.4882 530.19 86.6406C530.626 85.7931 531.239 85.1326 532.029 84.6591C532.825 84.1856 533.758 83.9489 534.828 83.9489C535.547 83.9489 536.217 84.0649 536.838 84.2969C537.463 84.5241 538.007 84.8674 538.471 85.3267C538.94 85.786 539.305 86.3636 539.565 87.0597C539.825 87.7509 539.956 88.5606 539.956 89.4886V90.3196H530.744V88.4446H537.108C537.108 88.009 537.013 87.6231 536.824 87.2869C536.634 86.9508 536.371 86.688 536.035 86.4986C535.704 86.3045 535.318 86.2074 534.877 86.2074C534.418 86.2074 534.011 86.3139 533.656 86.527C533.306 86.7353 533.031 87.017 532.832 87.3722C532.633 87.7225 532.531 88.1132 532.527 88.544V90.3267C532.527 90.8665 532.626 91.3329 532.825 91.7259C533.029 92.1188 533.315 92.4219 533.684 92.6349C534.054 92.848 534.492 92.9545 534.998 92.9545C535.334 92.9545 535.642 92.9072 535.922 92.8125C536.201 92.7178 536.44 92.5758 536.639 92.3864C536.838 92.197 536.989 91.965 537.093 91.6903L539.892 91.875C539.75 92.5473 539.458 93.1345 539.018 93.6364C538.583 94.1335 538.019 94.5218 537.328 94.8011C536.641 95.0758 535.848 95.2131 534.949 95.2131ZM551.007 87.2017L548.237 87.3722C548.19 87.1354 548.088 86.9223 547.931 86.733C547.775 86.5388 547.569 86.3849 547.314 86.2713C547.063 86.1529 546.762 86.0938 546.412 86.0938C545.943 86.0938 545.547 86.1932 545.225 86.392C544.904 86.5862 544.743 86.8466 544.743 87.1733C544.743 87.4337 544.847 87.6539 545.055 87.8338C545.263 88.0137 545.621 88.1581 546.127 88.267L548.102 88.6648C549.163 88.8826 549.953 89.233 550.474 89.7159C550.995 90.1989 551.255 90.8333 551.255 91.6193C551.255 92.3343 551.045 92.9616 550.623 93.5014C550.207 94.0412 549.634 94.4626 548.904 94.7656C548.18 95.0639 547.344 95.2131 546.397 95.2131C544.953 95.2131 543.803 94.9124 542.946 94.3111C542.093 93.705 541.594 92.8812 541.447 91.8395L544.423 91.6832C544.513 92.1236 544.731 92.4598 545.076 92.6918C545.422 92.919 545.865 93.0327 546.404 93.0327C546.935 93.0327 547.361 92.9309 547.683 92.7273C548.01 92.5189 548.175 92.2514 548.18 91.9247C548.175 91.6501 548.059 91.4252 547.832 91.25C547.605 91.0701 547.254 90.9328 546.781 90.8381L544.892 90.4616C543.826 90.2486 543.033 89.8793 542.512 89.3537C541.996 88.8281 541.738 88.1581 541.738 87.3438C541.738 86.643 541.928 86.0393 542.306 85.5327C542.69 85.026 543.227 84.6354 543.919 84.3608C544.615 84.0862 545.429 83.9489 546.362 83.9489C547.74 83.9489 548.824 84.2401 549.615 84.8224C550.41 85.4048 550.874 86.1979 551.007 87.2017Z" fill="black"/>
<rect x="372" y="67" width="74" height="41" fill="#D9D9D9"/>
<path d="M373.264 95V80.4545H383.065V82.9901H376.339V86.456H382.561V88.9915H376.339V92.4645H383.094V95H373.264ZM390.382 95.2131C389.265 95.2131 388.304 94.9763 387.499 94.5028C386.699 94.0246 386.083 93.3617 385.652 92.5142C385.226 91.6667 385.013 90.6913 385.013 89.5881C385.013 88.4706 385.229 87.4905 385.659 86.6477C386.095 85.8002 386.713 85.1397 387.513 84.6662C388.313 84.188 389.265 83.9489 390.368 83.9489C391.32 83.9489 392.153 84.1217 392.868 84.4673C393.583 84.813 394.149 85.2983 394.566 85.9233C394.982 86.5483 395.212 87.2822 395.255 88.125H392.4C392.319 87.5805 392.106 87.1425 391.76 86.8111C391.419 86.4749 390.972 86.3068 390.418 86.3068C389.949 86.3068 389.54 86.4347 389.189 86.6903C388.844 86.9413 388.574 87.3082 388.38 87.7912C388.185 88.2741 388.088 88.8589 388.088 89.5455C388.088 90.2415 388.183 90.8333 388.373 91.321C388.567 91.8087 388.839 92.1804 389.189 92.4361C389.54 92.6918 389.949 92.8196 390.418 92.8196C390.764 92.8196 391.074 92.7486 391.348 92.6065C391.628 92.4645 391.857 92.2585 392.037 91.9886C392.222 91.714 392.343 91.3849 392.4 91.0014H395.255C395.207 91.8348 394.98 92.5687 394.573 93.2031C394.17 93.8329 393.614 94.3253 392.904 94.6804C392.194 95.0355 391.353 95.2131 390.382 95.2131ZM404.188 90.3551V84.0909H407.213V95H404.308V93.0185H404.195C403.948 93.6577 403.539 94.1714 402.966 94.5597C402.398 94.9479 401.704 95.142 400.885 95.142C400.156 95.142 399.514 94.9763 398.96 94.6449C398.406 94.3134 397.973 93.8423 397.661 93.2315C397.353 92.6207 397.196 91.8892 397.192 91.0369V84.0909H400.217V90.4972C400.222 91.1411 400.395 91.6501 400.736 92.0241C401.077 92.3982 401.534 92.5852 402.107 92.5852C402.471 92.5852 402.812 92.5024 403.129 92.3366C403.446 92.1662 403.702 91.9152 403.896 91.5838C404.095 91.2524 404.192 90.8428 404.188 90.3551ZM409.633 95V84.0909H412.566V85.9943H412.68C412.879 85.3172 413.213 84.8059 413.681 84.4602C414.15 84.1098 414.69 83.9347 415.301 83.9347C415.452 83.9347 415.616 83.9441 415.791 83.9631C415.966 83.982 416.12 84.008 416.252 84.0412V86.7259C416.11 86.6832 415.914 86.6454 415.663 86.6122C415.412 86.5791 415.182 86.5625 414.974 86.5625C414.529 86.5625 414.131 86.6596 413.781 86.8537C413.435 87.0431 413.161 87.3082 412.957 87.6491C412.758 87.9901 412.659 88.383 412.659 88.8281V95H409.633ZM417.817 95V84.0909H420.842V95H417.817ZM419.337 82.6847C418.887 82.6847 418.501 82.5355 418.179 82.2372C417.862 81.9342 417.703 81.572 417.703 81.1506C417.703 80.7339 417.862 80.3764 418.179 80.0781C418.501 79.7751 418.887 79.6236 419.337 79.6236C419.786 79.6236 420.17 79.7751 420.487 80.0781C420.809 80.3764 420.97 80.7339 420.97 81.1506C420.97 81.572 420.809 81.9342 420.487 82.2372C420.17 82.5355 419.786 82.6847 419.337 82.6847ZM428.238 95.2131C427.115 95.2131 426.15 94.9858 425.34 94.5312C424.535 94.072 423.915 93.4233 423.479 92.5852C423.043 91.7424 422.826 90.7457 422.826 89.5952C422.826 88.473 423.043 87.4882 423.479 86.6406C423.915 85.7931 424.528 85.1326 425.319 84.6591C426.114 84.1856 427.047 83.9489 428.117 83.9489C428.837 83.9489 429.507 84.0649 430.127 84.2969C430.752 84.5241 431.296 84.8674 431.76 85.3267C432.229 85.786 432.594 86.3636 432.854 87.0597C433.114 87.7509 433.245 88.5606 433.245 89.4886V90.3196H424.033V88.4446H430.397C430.397 88.009 430.302 87.6231 430.113 87.2869C429.923 86.9508 429.66 86.688 429.324 86.4986C428.993 86.3045 428.607 86.2074 428.167 86.2074C427.707 86.2074 427.3 86.3139 426.945 86.527C426.595 86.7353 426.32 87.017 426.121 87.3722C425.922 87.7225 425.82 88.1132 425.816 88.544V90.3267C425.816 90.8665 425.915 91.3329 426.114 91.7259C426.318 92.1188 426.604 92.4219 426.973 92.6349C427.343 92.848 427.781 92.9545 428.287 92.9545C428.623 92.9545 428.931 92.9072 429.211 92.8125C429.49 92.7178 429.729 92.5758 429.928 92.3864C430.127 92.197 430.278 91.965 430.382 91.6903L433.181 91.875C433.039 92.5473 432.748 93.1345 432.307 93.6364C431.872 94.1335 431.308 94.5218 430.617 94.8011C429.93 95.0758 429.137 95.2131 428.238 95.2131ZM444.296 87.2017L441.526 87.3722C441.479 87.1354 441.377 86.9223 441.221 86.733C441.064 86.5388 440.858 86.3849 440.603 86.2713C440.352 86.1529 440.051 86.0938 439.701 86.0938C439.232 86.0938 438.837 86.1932 438.515 86.392C438.193 86.5862 438.032 86.8466 438.032 87.1733C438.032 87.4337 438.136 87.6539 438.344 87.8338C438.552 88.0137 438.91 88.1581 439.417 88.267L441.391 88.6648C442.452 88.8826 443.242 89.233 443.763 89.7159C444.284 90.1989 444.544 90.8333 444.544 91.6193C444.544 92.3343 444.334 92.9616 443.912 93.5014C443.496 94.0412 442.923 94.4626 442.194 94.7656C441.469 95.0639 440.633 95.2131 439.686 95.2131C438.242 95.2131 437.092 94.9124 436.235 94.3111C435.382 93.705 434.883 92.8812 434.736 91.8395L437.712 91.6832C437.802 92.1236 438.02 92.4598 438.365 92.6918C438.711 92.919 439.154 93.0327 439.694 93.0327C440.224 93.0327 440.65 92.9309 440.972 92.7273C441.299 92.5189 441.464 92.2514 441.469 91.9247C441.464 91.6501 441.348 91.4252 441.121 91.25C440.894 91.0701 440.543 90.9328 440.07 90.8381L438.181 90.4616C437.115 90.2486 436.322 89.8793 435.801 89.3537C435.285 88.8281 435.027 88.1581 435.027 87.3438C435.027 86.643 435.217 86.0393 435.596 85.5327C435.979 85.026 436.516 84.6354 437.208 84.3608C437.904 84.0862 438.718 83.9489 439.651 83.9489C441.029 83.9489 442.113 84.2401 442.904 84.8224C443.699 85.4048 444.163 86.1979 444.296 87.2017Z" fill="black"/>
<rect x="182" y="215" width="123" height="76" fill="white"/>
<path d="M226.098 253.547H222.987C222.93 253.144 222.814 252.787 222.639 252.474C222.464 252.157 222.239 251.887 221.964 251.665C221.69 251.442 221.373 251.272 221.013 251.153C220.658 251.035 220.272 250.976 219.855 250.976C219.102 250.976 218.446 251.163 217.888 251.537C217.329 251.906 216.896 252.446 216.588 253.156C216.28 253.862 216.126 254.719 216.126 255.727C216.126 256.764 216.28 257.635 216.588 258.341C216.901 259.046 217.336 259.579 217.895 259.939C218.454 260.299 219.1 260.479 219.834 260.479C220.246 260.479 220.627 260.424 220.977 260.315C221.332 260.206 221.647 260.048 221.922 259.839C222.196 259.626 222.424 259.368 222.604 259.065C222.788 258.762 222.916 258.417 222.987 258.028L226.098 258.043C226.018 258.71 225.816 259.354 225.494 259.974C225.177 260.59 224.749 261.142 224.209 261.629C223.674 262.112 223.035 262.496 222.291 262.78C221.553 263.059 220.717 263.199 219.784 263.199C218.487 263.199 217.327 262.905 216.304 262.318C215.286 261.731 214.481 260.881 213.889 259.768C213.302 258.656 213.009 257.309 213.009 255.727C213.009 254.141 213.307 252.792 213.903 251.679C214.5 250.566 215.31 249.719 216.332 249.136C217.355 248.549 218.506 248.256 219.784 248.256C220.627 248.256 221.408 248.374 222.128 248.611C222.852 248.848 223.494 249.193 224.053 249.648C224.611 250.098 225.066 250.649 225.416 251.303C225.771 251.956 225.999 252.704 226.098 253.547ZM228.246 263V252.091H231.272V263H228.246ZM229.766 250.685C229.317 250.685 228.931 250.536 228.609 250.237C228.291 249.934 228.133 249.572 228.133 249.151C228.133 248.734 228.291 248.376 228.609 248.078C228.931 247.775 229.317 247.624 229.766 247.624C230.216 247.624 230.6 247.775 230.917 248.078C231.239 248.376 231.4 248.734 231.4 249.151C231.4 249.572 231.239 249.934 230.917 250.237C230.6 250.536 230.216 250.685 229.766 250.685ZM233.696 263V252.091H236.629V253.994H236.743C236.941 253.317 237.275 252.806 237.744 252.46C238.213 252.11 238.752 251.935 239.363 251.935C239.515 251.935 239.678 251.944 239.853 251.963C240.029 251.982 240.182 252.008 240.315 252.041V254.726C240.173 254.683 239.976 254.645 239.725 254.612C239.475 254.579 239.245 254.562 239.037 254.562C238.592 254.562 238.194 254.66 237.843 254.854C237.498 255.043 237.223 255.308 237.02 255.649C236.821 255.99 236.721 256.383 236.721 256.828V263H233.696ZM246.3 263.213C245.183 263.213 244.222 262.976 243.417 262.503C242.617 262.025 242.001 261.362 241.57 260.514C241.144 259.667 240.931 258.691 240.931 257.588C240.931 256.471 241.147 255.491 241.577 254.648C242.013 253.8 242.631 253.14 243.431 252.666C244.231 252.188 245.183 251.949 246.286 251.949C247.238 251.949 248.071 252.122 248.786 252.467C249.501 252.813 250.067 253.298 250.484 253.923C250.9 254.548 251.13 255.282 251.173 256.125H248.317C248.237 255.58 248.024 255.143 247.678 254.811C247.337 254.475 246.89 254.307 246.336 254.307C245.867 254.307 245.458 254.435 245.107 254.69C244.762 254.941 244.492 255.308 244.298 255.791C244.103 256.274 244.006 256.859 244.006 257.545C244.006 258.241 244.101 258.833 244.29 259.321C244.485 259.809 244.757 260.18 245.107 260.436C245.458 260.692 245.867 260.82 246.336 260.82C246.682 260.82 246.992 260.749 247.266 260.607C247.546 260.464 247.775 260.259 247.955 259.989C248.14 259.714 248.261 259.385 248.317 259.001H251.173C251.125 259.835 250.898 260.569 250.491 261.203C250.088 261.833 249.532 262.325 248.822 262.68C248.112 263.036 247.271 263.213 246.3 263.213ZM260.105 258.355V252.091H263.131V263H260.226V261.018H260.113C259.866 261.658 259.457 262.171 258.884 262.56C258.316 262.948 257.622 263.142 256.803 263.142C256.074 263.142 255.432 262.976 254.878 262.645C254.324 262.313 253.891 261.842 253.578 261.232C253.271 260.621 253.114 259.889 253.11 259.037V252.091H256.135V258.497C256.14 259.141 256.313 259.65 256.654 260.024C256.995 260.398 257.452 260.585 258.025 260.585C258.389 260.585 258.73 260.502 259.047 260.337C259.364 260.166 259.62 259.915 259.814 259.584C260.013 259.252 260.11 258.843 260.105 258.355ZM265.551 263V252.091H268.577V263H265.551ZM267.071 250.685C266.621 250.685 266.235 250.536 265.913 250.237C265.596 249.934 265.438 249.572 265.438 249.151C265.438 248.734 265.596 248.376 265.913 248.078C266.235 247.775 266.621 247.624 267.071 247.624C267.521 247.624 267.904 247.775 268.222 248.078C268.544 248.376 268.705 248.734 268.705 249.151C268.705 249.572 268.544 249.934 268.222 250.237C267.904 250.536 267.521 250.685 267.071 250.685ZM276.803 252.091V254.364H270.233V252.091H276.803ZM271.725 249.477H274.75V259.648C274.75 259.927 274.793 260.145 274.878 260.301C274.963 260.453 275.082 260.559 275.233 260.621C275.39 260.682 275.569 260.713 275.773 260.713C275.915 260.713 276.057 260.701 276.199 260.678C276.341 260.649 276.45 260.628 276.526 260.614L277.002 262.865C276.85 262.912 276.637 262.967 276.363 263.028C276.088 263.095 275.754 263.135 275.361 263.149C274.632 263.178 273.993 263.08 273.444 262.858C272.899 262.635 272.475 262.29 272.172 261.821C271.869 261.352 271.72 260.76 271.725 260.045V249.477Z" fill="black"/>
<rect x="253" y="67" width="80" height="41" fill="#FF0000"/>
<path d="M270.098 85.5469H266.987C266.93 85.1444 266.814 84.7869 266.639 84.4744C266.464 84.1572 266.239 83.8873 265.964 83.6648C265.69 83.4422 265.373 83.2718 265.013 83.1534C264.658 83.035 264.272 82.9759 263.855 82.9759C263.102 82.9759 262.446 83.1629 261.888 83.5369C261.329 83.9062 260.896 84.446 260.588 85.1562C260.28 85.8617 260.126 86.7187 260.126 87.7273C260.126 88.7642 260.28 89.6354 260.588 90.3409C260.901 91.0464 261.336 91.5791 261.895 91.9389C262.454 92.2988 263.1 92.4787 263.834 92.4787C264.246 92.4787 264.627 92.4242 264.977 92.3153C265.332 92.2064 265.647 92.0478 265.922 91.8395C266.196 91.6264 266.424 91.3684 266.604 91.0653C266.788 90.7623 266.916 90.4167 266.987 90.0284L270.098 90.0426C270.018 90.7102 269.816 91.3542 269.494 91.9744C269.177 92.59 268.749 93.1416 268.209 93.6293C267.674 94.1122 267.035 94.4957 266.291 94.7798C265.553 95.0592 264.717 95.1989 263.784 95.1989C262.487 95.1989 261.327 94.9053 260.304 94.3182C259.286 93.7311 258.481 92.8812 257.889 91.7685C257.302 90.6558 257.009 89.3087 257.009 87.7273C257.009 86.1411 257.307 84.7917 257.903 83.679C258.5 82.5663 259.31 81.7187 260.332 81.1364C261.355 80.5492 262.506 80.2557 263.784 80.2557C264.627 80.2557 265.408 80.3741 266.128 80.6108C266.852 80.8475 267.494 81.1932 268.053 81.6477C268.611 82.0975 269.066 82.6491 269.416 83.3026C269.771 83.956 269.999 84.7041 270.098 85.5469ZM272.246 95V84.0909H275.272V95H272.246ZM273.766 82.6847C273.317 82.6847 272.931 82.5355 272.609 82.2372C272.291 81.9342 272.133 81.572 272.133 81.1506C272.133 80.7339 272.291 80.3764 272.609 80.0781C272.931 79.7751 273.317 79.6236 273.766 79.6236C274.216 79.6236 274.6 79.7751 274.917 80.0781C275.239 80.3764 275.4 80.7339 275.4 81.1506C275.4 81.572 275.239 81.9342 274.917 82.2372C274.6 82.5355 274.216 82.6847 273.766 82.6847ZM277.696 95V84.0909H280.629V85.9943H280.743C280.941 85.3172 281.275 84.8059 281.744 84.4602C282.213 84.1098 282.752 83.9347 283.363 83.9347C283.515 83.9347 283.678 83.9441 283.853 83.9631C284.029 83.982 284.182 84.008 284.315 84.0412V86.7259C284.173 86.6832 283.976 86.6454 283.725 86.6122C283.475 86.5791 283.245 86.5625 283.037 86.5625C282.592 86.5625 282.194 86.6596 281.843 86.8537C281.498 87.0431 281.223 87.3082 281.02 87.6491C280.821 87.9901 280.721 88.383 280.721 88.8281V95H277.696ZM290.3 95.2131C289.183 95.2131 288.222 94.9763 287.417 94.5028C286.617 94.0246 286.001 93.3617 285.57 92.5142C285.144 91.6667 284.931 90.6913 284.931 89.5881C284.931 88.4706 285.147 87.4905 285.577 86.6477C286.013 85.8002 286.631 85.1397 287.431 84.6662C288.231 84.188 289.183 83.9489 290.286 83.9489C291.238 83.9489 292.071 84.1217 292.786 84.4673C293.501 84.813 294.067 85.2983 294.484 85.9233C294.9 86.5483 295.13 87.2822 295.173 88.125H292.317C292.237 87.5805 292.024 87.1425 291.678 86.8111C291.337 86.4749 290.89 86.3068 290.336 86.3068C289.867 86.3068 289.458 86.4347 289.107 86.6903C288.762 86.9413 288.492 87.3082 288.298 87.7912C288.103 88.2741 288.006 88.8589 288.006 89.5455C288.006 90.2415 288.101 90.8333 288.29 91.321C288.485 91.8087 288.757 92.1804 289.107 92.4361C289.458 92.6918 289.867 92.8196 290.336 92.8196C290.682 92.8196 290.992 92.7486 291.266 92.6065C291.546 92.4645 291.775 92.2585 291.955 91.9886C292.14 91.714 292.261 91.3849 292.317 91.0014H295.173C295.125 91.8348 294.898 92.5687 294.491 93.2031C294.088 93.8329 293.532 94.3253 292.822 94.6804C292.112 95.0355 291.271 95.2131 290.3 95.2131ZM304.105 90.3551V84.0909H307.131V95H304.226V93.0185H304.113C303.866 93.6577 303.457 94.1714 302.884 94.5597C302.316 94.9479 301.622 95.142 300.803 95.142C300.074 95.142 299.432 94.9763 298.878 94.6449C298.324 94.3134 297.891 93.8423 297.578 93.2315C297.271 92.6207 297.114 91.8892 297.11 91.0369V84.0909H300.135V90.4972C300.14 91.1411 300.313 91.6501 300.654 92.0241C300.995 92.3982 301.452 92.5852 302.025 92.5852C302.389 92.5852 302.73 92.5024 303.047 92.3366C303.364 92.1662 303.62 91.9152 303.814 91.5838C304.013 91.2524 304.11 90.8428 304.105 90.3551ZM309.551 95V84.0909H312.577V95H309.551ZM311.071 82.6847C310.621 82.6847 310.235 82.5355 309.913 82.2372C309.596 81.9342 309.438 81.572 309.438 81.1506C309.438 80.7339 309.596 80.3764 309.913 80.0781C310.235 79.7751 310.621 79.6236 311.071 79.6236C311.521 79.6236 311.904 79.7751 312.222 80.0781C312.544 80.3764 312.705 80.7339 312.705 81.1506C312.705 81.572 312.544 81.9342 312.222 82.2372C311.904 82.5355 311.521 82.6847 311.071 82.6847ZM320.803 84.0909V86.3636H314.233V84.0909H320.803ZM315.725 81.4773H318.75V91.6477C318.75 91.9271 318.793 92.1449 318.878 92.3011C318.963 92.4527 319.082 92.5592 319.233 92.6207C319.39 92.6823 319.569 92.7131 319.773 92.7131C319.915 92.7131 320.057 92.7012 320.199 92.6776C320.341 92.6491 320.45 92.6278 320.526 92.6136L321.002 94.8651C320.85 94.9124 320.637 94.9669 320.363 95.0284C320.088 95.0947 319.754 95.1349 319.361 95.1491C318.632 95.1776 317.993 95.0805 317.444 94.858C316.899 94.6354 316.475 94.2898 316.172 93.821C315.869 93.3523 315.72 92.7604 315.725 92.0455V81.4773ZM331.714 87.2017L328.944 87.3722C328.897 87.1354 328.795 86.9223 328.638 86.733C328.482 86.5388 328.276 86.3849 328.021 86.2713C327.77 86.1529 327.469 86.0938 327.119 86.0938C326.65 86.0938 326.254 86.1932 325.933 86.392C325.611 86.5862 325.45 86.8466 325.45 87.1733C325.45 87.4337 325.554 87.6539 325.762 87.8338C325.97 88.0137 326.328 88.1581 326.835 88.267L328.809 88.6648C329.87 88.8826 330.66 89.233 331.181 89.7159C331.702 90.1989 331.962 90.8333 331.962 91.6193C331.962 92.3343 331.752 92.9616 331.33 93.5014C330.914 94.0412 330.341 94.4626 329.612 94.7656C328.887 95.0639 328.051 95.2131 327.104 95.2131C325.66 95.2131 324.51 94.9124 323.653 94.3111C322.8 93.705 322.301 92.8812 322.154 91.8395L325.13 91.6832C325.22 92.1236 325.438 92.4598 325.783 92.6918C326.129 92.919 326.572 93.0327 327.112 93.0327C327.642 93.0327 328.068 92.9309 328.39 92.7273C328.717 92.5189 328.882 92.2514 328.887 91.9247C328.882 91.6501 328.766 91.4252 328.539 91.25C328.312 91.0701 327.961 90.9328 327.488 90.8381L325.599 90.4616C324.533 90.2486 323.74 89.8793 323.219 89.3537C322.703 88.8281 322.445 88.1581 322.445 87.3438C322.445 86.643 322.635 86.0393 323.013 85.5327C323.397 85.026 323.934 84.6354 324.626 84.3608C325.322 84.0862 326.136 83.9489 327.069 83.9489C328.447 83.9489 329.531 84.2401 330.322 84.8224C331.117 85.4048 331.581 86.1979 331.714 87.2017Z" fill="black"/>
</svg>
