<svg width="907" height="526" viewBox="0 0 907 526" fill="none" xmlns="http://www.w3.org/2000/svg">
<rect width="907" height="526" fill="white"/>
<rect x="44.5" y="36.5" width="818" height="453" fill="#FBFBFB" stroke="black"/>
<rect x="142.5" y="138.5" width="606" height="305" fill="#D9D9D9" stroke="black"/>
<rect x="372" y="67" width="74" height="41" fill="#D9D9D9"/>
<path d="M373.264 95V80.4545H383.065V82.9901H376.339V86.456H382.561V88.9915H376.339V92.4645H383.094V95H373.264ZM390.382 95.2131C389.265 95.2131 388.304 94.9763 387.499 94.5028C386.699 94.0246 386.083 93.3617 385.652 92.5142C385.226 91.6667 385.013 90.6913 385.013 89.5881C385.013 88.4706 385.229 87.4905 385.659 86.6477C386.095 85.8002 386.713 85.1397 387.513 84.6662C388.313 84.188 389.265 83.9489 390.368 83.9489C391.32 83.9489 392.153 84.1217 392.868 84.4673C393.583 84.813 394.149 85.2983 394.566 85.9233C394.982 86.5483 395.212 87.2822 395.255 88.125H392.4C392.319 87.5805 392.106 87.1425 391.76 86.8111C391.419 86.4749 390.972 86.3068 390.418 86.3068C389.949 86.3068 389.54 86.4347 389.189 86.6903C388.844 86.9413 388.574 87.3082 388.38 87.7912C388.185 88.2741 388.088 88.8589 388.088 89.5455C388.088 90.2415 388.183 90.8333 388.373 91.321C388.567 91.8087 388.839 92.1804 389.189 92.4361C389.54 92.6918 389.949 92.8196 390.418 92.8196C390.764 92.8196 391.074 92.7486 391.348 92.6065C391.628 92.4645 391.857 92.2585 392.037 91.9886C392.222 91.714 392.343 91.3849 392.4 91.0014H395.255C395.207 91.8348 394.98 92.5687 394.573 93.2031C394.17 93.8329 393.614 94.3253 392.904 94.6804C392.194 95.0355 391.353 95.2131 390.382 95.2131ZM404.188 90.3551V84.0909H407.213V95H404.308V93.0185H404.195C403.948 93.6577 403.539 94.1714 402.966 94.5597C402.398 94.9479 401.704 95.142 400.885 95.142C400.156 95.142 399.514 94.9763 398.96 94.6449C398.406 94.3134 397.973 93.8423 397.661 93.2315C397.353 92.6207 397.196 91.8892 397.192 91.0369V84.0909H400.217V90.4972C400.222 91.1411 400.395 91.6501 400.736 92.0241C401.077 92.3982 401.534 92.5852 402.107 92.5852C402.471 92.5852 402.812 92.5024 403.129 92.3366C403.446 92.1662 403.702 91.9152 403.896 91.5838C404.095 91.2524 404.192 90.8428 404.188 90.3551ZM409.633 95V84.0909H412.566V85.9943H412.68C412.879 85.3172 413.213 84.8059 413.681 84.4602C414.15 84.1098 414.69 83.9347 415.301 83.9347C415.452 83.9347 415.616 83.9441 415.791 83.9631C415.966 83.982 416.12 84.008 416.252 84.0412V86.7259C416.11 86.6832 415.914 86.6454 415.663 86.6122C415.412 86.5791 415.182 86.5625 414.974 86.5625C414.529 86.5625 414.131 86.6596 413.781 86.8537C413.435 87.0431 413.161 87.3082 412.957 87.6491C412.758 87.9901 412.659 88.383 412.659 88.8281V95H409.633ZM417.817 95V84.0909H420.842V95H417.817ZM419.337 82.6847C418.887 82.6847 418.501 82.5355 418.179 82.2372C417.862 81.9342 417.703 81.572 417.703 81.1506C417.703 80.7339 417.862 80.3764 418.179 80.0781C418.501 79.7751 418.887 79.6236 419.337 79.6236C419.786 79.6236 420.17 79.7751 420.487 80.0781C420.809 80.3764 420.97 80.7339 420.97 81.1506C420.97 81.572 420.809 81.9342 420.487 82.2372C420.17 82.5355 419.786 82.6847 419.337 82.6847ZM428.238 95.2131C427.115 95.2131 426.15 94.9858 425.34 94.5312C424.535 94.072 423.915 93.4233 423.479 92.5852C423.043 91.7424 422.826 90.7457 422.826 89.5952C422.826 88.473 423.043 87.4882 423.479 86.6406C423.915 85.7931 424.528 85.1326 425.319 84.6591C426.114 84.1856 427.047 83.9489 428.117 83.9489C428.837 83.9489 429.507 84.0649 430.127 84.2969C430.752 84.5241 431.296 84.8674 431.76 85.3267C432.229 85.786 432.594 86.3636 432.854 87.0597C433.114 87.7509 433.245 88.5606 433.245 89.4886V90.3196H424.033V88.4446H430.397C430.397 88.009 430.302 87.6231 430.113 87.2869C429.923 86.9508 429.66 86.688 429.324 86.4986C428.993 86.3045 428.607 86.2074 428.167 86.2074C427.707 86.2074 427.3 86.3139 426.945 86.527C426.595 86.7353 426.32 87.017 426.121 87.3722C425.922 87.7225 425.82 88.1132 425.816 88.544V90.3267C425.816 90.8665 425.915 91.3329 426.114 91.7259C426.318 92.1188 426.604 92.4219 426.973 92.6349C427.343 92.848 427.781 92.9545 428.287 92.9545C428.623 92.9545 428.931 92.9072 429.211 92.8125C429.49 92.7178 429.729 92.5758 429.928 92.3864C430.127 92.197 430.278 91.965 430.382 91.6903L433.181 91.875C433.039 92.5473 432.748 93.1345 432.307 93.6364C431.872 94.1335 431.308 94.5218 430.617 94.8011C429.93 95.0758 429.137 95.2131 428.238 95.2131ZM444.296 87.2017L441.526 87.3722C441.479 87.1354 441.377 86.9223 441.221 86.733C441.064 86.5388 440.858 86.3849 440.603 86.2713C440.352 86.1529 440.051 86.0938 439.701 86.0938C439.232 86.0938 438.837 86.1932 438.515 86.392C438.193 86.5862 438.032 86.8466 438.032 87.1733C438.032 87.4337 438.136 87.6539 438.344 87.8338C438.552 88.0137 438.91 88.1581 439.417 88.267L441.391 88.6648C442.452 88.8826 443.242 89.233 443.763 89.7159C444.284 90.1989 444.544 90.8333 444.544 91.6193C444.544 92.3343 444.334 92.9616 443.912 93.5014C443.496 94.0412 442.923 94.4626 442.194 94.7656C441.469 95.0639 440.633 95.2131 439.686 95.2131C438.242 95.2131 437.092 94.9124 436.235 94.3111C435.382 93.705 434.883 92.8812 434.736 91.8395L437.712 91.6832C437.802 92.1236 438.02 92.4598 438.365 92.6918C438.711 92.919 439.154 93.0327 439.694 93.0327C440.224 93.0327 440.65 92.9309 440.972 92.7273C441.299 92.5189 441.464 92.2514 441.469 91.9247C441.464 91.6501 441.348 91.4252 441.121 91.25C440.894 91.0701 440.543 90.9328 440.07 90.8381L438.181 90.4616C437.115 90.2486 436.322 89.8793 435.801 89.3537C435.285 88.8281 435.027 88.1581 435.027 87.3438C435.027 86.643 435.217 86.0393 435.596 85.5327C435.979 85.026 436.516 84.6354 437.208 84.3608C437.904 84.0862 438.718 83.9489 439.651 83.9489C441.029 83.9489 442.113 84.2401 442.904 84.8224C443.699 85.4048 444.163 86.1979 444.296 87.2017Z" fill="black"/>
<path d="M382.108 298V296.175L389.366 285.99H382.094V283.455H393.23V285.28L385.964 295.464H393.244V298H382.108ZM408.287 290.727C408.287 292.313 407.986 293.663 407.385 294.776C406.788 295.888 405.974 296.738 404.942 297.325C403.914 297.908 402.759 298.199 401.476 298.199C400.183 298.199 399.023 297.905 397.996 297.318C396.968 296.731 396.156 295.881 395.56 294.768C394.963 293.656 394.665 292.309 394.665 290.727C394.665 289.141 394.963 287.792 395.56 286.679C396.156 285.566 396.968 284.719 397.996 284.136C399.023 283.549 400.183 283.256 401.476 283.256C402.759 283.256 403.914 283.549 404.942 284.136C405.974 284.719 406.788 285.566 407.385 286.679C407.986 287.792 408.287 289.141 408.287 290.727ZM405.169 290.727C405.169 289.7 405.015 288.833 404.707 288.128C404.404 287.422 403.976 286.887 403.422 286.523C402.868 286.158 402.219 285.976 401.476 285.976C400.732 285.976 400.084 286.158 399.53 286.523C398.976 286.887 398.545 287.422 398.237 288.128C397.934 288.833 397.783 289.7 397.783 290.727C397.783 291.755 397.934 292.621 398.237 293.327C398.545 294.032 398.976 294.567 399.53 294.932C400.084 295.296 400.732 295.479 401.476 295.479C402.219 295.479 402.868 295.296 403.422 294.932C403.976 294.567 404.404 294.032 404.707 293.327C405.015 292.621 405.169 291.755 405.169 290.727ZM422.731 283.455V298H420.075L413.747 288.845H413.64V298H410.565V283.455H413.264L419.542 292.602H419.67V283.455H422.731ZM425.272 298V283.455H435.073V285.99H428.347V289.456H434.569V291.991H428.347V295.464H435.102V298H425.272ZM447.303 298H442.147V283.455H447.346C448.809 283.455 450.068 283.746 451.124 284.328C452.18 284.906 452.992 285.737 453.56 286.821C454.133 287.905 454.42 289.203 454.42 290.713C454.42 292.228 454.133 293.53 453.56 294.619C452.992 295.708 452.175 296.544 451.11 297.126C450.049 297.709 448.781 298 447.303 298ZM445.222 295.365H447.175C448.085 295.365 448.849 295.204 449.469 294.882C450.094 294.555 450.563 294.051 450.876 293.369C451.193 292.683 451.352 291.797 451.352 290.713C451.352 289.638 451.193 288.76 450.876 288.078C450.563 287.396 450.097 286.894 449.477 286.572C448.856 286.25 448.092 286.089 447.183 286.089H445.222V295.365ZM456.698 298V283.455H466.499V285.99H459.773V289.456H465.995V291.991H459.773V295.464H466.527V298H456.698ZM479.397 283.455H482.436V293.597C482.436 294.534 482.226 295.348 481.804 296.04C481.388 296.731 480.808 297.264 480.064 297.638C479.321 298.012 478.457 298.199 477.472 298.199C476.596 298.199 475.801 298.045 475.086 297.737C474.375 297.425 473.812 296.951 473.395 296.317C472.979 295.678 472.773 294.875 472.777 293.909H475.838C475.848 294.293 475.926 294.622 476.073 294.896C476.224 295.166 476.43 295.375 476.691 295.521C476.956 295.663 477.268 295.734 477.628 295.734C478.007 295.734 478.327 295.654 478.587 295.493C478.852 295.327 479.053 295.086 479.191 294.768C479.328 294.451 479.397 294.061 479.397 293.597V283.455ZM484.979 298V283.455H494.78V285.99H488.054V289.456H494.276V291.991H488.054V295.464H494.809V298H484.979ZM506.21 283.455H509.285V292.901C509.285 293.961 509.031 294.889 508.525 295.685C508.023 296.48 507.32 297.1 506.415 297.545C505.511 297.986 504.458 298.206 503.255 298.206C502.048 298.206 500.992 297.986 500.087 297.545C499.183 297.1 498.48 296.48 497.978 295.685C497.476 294.889 497.225 293.961 497.225 292.901V283.455H500.3V292.638C500.3 293.192 500.421 293.684 500.663 294.115C500.909 294.546 501.254 294.884 501.7 295.131C502.145 295.377 502.663 295.5 503.255 295.5C503.852 295.5 504.37 295.377 504.81 295.131C505.255 294.884 505.599 294.546 505.84 294.115C506.086 293.684 506.21 293.192 506.21 292.638V283.455Z" fill="black"/>
<rect x="142.5" y="58.5" width="606" height="59" fill="white" stroke="black"/>
<rect x="595" y="67" width="131" height="41" fill="#D9D9D9"/>
<path d="M596.264 95V80.4545H599.339V92.4645H605.575V95H596.264ZM612.484 95.2131C611.381 95.2131 610.427 94.9787 609.622 94.5099C608.822 94.0365 608.204 93.3783 607.768 92.5355C607.333 91.688 607.115 90.7055 607.115 89.5881C607.115 88.4612 607.333 87.4763 607.768 86.6335C608.204 85.786 608.822 85.1278 609.622 84.6591C610.427 84.1856 611.381 83.9489 612.484 83.9489C613.587 83.9489 614.539 84.1856 615.339 84.6591C616.144 85.1278 616.764 85.786 617.2 86.6335C617.636 87.4763 617.853 88.4612 617.853 89.5881C617.853 90.7055 617.636 91.688 617.2 92.5355C616.764 93.3783 616.144 94.0365 615.339 94.5099C614.539 94.9787 613.587 95.2131 612.484 95.2131ZM612.498 92.8693C613 92.8693 613.419 92.7273 613.755 92.4432C614.092 92.1544 614.345 91.7614 614.515 91.2642C614.69 90.767 614.778 90.2012 614.778 89.5668C614.778 88.9323 614.69 88.3665 614.515 87.8693C614.345 87.3722 614.092 86.9792 613.755 86.6903C613.419 86.4015 613 86.2571 612.498 86.2571C611.992 86.2571 611.565 86.4015 611.22 86.6903C610.879 86.9792 610.621 87.3722 610.446 87.8693C610.275 88.3665 610.19 88.9323 610.19 89.5668C610.19 90.2012 610.275 90.767 610.446 91.2642C610.621 91.7614 610.879 92.1544 611.22 92.4432C611.565 92.7273 611.992 92.8693 612.498 92.8693ZM624.735 99.3182C623.755 99.3182 622.915 99.1832 622.214 98.9134C621.518 98.6482 620.964 98.286 620.552 97.8267C620.14 97.3674 619.873 96.8513 619.75 96.2784L622.548 95.902C622.633 96.1198 622.768 96.3234 622.953 96.5128C623.137 96.7022 623.381 96.8537 623.684 96.9673C623.992 97.0857 624.366 97.1449 624.806 97.1449C625.465 97.1449 626.007 96.9839 626.433 96.6619C626.864 96.3447 627.079 95.812 627.079 95.0639V93.0682H626.951C626.819 93.3712 626.62 93.6577 626.355 93.9276C626.09 94.1974 625.749 94.4176 625.332 94.5881C624.915 94.7585 624.418 94.8438 623.841 94.8438C623.021 94.8438 622.276 94.6544 621.603 94.2756C620.936 93.892 620.403 93.3073 620.005 92.5213C619.612 91.7306 619.416 90.7315 619.416 89.5241C619.416 88.2884 619.617 87.2562 620.02 86.4276C620.422 85.599 620.957 84.9787 621.625 84.5668C622.297 84.1548 623.033 83.9489 623.833 83.9489C624.444 83.9489 624.956 84.053 625.368 84.2614C625.779 84.465 626.111 84.7206 626.362 85.0284C626.618 85.3314 626.814 85.6297 626.951 85.9233H627.065V84.0909H630.069V95.1065C630.069 96.0346 629.842 96.8111 629.387 97.4361C628.933 98.0611 628.303 98.5298 627.498 98.8423C626.698 99.1596 625.777 99.3182 624.735 99.3182ZM624.799 92.571C625.287 92.571 625.699 92.4503 626.035 92.2088C626.376 91.9626 626.636 91.6122 626.816 91.1577C627.001 90.6984 627.093 90.1491 627.093 89.5099C627.093 88.8707 627.003 88.3168 626.824 87.848C626.644 87.3745 626.383 87.0076 626.042 86.7472C625.701 86.4867 625.287 86.3565 624.799 86.3565C624.302 86.3565 623.883 86.4915 623.542 86.7614C623.201 87.0265 622.943 87.3958 622.768 87.8693C622.593 88.3428 622.505 88.8897 622.505 89.5099C622.505 90.1397 622.593 90.6842 622.768 91.1435C622.948 91.598 623.206 91.9508 623.542 92.2017C623.883 92.4479 624.302 92.571 624.799 92.571ZM632.477 95V84.0909H635.502V95H632.477ZM633.997 82.6847C633.547 82.6847 633.161 82.5355 632.839 82.2372C632.522 81.9342 632.363 81.572 632.363 81.1506C632.363 80.7339 632.522 80.3764 632.839 80.0781C633.161 79.7751 633.547 79.6236 633.997 79.6236C634.447 79.6236 634.83 79.7751 635.147 80.0781C635.469 80.3764 635.63 80.7339 635.63 81.1506C635.63 81.572 635.469 81.9342 635.147 82.2372C634.83 82.5355 634.447 82.6847 633.997 82.6847ZM640.952 88.6932V95H637.926V84.0909H640.81V86.0156H640.938C641.179 85.3812 641.584 84.8793 642.152 84.5099C642.72 84.1359 643.409 83.9489 644.219 83.9489C644.976 83.9489 645.637 84.1146 646.2 84.446C646.764 84.7775 647.202 85.2509 647.514 85.8665C647.827 86.4773 647.983 87.2064 647.983 88.054V95H644.957V88.5938C644.962 87.9261 644.792 87.4053 644.446 87.0312C644.1 86.6525 643.625 86.4631 643.018 86.4631C642.611 86.4631 642.251 86.5507 641.939 86.7259C641.631 86.901 641.39 87.1567 641.214 87.4929C641.044 87.8243 640.956 88.2244 640.952 88.6932ZM656.703 79.7727L652.015 97.1875H649.409L654.096 79.7727H656.703ZM658.217 95V80.4545H661.293V92.4645H667.528V95H658.217ZM674.437 95.2131C673.334 95.2131 672.38 94.9787 671.575 94.5099C670.775 94.0365 670.157 93.3783 669.721 92.5355C669.286 91.688 669.068 90.7055 669.068 89.5881C669.068 88.4612 669.286 87.4763 669.721 86.6335C670.157 85.786 670.775 85.1278 671.575 84.6591C672.38 84.1856 673.334 83.9489 674.437 83.9489C675.54 83.9489 676.492 84.1856 677.292 84.6591C678.097 85.1278 678.717 85.786 679.153 86.6335C679.589 87.4763 679.806 88.4612 679.806 89.5881C679.806 90.7055 679.589 91.688 679.153 92.5355C678.717 93.3783 678.097 94.0365 677.292 94.5099C676.492 94.9787 675.54 95.2131 674.437 95.2131ZM674.451 92.8693C674.953 92.8693 675.372 92.7273 675.708 92.4432C676.045 92.1544 676.298 91.7614 676.468 91.2642C676.644 90.767 676.731 90.2012 676.731 89.5668C676.731 88.9323 676.644 88.3665 676.468 87.8693C676.298 87.3722 676.045 86.9792 675.708 86.6903C675.372 86.4015 674.953 86.2571 674.451 86.2571C673.945 86.2571 673.519 86.4015 673.173 86.6903C672.832 86.9792 672.574 87.3722 672.399 87.8693C672.228 88.3665 672.143 88.9323 672.143 89.5668C672.143 90.2012 672.228 90.767 672.399 91.2642C672.574 91.7614 672.832 92.1544 673.173 92.4432C673.519 92.7273 673.945 92.8693 674.451 92.8693ZM686.689 99.3182C685.708 99.3182 684.868 99.1832 684.167 98.9134C683.471 98.6482 682.917 98.286 682.505 97.8267C682.093 97.3674 681.826 96.8513 681.703 96.2784L684.501 95.902C684.586 96.1198 684.721 96.3234 684.906 96.5128C685.091 96.7022 685.334 96.8537 685.637 96.9673C685.945 97.0857 686.319 97.1449 686.76 97.1449C687.418 97.1449 687.96 96.9839 688.386 96.6619C688.817 96.3447 689.032 95.812 689.032 95.0639V93.0682H688.904C688.772 93.3712 688.573 93.6577 688.308 93.9276C688.043 94.1974 687.702 94.4176 687.285 94.5881C686.868 94.7585 686.371 94.8438 685.794 94.8438C684.975 94.8438 684.229 94.6544 683.556 94.2756C682.889 93.892 682.356 93.3073 681.958 92.5213C681.565 91.7306 681.369 90.7315 681.369 89.5241C681.369 88.2884 681.57 87.2562 681.973 86.4276C682.375 85.599 682.91 84.9787 683.578 84.5668C684.25 84.1548 684.986 83.9489 685.787 83.9489C686.397 83.9489 686.909 84.053 687.321 84.2614C687.733 84.465 688.064 84.7206 688.315 85.0284C688.571 85.3314 688.767 85.6297 688.904 85.9233H689.018V84.0909H692.022V95.1065C692.022 96.0346 691.795 96.8111 691.341 97.4361C690.886 98.0611 690.256 98.5298 689.451 98.8423C688.651 99.1596 687.73 99.3182 686.689 99.3182ZM686.752 92.571C687.24 92.571 687.652 92.4503 687.988 92.2088C688.329 91.9626 688.59 91.6122 688.77 91.1577C688.954 90.6984 689.047 90.1491 689.047 89.5099C689.047 88.8707 688.957 88.3168 688.777 87.848C688.597 87.3745 688.336 87.0076 687.995 86.7472C687.654 86.4867 687.24 86.3565 686.752 86.3565C686.255 86.3565 685.836 86.4915 685.495 86.7614C685.154 87.0265 684.896 87.3958 684.721 87.8693C684.546 88.3428 684.458 88.8897 684.458 89.5099C684.458 90.1397 684.546 90.6842 684.721 91.1435C684.901 91.598 685.159 91.9508 685.495 92.2017C685.836 92.4479 686.255 92.571 686.752 92.571ZM699.359 95.2131C698.256 95.2131 697.302 94.9787 696.497 94.5099C695.697 94.0365 695.079 93.3783 694.643 92.5355C694.208 91.688 693.99 90.7055 693.99 89.5881C693.99 88.4612 694.208 87.4763 694.643 86.6335C695.079 85.786 695.697 85.1278 696.497 84.6591C697.302 84.1856 698.256 83.9489 699.359 83.9489C700.462 83.9489 701.414 84.1856 702.214 84.6591C703.019 85.1278 703.639 85.786 704.075 86.6335C704.511 87.4763 704.728 88.4612 704.728 89.5881C704.728 90.7055 704.511 91.688 704.075 92.5355C703.639 93.3783 703.019 94.0365 702.214 94.5099C701.414 94.9787 700.462 95.2131 699.359 95.2131ZM699.373 92.8693C699.875 92.8693 700.294 92.7273 700.63 92.4432C700.967 92.1544 701.22 91.7614 701.39 91.2642C701.565 90.767 701.653 90.2012 701.653 89.5668C701.653 88.9323 701.565 88.3665 701.39 87.8693C701.22 87.3722 700.967 86.9792 700.63 86.6903C700.294 86.4015 699.875 86.2571 699.373 86.2571C698.867 86.2571 698.44 86.4015 698.095 86.6903C697.754 86.9792 697.496 87.3722 697.321 87.8693C697.15 88.3665 697.065 88.9323 697.065 89.5668C697.065 90.2012 697.15 90.767 697.321 91.2642C697.496 91.7614 697.754 92.1544 698.095 92.4432C698.44 92.7273 698.867 92.8693 699.373 92.8693ZM713.691 90.3551V84.0909H716.717V95H713.812V93.0185H713.699C713.452 93.6577 713.043 94.1714 712.47 94.5597C711.902 94.9479 711.208 95.142 710.389 95.142C709.66 95.142 709.018 94.9763 708.464 94.6449C707.91 94.3134 707.477 93.8423 707.164 93.2315C706.857 92.6207 706.7 91.8892 706.696 91.0369V84.0909H709.721V90.4972C709.726 91.1411 709.899 91.6501 710.24 92.0241C710.581 92.3982 711.038 92.5852 711.61 92.5852C711.975 92.5852 712.316 92.5024 712.633 92.3366C712.95 92.1662 713.206 91.9152 713.4 91.5838C713.599 91.2524 713.696 90.8428 713.691 90.3551ZM724.94 84.0909V86.3636H718.37V84.0909H724.94ZM719.862 81.4773H722.887V91.6477C722.887 91.9271 722.93 92.1449 723.015 92.3011C723.1 92.4527 723.219 92.5592 723.37 92.6207C723.526 92.6823 723.706 92.7131 723.91 92.7131C724.052 92.7131 724.194 92.7012 724.336 92.6776C724.478 92.6491 724.587 92.6278 724.663 92.6136L725.138 94.8651C724.987 94.9124 724.774 94.9669 724.499 95.0284C724.225 95.0947 723.891 95.1349 723.498 95.1491C722.769 95.1776 722.129 95.0805 721.58 94.858C721.036 94.6354 720.612 94.2898 720.309 93.821C720.006 93.3523 719.857 92.7604 719.862 92.0455V81.4773Z" fill="black"/>
<rect x="482" y="67" width="74" height="41" fill="#D9D9D9"/>
<path d="M486.264 95V80.4545H492.003C493.106 80.4545 494.046 80.6652 494.822 81.0866C495.599 81.5033 496.191 82.0833 496.598 82.8267C497.01 83.5653 497.216 84.4176 497.216 85.3835C497.216 86.3494 497.008 87.2017 496.591 87.9403C496.174 88.679 495.571 89.2543 494.78 89.6662C493.994 90.0781 493.042 90.2841 491.925 90.2841H488.267V87.8196H491.428C492.019 87.8196 492.507 87.7178 492.891 87.5142C493.279 87.3059 493.568 87.0194 493.757 86.6548C493.951 86.2855 494.048 85.8617 494.048 85.3835C494.048 84.9006 493.951 84.4792 493.757 84.1193C493.568 83.7547 493.279 83.473 492.891 83.2741C492.502 83.0705 492.01 82.9688 491.413 82.9688H489.339V95H486.264ZM499.157 95V84.0909H502.182V95H499.157ZM500.676 82.6847C500.227 82.6847 499.841 82.5355 499.519 82.2372C499.202 81.9342 499.043 81.572 499.043 81.1506C499.043 80.7339 499.202 80.3764 499.519 80.0781C499.841 79.7751 500.227 79.6236 500.676 79.6236C501.126 79.6236 501.51 79.7751 501.827 80.0781C502.149 80.3764 502.31 80.7339 502.31 81.1506C502.31 81.572 502.149 81.9342 501.827 82.2372C501.51 82.5355 501.126 82.6847 500.676 82.6847ZM507.631 80.4545V95H504.606V80.4545H507.631ZM514.984 95.2131C513.881 95.2131 512.927 94.9787 512.122 94.5099C511.322 94.0365 510.704 93.3783 510.268 92.5355C509.833 91.688 509.615 90.7055 509.615 89.5881C509.615 88.4612 509.833 87.4763 510.268 86.6335C510.704 85.786 511.322 85.1278 512.122 84.6591C512.927 84.1856 513.881 83.9489 514.984 83.9489C516.087 83.9489 517.039 84.1856 517.839 84.6591C518.644 85.1278 519.264 85.786 519.7 86.6335C520.136 87.4763 520.353 88.4612 520.353 89.5881C520.353 90.7055 520.136 91.688 519.7 92.5355C519.264 93.3783 518.644 94.0365 517.839 94.5099C517.039 94.9787 516.087 95.2131 514.984 95.2131ZM514.998 92.8693C515.5 92.8693 515.919 92.7273 516.255 92.4432C516.592 92.1544 516.845 91.7614 517.015 91.2642C517.19 90.767 517.278 90.2012 517.278 89.5668C517.278 88.9323 517.19 88.3665 517.015 87.8693C516.845 87.3722 516.592 86.9792 516.255 86.6903C515.919 86.4015 515.5 86.2571 514.998 86.2571C514.492 86.2571 514.065 86.4015 513.72 86.6903C513.379 86.9792 513.121 87.3722 512.946 87.8693C512.775 88.3665 512.69 88.9323 512.69 89.5668C512.69 90.2012 512.775 90.767 512.946 91.2642C513.121 91.7614 513.379 92.1544 513.72 92.4432C514.065 92.7273 514.492 92.8693 514.998 92.8693ZM528.123 84.0909V86.3636H521.554V84.0909H528.123ZM523.045 81.4773H526.071V91.6477C526.071 91.9271 526.113 92.1449 526.199 92.3011C526.284 92.4527 526.402 92.5592 526.554 92.6207C526.71 92.6823 526.89 92.7131 527.093 92.7131C527.235 92.7131 527.377 92.7012 527.52 92.6776C527.662 92.6491 527.77 92.6278 527.846 92.6136L528.322 94.8651C528.171 94.9124 527.958 94.9669 527.683 95.0284C527.408 95.0947 527.074 95.1349 526.681 95.1491C525.952 95.1776 525.313 95.0805 524.764 94.858C524.219 94.6354 523.796 94.2898 523.493 93.821C523.19 93.3523 523.04 92.7604 523.045 92.0455V81.4773ZM534.949 95.2131C533.826 95.2131 532.86 94.9858 532.051 94.5312C531.246 94.072 530.626 93.4233 530.19 92.5852C529.754 91.7424 529.537 90.7457 529.537 89.5952C529.537 88.473 529.754 87.4882 530.19 86.6406C530.626 85.7931 531.239 85.1326 532.029 84.6591C532.825 84.1856 533.758 83.9489 534.828 83.9489C535.547 83.9489 536.217 84.0649 536.838 84.2969C537.463 84.5241 538.007 84.8674 538.471 85.3267C538.94 85.786 539.305 86.3636 539.565 87.0597C539.825 87.7509 539.956 88.5606 539.956 89.4886V90.3196H530.744V88.4446H537.108C537.108 88.009 537.013 87.6231 536.824 87.2869C536.634 86.9508 536.371 86.688 536.035 86.4986C535.704 86.3045 535.318 86.2074 534.877 86.2074C534.418 86.2074 534.011 86.3139 533.656 86.527C533.306 86.7353 533.031 87.017 532.832 87.3722C532.633 87.7225 532.531 88.1132 532.527 88.544V90.3267C532.527 90.8665 532.626 91.3329 532.825 91.7259C533.029 92.1188 533.315 92.4219 533.684 92.6349C534.054 92.848 534.492 92.9545 534.998 92.9545C535.334 92.9545 535.642 92.9072 535.922 92.8125C536.201 92.7178 536.44 92.5758 536.639 92.3864C536.838 92.197 536.989 91.965 537.093 91.6903L539.892 91.875C539.75 92.5473 539.458 93.1345 539.018 93.6364C538.583 94.1335 538.019 94.5218 537.328 94.8011C536.641 95.0758 535.848 95.2131 534.949 95.2131ZM551.007 87.2017L548.237 87.3722C548.19 87.1354 548.088 86.9223 547.931 86.733C547.775 86.5388 547.569 86.3849 547.314 86.2713C547.063 86.1529 546.762 86.0938 546.412 86.0938C545.943 86.0938 545.547 86.1932 545.225 86.392C544.904 86.5862 544.743 86.8466 544.743 87.1733C544.743 87.4337 544.847 87.6539 545.055 87.8338C545.263 88.0137 545.621 88.1581 546.127 88.267L548.102 88.6648C549.163 88.8826 549.953 89.233 550.474 89.7159C550.995 90.1989 551.255 90.8333 551.255 91.6193C551.255 92.3343 551.045 92.9616 550.623 93.5014C550.207 94.0412 549.634 94.4626 548.904 94.7656C548.18 95.0639 547.344 95.2131 546.397 95.2131C544.953 95.2131 543.803 94.9124 542.946 94.3111C542.093 93.705 541.594 92.8812 541.447 91.8395L544.423 91.6832C544.513 92.1236 544.731 92.4598 545.076 92.6918C545.422 92.919 545.865 93.0327 546.404 93.0327C546.935 93.0327 547.361 92.9309 547.683 92.7273C548.01 92.5189 548.175 92.2514 548.18 91.9247C548.175 91.6501 548.059 91.4252 547.832 91.25C547.605 91.0701 547.254 90.9328 546.781 90.8381L544.892 90.4616C543.826 90.2486 543.033 89.8793 542.512 89.3537C541.996 88.8281 541.738 88.1581 541.738 87.3438C541.738 86.643 541.928 86.0393 542.306 85.5327C542.69 85.026 543.227 84.6354 543.919 84.3608C544.615 84.0862 545.429 83.9489 546.362 83.9489C547.74 83.9489 548.824 84.2401 549.615 84.8224C550.41 85.4048 550.874 86.1979 551.007 87.2017Z" fill="black"/>
<rect x="253" y="67" width="80" height="41" fill="#D9D9D9"/>
<path d="M270.098 85.5469H266.987C266.93 85.1444 266.814 84.7869 266.639 84.4744C266.464 84.1572 266.239 83.8873 265.964 83.6648C265.69 83.4422 265.373 83.2718 265.013 83.1534C264.658 83.035 264.272 82.9759 263.855 82.9759C263.102 82.9759 262.446 83.1629 261.888 83.5369C261.329 83.9062 260.896 84.446 260.588 85.1562C260.28 85.8617 260.126 86.7187 260.126 87.7273C260.126 88.7642 260.28 89.6354 260.588 90.3409C260.901 91.0464 261.336 91.5791 261.895 91.9389C262.454 92.2988 263.1 92.4787 263.834 92.4787C264.246 92.4787 264.627 92.4242 264.977 92.3153C265.332 92.2064 265.647 92.0478 265.922 91.8395C266.196 91.6264 266.424 91.3684 266.604 91.0653C266.788 90.7623 266.916 90.4167 266.987 90.0284L270.098 90.0426C270.018 90.7102 269.816 91.3542 269.494 91.9744C269.177 92.59 268.749 93.1416 268.209 93.6293C267.674 94.1122 267.035 94.4957 266.291 94.7798C265.553 95.0592 264.717 95.1989 263.784 95.1989C262.487 95.1989 261.327 94.9053 260.304 94.3182C259.286 93.7311 258.481 92.8812 257.889 91.7685C257.302 90.6558 257.009 89.3087 257.009 87.7273C257.009 86.1411 257.307 84.7917 257.903 83.679C258.5 82.5663 259.31 81.7187 260.332 81.1364C261.355 80.5492 262.506 80.2557 263.784 80.2557C264.627 80.2557 265.408 80.3741 266.128 80.6108C266.852 80.8475 267.494 81.1932 268.053 81.6477C268.611 82.0975 269.066 82.6491 269.416 83.3026C269.771 83.956 269.999 84.7041 270.098 85.5469ZM272.246 95V84.0909H275.272V95H272.246ZM273.766 82.6847C273.317 82.6847 272.931 82.5355 272.609 82.2372C272.291 81.9342 272.133 81.572 272.133 81.1506C272.133 80.7339 272.291 80.3764 272.609 80.0781C272.931 79.7751 273.317 79.6236 273.766 79.6236C274.216 79.6236 274.6 79.7751 274.917 80.0781C275.239 80.3764 275.4 80.7339 275.4 81.1506C275.4 81.572 275.239 81.9342 274.917 82.2372C274.6 82.5355 274.216 82.6847 273.766 82.6847ZM277.696 95V84.0909H280.629V85.9943H280.743C280.941 85.3172 281.275 84.8059 281.744 84.4602C282.213 84.1098 282.752 83.9347 283.363 83.9347C283.515 83.9347 283.678 83.9441 283.853 83.9631C284.029 83.982 284.182 84.008 284.315 84.0412V86.7259C284.173 86.6832 283.976 86.6454 283.725 86.6122C283.475 86.5791 283.245 86.5625 283.037 86.5625C282.592 86.5625 282.194 86.6596 281.843 86.8537C281.498 87.0431 281.223 87.3082 281.02 87.6491C280.821 87.9901 280.721 88.383 280.721 88.8281V95H277.696ZM290.3 95.2131C289.183 95.2131 288.222 94.9763 287.417 94.5028C286.617 94.0246 286.001 93.3617 285.57 92.5142C285.144 91.6667 284.931 90.6913 284.931 89.5881C284.931 88.4706 285.147 87.4905 285.577 86.6477C286.013 85.8002 286.631 85.1397 287.431 84.6662C288.231 84.188 289.183 83.9489 290.286 83.9489C291.238 83.9489 292.071 84.1217 292.786 84.4673C293.501 84.813 294.067 85.2983 294.484 85.9233C294.9 86.5483 295.13 87.2822 295.173 88.125H292.317C292.237 87.5805 292.024 87.1425 291.678 86.8111C291.337 86.4749 290.89 86.3068 290.336 86.3068C289.867 86.3068 289.458 86.4347 289.107 86.6903C288.762 86.9413 288.492 87.3082 288.298 87.7912C288.103 88.2741 288.006 88.8589 288.006 89.5455C288.006 90.2415 288.101 90.8333 288.29 91.321C288.485 91.8087 288.757 92.1804 289.107 92.4361C289.458 92.6918 289.867 92.8196 290.336 92.8196C290.682 92.8196 290.992 92.7486 291.266 92.6065C291.546 92.4645 291.775 92.2585 291.955 91.9886C292.14 91.714 292.261 91.3849 292.317 91.0014H295.173C295.125 91.8348 294.898 92.5687 294.491 93.2031C294.088 93.8329 293.532 94.3253 292.822 94.6804C292.112 95.0355 291.271 95.2131 290.3 95.2131ZM304.105 90.3551V84.0909H307.131V95H304.226V93.0185H304.113C303.866 93.6577 303.457 94.1714 302.884 94.5597C302.316 94.9479 301.622 95.142 300.803 95.142C300.074 95.142 299.432 94.9763 298.878 94.6449C298.324 94.3134 297.891 93.8423 297.578 93.2315C297.271 92.6207 297.114 91.8892 297.11 91.0369V84.0909H300.135V90.4972C300.14 91.1411 300.313 91.6501 300.654 92.0241C300.995 92.3982 301.452 92.5852 302.025 92.5852C302.389 92.5852 302.73 92.5024 303.047 92.3366C303.364 92.1662 303.62 91.9152 303.814 91.5838C304.013 91.2524 304.11 90.8428 304.105 90.3551ZM309.551 95V84.0909H312.577V95H309.551ZM311.071 82.6847C310.621 82.6847 310.235 82.5355 309.913 82.2372C309.596 81.9342 309.438 81.572 309.438 81.1506C309.438 80.7339 309.596 80.3764 309.913 80.0781C310.235 79.7751 310.621 79.6236 311.071 79.6236C311.521 79.6236 311.904 79.7751 312.222 80.0781C312.544 80.3764 312.705 80.7339 312.705 81.1506C312.705 81.572 312.544 81.9342 312.222 82.2372C311.904 82.5355 311.521 82.6847 311.071 82.6847ZM320.803 84.0909V86.3636H314.233V84.0909H320.803ZM315.725 81.4773H318.75V91.6477C318.75 91.9271 318.793 92.1449 318.878 92.3011C318.963 92.4527 319.082 92.5592 319.233 92.6207C319.39 92.6823 319.569 92.7131 319.773 92.7131C319.915 92.7131 320.057 92.7012 320.199 92.6776C320.341 92.6491 320.45 92.6278 320.526 92.6136L321.002 94.8651C320.85 94.9124 320.637 94.9669 320.363 95.0284C320.088 95.0947 319.754 95.1349 319.361 95.1491C318.632 95.1776 317.993 95.0805 317.444 94.858C316.899 94.6354 316.475 94.2898 316.172 93.821C315.869 93.3523 315.72 92.7604 315.725 92.0455V81.4773ZM331.714 87.2017L328.944 87.3722C328.897 87.1354 328.795 86.9223 328.638 86.733C328.482 86.5388 328.276 86.3849 328.021 86.2713C327.77 86.1529 327.469 86.0938 327.119 86.0938C326.65 86.0938 326.254 86.1932 325.933 86.392C325.611 86.5862 325.45 86.8466 325.45 87.1733C325.45 87.4337 325.554 87.6539 325.762 87.8338C325.97 88.0137 326.328 88.1581 326.835 88.267L328.809 88.6648C329.87 88.8826 330.66 89.233 331.181 89.7159C331.702 90.1989 331.962 90.8333 331.962 91.6193C331.962 92.3343 331.752 92.9616 331.33 93.5014C330.914 94.0412 330.341 94.4626 329.612 94.7656C328.887 95.0639 328.051 95.2131 327.104 95.2131C325.66 95.2131 324.51 94.9124 323.653 94.3111C322.8 93.705 322.301 92.8812 322.154 91.8395L325.13 91.6832C325.22 92.1236 325.438 92.4598 325.783 92.6918C326.129 92.919 326.572 93.0327 327.112 93.0327C327.642 93.0327 328.068 92.9309 328.39 92.7273C328.717 92.5189 328.882 92.2514 328.887 91.9247C328.882 91.6501 328.766 91.4252 328.539 91.25C328.312 91.0701 327.961 90.9328 327.488 90.8381L325.599 90.4616C324.533 90.2486 323.74 89.8793 323.219 89.3537C322.703 88.8281 322.445 88.1581 322.445 87.3438C322.445 86.643 322.635 86.0393 323.013 85.5327C323.397 85.026 323.934 84.6354 324.626 84.3608C325.322 84.0862 326.136 83.9489 327.069 83.9489C328.447 83.9489 329.531 84.2401 330.322 84.8224C331.117 85.4048 331.581 86.1979 331.714 87.2017Z" fill="black"/>
<rect x="372" y="67" width="74" height="41" fill="#D9D9D9"/>
<path d="M373.264 95V80.4545H383.065V82.9901H376.339V86.456H382.561V88.9915H376.339V92.4645H383.094V95H373.264ZM390.382 95.2131C389.265 95.2131 388.304 94.9763 387.499 94.5028C386.699 94.0246 386.083 93.3617 385.652 92.5142C385.226 91.6667 385.013 90.6913 385.013 89.5881C385.013 88.4706 385.229 87.4905 385.659 86.6477C386.095 85.8002 386.713 85.1397 387.513 84.6662C388.313 84.188 389.265 83.9489 390.368 83.9489C391.32 83.9489 392.153 84.1217 392.868 84.4673C393.583 84.813 394.149 85.2983 394.566 85.9233C394.982 86.5483 395.212 87.2822 395.255 88.125H392.4C392.319 87.5805 392.106 87.1425 391.76 86.8111C391.419 86.4749 390.972 86.3068 390.418 86.3068C389.949 86.3068 389.54 86.4347 389.189 86.6903C388.844 86.9413 388.574 87.3082 388.38 87.7912C388.185 88.2741 388.088 88.8589 388.088 89.5455C388.088 90.2415 388.183 90.8333 388.373 91.321C388.567 91.8087 388.839 92.1804 389.189 92.4361C389.54 92.6918 389.949 92.8196 390.418 92.8196C390.764 92.8196 391.074 92.7486 391.348 92.6065C391.628 92.4645 391.857 92.2585 392.037 91.9886C392.222 91.714 392.343 91.3849 392.4 91.0014H395.255C395.207 91.8348 394.98 92.5687 394.573 93.2031C394.17 93.8329 393.614 94.3253 392.904 94.6804C392.194 95.0355 391.353 95.2131 390.382 95.2131ZM404.188 90.3551V84.0909H407.213V95H404.308V93.0185H404.195C403.948 93.6577 403.539 94.1714 402.966 94.5597C402.398 94.9479 401.704 95.142 400.885 95.142C400.156 95.142 399.514 94.9763 398.96 94.6449C398.406 94.3134 397.973 93.8423 397.661 93.2315C397.353 92.6207 397.196 91.8892 397.192 91.0369V84.0909H400.217V90.4972C400.222 91.1411 400.395 91.6501 400.736 92.0241C401.077 92.3982 401.534 92.5852 402.107 92.5852C402.471 92.5852 402.812 92.5024 403.129 92.3366C403.446 92.1662 403.702 91.9152 403.896 91.5838C404.095 91.2524 404.192 90.8428 404.188 90.3551ZM409.633 95V84.0909H412.566V85.9943H412.68C412.879 85.3172 413.213 84.8059 413.681 84.4602C414.15 84.1098 414.69 83.9347 415.301 83.9347C415.452 83.9347 415.616 83.9441 415.791 83.9631C415.966 83.982 416.12 84.008 416.252 84.0412V86.7259C416.11 86.6832 415.914 86.6454 415.663 86.6122C415.412 86.5791 415.182 86.5625 414.974 86.5625C414.529 86.5625 414.131 86.6596 413.781 86.8537C413.435 87.0431 413.161 87.3082 412.957 87.6491C412.758 87.9901 412.659 88.383 412.659 88.8281V95H409.633ZM417.817 95V84.0909H420.842V95H417.817ZM419.337 82.6847C418.887 82.6847 418.501 82.5355 418.179 82.2372C417.862 81.9342 417.703 81.572 417.703 81.1506C417.703 80.7339 417.862 80.3764 418.179 80.0781C418.501 79.7751 418.887 79.6236 419.337 79.6236C419.786 79.6236 420.17 79.7751 420.487 80.0781C420.809 80.3764 420.97 80.7339 420.97 81.1506C420.97 81.572 420.809 81.9342 420.487 82.2372C420.17 82.5355 419.786 82.6847 419.337 82.6847ZM428.238 95.2131C427.115 95.2131 426.15 94.9858 425.34 94.5312C424.535 94.072 423.915 93.4233 423.479 92.5852C423.043 91.7424 422.826 90.7457 422.826 89.5952C422.826 88.473 423.043 87.4882 423.479 86.6406C423.915 85.7931 424.528 85.1326 425.319 84.6591C426.114 84.1856 427.047 83.9489 428.117 83.9489C428.837 83.9489 429.507 84.0649 430.127 84.2969C430.752 84.5241 431.296 84.8674 431.76 85.3267C432.229 85.786 432.594 86.3636 432.854 87.0597C433.114 87.7509 433.245 88.5606 433.245 89.4886V90.3196H424.033V88.4446H430.397C430.397 88.009 430.302 87.6231 430.113 87.2869C429.923 86.9508 429.66 86.688 429.324 86.4986C428.993 86.3045 428.607 86.2074 428.167 86.2074C427.707 86.2074 427.3 86.3139 426.945 86.527C426.595 86.7353 426.32 87.017 426.121 87.3722C425.922 87.7225 425.82 88.1132 425.816 88.544V90.3267C425.816 90.8665 425.915 91.3329 426.114 91.7259C426.318 92.1188 426.604 92.4219 426.973 92.6349C427.343 92.848 427.781 92.9545 428.287 92.9545C428.623 92.9545 428.931 92.9072 429.211 92.8125C429.49 92.7178 429.729 92.5758 429.928 92.3864C430.127 92.197 430.278 91.965 430.382 91.6903L433.181 91.875C433.039 92.5473 432.748 93.1345 432.307 93.6364C431.872 94.1335 431.308 94.5218 430.617 94.8011C429.93 95.0758 429.137 95.2131 428.238 95.2131ZM444.296 87.2017L441.526 87.3722C441.479 87.1354 441.377 86.9223 441.221 86.733C441.064 86.5388 440.858 86.3849 440.603 86.2713C440.352 86.1529 440.051 86.0938 439.701 86.0938C439.232 86.0938 438.837 86.1932 438.515 86.392C438.193 86.5862 438.032 86.8466 438.032 87.1733C438.032 87.4337 438.136 87.6539 438.344 87.8338C438.552 88.0137 438.91 88.1581 439.417 88.267L441.391 88.6648C442.452 88.8826 443.242 89.233 443.763 89.7159C444.284 90.1989 444.544 90.8333 444.544 91.6193C444.544 92.3343 444.334 92.9616 443.912 93.5014C443.496 94.0412 442.923 94.4626 442.194 94.7656C441.469 95.0639 440.633 95.2131 439.686 95.2131C438.242 95.2131 437.092 94.9124 436.235 94.3111C435.382 93.705 434.883 92.8812 434.736 91.8395L437.712 91.6832C437.802 92.1236 438.02 92.4598 438.365 92.6918C438.711 92.919 439.154 93.0327 439.694 93.0327C440.224 93.0327 440.65 92.9309 440.972 92.7273C441.299 92.5189 441.464 92.2514 441.469 91.9247C441.464 91.6501 441.348 91.4252 441.121 91.25C440.894 91.0701 440.543 90.9328 440.07 90.8381L438.181 90.4616C437.115 90.2486 436.322 89.8793 435.801 89.3537C435.285 88.8281 435.027 88.1581 435.027 87.3438C435.027 86.643 435.217 86.0393 435.596 85.5327C435.979 85.026 436.516 84.6354 437.208 84.3608C437.904 84.0862 438.718 83.9489 439.651 83.9489C441.029 83.9489 442.113 84.2401 442.904 84.8224C443.699 85.4048 444.163 86.1979 444.296 87.2017Z" fill="black"/>
</svg>
