<svg xmlns="http://www.w3.org/2000/svg" xmlns:xlink="http://www.w3.org/1999/xlink" xmlns:lucid="lucid" width="1134" height="1188"><g transform="translate(-269 -63)" lucid:page-tab-id="0_0"><path d="M0 0h3360v1360H0z" fill="#fff"/><path d="M448 100c17.67 0 32 17.9 32 40s-14.33 40-32 40h-96c-17.67 0-32-17.9-32-40s14.33-40 32-40z" stroke="#000" stroke-opacity="0" fill="#ff741d"/><use xlink:href="#a" transform="matrix(1,0,0,1,325,105) translate(51.3163330078125 41.089501953125)"/><path d="M400 180.5v104.02" stroke="#333" fill="none"/><path d="M400.48 180.5h-.96v-.5h.96z" stroke="#333" stroke-width=".05" fill="#333"/><path d="M400 299.3L395.37 285h9.26z" stroke="#333" fill="#333"/><path d="M498.66 380.1h44.96" stroke="#333" fill="none"/><path d="M498.68 380.58h-.56l.04-.47-.04-.47h.56z" stroke="#333" stroke-width=".05" fill="#333"/><path d="M558.38 380.1l-14.26 4.64v-9.27z" stroke="#333" fill="#333"/><use xlink:href="#b" transform="matrix(1,0,0,1,494.8262754737358,354.3265331009909) translate(0.004999999999999005 17.4375)"/><path d="M908 1140.1c17.67 0 32 17.9 32 40s-14.33 40-32 40h-96c-17.67 0-32-17.9-32-40s14.33-40 32-40z" stroke="#000" stroke-opacity="0" fill="#ffeadb"/><use xlink:href="#c" transform="matrix(1,0,0,1,785,1145.105829975991) translate(63.0866455078125 41.089501953125)"/><path d="M393.75 305.1a10 10 0 0 1 12.5 0l87.5 70a6.4 6.4 0 0 1 0 10l-87.5 70a10 10 0 0 1-12.5 0l-87.5-70a6.4 6.4 0 0 1 0-10z" stroke="#fe5900" stroke-width="4" fill="#fff"/><use xlink:href="#d" transform="matrix(1,0,0,1,305,305.1058299759909) translate(32.56689453125 81.5478515625)"/><use xlink:href="#e" transform="matrix(1,0,0,1,305,305.1058299759909) translate(63.83837890625 81.5478515625)"/><use xlink:href="#f" transform="matrix(1,0,0,1,305,305.1058299759909) translate(148.23095703125 81.5478515625)"/><path d="M560 328.1a8 8 0 0 1 8-8h144a8 8 0 0 1 8 8v104a8 8 0 0 1-8 8H568a8 8 0 0 1-8-8z" stroke="#000" stroke-opacity="0" stroke-width="2" fill="#ff8839"/><use xlink:href="#g" transform="matrix(1,0,0,1,565,325.1058299759909) translate(37.522998046874996 40.834755859375)"/><use xlink:href="#h" transform="matrix(1,0,0,1,565,325.1058299759909) translate(98.78583984375001 40.834755859375)"/><use xlink:href="#i" transform="matrix(1,0,0,1,565,325.1058299759909) translate(22.197070312499996 61.089501953125)"/><use xlink:href="#j" transform="matrix(1,0,0,1,565,325.1058299759909) translate(107.90783203125 61.089501953125)"/><use xlink:href="#k" transform="matrix(1,0,0,1,565,325.1058299759909) translate(34.089990234374994 81.344248046875)"/><path d="M720.5 380.1h24.95" stroke="#333" fill="none"/><path d="M720.5 380.58h-.5v-.95h.5z" stroke="#333" stroke-width=".05" fill="#333"/><path d="M760.22 380.1l-14.27 4.64v-9.27z" stroke="#333" fill="#333"/><path d="M853.75 305.1a10 10 0 0 1 12.5 0l87.5 70a6.4 6.4 0 0 1 0 10l-87.5 70a10 10 0 0 1-12.5 0l-87.5-70a6.4 6.4 0 0 1 0-10z" stroke="#fe5900" stroke-width="4" fill="#fff"/><use xlink:href="#l" transform="matrix(1,0,0,1,765,305.1058299759909) translate(29.62572265624999 70.96212890625)"/><use xlink:href="#m" transform="matrix(1,0,0,1,765,305.1058299759909) translate(102.413662109375 70.96212890625)"/><use xlink:href="#n" transform="matrix(1,0,0,1,765,305.1058299759909) translate(140.585439453125 70.96212890625)"/><use xlink:href="#o" transform="matrix(1,0,0,1,765,305.1058299759909) translate(58.573334960937494 91.216875)"/><use xlink:href="#p" transform="matrix(1,0,0,1,765,305.1058299759909) translate(122.86866699218751 91.216875)"/><path d="M860 459.8v63.92" stroke="#333" fill="none"/><path d="M860 459.3l.48-.03v.55h-.96v-.55z" stroke="#333" stroke-width=".05" fill="#333"/><path d="M860 538.5l-4.63-14.28h9.26z" stroke="#333" fill="#333"/><use xlink:href="#q" transform="matrix(1,0,0,1,868,458.54951487182484) translate(0.005000000000000782 17.4375)"/><path d="M780 548.1a8 8 0 0 1 8-8h144a8 8 0 0 1 8 8v104a8 8 0 0 1-8 8H788a8 8 0 0 1-8-8z" stroke="#000" stroke-opacity="0" stroke-width="2" fill="#ff8839"/><use xlink:href="#r" transform="matrix(1,0,0,1,785,545.1058299759908) translate(8.056347656249983 61.089501953125)"/><use xlink:href="#s" transform="matrix(1,0,0,1,785,545.1058299759908) translate(53.89517578124999 61.089501953125)"/><path d="M958.66 380.1h24.96" stroke="#333" fill="none"/><path d="M958.68 380.58h-.56l.04-.47-.04-.47h.56z" stroke="#333" stroke-width=".05" fill="#333"/><path d="M998.38 380.1l-14.26 4.64v-9.27z" stroke="#333" fill="#333"/><use xlink:href="#t" transform="matrix(1,0,0,1,955.6683902303718,354.3265331009909) translate(0.004999999999999005 17.4375)"/><path d="M1000 328.1a8 8 0 0 1 8-8h144a8 8 0 0 1 8 8v104a8 8 0 0 1-8 8h-144a8 8 0 0 1-8-8z" stroke="#000" stroke-opacity="0" stroke-width="2" fill="#ff8839"/><use xlink:href="#u" transform="matrix(1,0,0,1,1005,325.1058299759909) translate(11.873525390624991 61.089501953125)"/><use xlink:href="#v" transform="matrix(1,0,0,1,1005,325.1058299759909) translate(54.1076953125 61.089501953125)"/><use xlink:href="#w" transform="matrix(1,0,0,1,1005,325.1058299759909) translate(78.621005859375 61.089501953125)"/><path d="M860 660.6v63.92" stroke="#333" fill="none"/><path d="M860.48 660.62h-.96v-.5h.96z" stroke="#333" stroke-width=".05" fill="#333"/><path d="M860 739.3L855.37 725h9.26z" stroke="#333" fill="#333"/><path d="M853.75 745.1a10 10 0 0 1 12.5 0l87.5 70a6.4 6.4 0 0 1 0 10l-87.5 70a10 10 0 0 1-12.5 0l-87.5-70a6.4 6.4 0 0 1 0-10z" stroke="#fe5900" stroke-width="4" fill="#fff"/><use xlink:href="#x" transform="matrix(1,0,0,1,765,745.1058299759909) translate(47.89501953125 68.4802734375)"/><use xlink:href="#y" transform="matrix(1,0,0,1,765,745.1058299759909) translate(50.03515625 94.6154296875)"/><use xlink:href="#z" transform="matrix(1,0,0,1,765,745.1058299759909) translate(55.09765625 94.6154296875)"/><use xlink:href="#f" transform="matrix(1,0,0,1,765,745.1058299759909) translate(130.7626953125 94.6154296875)"/><path d="M761.34 820.1H656.38" stroke="#333" fill="none"/><path d="M761.84 820.1l.04.48h-.56v-.95h.56z" stroke="#333" stroke-width=".05" fill="#333"/><path d="M641.62 820.1l14.26-4.63v9.27z" stroke="#333" fill="#333"/><use xlink:href="#b" transform="matrix(1,0,0,1,711.8387044270836,794.3265331009909) translate(0.004999999999999005 17.4375)"/><path d="M480 768.1a8 8 0 0 1 8-8h144a8 8 0 0 1 8 8v104a8 8 0 0 1-8 8H488a8 8 0 0 1-8-8z" stroke="#000" stroke-opacity="0" stroke-width="2" fill="#ff8839"/><use xlink:href="#A" transform="matrix(1,0,0,1,485,765.1058299759909) translate(28.805610351562493 50.96212890625)"/><use xlink:href="#B" transform="matrix(1,0,0,1,485,765.1058299759909) translate(82.2624462890625 50.96212890625)"/><use xlink:href="#C" transform="matrix(1,0,0,1,485,765.1058299759909) translate(106.8656689453125 50.96212890625)"/><use xlink:href="#D" transform="matrix(1,0,0,1,485,765.1058299759909) translate(34.089990234374994 71.216875)"/><path d="M560 759.6V612.1a12 12 0 0 1 12-12h191.62" stroke="#333" fill="none"/><path d="M560.48 760.1h-.96v-.5h.96z" stroke="#333" stroke-width=".05" fill="#333"/><path d="M778.38 600.1l-14.26 4.64v-9.27z" stroke="#333" fill="#333"/><path d="M1080 440.6v83.12" stroke="#333" fill="none"/><path d="M1080.47 440.62h-.94v-.5h.94z" stroke="#333" stroke-width=".05" fill="#333"/><path d="M1080 538.5l-4.63-14.28h9.27z" stroke="#333" fill="#333"/><path d="M1000 548.1a8 8 0 0 1 8-8h144a8 8 0 0 1 8 8v104a8 8 0 0 1-8 8h-144a8 8 0 0 1-8-8z" stroke="#000" stroke-opacity="0" stroke-width="2" fill="#ff8839"/><use xlink:href="#E" transform="matrix(1,0,0,1,1005,545.1058299759908) translate(39.198632812499994 30.7073828125)"/><use xlink:href="#F" transform="matrix(1,0,0,1,1005,545.1058299759908) translate(97.110205078125 30.7073828125)"/><use xlink:href="#G" transform="matrix(1,0,0,1,1005,545.1058299759908) translate(22.197070312499996 50.96212890625)"/><use xlink:href="#H" transform="matrix(1,0,0,1,1005,545.1058299759908) translate(107.90783203125 50.96212890625)"/><use xlink:href="#I" transform="matrix(1,0,0,1,1005,545.1058299759908) translate(30.191074218749996 71.216875)"/><use xlink:href="#H" transform="matrix(1,0,0,1,1005,545.1058299759908) translate(99.91382812500001 71.216875)"/><use xlink:href="#J" transform="matrix(1,0,0,1,1005,545.1058299759908) translate(45.247265625 91.47162109375)"/><path d="M1080 660.6v63.82" stroke="#333" fill="none"/><path d="M1080.47 660.62h-.94v-.5h.94z" stroke="#333" stroke-width=".05" fill="#333"/><path d="M1080 739.18l-4.63-14.26h9.27z" stroke="#333" fill="#333"/><path d="M1073.75 745a10 10 0 0 1 12.5 0l87.5 70a6.4 6.4 0 0 1 0 10l-87.5 70a10 10 0 0 1-12.5 0l-87.5-70a6.4 6.4 0 0 1 0-10z" stroke="#fe5900" stroke-width="4" fill="#fff"/><use xlink:href="#K" transform="matrix(1,0,0,1,985,745) translate(23.52294921875 68.4802734375)"/><use xlink:href="#L" transform="matrix(1,0,0,1,985,745) translate(69.73583984375 68.4802734375)"/><use xlink:href="#M" transform="matrix(1,0,0,1,985,745) translate(99.15283203125 68.4802734375)"/><use xlink:href="#y" transform="matrix(1,0,0,1,985,745) translate(12.6201171875 94.6154296875)"/><use xlink:href="#N" transform="matrix(1,0,0,1,985,745) translate(17.6826171875 94.6154296875)"/><use xlink:href="#O" transform="matrix(1,0,0,1,985,745) translate(59.5625 94.6154296875)"/><use xlink:href="#P" transform="matrix(1,0,0,1,985,745) translate(101.134765625 94.6154296875)"/><use xlink:href="#f" transform="matrix(1,0,0,1,985,745) translate(168.177734375 94.6154296875)"/><path d="M1178.66 820H1268a12 12 0 0 0 12-12V676.5" stroke="#333" fill="none"/><path d="M1178.68 820.48h-.56l.04-.48-.04-.48h.56z" stroke="#333" stroke-width=".05" fill="#333"/><path d="M1280 661.72l4.63 14.27h-9.27z" stroke="#333" fill="#333"/><g><use xlink:href="#b" transform="matrix(1,0,0,1,1180.2844688370812,794.220703125) translate(0.004999999999999005 17.4375)"/></g><path d="M780 988.1a8 8 0 0 1 8-8h144a8 8 0 0 1 8 8v104a8 8 0 0 1-8 8H788a8 8 0 0 1-8-8z" stroke="#000" stroke-opacity="0" stroke-width="2" fill="#ff8839"/><g><use xlink:href="#Q" transform="matrix(1,0,0,1,785,985.1058299759909) translate(34.7970263671875 50.96212890625)"/><use xlink:href="#R" transform="matrix(1,0,0,1,785,985.1058299759909) translate(38.2055126953125 71.216875)"/></g><path d="M860 899.8v63.92" stroke="#333" fill="none"/><path d="M860 899.3l.48-.03v.55h-.96v-.55z" stroke="#333" stroke-width=".05" fill="#333"/><path d="M860 978.5l-4.63-14.28h9.26z" stroke="#333" fill="#333"/><g><use xlink:href="#S" transform="matrix(1,0,0,1,868,898.6928735942518) translate(0.005000000000000782 17.4375)"/></g><path d="M1080 899.7v128.4a12 12 0 0 1-12 12H956.38" stroke="#333" fill="none"/><path d="M1080 899.2l.47-.03v.54h-.94v-.53z" stroke="#333" stroke-width=".05" fill="#333"/><path d="M941.62 1040.1l14.26-4.63v9.27z" stroke="#333" fill="#333"/><g><use xlink:href="#S" transform="matrix(1,0,0,1,1088,930.8647344064861) translate(0.005000000000000782 17.4375)"/></g><path d="M1200 548.1a8 8 0 0 1 8-8h144a8 8 0 0 1 8 8v104a8 8 0 0 1-8 8h-144a8 8 0 0 1-8-8z" stroke="#000" stroke-opacity="0" stroke-width="2" fill="#ff8839"/><g><use xlink:href="#g" transform="matrix(1,0,0,1,1205,545.1058299759908) translate(34.465986328125 30.7073828125)"/><use xlink:href="#T" transform="matrix(1,0,0,1,1205,545.1058299759908) translate(95.728828125 30.7073828125)"/><use xlink:href="#U" transform="matrix(1,0,0,1,1205,545.1058299759908) translate(5.015683593749998 50.96212890625)"/><use xlink:href="#V" transform="matrix(1,0,0,1,1205,545.1058299759908) translate(81.857841796875 50.96212890625)"/><use xlink:href="#W" transform="matrix(1,0,0,1,1205,545.1058299759908) translate(8.481386718750002 71.216875)"/><use xlink:href="#X" transform="matrix(1,0,0,1,1205,545.1058299759908) translate(50.79729492187501 71.216875)"/><use xlink:href="#Y" transform="matrix(1,0,0,1,1205,545.1058299759908) translate(78.02431640625001 71.216875)"/><use xlink:href="#Z" transform="matrix(1,0,0,1,1205,545.1058299759908) translate(49.08896484374999 91.47162109375)"/></g><path d="M1199.5 600.1h-23.12" stroke="#333" fill="none"/><path d="M1200 600.58h-.5v-.95h.5z" stroke="#333" stroke-width=".05" fill="#333"/><path d="M1161.62 600.1l14.26-4.63v9.27z" stroke="#333" fill="#333"/><path d="M400 459.8v568.3a12 12 0 0 0 12 12h351.62" stroke="#333" fill="none"/><path d="M400 459.3l.48-.03v.55h-.96v-.55z" stroke="#333" stroke-width=".05" fill="#333"/><path d="M778.38 1040.1l-14.26 4.64v-9.27z" stroke="#333" fill="#333"/><g><use xlink:href="#S" transform="matrix(1,0,0,1,408,461.51730560584986) translate(0.005000000000000782 17.4375)"/></g><path d="M860 1100.6v23.12" stroke="#333" fill="none"/><path d="M860.48 1100.62h-.96v-.5h.96z" stroke="#333" stroke-width=".05" fill="#333"/><path d="M860 1138.5l-4.63-14.28h9.26z" stroke="#333" fill="#333"/><defs><path fill="#fff" d="M585 0H87l247-1490h460c436 0 670 281 593 744C1309-277 1035 0 585 0zM305-168h262c366 0 577-221 636-580s-82-574-426-574H496" id="aa"/><path fill="#fff" d="M535 24C259 24 94-144 94-427c0-392 272-715 610-715 216 0 356 119 356 305 0 244-237 344-790 350-18 199 49 349 276 352 142 0 260-66 317-173l167 47C947-85 756 24 535 24zM294-623c447-4 586-57 586-218 0-85-78-141-194-141-220 0-342 177-392 359zm352-659l186-276h201l-240 276H646" id="ab"/><path fill="#fff" d="M592 24c-216 0-276-130-305-197h-18L239 0H65l247-1490h180l-92 551h15c51-63 134-193 344-193 246 0 401 170 401 447 0 348-211 709-568 709zm-24-161c267 0 411-296 411-543 0-170-78-291-250-291-269 0-405 284-405 542 0 177 81 292 244 292" id="ac"/><path fill="#fff" d="M443 14C219 14 87-123 134-408l117-710h180L317-423c-28 171 49 275 206 275s300-105 332-300l110-670h181L961 0H787l35-209C722-47 590 14 443 14" id="ad"/><path fill="#fff" d="M691-1118l-25 154H437L325-290c-17 103 16 144 108 144 23 0 63-6 94-12L538-6c-36 12-87 20-136 20-196 0-290-109-260-290l114-688H88l25-154h169l44-266h180l-44 266h229" id="ae"/><g id="a"><use transform="matrix(0.008173828125000001,0,0,0.008173828125000001,0,0)" xlink:href="#aa"/><use transform="matrix(0.008173828125000001,0,0,0.008173828125000001,12.072744140625002,0)" xlink:href="#ab"/><use transform="matrix(0.008173828125000001,0,0,0.008173828125000001,21.7096875,0)" xlink:href="#ac"/><use transform="matrix(0.008173828125000001,0,0,0.008173828125000001,31.967841796875,0)" xlink:href="#ad"/><use transform="matrix(0.008173828125000001,0,0,0.008173828125000001,41.874521484375,0)" xlink:href="#ae"/></g><path fill="#666" d="M180 0v-1490h224l606 953c40 63 108 177 176 312-27-437-7-821-13-1265h190V0h-226C860-448 622-778 356-1262c27 476 11 792 15 1262H180" id="af"/><path fill="#666" d="M613 24c-304 0-509-231-509-576 0-350 205-580 509-580 305 0 511 230 511 580 0 345-206 576-511 576zm0-161c226 0 329-195 329-415 0-222-103-419-329-419-223 0-326 196-326 419 0 220 103 415 326 415" id="ag"/><path fill="#666" d="M338-670V0H158v-1118h173l1 207c72-158 192-221 342-221 226 0 378 139 378 422V0H872v-695c0-172-96-275-252-275-161 0-282 109-282 300" id="ah"/><g id="b"><use transform="matrix(0.0087890625,0,0,0.0087890625,0,0)" xlink:href="#af"/><use transform="matrix(0.0087890625,0,0,0.0087890625,13.5615234375,0)" xlink:href="#ag"/><use transform="matrix(0.0087890625,0,0,0.0087890625,24.3544921875,0)" xlink:href="#ah"/></g><path fill="#333" d="M180 0v-1490h901v168H370v510h643v168H370V0H180" id="ai"/><path fill="#333" d="M158 0v-1118h180V0H158zm91-1301c-68 0-125-53-125-119s57-119 125-119c69 0 126 53 126 119s-57 119-126 119" id="aj"/><path fill="#333" d="M338-670V0H158v-1118h173l1 207c72-158 192-221 342-221 226 0 378 139 378 422V0H872v-695c0-172-96-275-252-275-161 0-282 109-282 300" id="ak"/><g id="c"><use transform="matrix(0.008173828125000001,0,0,0.008173828125000001,0,0)" xlink:href="#ai"/><use transform="matrix(0.008173828125000001,0,0,0.008173828125000001,9.882158203125002,0)" xlink:href="#aj"/><use transform="matrix(0.008173828125000001,0,0,0.008173828125000001,13.936376953125002,0)" xlink:href="#ak"/></g><path fill="#666" d="M180 0v-1490h908v168H370v486h669v168H370v500h727V0H180" id="al"/><path fill="#666" d="M538 24C308 24 148-78 108-271l171-41c32 123 123 178 257 178 156 0 256-77 256-169 0-77-54-128-164-154l-186-44c-203-48-300-148-300-305 0-192 176-326 414-326 230 0 351 112 402 269l-163 42c-31-80-94-158-238-158-133 0-233 69-233 162 0 83 57 129 188 160l169 40c203 48 298 149 298 302 0 196-179 339-441 339" id="am"/><path fill="#666" d="M598-1118v154H368v674c0 100 37 144 132 144 23 0 62-6 92-12L629-6c-37 13-88 20-134 20-193 0-307-107-307-290v-688H20v-154h168v-266h180v266h230" id="an"/><g id="d"><use transform="matrix(0.0087890625,0,0,0.0087890625,0,0)" xlink:href="#al"/><use transform="matrix(0.0087890625,0,0,0.0087890625,10.8193359375,0)" xlink:href="#am"/><use transform="matrix(0.0087890625,0,0,0.0087890625,20.3203125,0)" xlink:href="#an"/></g><path fill="#666" d="M613 24c-304 0-509-231-509-576 0-350 205-580 509-580 216 0 392 114 453 309l-173 49c-33-115-133-197-280-197-223 0-326 196-326 419 0 220 103 415 326 415 150 0 252-85 285-206l172 49C1010-95 832 24 613 24" id="ao"/><path fill="#666" d="M628 24c-324 0-524-230-524-574 0-343 198-582 503-582 237 0 487 146 487 559v75H286c9 234 145 362 343 362 132 0 231-58 273-172l174 48C1024-91 857 24 628 24zM287-650h624c-17-190-120-322-304-322-192 0-309 151-320 322" id="ap"/><path fill="#666" d="M628 24c-324 0-524-230-524-574 0-343 198-582 503-582 237 0 487 146 487 559v75H286c9 234 145 362 343 362 132 0 231-58 273-172l174 48C1024-91 857 24 628 24zM287-650h624c-17-190-120-322-304-322-192 0-309 151-320 322zm237-614l140-294h201l-194 294H524" id="aq"/><g id="e"><use transform="matrix(0.0087890625,0,0,0.0087890625,0,0)" xlink:href="#ao"/><use transform="matrix(0.0087890625,0,0,0.0087890625,10.283203125,0)" xlink:href="#ag"/><use transform="matrix(0.0087890625,0,0,0.0087890625,21.076171875,0)" xlink:href="#ah"/><use transform="matrix(0.0087890625,0,0,0.0087890625,31.7109375,0)" xlink:href="#ah"/><use transform="matrix(0.0087890625,0,0,0.0087890625,42.345703125,0)" xlink:href="#ap"/><use transform="matrix(0.0087890625,0,0,0.0087890625,52.83984375,0)" xlink:href="#ao"/><use transform="matrix(0.0087890625,0,0,0.0087890625,63.123046875,0)" xlink:href="#an"/><use transform="matrix(0.0087890625,0,0,0.0087890625,68.8359375,0)" xlink:href="#aq"/></g><path fill="#666" d="M383-449c-3-277 82-343 222-425 88-53 156-134 156-250 0-139-108-227-243-227-118 0-235 70-246 236H82c10-251 200-395 436-395 259 0 427 165 427 393 0 161-74 273-203 352-132 80-180 132-178 316H383zm93 462c-75 0-135-60-135-134 0-75 60-135 135-135 74 0 134 60 134 135 0 74-60 134-134 134" id="ar"/><use transform="matrix(0.0087890625,0,0,0.0087890625,0,0)" xlink:href="#ar" id="f"/><path fill="#fff" d="M-41 0l788-1490h220L1268 0h-192l-80-416H383L169 0H-41zm509-582h497c-56-293-77-375-126-756-162 359-224 468-371 756" id="as"/><path fill="#fff" d="M780-1118l-24 146H497L317 116C281 334 148 448-56 448c-43 0-82-5-117-17l45-161c143 34 239 0 264-153L316-972H89l24-146h227l13-77c43-287 254-417 541-345l-50 154c-23-5-81-8-121-8-107 0-167 63-189 196l-13 80h259" id="at"/><path fill="#fff" d="M66 0l185-1118h180L246 0H66zm307-1301c-71 0-117-55-106-119s74-119 145-119c65 0 117 50 106 118s-78 120-145 120" id="au"/><path fill="#fff" d="M528 24C258 24 94-156 94-433c0-354 228-699 603-699 222 0 381 120 410 314l-176 39c-14-114-95-192-238-192-272 0-419 288-419 536 0 167 76 298 258 298 155 0 277-90 329-211l166 58C935-93 745 24 528 24" id="av"/><path fill="#fff" d="M356-670L245 0H65l247-1490h180l-94 565c97-150 219-207 362-207 226 0 365 139 318 422L960 0H779l116-695c29-174-53-275-208-275-158 0-299 107-331 300" id="aw"/><path fill="#fff" d="M535 24C259 24 94-144 94-427c0-392 272-715 610-715 216 0 356 119 356 305 0 244-237 344-790 350-18 199 49 349 276 352 142 0 260-66 317-173l167 47C947-85 756 24 535 24zM294-623c447-4 586-57 586-218 0-85-78-141-194-141-220 0-342 177-392 359" id="ax"/><g id="g"><use transform="matrix(0.008173828125000001,0,0,0.008173828125000001,0,0)" xlink:href="#as"/><use transform="matrix(0.008173828125000001,0,0,0.008173828125000001,11.549619140625001,0)" xlink:href="#at"/><use transform="matrix(0.008173828125000001,0,0,0.008173828125000001,17.140517578125003,0)" xlink:href="#at"/><use transform="matrix(0.008173828125000001,0,0,0.008173828125000001,23.385322265625003,0)" xlink:href="#au"/><use transform="matrix(0.008173828125000001,0,0,0.008173828125000001,27.447714843750003,0)" xlink:href="#av"/><use transform="matrix(0.008173828125000001,0,0,0.008173828125000001,37.019267578125,0)" xlink:href="#aw"/><use transform="matrix(0.008173828125000001,0,0,0.008173828125000001,46.9177734375,0)" xlink:href="#ax"/></g><path fill="#fff" d="M492-1490L245 0H65l247-1490h180" id="ay"/><g id="h"><use transform="matrix(0.008173828125000001,0,0,0.008173828125000001,0,0)" xlink:href="#ay"/><use transform="matrix(0.008173828125000001,0,0,0.008173828125000001,4.05421875,0)" xlink:href="#ax"/></g><path fill="#fff" d="M528 24C258 24 94-156 94-433c0-355 229-699 603-699 270 0 436 178 436 458 0 359-234 698-605 698zm4-161c275 0 420-287 420-533 0-170-77-301-260-301-271 0-418 288-418 536 0 168 77 298 258 298" id="az"/><path fill="#fff" d="M66 0l185-1118h174l-28 172h12c78-136 219-209 411-185l-30 181c-211-47-398 67-428 250L246 0H66" id="aA"/><path fill="#fff" d="M65 0l186-1118h175l-31 195c80-148 212-215 337-215 153 0 236 96 255 228 75-143 223-228 382-228 199 0 341 131 298 390L1543 0h-181l126-756c27-162-65-218-177-218-160 0-274 111-297 250L894 0H714l128-773c21-127-57-201-174-201-136 0-277 97-307 277L245 0H65" id="aB"/><path fill="#fff" d="M481 24C202 24 45-202 104-557s293-575 571-575c216 0 263 132 291 193h15l29-179h181L1006 0H831l28-173h-21C788-107 693 24 481 24zm56-161c204 0 342-174 383-422s-41-412-245-412c-215 0-350 183-388 412-39 235 39 422 250 422" id="aC"/><g id="i"><use transform="matrix(0.008173828125000001,0,0,0.008173828125000001,0,0)" xlink:href="#at"/><use transform="matrix(0.008173828125000001,0,0,0.008173828125000001,5.754375000000001,0)" xlink:href="#az"/><use transform="matrix(0.008173828125000001,0,0,0.008173828125000001,15.800009765625003,0)" xlink:href="#aA"/><use transform="matrix(0.008173828125000001,0,0,0.008173828125000001,22.371767578125002,0)" xlink:href="#aB"/><use transform="matrix(0.008173828125000001,0,0,0.008173828125000001,37.035615234375,0)" xlink:href="#ad"/><use transform="matrix(0.008173828125000001,0,0,0.008173828125000001,46.942294921875,0)" xlink:href="#ay"/><use transform="matrix(0.008173828125000001,0,0,0.008173828125000001,50.99651367187501,0)" xlink:href="#aC"/><use transform="matrix(0.008173828125000001,0,0,0.008173828125000001,61.27101562500002,0)" xlink:href="#au"/><use transform="matrix(0.008173828125000001,0,0,0.008173828125000001,65.33340820312502,0)" xlink:href="#aA"/><use transform="matrix(0.008173828125000001,0,0,0.008173828125000001,71.36569335937502,0)" xlink:href="#ax"/></g><path fill="#fff" d="M492 24C248 24 94-147 94-425c0-352 212-707 569-707 222 0 274 136 303 198h12l92-556h181L1004 0H829l30-173h-19C792-103 700 24 492 24zm32-161c268 0 407-295 407-549 0-175-80-285-247-285-266 0-408 283-408 536 0 174 79 298 248 298" id="aD"/><g id="j"><use transform="matrix(0.008173828125000001,0,0,0.008173828125000001,0,0)" xlink:href="#aD"/><use transform="matrix(0.008173828125000001,0,0,0.008173828125000001,10.258154296875,0)" xlink:href="#ax"/></g><path fill="#fff" d="M356-664L245 0H65l186-1118h173l-32 197c96-152 219-211 366-211 232 0 366 145 319 428L960 0H779l117-701c29-174-48-269-198-269-165 0-310 115-342 306" id="aE"/><path fill="#fff" d="M-28 0l489-573-281-545h202c65 135 144 295 195 434 91-140 226-300 336-434h214L662-564 960 0H756c-70-143-156-309-211-458C447-309 301-142 185 0H-28" id="aF"/><g id="k"><use transform="matrix(0.008173828125000001,0,0,0.008173828125000001,0,0)" xlink:href="#av"/><use transform="matrix(0.008173828125000001,0,0,0.008173828125000001,9.571552734375,0)" xlink:href="#az"/><use transform="matrix(0.008173828125000001,0,0,0.008173828125000001,19.6171875,0)" xlink:href="#aE"/><use transform="matrix(0.008173828125000001,0,0,0.008173828125000001,29.515693359375,0)" xlink:href="#aE"/><use transform="matrix(0.008173828125000001,0,0,0.008173828125000001,39.41419921875,0)" xlink:href="#ax"/><use transform="matrix(0.008173828125000001,0,0,0.008173828125000001,48.675146484375006,0)" xlink:href="#aF"/><use transform="matrix(0.008173828125000001,0,0,0.008173828125000001,57.81348632812501,0)" xlink:href="#au"/><use transform="matrix(0.008173828125000001,0,0,0.008173828125000001,61.87587890625001,0)" xlink:href="#az"/><use transform="matrix(0.008173828125000001,0,0,0.008173828125000001,71.921513671875,0)" xlink:href="#aE"/></g><path fill="#333" d="M180 0v-1490h510c348 0 508 209 508 474 0 266-160 477-507 477H370V0H180zm190-706h312c236 0 327-133 327-310 0-176-91-307-329-307H370v617" id="aG"/><path fill="#333" d="M613 24c-304 0-509-231-509-576 0-350 205-580 509-580 305 0 511 230 511 580 0 345-206 576-511 576zm0-161c226 0 329-195 329-415 0-222-103-419-329-419-223 0-326 196-326 419 0 220 103 415 326 415" id="aH"/><path fill="#333" d="M538 24C308 24 148-78 108-271l171-41c32 123 123 178 257 178 156 0 256-77 256-169 0-77-54-128-164-154l-186-44c-203-48-300-148-300-305 0-192 176-326 414-326 230 0 351 112 402 269l-163 42c-31-80-94-158-238-158-133 0-233 69-233 162 0 83 57 129 188 160l169 40c203 48 298 149 298 302 0 196-179 339-441 339" id="aI"/><path fill="#333" d="M628 24c-324 0-524-230-524-574 0-343 198-582 503-582 237 0 487 146 487 559v75H286c9 234 145 362 343 362 132 0 231-58 273-172l174 48C1024-91 857 24 628 24zM287-650h624c-17-190-120-322-304-322-192 0-309 151-320 322zm245-614l-193-294h201l140 294H532" id="aJ"/><path fill="#333" d="M577 24c-279 0-473-224-473-580 0-354 195-576 474-576 218 0 287 134 324 193h14v-551h180V0H922v-173h-20C865-111 790 24 577 24zm27-161c203 0 314-172 314-421 0-247-108-413-314-413-212 0-317 181-317 413 0 235 108 421 317 421" id="aK"/><path fill="#333" d="M628 24c-324 0-524-230-524-574 0-343 198-582 503-582 237 0 487 146 487 559v75H286c9 234 145 362 343 362 132 0 231-58 273-172l174 48C1024-91 857 24 628 24zM287-650h624c-17-190-120-322-304-322-192 0-309 151-320 322" id="aL"/><g id="l"><use transform="matrix(0.008173828125000001,0,0,0.008173828125000001,0,0)" xlink:href="#aG"/><use transform="matrix(0.008173828125000001,0,0,0.008173828125000001,10.601455078125001,0)" xlink:href="#aH"/><use transform="matrix(0.008173828125000001,0,0,0.008173828125000001,20.638916015625,0)" xlink:href="#aI"/><use transform="matrix(0.008173828125000001,0,0,0.008173828125000001,29.47482421875,0)" xlink:href="#aI"/><use transform="matrix(0.008173828125000001,0,0,0.008173828125000001,38.310732421875,0)" xlink:href="#aJ"/><use transform="matrix(0.008173828125000001,0,0,0.008173828125000001,48.070283203125,0)" xlink:href="#aK"/><use transform="matrix(0.008173828125000001,0,0,0.008173828125000001,58.320263671875004,0)" xlink:href="#aL"/></g><path fill="#333" d="M628 24c-324 0-524-230-524-574 0-343 198-582 503-582 237 0 487 146 487 559v75H286c9 234 145 362 343 362 132 0 231-58 273-172l174 48C1024-91 857 24 628 24zM287-650h624c-17-190-120-322-304-322-192 0-309 151-320 322zm237-614l140-294h201l-194 294H524" id="aM"/><path fill="#333" d="M157-1118h181V80c1 225-123 350-364 338V252c126 9 184-48 183-172v-1198zm91-183c-68 0-125-53-125-119s57-119 125-119c69 0 126 53 126 119s-57 119-126 119" id="aN"/><path fill="#333" d="M471 26C259 26 90-98 90-318c0-256 228-303 435-329 202-27 287-16 287-108 0-139-79-219-234-219-161 0-248 86-283 164l-173-57c86-203 278-265 451-265 150 0 419 46 419 395V0H815v-152h-12C765-73 660 26 471 26zm31-159c199 0 310-134 310-271v-155c-30 35-226 55-295 64-131 17-246 59-246 186 0 116 97 176 231 176zm-15-1131l-193-294h201l140 294H487" id="aO"/><g id="m"><use transform="matrix(0.008173828125000001,0,0,0.008173828125000001,0,0)" xlink:href="#aK"/><use transform="matrix(0.008173828125000001,0,0,0.008173828125000001,10.249980468750001,0)" xlink:href="#aM"/><use transform="matrix(0.008173828125000001,0,0,0.008173828125000001,20.009531250000002,0)" xlink:href="#aN"/><use transform="matrix(0.008173828125000001,0,0,0.008173828125000001,24.063750000000002,0)" xlink:href="#aO"/></g><path fill="#333" d="M537 14c-226 0-379-139-379-422v-710h180v695c0 172 97 275 253 275 160 0 281-109 281-300v-670h181V0H879v-209C806-46 684 14 537 14" id="aP"/><g id="n"><use transform="matrix(0.008173828125000001,0,0,0.008173828125000001,0,0)" xlink:href="#aP"/><use transform="matrix(0.008173828125000001,0,0,0.008173828125000001,9.898505859375001,0)" xlink:href="#ak"/></g><path fill="#333" d="M613 24c-304 0-509-231-509-576 0-350 205-580 509-580 216 0 392 114 453 309l-173 49c-33-115-133-197-280-197-223 0-326 196-326 419 0 220 103 415 326 415 150 0 252-85 285-206l172 49C1010-95 832 24 613 24" id="aQ"/><path fill="#333" d="M158 0v-1118h175l1 205c55-151 181-225 313-225 147 0 245 90 285 228 53-141 190-228 352-228 194 0 352 125 352 384V0h-181v-749c0-161-105-225-225-225-151 0-243 103-243 244V0H807v-767c0-124-93-207-219-207-131 0-250 92-250 270V0H158" id="aR"/><path fill="#333" d="M158 418v-1536h174v179h20c37-59 106-193 324-193 279 0 474 222 474 576 0 356-194 580-473 580-213 0-288-135-325-197h-14v591H158zm492-555c209 0 317-186 317-421 0-232-105-413-317-413-206 0-314 166-314 413 0 249 111 421 314 421" id="aS"/><path fill="#333" d="M598-1118v154H368v674c0 100 37 144 132 144 23 0 62-6 92-12L629-6c-37 13-88 20-134 20-193 0-307-107-307-290v-688H20v-154h168v-266h180v266h230" id="aT"/><g id="o"><use transform="matrix(0.008173828125000001,0,0,0.008173828125000001,0,0)" xlink:href="#aQ"/><use transform="matrix(0.008173828125000001,0,0,0.008173828125000001,9.563378906250001,0)" xlink:href="#aH"/><use transform="matrix(0.008173828125000001,0,0,0.008173828125000001,19.600839843750002,0)" xlink:href="#aR"/><use transform="matrix(0.008173828125000001,0,0,0.008173828125000001,34.26468750000001,0)" xlink:href="#aS"/><use transform="matrix(0.008173828125000001,0,0,0.008173828125000001,44.51466796875001,0)" xlink:href="#aT"/><use transform="matrix(0.008173828125000001,0,0,0.008173828125000001,49.82765625000001,0)" xlink:href="#aL"/></g><path fill="#333" d="M383-449c-3-277 82-343 222-425 88-53 156-134 156-250 0-139-108-227-243-227-118 0-235 70-246 236H82c10-251 200-395 436-395 259 0 427 165 427 393 0 161-74 273-203 352-132 80-180 132-178 316H383zm93 462c-75 0-135-60-135-134 0-75 60-135 135-135 74 0 134 60 134 135 0 74-60 134-134 134" id="aU"/><use transform="matrix(0.008173828125000001,0,0,0.008173828125000001,0,0)" xlink:href="#aU" id="p"/><path fill="#666" d="M784 20c-382 0-662-292-662-764 0-473 280-766 662-766s660 293 660 766c0 472-278 764-660 764zm0-176c266 0 475-207 475-588 0-383-209-590-475-590-268 0-477 208-477 590 0 380 209 588 477 588" id="aV"/><path fill="#666" d="M537 14c-226 0-379-139-379-422v-710h180v695c0 172 97 275 253 275 160 0 281-109 281-300v-670h181V0H879v-209C806-46 684 14 537 14" id="aW"/><path fill="#666" d="M158 0v-1118h180V0H158zm91-1301c-68 0-125-53-125-119s57-119 125-119c69 0 126 53 126 119s-57 119-126 119" id="aX"/><g id="q"><use transform="matrix(0.0087890625,0,0,0.0087890625,0,0)" xlink:href="#aV"/><use transform="matrix(0.0087890625,0,0,0.0087890625,13.763671875,0)" xlink:href="#aW"/><use transform="matrix(0.0087890625,0,0,0.0087890625,24.4072265625,0)" xlink:href="#aX"/></g><path fill="#fff" d="M87 0l247-1490h908l-28 167H496l-80 487h669l-28 167H387l-83 502h727L1004 0H87" id="aY"/><g id="r"><use transform="matrix(0.008173828125000001,0,0,0.008173828125000001,0,0)" xlink:href="#aY"/><use transform="matrix(0.008173828125000001,0,0,0.008173828125000001,10.070156250000002,0)" xlink:href="#aE"/><use transform="matrix(0.008173828125000001,0,0,0.008173828125000001,19.968662109375003,0)" xlink:href="#ae"/><use transform="matrix(0.008173828125000001,0,0,0.008173828125000001,25.461474609375003,0)" xlink:href="#aA"/><use transform="matrix(0.008173828125000001,0,0,0.008173828125000001,31.493759765625,0)" xlink:href="#ax"/></g><path fill="#fff" d="M451 24C217 22 71-78 61-277l174-29c11 123 90 172 219 172 161 0 280-83 297-181 11-71-30-117-135-143l-179-44c-195-48-280-153-253-316 31-186 223-314 455-314 233 4 337 107 366 275l-165 30c-18-80-65-152-204-152-138 0-256 75-272 174-13 77 32 118 158 149l162 40c195 48 278 154 252 313C904-113 708 24 451 24" id="aZ"/><g id="s"><use transform="matrix(0.008173828125000001,0,0,0.008173828125000001,0,0)" xlink:href="#au"/><use transform="matrix(0.008173828125000001,0,0,0.008173828125000001,4.062392578125,0)" xlink:href="#aD"/><use transform="matrix(0.008173828125000001,0,0,0.008173828125000001,14.320546875000002,0)" xlink:href="#ax"/><use transform="matrix(0.008173828125000001,0,0,0.008173828125000001,23.957490234375,0)" xlink:href="#aE"/><use transform="matrix(0.008173828125000001,0,0,0.008173828125000001,33.85599609375,0)" xlink:href="#ae"/><use transform="matrix(0.008173828125000001,0,0,0.008173828125000001,39.34880859375,0)" xlink:href="#au"/><use transform="matrix(0.008173828125000001,0,0,0.008173828125000001,43.411201171875,0)" xlink:href="#at"/><use transform="matrix(0.008173828125000001,0,0,0.008173828125000001,49.656005859375,0)" xlink:href="#au"/><use transform="matrix(0.008173828125000001,0,0,0.008173828125000001,53.7183984375,0)" xlink:href="#aC"/><use transform="matrix(0.008173828125000001,0,0,0.008173828125000001,63.992900390625,0)" xlink:href="#aE"/><use transform="matrix(0.008173828125000001,0,0,0.008173828125000001,73.89140625,0)" xlink:href="#ae"/><use transform="matrix(0.008173828125000001,0,0,0.008173828125000001,79.22074218750001,0)" xlink:href="#aZ"/></g><g id="t"><use transform="matrix(0.0087890625,0,0,0.0087890625,0,0)" xlink:href="#af"/><use transform="matrix(0.0087890625,0,0,0.0087890625,13.5615234375,0)" xlink:href="#ag"/><use transform="matrix(0.0087890625,0,0,0.0087890625,24.3544921875,0)" xlink:href="#ah"/></g><path fill="#fff" d="M698 20c-339 0-559-226-559-600 0-470 305-930 790-930 306 0 529 181 531 489h-190c-8-202-157-313-348-313-373 0-599 380-599 749 0 281 158 429 382 429 202 0 399-111 474-313h191C1267-166 997 20 698 20" id="ba"/><g id="u"><use transform="matrix(0.008173828125000001,0,0,0.008173828125000001,0,0)" xlink:href="#ba"/><use transform="matrix(0.008173828125000001,0,0,0.008173828125000001,12.219873046875001,0)" xlink:href="#aA"/><use transform="matrix(0.008173828125000001,0,0,0.008173828125000001,18.252158203125003,0)" xlink:href="#ab"/><use transform="matrix(0.008173828125000001,0,0,0.008173828125000001,27.889101562500002,0)" xlink:href="#ax"/></g><g id="v"><use transform="matrix(0.008173828125000001,0,0,0.008173828125000001,0,0)" xlink:href="#ad"/><use transform="matrix(0.008173828125000001,0,0,0.008173828125000001,9.9066796875,0)" xlink:href="#aE"/></g><path fill="#fff" d="M-4 418l255-1536h174l-30 179h9c47-68 143-193 355-193 246 0 401 170 401 447 0 348-211 709-568 709-219 0-274-140-300-202h-17l-99 596H-4zm572-555c267 0 411-296 411-543 0-170-78-291-250-291-269 0-405 284-405 542 0 177 81 292 244 292" id="bb"/><g id="w"><use transform="matrix(0.008173828125000001,0,0,0.008173828125000001,0,0)" xlink:href="#av"/><use transform="matrix(0.008173828125000001,0,0,0.008173828125000001,9.571552734375,0)" xlink:href="#az"/><use transform="matrix(0.008173828125000001,0,0,0.008173828125000001,19.6171875,0)" xlink:href="#aB"/><use transform="matrix(0.008173828125000001,0,0,0.008173828125000001,34.28103515625,0)" xlink:href="#bb"/><use transform="matrix(0.008173828125000001,0,0,0.008173828125000001,44.539189453125,0)" xlink:href="#ae"/><use transform="matrix(0.008173828125000001,0,0,0.008173828125000001,49.868525390624995,0)" xlink:href="#ax"/></g><path fill="#666" d="M370-1490V0H180v-1490h190" id="bc"/><path fill="#666" d="M577 24c-279 0-473-224-473-580 0-354 195-576 474-576 218 0 287 134 324 193h14v-551h180V0H922v-173h-20C865-111 790 24 577 24zm27-161c203 0 314-172 314-421 0-247-108-413-314-413-212 0-317 181-317 413 0 235 108 421 317 421" id="bd"/><path fill="#666" d="M678-1118v154H420V0H240v-964H20v-154h220v-149c0-194 155-293 318-293 85 0 141 18 168 30l-50 154c-19-6-47-17-97-17-111 0-159 58-159 166v109h258" id="be"/><path fill="#666" d="M471 26C259 26 90-98 90-318c0-256 228-303 435-329 202-27 287-16 287-108 0-139-79-219-234-219-161 0-248 86-283 164l-173-57c86-203 278-265 451-265 150 0 419 46 419 395V0H815v-152h-12C765-73 660 26 471 26zm31-159c199 0 310-134 310-271v-155c-30 35-226 55-295 64-131 17-246 59-246 186 0 116 97 176 231 176" id="bf"/><g id="x"><use transform="matrix(0.0087890625,0,0,0.0087890625,0,0)" xlink:href="#bc"/><use transform="matrix(0.0087890625,0,0,0.0087890625,4.833984375,0)" xlink:href="#bd"/><use transform="matrix(0.0087890625,0,0,0.0087890625,15.85546875,0)" xlink:href="#ap"/><use transform="matrix(0.0087890625,0,0,0.0087890625,26.349609375,0)" xlink:href="#ah"/><use transform="matrix(0.0087890625,0,0,0.0087890625,36.984375,0)" xlink:href="#an"/><use transform="matrix(0.0087890625,0,0,0.0087890625,42.873046875,0)" xlink:href="#aX"/><use transform="matrix(0.0087890625,0,0,0.0087890625,47.232421875,0)" xlink:href="#be"/><use transform="matrix(0.0087890625,0,0,0.0087890625,53.89453125,0)" xlink:href="#aX"/><use transform="matrix(0.0087890625,0,0,0.0087890625,58.25390625,0)" xlink:href="#bf"/><use transform="matrix(0.0087890625,0,0,0.0087890625,68.361328125,0)" xlink:href="#ah"/><use transform="matrix(0.0087890625,0,0,0.0087890625,78.99609375,0)" xlink:href="#an"/><use transform="matrix(0.0087890625,0,0,0.0087890625,84.708984375,0)" xlink:href="#am"/></g><path fill="#666" d="M158 0v-1118h174v172h12c41-113 157-188 290-188 26 0 70 2 91 3v181c-11-2-60-10-108-10-161 0-279 109-279 260V0H158" id="bg"/><g id="z"><use transform="matrix(0.0087890625,0,0,0.0087890625,0,0)" xlink:href="#ao"/><use transform="matrix(0.0087890625,0,0,0.0087890625,10.283203125,0)" xlink:href="#ag"/><use transform="matrix(0.0087890625,0,0,0.0087890625,21.076171875,0)" xlink:href="#bg"/><use transform="matrix(0.0087890625,0,0,0.0087890625,28.1337890625,0)" xlink:href="#bg"/><use transform="matrix(0.0087890625,0,0,0.0087890625,34.611328125,0)" xlink:href="#ap"/><use transform="matrix(0.0087890625,0,0,0.0087890625,45.10546875,0)" xlink:href="#ao"/><use transform="matrix(0.0087890625,0,0,0.0087890625,55.388671875,0)" xlink:href="#an"/><use transform="matrix(0.0087890625,0,0,0.0087890625,61.1015625,0)" xlink:href="#am"/></g><g id="A"><use transform="matrix(0.008173828125000001,0,0,0.008173828125000001,0,0)" xlink:href="#aY"/><use transform="matrix(0.008173828125000001,0,0,0.008173828125000001,10.070156250000002,0)" xlink:href="#av"/><use transform="matrix(0.008173828125000001,0,0,0.008173828125000001,19.641708984375,0)" xlink:href="#aw"/><use transform="matrix(0.008173828125000001,0,0,0.008173828125000001,29.54021484375,0)" xlink:href="#ax"/><use transform="matrix(0.008173828125000001,0,0,0.008173828125000001,39.177158203125,0)" xlink:href="#av"/></g><g id="B"><use transform="matrix(0.008173828125000001,0,0,0.008173828125000001,0,0)" xlink:href="#aD"/><use transform="matrix(0.008173828125000001,0,0,0.008173828125000001,10.258154296875,0)" xlink:href="#ax"/></g><g id="C"><use transform="matrix(0.008173828125000001,0,0,0.008173828125000001,0,0)" xlink:href="#ay"/><use transform="matrix(0.008173828125000001,0,0,0.008173828125000001,4.05421875,0)" xlink:href="#aC"/></g><g id="D"><use transform="matrix(0.008173828125000001,0,0,0.008173828125000001,0,0)" xlink:href="#av"/><use transform="matrix(0.008173828125000001,0,0,0.008173828125000001,9.571552734375,0)" xlink:href="#az"/><use transform="matrix(0.008173828125000001,0,0,0.008173828125000001,19.6171875,0)" xlink:href="#aE"/><use transform="matrix(0.008173828125000001,0,0,0.008173828125000001,29.515693359375,0)" xlink:href="#aE"/><use transform="matrix(0.008173828125000001,0,0,0.008173828125000001,39.41419921875,0)" xlink:href="#ax"/><use transform="matrix(0.008173828125000001,0,0,0.008173828125000001,48.675146484375006,0)" xlink:href="#aF"/><use transform="matrix(0.008173828125000001,0,0,0.008173828125000001,57.81348632812501,0)" xlink:href="#au"/><use transform="matrix(0.008173828125000001,0,0,0.008173828125000001,61.87587890625001,0)" xlink:href="#az"/><use transform="matrix(0.008173828125000001,0,0,0.008173828125000001,71.921513671875,0)" xlink:href="#aE"/></g><path fill="#fff" d="M87 0l247-1490h510c351 0 476 196 432 460-33 197-146 351-346 417L1163 0H943L728-579c-116 2-237 0-355 1L277 0H87zm314-747h311c238 0 346-110 375-283 31-185-52-293-281-293H496" id="bh"/><g id="E"><use transform="matrix(0.008173828125000001,0,0,0.008173828125000001,0,0)" xlink:href="#bh"/><use transform="matrix(0.008173828125000001,0,0,0.008173828125000001,10.527890625000001,0)" xlink:href="#ax"/><use transform="matrix(0.008173828125000001,0,0,0.008173828125000001,20.164833984375,0)" xlink:href="#aB"/><use transform="matrix(0.008173828125000001,0,0,0.008173828125000001,34.82868164062501,0)" xlink:href="#bb"/><use transform="matrix(0.008173828125000001,0,0,0.008173828125000001,45.086835937500005,0)" xlink:href="#ay"/><use transform="matrix(0.008173828125000001,0,0,0.008173828125000001,49.14105468750001,0)" xlink:href="#au"/></g><g id="F"><use transform="matrix(0.008173828125000001,0,0,0.008173828125000001,0,0)" xlink:href="#ay"/><use transform="matrix(0.008173828125000001,0,0,0.008173828125000001,4.05421875,0)" xlink:href="#ax"/></g><g id="G"><use transform="matrix(0.008173828125000001,0,0,0.008173828125000001,0,0)" xlink:href="#at"/><use transform="matrix(0.008173828125000001,0,0,0.008173828125000001,5.754375000000001,0)" xlink:href="#az"/><use transform="matrix(0.008173828125000001,0,0,0.008173828125000001,15.800009765625003,0)" xlink:href="#aA"/><use transform="matrix(0.008173828125000001,0,0,0.008173828125000001,22.371767578125002,0)" xlink:href="#aB"/><use transform="matrix(0.008173828125000001,0,0,0.008173828125000001,37.035615234375,0)" xlink:href="#ad"/><use transform="matrix(0.008173828125000001,0,0,0.008173828125000001,46.942294921875,0)" xlink:href="#ay"/><use transform="matrix(0.008173828125000001,0,0,0.008173828125000001,50.99651367187501,0)" xlink:href="#aC"/><use transform="matrix(0.008173828125000001,0,0,0.008173828125000001,61.27101562500002,0)" xlink:href="#au"/><use transform="matrix(0.008173828125000001,0,0,0.008173828125000001,65.33340820312502,0)" xlink:href="#aA"/><use transform="matrix(0.008173828125000001,0,0,0.008173828125000001,71.36569335937502,0)" xlink:href="#ax"/></g><g id="H"><use transform="matrix(0.008173828125000001,0,0,0.008173828125000001,0,0)" xlink:href="#aD"/><use transform="matrix(0.008173828125000001,0,0,0.008173828125000001,10.258154296875,0)" xlink:href="#ax"/></g><g id="I"><use transform="matrix(0.008173828125000001,0,0,0.008173828125000001,0,0)" xlink:href="#av"/><use transform="matrix(0.008173828125000001,0,0,0.008173828125000001,9.571552734375,0)" xlink:href="#aA"/><use transform="matrix(0.008173828125000001,0,0,0.008173828125000001,15.603837890625002,0)" xlink:href="#ab"/><use transform="matrix(0.008173828125000001,0,0,0.008173828125000001,25.24078125,0)" xlink:href="#aC"/><use transform="matrix(0.008173828125000001,0,0,0.008173828125000001,35.51528320312501,0)" xlink:href="#ae"/><use transform="matrix(0.008173828125000001,0,0,0.008173828125000001,41.00809570312501,0)" xlink:href="#au"/><use transform="matrix(0.008173828125000001,0,0,0.008173828125000001,45.07048828125001,0)" xlink:href="#az"/><use transform="matrix(0.008173828125000001,0,0,0.008173828125000001,55.11612304687501,0)" xlink:href="#aE"/></g><g id="J"><use transform="matrix(0.008173828125000001,0,0,0.008173828125000001,0,0)" xlink:href="#av"/><use transform="matrix(0.008173828125000001,0,0,0.008173828125000001,9.571552734375,0)" xlink:href="#az"/><use transform="matrix(0.008173828125000001,0,0,0.008173828125000001,19.6171875,0)" xlink:href="#aB"/><use transform="matrix(0.008173828125000001,0,0,0.008173828125000001,34.28103515625,0)" xlink:href="#bb"/><use transform="matrix(0.008173828125000001,0,0,0.008173828125000001,44.539189453125,0)" xlink:href="#ae"/><use transform="matrix(0.008173828125000001,0,0,0.008173828125000001,49.868525390624995,0)" xlink:href="#ax"/></g><path fill="#666" d="M98-1322v-168h1126v168H757V0H567v-1322H98" id="bi"/><g id="K"><use transform="matrix(0.0087890625,0,0,0.0087890625,0,0)" xlink:href="#bi"/><use transform="matrix(0.0087890625,0,0,0.0087890625,10.212890625,0)" xlink:href="#ag"/><use transform="matrix(0.0087890625,0,0,0.0087890625,21.005859375,0)" xlink:href="#aW"/><use transform="matrix(0.0087890625,0,0,0.0087890625,31.6494140625,0)" xlink:href="#am"/></g><path fill="#666" d="M338-1490V0H158v-1490h180" id="bj"/><g id="L"><use transform="matrix(0.0087890625,0,0,0.0087890625,0,0)" xlink:href="#bj"/><use transform="matrix(0.0087890625,0,0,0.0087890625,4.359375,0)" xlink:href="#ap"/><use transform="matrix(0.0087890625,0,0,0.0087890625,14.853515625,0)" xlink:href="#am"/></g><path fill="#666" d="M338-670V0H158v-1490h180v566c73-149 190-208 336-208 226 0 379 139 379 422V0H872v-695c0-172-96-275-252-275-161 0-282 109-282 300" id="bk"/><path fill="#666" d="M158 0v-1118h175l1 205c55-151 181-225 313-225 147 0 245 90 285 228 53-141 190-228 352-228 194 0 352 125 352 384V0h-181v-749c0-161-105-225-225-225-151 0-243 103-243 244V0H807v-767c0-124-93-207-219-207-131 0-250 92-250 270V0H158" id="bl"/><path fill="#666" d="M158 418v-1536h174v179h20c37-59 106-193 324-193 279 0 474 222 474 576 0 356-194 580-473 580-213 0-288-135-325-197h-14v591H158zm492-555c209 0 317-186 317-421 0-232-105-413-317-413-206 0-314 166-314 413 0 249 111 421 314 421" id="bm"/><g id="M"><use transform="matrix(0.0087890625,0,0,0.0087890625,0,0)" xlink:href="#ao"/><use transform="matrix(0.0087890625,0,0,0.0087890625,10.283203125,0)" xlink:href="#bk"/><use transform="matrix(0.0087890625,0,0,0.0087890625,20.9267578125,0)" xlink:href="#bf"/><use transform="matrix(0.0087890625,0,0,0.0087890625,31.0341796875,0)" xlink:href="#bl"/><use transform="matrix(0.0087890625,0,0,0.0087890625,46.8017578125,0)" xlink:href="#bm"/><use transform="matrix(0.0087890625,0,0,0.0087890625,57.8232421875,0)" xlink:href="#am"/></g><g id="N"><use transform="matrix(0.0087890625,0,0,0.0087890625,0,0)" xlink:href="#am"/><use transform="matrix(0.0087890625,0,0,0.0087890625,9.5009765625,0)" xlink:href="#ag"/><use transform="matrix(0.0087890625,0,0,0.0087890625,20.2939453125,0)" xlink:href="#ah"/><use transform="matrix(0.0087890625,0,0,0.0087890625,30.9287109375,0)" xlink:href="#an"/></g><path fill="#666" d="M677 24c-213 0-288-135-325-197h-20V0H158v-1490h180v551h14c37-59 106-193 324-193 279 0 474 222 474 576 0 356-194 580-473 580zm-27-161c209 0 317-186 317-421 0-232-105-413-317-413-206 0-314 166-314 413 0 249 111 421 314 421" id="bn"/><g id="O"><use transform="matrix(0.0087890625,0,0,0.0087890625,0,0)" xlink:href="#bn"/><use transform="matrix(0.0087890625,0,0,0.0087890625,11.021484375,0)" xlink:href="#aX"/><use transform="matrix(0.0087890625,0,0,0.0087890625,15.380859375,0)" xlink:href="#ap"/><use transform="matrix(0.0087890625,0,0,0.0087890625,25.875,0)" xlink:href="#ah"/></g><g id="P"><use transform="matrix(0.0087890625,0,0,0.0087890625,0,0)" xlink:href="#bg"/><use transform="matrix(0.0087890625,0,0,0.0087890625,6.4775390625,0)" xlink:href="#ap"/><use transform="matrix(0.0087890625,0,0,0.0087890625,16.9716796875,0)" xlink:href="#bl"/><use transform="matrix(0.0087890625,0,0,0.0087890625,32.7392578125,0)" xlink:href="#bm"/><use transform="matrix(0.0087890625,0,0,0.0087890625,43.7607421875,0)" xlink:href="#bj"/><use transform="matrix(0.0087890625,0,0,0.0087890625,48.1201171875,0)" xlink:href="#aX"/><use transform="matrix(0.0087890625,0,0,0.0087890625,52.4794921875,0)" xlink:href="#am"/></g><path fill="#fff" d="M677 24c-359 0-556-231-505-538l162-976h190L363-516c-36 218 86 364 321 364 246 0 428-159 464-377l159-961h190l-163 989c-51 309-312 525-657 525" id="bo"/><g id="Q"><use transform="matrix(0.008173828125000001,0,0,0.008173828125000001,0,0)" xlink:href="#bo"/><use transform="matrix(0.008173828125000001,0,0,0.008173828125000001,12.448740234375002,0)" xlink:href="#ae"/><use transform="matrix(0.008173828125000001,0,0,0.008173828125000001,17.941552734375,0)" xlink:href="#au"/><use transform="matrix(0.008173828125000001,0,0,0.008173828125000001,22.0039453125,0)" xlink:href="#ay"/><use transform="matrix(0.008173828125000001,0,0,0.008173828125000001,26.058164062500005,0)" xlink:href="#au"/><use transform="matrix(0.008173828125000001,0,0,0.008173828125000001,30.120556640625,0)" xlink:href="#aZ"/><use transform="matrix(0.008173828125000001,0,0,0.008173828125000001,38.948291015625,0)" xlink:href="#aC"/><use transform="matrix(0.008173828125000001,0,0,0.008173828125000001,49.22279296875001,0)" xlink:href="#ae"/><use transform="matrix(0.008173828125000001,0,0,0.008173828125000001,54.552128906250005,0)" xlink:href="#ax"/><use transform="matrix(0.008173828125000001,0,0,0.008173828125000001,64.189072265625,0)" xlink:href="#ad"/><use transform="matrix(0.008173828125000001,0,0,0.008173828125000001,74.095751953125,0)" xlink:href="#aA"/></g><g id="R"><use transform="matrix(0.008173828125000001,0,0,0.008173828125000001,0,0)" xlink:href="#av"/><use transform="matrix(0.008173828125000001,0,0,0.008173828125000001,9.571552734375,0)" xlink:href="#az"/><use transform="matrix(0.008173828125000001,0,0,0.008173828125000001,19.6171875,0)" xlink:href="#aE"/><use transform="matrix(0.008173828125000001,0,0,0.008173828125000001,29.515693359375,0)" xlink:href="#aE"/><use transform="matrix(0.008173828125000001,0,0,0.008173828125000001,39.41419921875,0)" xlink:href="#ax"/><use transform="matrix(0.008173828125000001,0,0,0.008173828125000001,49.051142578125,0)" xlink:href="#av"/><use transform="matrix(0.008173828125000001,0,0,0.008173828125000001,58.6226953125,0)" xlink:href="#ae"/><use transform="matrix(0.008173828125000001,0,0,0.008173828125000001,63.95203125,0)" xlink:href="#ab"/></g><g id="S"><use transform="matrix(0.0087890625,0,0,0.0087890625,0,0)" xlink:href="#aV"/><use transform="matrix(0.0087890625,0,0,0.0087890625,13.763671875,0)" xlink:href="#aW"/><use transform="matrix(0.0087890625,0,0,0.0087890625,24.4072265625,0)" xlink:href="#aX"/></g><g id="T"><use transform="matrix(0.008173828125000001,0,0,0.008173828125000001,0,0)" xlink:href="#ad"/><use transform="matrix(0.008173828125000001,0,0,0.008173828125000001,9.9066796875,0)" xlink:href="#aE"/></g><path fill="#fff" d="M456 442C197 442 73 327 25 209l155-84c33 60 86 160 280 160 184 0 332-89 363-272l37-218-16 4C793-134 707-18 498-18 260-18 96-170 96-443c0-341 216-689 568-689 222 0 274 139 301 198l21-5 30-179h175L999 35c-48 288-275 407-543 407zm75-620c274 0 401-267 401-512 0-170-80-281-247-281-260 0-408 269-408 518 0 167 83 275 254 275" id="bp"/><g id="U"><use transform="matrix(0.008173828125000001,0,0,0.008173828125000001,0,0)" xlink:href="#aB"/><use transform="matrix(0.008173828125000001,0,0,0.008173828125000001,14.663847656250002,0)" xlink:href="#ax"/><use transform="matrix(0.008173828125000001,0,0,0.008173828125000001,24.300791015625002,0)" xlink:href="#aZ"/><use transform="matrix(0.008173828125000001,0,0,0.008173828125000001,33.128525390625,0)" xlink:href="#aZ"/><use transform="matrix(0.008173828125000001,0,0,0.008173828125000001,41.956259765625,0)" xlink:href="#aC"/><use transform="matrix(0.008173828125000001,0,0,0.008173828125000001,52.23076171875,0)" xlink:href="#bp"/><use transform="matrix(0.008173828125000001,0,0,0.008173828125000001,62.497089843750004,0)" xlink:href="#ax"/></g><path fill="#fff" d="M292-923l72-567h194L443-923H292" id="bq"/><g id="V"><use transform="matrix(0.008173828125000001,0,0,0.008173828125000001,0,0)" xlink:href="#aD"/><use transform="matrix(0.008173828125000001,0,0,0.008173828125000001,10.258154296875,0)" xlink:href="#bq"/><use transform="matrix(0.008173828125000001,0,0,0.008173828125000001,15.031669921875,0)" xlink:href="#ax"/><use transform="matrix(0.008173828125000001,0,0,0.008173828125000001,24.668613281250003,0)" xlink:href="#aA"/><use transform="matrix(0.008173828125000001,0,0,0.008173828125000001,31.240371093750003,0)" xlink:href="#aA"/><use transform="matrix(0.008173828125000001,0,0,0.008173828125000001,37.272656250000004,0)" xlink:href="#ax"/><use transform="matrix(0.008173828125000001,0,0,0.008173828125000001,46.90959960937501,0)" xlink:href="#ad"/><use transform="matrix(0.008173828125000001,0,0,0.008173828125000001,56.81627929687501,0)" xlink:href="#aA"/></g><g id="W"><use transform="matrix(0.008173828125000001,0,0,0.008173828125000001,0,0)" xlink:href="#aZ"/><use transform="matrix(0.008173828125000001,0,0,0.008173828125000001,8.827734375,0)" xlink:href="#az"/><use transform="matrix(0.008173828125000001,0,0,0.008173828125000001,18.873369140625,0)" xlink:href="#ad"/><use transform="matrix(0.008173828125000001,0,0,0.008173828125000001,28.780048828125004,0)" xlink:href="#aZ"/></g><g id="X"><use transform="matrix(0.008173828125000001,0,0,0.008173828125000001,0,0)" xlink:href="#ay"/><use transform="matrix(0.008173828125000001,0,0,0.008173828125000001,4.05421875,0)" xlink:href="#ax"/><use transform="matrix(0.008173828125000001,0,0,0.008173828125000001,13.691162109375002,0)" xlink:href="#aZ"/></g><g id="Y"><use transform="matrix(0.008173828125000001,0,0,0.008173828125000001,0,0)" xlink:href="#av"/><use transform="matrix(0.008173828125000001,0,0,0.008173828125000001,9.571552734375,0)" xlink:href="#aw"/><use transform="matrix(0.008173828125000001,0,0,0.008173828125000001,19.470058593750004,0)" xlink:href="#aC"/><use transform="matrix(0.008173828125000001,0,0,0.008173828125000001,29.744560546875007,0)" xlink:href="#aB"/><use transform="matrix(0.008173828125000001,0,0,0.008173828125000001,44.408408203125006,0)" xlink:href="#bb"/><use transform="matrix(0.008173828125000001,0,0,0.008173828125000001,54.666562500000005,0)" xlink:href="#aZ"/></g><g id="Z"><use transform="matrix(0.008173828125000001,0,0,0.008173828125000001,0,0)" xlink:href="#ax"/><use transform="matrix(0.008173828125000001,0,0,0.008173828125000001,9.636943359375001,0)" xlink:href="#aA"/><use transform="matrix(0.008173828125000001,0,0,0.008173828125000001,16.208701171875003,0)" xlink:href="#aA"/><use transform="matrix(0.008173828125000001,0,0,0.008173828125000001,22.240986328125004,0)" xlink:href="#az"/><use transform="matrix(0.008173828125000001,0,0,0.008173828125000001,32.28662109375001,0)" xlink:href="#aE"/><use transform="matrix(0.008173828125000001,0,0,0.008173828125000001,42.18512695312501,0)" xlink:href="#ab"/></g></defs></g></svg>