<svg xmlns="http://www.w3.org/2000/svg" xmlns:xlink="http://www.w3.org/1999/xlink" xmlns:lucid="lucid" width="1235" height="1192"><g transform="translate(-1856 -118)" lucid:page-tab-id="0_0"><path d="M0 0h3360v1360H0z" fill="#fff"/><path d="M2048 160c17.67 0 32 17.9 32 40s-14.33 40-32 40h-96c-17.67 0-32-17.9-32-40s14.33-40 32-40z" stroke="#000" stroke-opacity="0" fill="#ff741d"/><use xlink:href="#a" transform="matrix(1,0,0,1,1925,165) translate(51.3163330078125 41.089501953125)"/><path d="M2080.5 200h124.95" stroke="#333" fill="none"/><path d="M2080.5 200.47h-.53l.03-.47-.02-.47h.53z" stroke="#333" stroke-width=".05" fill="#333"/><path d="M2220.22 200l-14.27 4.63v-9.26z" stroke="#333" fill="#333"/><path d="M2313.75 125a10 10 0 0 1 12.5 0l87.5 70a6.4 6.4 0 0 1 0 10l-87.5 70a10 10 0 0 1-12.5 0l-87.5-70a6.4 6.4 0 0 1 0-10z" stroke="#fe5900" stroke-width="4" fill="#fff"/><use xlink:href="#b" transform="matrix(1,0,0,1,2225,125) translate(36.67564941406249 70.96212890625)"/><use xlink:href="#c" transform="matrix(1,0,0,1,2225,125) translate(73.4905712890625 70.96212890625)"/><use xlink:href="#d" transform="matrix(1,0,0,1,2225,125) translate(129.2524267578125 70.96212890625)"/><use xlink:href="#e" transform="matrix(1,0,0,1,2225,125) translate(32.42934570312499 91.216875)"/><use xlink:href="#f" transform="matrix(1,0,0,1,2225,125) translate(37.13747070312499 91.216875)"/><use xlink:href="#g" transform="matrix(1,0,0,1,2225,125) translate(75.309248046875 91.216875)"/><use xlink:href="#h" transform="matrix(1,0,0,1,2225,125) translate(99.66725585937502 91.216875)"/><use xlink:href="#i" transform="matrix(1,0,0,1,2225,125) translate(149.01265625000002 91.216875)"/><path d="M2418.66 200h66.95" stroke="#333" fill="none"/><path d="M2418.68 200.47h-.56l.04-.47-.04-.47h.56z" stroke="#333" stroke-width=".05" fill="#333"/><path d="M2500.37 200l-14.26 4.63v-9.26z" stroke="#333" fill="#333"/><use xlink:href="#j" transform="matrix(1,0,0,1,2414.7797183553716,174.220703125) translate(0.005000000000000782 17.4375)"/><path d="M2320 279.7v24.02" stroke="#333" fill="none"/><path d="M2320 279.2l.47-.03v.54h-.94v-.53z" stroke="#333" stroke-width=".05" fill="#333"/><path d="M2320 318.5l-4.64-14.28h9.28z" stroke="#333" fill="#333"/><use xlink:href="#k" transform="matrix(1,0,0,1,2328,274.30864275219596) translate(0.004999999999999005 17.4375)"/><path d="M2240 328.1a8 8 0 0 1 8-8h144a8 8 0 0 1 8 8v104a8 8 0 0 1-8 8h-144a8 8 0 0 1-8-8z" stroke="#000" stroke-opacity="0" stroke-width="2" fill="#ff8839"/><use xlink:href="#l" transform="matrix(1,0,0,1,2245,325.1058299759909) translate(9.584853515625 50.96212890625)"/><use xlink:href="#m" transform="matrix(1,0,0,1,2245,325.1058299759909) translate(105.120556640625 50.96212890625)"/><use xlink:href="#n" transform="matrix(1,0,0,1,2245,325.1058299759909) translate(4.729599609374986 71.216875)"/><use xlink:href="#o" transform="matrix(1,0,0,1,2245,325.1058299759909) translate(59.183642578124996 71.216875)"/><use xlink:href="#p" transform="matrix(1,0,0,1,2245,325.1058299759909) translate(93.333896484375 71.216875)"/><path d="M2004.08 285.5a8.8 8.8 0 0 1 11.84 0l98.16 89.22a7.27 7.27 0 0 1 0 10.77l-98.16 89.22a8.8 8.8 0 0 1-11.84 0l-98.16-89.23a7.27 7.27 0 0 1 0-10.78z" stroke="#fe5900" stroke-width="4" fill="#fff"/><use xlink:href="#q" transform="matrix(1,0,0,1,1905,285.1058299759909) translate(13.690166015624982 90.96212890625)"/><use xlink:href="#r" transform="matrix(1,0,0,1,1905,285.1058299759909) translate(108.408486328125 90.96212890625)"/><use xlink:href="#s" transform="matrix(1,0,0,1,1905,285.1058299759909) translate(55.711816406249994 111.216875)"/><use xlink:href="#c" transform="matrix(1,0,0,1,1905,285.1058299759909) translate(89.968330078125 111.216875)"/><use xlink:href="#i" transform="matrix(1,0,0,1,1905,285.1058299759909) translate(145.73018554687502 111.216875)"/><path d="M2239.5 380.1h-104.65" stroke="#333" fill="none"/><path d="M2240 380.58h-.5v-.95h.5z" stroke="#333" stroke-width=".05" fill="#333"/><path d="M2120.1 380.1l14.25-4.63v9.27z" stroke="#333" fill="#333"/><path d="M2010 479.52v24.3" stroke="#333" fill="none"/><path d="M2010 479.02l.47-.04v.55h-.94v-.55z" stroke="#333" stroke-width=".05" fill="#333"/><path d="M2010 518.6l-4.63-14.27h9.27z" stroke="#333" fill="#333"/><use xlink:href="#j" transform="matrix(1,0,0,1,2018,474.741362315604) translate(0.005000000000000782 17.4375)"/><path d="M1930 528.2a8 8 0 0 1 8-8h144a8 8 0 0 1 8 8v104a8 8 0 0 1-8 8h-144a8 8 0 0 1-8-8z" stroke="#000" stroke-opacity="0" stroke-width="2" fill="#ff8839"/><use xlink:href="#l" transform="matrix(1,0,0,1,1935,525.2116599519818) translate(1.2516357421875028 50.96212890625)"/><use xlink:href="#t" transform="matrix(1,0,0,1,1935,525.2116599519818) translate(96.7873388671875 50.96212890625)"/><use xlink:href="#o" transform="matrix(1,0,0,1,1935,525.2116599519818) translate(33.23173828124999 71.216875)"/><use xlink:href="#u" transform="matrix(1,0,0,1,1935,525.2116599519818) translate(67.3819921875 71.216875)"/><path d="M2004.08 685.5a8.8 8.8 0 0 1 11.84 0l98.16 89.22a7.27 7.27 0 0 1 0 10.77l-98.16 89.22a8.8 8.8 0 0 1-11.84 0l-98.16-89.23a7.27 7.27 0 0 1 0-10.78z" stroke="#fe5900" stroke-width="4" fill="#fff"/><use xlink:href="#q" transform="matrix(1,0,0,1,1905,685.1058299759909) translate(27.36498046874999 90.96212890625)"/><use xlink:href="#v" transform="matrix(1,0,0,1,1905,685.1058299759909) translate(122.08330078125 90.96212890625)"/><use xlink:href="#w" transform="matrix(1,0,0,1,1905,685.1058299759909) translate(136.191328125 90.96212890625)"/><use xlink:href="#x" transform="matrix(1,0,0,1,1905,685.1058299759909) translate(56.439287109374995 111.216875)"/><use xlink:href="#y" transform="matrix(1,0,0,1,1905,685.1058299759909) translate(90.69580078125 111.216875)"/><use xlink:href="#i" transform="matrix(1,0,0,1,1905,685.1058299759909) translate(145.00271484375 111.216875)"/><path d="M2118.97 780.1h50.2a.05.05 0 0 1 .06.06.05.05 0 0 0 .06.05h34.32" stroke="#333" fill="none"/><path d="M2118.98 780.58h-.55l.04-.47-.04-.47h.55z" stroke="#333" stroke-width=".05" fill="#333"/><path d="M2218.38 780.2l-14.26 4.65v-9.27z" stroke="#333" fill="#333"/><use xlink:href="#k" transform="matrix(1,0,0,1,2122.988643328237,784.1058299759909) translate(0.004999999999999005 17.4375)"/><path d="M2010 879.52v44.1" stroke="#333" fill="none"/><path d="M2010 879.02l.47-.04v.55h-.94v-.55z" stroke="#333" stroke-width=".05" fill="#333"/><path d="M2010 938.38l-4.63-14.26h9.27z" stroke="#333" fill="#333"/><use xlink:href="#j" transform="matrix(1,0,0,1,2018,873.1287562633174) translate(0.005000000000000782 17.4375)"/><path d="M2010 640.7v24.1" stroke="#333" fill="none"/><path d="M2010.47 640.72h-.94v-.5h.94z" stroke="#333" stroke-width=".05" fill="#333"/><path d="M2010 679.58l-4.63-14.27h9.27z" stroke="#333" fill="#333"/><path d="M2220 728.1a8 8 0 0 1 8-8h144a8 8 0 0 1 8 8v104a8 8 0 0 1-8 8h-144a8 8 0 0 1-8-8z" stroke="#000" stroke-opacity="0" stroke-width="2" fill="#ff8839"/><use xlink:href="#z" transform="matrix(1,0,0,1,2225,725.1058299759909) translate(29.647514648437493 50.96212890625)"/><use xlink:href="#A" transform="matrix(1,0,0,1,2225,725.1058299759909) translate(90.9103564453125 50.96212890625)"/><use xlink:href="#B" transform="matrix(1,0,0,1,2225,725.1058299759909) translate(38.9329833984375 71.216875)"/><path d="M2300 719.6V592.2a12 12 0 0 0-12-12h-181.62" stroke="#333" fill="none"/><path d="M2300.47 720.1h-.94v-.5h.94z" stroke="#333" stroke-width=".05" fill="#333"/><path d="M2091.62 580.2l14.26-4.62v9.27z" stroke="#333" fill="#333"/><path d="M1930 948a8 8 0 0 1 8-8h144a8 8 0 0 1 8 8v104a8 8 0 0 1-8 8h-144a8 8 0 0 1-8-8z" stroke="#000" stroke-opacity="0" stroke-width="2" fill="#ff8839"/><use xlink:href="#l" transform="matrix(1,0,0,1,1935,945) translate(1.2516357421875028 50.96212890625)"/><use xlink:href="#t" transform="matrix(1,0,0,1,1935,945) translate(96.7873388671875 50.96212890625)"/><use xlink:href="#C" transform="matrix(1,0,0,1,1935,945) translate(41.434174804687494 71.216875)"/><use xlink:href="#D" transform="matrix(1,0,0,1,1935,945) translate(56.351411132812494 71.216875)"/><path d="M2324.08 905.38a8.8 8.8 0 0 1 11.84 0l98.16 89.24a7.27 7.27 0 0 1 0 10.76l-98.16 89.24a8.8 8.8 0 0 1-11.84 0l-98.16-89.24a7.27 7.27 0 0 1 0-10.76z" stroke="#fe5900" stroke-width="4" fill="#fff"/><use xlink:href="#q" transform="matrix(1,0,0,1,2225,905) translate(27.36498046874999 90.96212890625)"/><use xlink:href="#v" transform="matrix(1,0,0,1,2225,905) translate(122.08330078125 90.96212890625)"/><use xlink:href="#w" transform="matrix(1,0,0,1,2225,905) translate(136.191328125 90.96212890625)"/><use xlink:href="#E" transform="matrix(1,0,0,1,2225,905) translate(64.7561572265625 111.216875)"/><use xlink:href="#F" transform="matrix(1,0,0,1,2225,905) translate(79.6733935546875 111.216875)"/><use xlink:href="#i" transform="matrix(1,0,0,1,2225,905) translate(136.6858447265625 111.216875)"/><path d="M2090.5 1000h114.65" stroke="#333" fill="none"/><path d="M2090.5 1000.48h-.5v-.96h.5z" stroke="#333" stroke-width=".05" fill="#333"/><path d="M2219.9 1000l-14.25 4.63v-9.26z" stroke="#333" fill="#333"/><path d="M2438.97 1000h64.65" stroke="#333" fill="none"/><path d="M2438.98 1000.48h-.55l.04-.48-.04-.48h.55z" stroke="#333" stroke-width=".05" fill="#333"/><path d="M2518.38 1000l-14.26 4.63v-9.26z" stroke="#333" fill="#333"/><use xlink:href="#j" transform="matrix(1,0,0,1,2436.0846651582897,974.2207031249999) translate(0.005000000000000782 17.4375)"/><path d="M2330 1099.4v68.7a12 12 0 0 1-12 12h-211.62" stroke="#333" fill="none"/><path d="M2330 1098.9l.47-.02v.54h-.94v-.54z" stroke="#333" stroke-width=".05" fill="#333"/><path d="M2091.62 1180.1l14.26-4.63v9.27z" stroke="#333" fill="#333"/><g><use xlink:href="#k" transform="matrix(1,0,0,1,2287.0107421875,1130.0562326851348) translate(0.004999999999999005 17.4375)"/></g><path d="M1930 1128.1a8 8 0 0 1 8-8h144a8 8 0 0 1 8 8v104a8 8 0 0 1-8 8h-144a8 8 0 0 1-8-8z" stroke="#000" stroke-opacity="0" stroke-width="2" fill="#ff8839"/><g><use xlink:href="#z" transform="matrix(1,0,0,1,1935,1125.105829975991) translate(29.647514648437493 50.96212890625)"/><use xlink:href="#A" transform="matrix(1,0,0,1,1935,1125.105829975991) translate(90.9103564453125 50.96212890625)"/><use xlink:href="#B" transform="matrix(1,0,0,1,1935,1125.105829975991) translate(38.9329833984375 71.216875)"/></g><path d="M2010 1119.6v-43.22" stroke="#333" fill="none"/><path d="M2010.47 1120.1h-.94v-.5h.94z" stroke="#333" stroke-width=".05" fill="#333"/><path d="M2010 1061.62l4.63 14.26h-9.27z" stroke="#333" fill="#333"/><path d="M2520 948a8 8 0 0 1 8-8h144a8 8 0 0 1 8 8v104a8 8 0 0 1-8 8h-144a8 8 0 0 1-8-8z" stroke="#000" stroke-opacity="0" stroke-width="2" fill="#ff8839"/><g><use xlink:href="#G" transform="matrix(1,0,0,1,2525,945) translate(1.1494628906249886 61.089501953125)"/><use xlink:href="#H" transform="matrix(1,0,0,1,2525,945) translate(25.597382812499994 61.089501953125)"/><use xlink:href="#I" transform="matrix(1,0,0,1,2525,945) translate(82.24201171875 61.089501953125)"/><use xlink:href="#J" transform="matrix(1,0,0,1,2525,945) translate(105.41481445312502 61.089501953125)"/></g><path d="M2868 960c17.67 0 32 17.9 32 40s-14.33 40-32 40h-96c-17.67 0-32-17.9-32-40s14.33-40 32-40z" stroke="#000" stroke-opacity="0" fill="#ffeadb"/><g><use xlink:href="#K" transform="matrix(1,0,0,1,2745,965) translate(63.0866455078125 41.089501953125)"/></g><path d="M2680.5 1000h29.4a.1.1 0 0 0 .1-.1.1.1 0 0 1 .1-.1h13.53" stroke="#333" fill="none"/><path d="M2680.5 1000.48h-.5v-.96h.5z" stroke="#333" stroke-width=".05" fill="#333"/><path d="M2738.4 999.8l-14.27 4.62v-9.27z" stroke="#333" fill="#333"/><path d="M2613.6 114.75a10.66 10.66 0 0 1 12.8 0l107.2 80.45a6 6 0 0 1 0 9.6l-107.2 80.45a10.66 10.66 0 0 1-12.8 0l-107.2-80.45a6 6 0 0 1 0-9.6z" stroke="#fe5900" stroke-width="4" fill="#fff"/><g><use xlink:href="#q" transform="matrix(1,0,0,1,2505,114.94708501200455) translate(50.533017578125 81.46212890625)"/><use xlink:href="#L" transform="matrix(1,0,0,1,2505,114.94708501200455) translate(145.251337890625 81.46212890625)"/><use xlink:href="#M" transform="matrix(1,0,0,1,2505,114.94708501200455) translate(33.96875488281249 101.716875)"/><use xlink:href="#N" transform="matrix(1,0,0,1,2505,114.94708501200455) translate(113.5491455078125 101.716875)"/><use xlink:href="#c" transform="matrix(1,0,0,1,2505,114.94708501200455) translate(131.7113916015625 101.716875)"/><use xlink:href="#i" transform="matrix(1,0,0,1,2505,114.94708501200455) translate(187.47324707031248 101.716875)"/></g><path d="M2620.47 363.62h-.94v-18.04h.94zm0-39.81h-.94v-33.9h.94z" stroke="#333" stroke-width=".05" fill="#333"/><path d="M2620 289.4l.47-.04v.54h-.94v-.54z" fill="#333"/><path stroke="#333" stroke-width=".05" fill="#333"/><path d="M2620 378.38l-4.64-14.26h9.28z" fill="#333"/><path d="M2620 379.92l-5.3-16.28h10.6zm-3.98-15.33l3.98 12.25 3.98-12.26z" stroke="#333" stroke-width=".05" fill="#333"/><g><use xlink:href="#O" transform="matrix(1,0,0,1,2605.61669921875,323.80491436785314) translate(0.005000000000000782 17.4375)"/></g><path d="M2761.5 200.47h-23v-.94h23zm42.12 0h-7.12v-.94h7.12z" stroke="#333" stroke-width=".05" fill="#333"/><path d="M2738.52 200.47h-.55l.04-.47-.03-.47h.55z" fill="#333"/><path stroke="#333" stroke-width=".05" fill="#333"/><path d="M2818.38 200l-14.26 4.63v-9.26z" fill="#333"/><path d="M2819.92 200l-16.28 5.3v-10.6zm-15.33 3.98l12.24-3.98-12.25-3.98z" stroke="#333" stroke-width=".05" fill="#333"/><g><use xlink:href="#P" transform="matrix(1,0,0,1,2761.5103681593337,189.1103515625) translate(0.004999999999999005 17.4375)"/></g><path d="M2668 380c17.67 0 32 17.9 32 40s-14.33 40-32 40h-96c-17.67 0-32-17.9-32-40s14.33-40 32-40z" stroke="#000" stroke-opacity="0" fill="#ffeadb"/><g><use xlink:href="#K" transform="matrix(1,0,0,1,2545,385) translate(63.0866455078125 41.089501953125)"/></g><path d="M2948 160c17.67 0 32 17.9 32 40s-14.33 40-32 40h-96c-17.67 0-32-17.9-32-40s14.33-40 32-40z" stroke="#000" stroke-opacity="0" fill="#ffeadb"/><g><use xlink:href="#K" transform="matrix(1,0,0,1,2825,165) translate(63.0866455078125 41.089501953125)"/></g><defs><path fill="#fff" d="M585 0H87l247-1490h460c436 0 670 281 593 744C1309-277 1035 0 585 0zM305-168h262c366 0 577-221 636-580s-82-574-426-574H496" id="Q"/><path fill="#fff" d="M535 24C259 24 94-144 94-427c0-392 272-715 610-715 216 0 356 119 356 305 0 244-237 344-790 350-18 199 49 349 276 352 142 0 260-66 317-173l167 47C947-85 756 24 535 24zM294-623c447-4 586-57 586-218 0-85-78-141-194-141-220 0-342 177-392 359zm352-659l186-276h201l-240 276H646" id="R"/><path fill="#fff" d="M592 24c-216 0-276-130-305-197h-18L239 0H65l247-1490h180l-92 551h15c51-63 134-193 344-193 246 0 401 170 401 447 0 348-211 709-568 709zm-24-161c267 0 411-296 411-543 0-170-78-291-250-291-269 0-405 284-405 542 0 177 81 292 244 292" id="S"/><path fill="#fff" d="M443 14C219 14 87-123 134-408l117-710h180L317-423c-28 171 49 275 206 275s300-105 332-300l110-670h181L961 0H787l35-209C722-47 590 14 443 14" id="T"/><path fill="#fff" d="M691-1118l-25 154H437L325-290c-17 103 16 144 108 144 23 0 63-6 94-12L538-6c-36 12-87 20-136 20-196 0-290-109-260-290l114-688H88l25-154h169l44-266h180l-44 266h229" id="U"/><g id="a"><use transform="matrix(0.008173828125000001,0,0,0.008173828125000001,0,0)" xlink:href="#Q"/><use transform="matrix(0.008173828125000001,0,0,0.008173828125000001,12.072744140625002,0)" xlink:href="#R"/><use transform="matrix(0.008173828125000001,0,0,0.008173828125000001,21.7096875,0)" xlink:href="#S"/><use transform="matrix(0.008173828125000001,0,0,0.008173828125000001,31.967841796875,0)" xlink:href="#T"/><use transform="matrix(0.008173828125000001,0,0,0.008173828125000001,41.874521484375,0)" xlink:href="#U"/></g><path fill="#333" d="M763 24c-353 0-583-224-583-531v-983h190v968c0 214 149 370 393 370 243 0 391-156 391-370v-968h190v983c0 307-230 531-581 531" id="V"/><path fill="#333" d="M338-670V0H158v-1118h173l1 207c72-158 192-221 342-221 226 0 378 139 378 422V0H872v-695c0-172-96-275-252-275-161 0-282 109-282 300" id="W"/><path fill="#333" d="M628 24c-324 0-524-230-524-574 0-343 198-582 503-582 237 0 487 146 487 559v75H286c9 234 145 362 343 362 132 0 231-58 273-172l174 48C1024-91 857 24 628 24zM287-650h624c-17-190-120-322-304-322-192 0-309 151-320 322" id="X"/><g id="b"><use transform="matrix(0.008173828125000001,0,0,0.008173828125000001,0,0)" xlink:href="#V"/><use transform="matrix(0.008173828125000001,0,0,0.008173828125000001,12.456914062500001,0)" xlink:href="#W"/><use transform="matrix(0.008173828125000001,0,0,0.008173828125000001,22.34724609375,0)" xlink:href="#X"/></g><path fill="#333" d="M538 24C308 24 148-78 108-271l171-41c32 123 123 178 257 178 156 0 256-77 256-169 0-77-54-128-164-154l-186-44c-203-48-300-148-300-305 0-192 176-326 414-326 230 0 351 112 402 269l-163 42c-31-80-94-158-238-158-133 0-233 69-233 162 0 83 57 129 188 160l169 40c203 48 298 149 298 302 0 196-179 339-441 339" id="Y"/><path fill="#333" d="M471 26C259 26 90-98 90-318c0-256 228-303 435-329 202-27 287-16 287-108 0-139-79-219-234-219-161 0-248 86-283 164l-173-57c86-203 278-265 451-265 150 0 419 46 419 395V0H815v-152h-12C765-73 660 26 471 26zm31-159c199 0 310-134 310-271v-155c-30 35-226 55-295 64-131 17-246 59-246 186 0 116 97 176 231 176" id="Z"/><path fill="#333" d="M158 0v-1118h180V0H158zm91-1301c-68 0-125-53-125-119s57-119 125-119c69 0 126 53 126 119s-57 119-126 119" id="aa"/><path fill="#333" d="M613 24c-304 0-509-231-509-576 0-350 205-580 509-580 305 0 511 230 511 580 0 345-206 576-511 576zm0-161c226 0 329-195 329-415 0-222-103-419-329-419-223 0-326 196-326 419 0 220 103 415 326 415" id="ab"/><g id="c"><use transform="matrix(0.008173828125000001,0,0,0.008173828125000001,0,0)" xlink:href="#Y"/><use transform="matrix(0.008173828125000001,0,0,0.008173828125000001,8.835908203125001,0)" xlink:href="#Z"/><use transform="matrix(0.008173828125000001,0,0,0.008173828125000001,18.235810546875,0)" xlink:href="#aa"/><use transform="matrix(0.008173828125000001,0,0,0.008173828125000001,22.290029296875,0)" xlink:href="#Y"/><use transform="matrix(0.008173828125000001,0,0,0.008173828125000001,31.125937500000003,0)" xlink:href="#ab"/><use transform="matrix(0.008173828125000001,0,0,0.008173828125000001,41.16339843750001,0)" xlink:href="#W"/></g><path fill="#333" d="M598-1118v154H368v674c0 100 37 144 132 144 23 0 62-6 92-12L629-6c-37 13-88 20-134 20-193 0-307-107-307-290v-688H20v-154h168v-266h180v266h230" id="ac"/><g id="d"><use transform="matrix(0.008173828125000001,0,0,0.008173828125000001,0,0)" xlink:href="#X"/><use transform="matrix(0.008173828125000001,0,0,0.008173828125000001,9.75955078125,0)" xlink:href="#Y"/><use transform="matrix(0.008173828125000001,0,0,0.008173828125000001,18.595458984375,0)" xlink:href="#ac"/></g><path fill="#333" d="M577 24c-279 0-473-224-473-580 0-354 195-576 474-576 218 0 287 134 324 193h14v-551h180V0H922v-173h-20C865-111 790 24 577 24zm27-161c203 0 314-172 314-421 0-247-108-413-314-413-212 0-317 181-317 413 0 235 108 421 317 421" id="ad"/><path fill="#333" d="M628 24c-324 0-524-230-524-574 0-343 198-582 503-582 237 0 487 146 487 559v75H286c9 234 145 362 343 362 132 0 231-58 273-172l174 48C1024-91 857 24 628 24zM287-650h624c-17-190-120-322-304-322-192 0-309 151-320 322zm237-614l140-294h201l-194 294H524" id="ae"/><path fill="#333" d="M157-1118h181V80c1 225-123 350-364 338V252c126 9 184-48 183-172v-1198zm91-183c-68 0-125-53-125-119s57-119 125-119c69 0 126 53 126 119s-57 119-126 119" id="af"/><path fill="#333" d="M471 26C259 26 90-98 90-318c0-256 228-303 435-329 202-27 287-16 287-108 0-139-79-219-234-219-161 0-248 86-283 164l-173-57c86-203 278-265 451-265 150 0 419 46 419 395V0H815v-152h-12C765-73 660 26 471 26zm31-159c199 0 310-134 310-271v-155c-30 35-226 55-295 64-131 17-246 59-246 186 0 116 97 176 231 176zm-15-1131l-193-294h201l140 294H487" id="ag"/><g id="f"><use transform="matrix(0.008173828125000001,0,0,0.008173828125000001,0,0)" xlink:href="#ad"/><use transform="matrix(0.008173828125000001,0,0,0.008173828125000001,10.249980468750001,0)" xlink:href="#ae"/><use transform="matrix(0.008173828125000001,0,0,0.008173828125000001,20.009531250000002,0)" xlink:href="#af"/><use transform="matrix(0.008173828125000001,0,0,0.008173828125000001,24.063750000000002,0)" xlink:href="#ag"/></g><g id="g"><use transform="matrix(0.008173828125000001,0,0,0.008173828125000001,0,0)" xlink:href="#X"/><use transform="matrix(0.008173828125000001,0,0,0.008173828125000001,9.75955078125,0)" xlink:href="#W"/></g><path fill="#333" d="M613 24c-304 0-509-231-509-576 0-350 205-580 509-580 216 0 392 114 453 309l-173 49c-33-115-133-197-280-197-223 0-326 196-326 419 0 220 103 415 326 415 150 0 252-85 285-206l172 49C1010-95 832 24 613 24" id="ah"/><path fill="#333" d="M537 14c-226 0-379-139-379-422v-710h180v695c0 172 97 275 253 275 160 0 281-109 281-300v-670h181V0H879v-209C806-46 684 14 537 14" id="ai"/><path fill="#333" d="M158 0v-1118h174v172h12c41-113 157-188 290-188 26 0 70 2 91 3v181c-11-2-60-10-108-10-161 0-279 109-279 260V0H158" id="aj"/><g id="h"><use transform="matrix(0.008173828125000001,0,0,0.008173828125000001,0,0)" xlink:href="#ah"/><use transform="matrix(0.008173828125000001,0,0,0.008173828125000001,9.563378906250001,0)" xlink:href="#ab"/><use transform="matrix(0.008173828125000001,0,0,0.008173828125000001,19.600839843750002,0)" xlink:href="#ai"/><use transform="matrix(0.008173828125000001,0,0,0.008173828125000001,29.499345703125005,0)" xlink:href="#aj"/><use transform="matrix(0.008173828125000001,0,0,0.008173828125000001,35.801367187500006,0)" xlink:href="#Y"/></g><path fill="#333" d="M383-449c-3-277 82-343 222-425 88-53 156-134 156-250 0-139-108-227-243-227-118 0-235 70-246 236H82c10-251 200-395 436-395 259 0 427 165 427 393 0 161-74 273-203 352-132 80-180 132-178 316H383zm93 462c-75 0-135-60-135-134 0-75 60-135 135-135 74 0 134 60 134 135 0 74-60 134-134 134" id="ak"/><use transform="matrix(0.008173828125000001,0,0,0.008173828125000001,0,0)" xlink:href="#ak" id="i"/><path fill="#666" d="M784 20c-382 0-662-292-662-764 0-473 280-766 662-766s660 293 660 766c0 472-278 764-660 764zm0-176c266 0 475-207 475-588 0-383-209-590-475-590-268 0-477 208-477 590 0 380 209 588 477 588" id="al"/><path fill="#666" d="M537 14c-226 0-379-139-379-422v-710h180v695c0 172 97 275 253 275 160 0 281-109 281-300v-670h181V0H879v-209C806-46 684 14 537 14" id="am"/><path fill="#666" d="M158 0v-1118h180V0H158zm91-1301c-68 0-125-53-125-119s57-119 125-119c69 0 126 53 126 119s-57 119-126 119" id="an"/><g id="j"><use transform="matrix(0.0087890625,0,0,0.0087890625,0,0)" xlink:href="#al"/><use transform="matrix(0.0087890625,0,0,0.0087890625,13.763671875,0)" xlink:href="#am"/><use transform="matrix(0.0087890625,0,0,0.0087890625,24.4072265625,0)" xlink:href="#an"/></g><path fill="#666" d="M180 0v-1490h224l606 953c40 63 108 177 176 312-27-437-7-821-13-1265h190V0h-226C860-448 622-778 356-1262c27 476 11 792 15 1262H180" id="ao"/><path fill="#666" d="M613 24c-304 0-509-231-509-576 0-350 205-580 509-580 305 0 511 230 511 580 0 345-206 576-511 576zm0-161c226 0 329-195 329-415 0-222-103-419-329-419-223 0-326 196-326 419 0 220 103 415 326 415" id="ap"/><path fill="#666" d="M338-670V0H158v-1118h173l1 207c72-158 192-221 342-221 226 0 378 139 378 422V0H872v-695c0-172-96-275-252-275-161 0-282 109-282 300" id="aq"/><g id="k"><use transform="matrix(0.0087890625,0,0,0.0087890625,0,0)" xlink:href="#ao"/><use transform="matrix(0.0087890625,0,0,0.0087890625,13.5615234375,0)" xlink:href="#ap"/><use transform="matrix(0.0087890625,0,0,0.0087890625,24.3544921875,0)" xlink:href="#aq"/></g><path fill="#fff" d="M87 0l247-1490h190L304-167h690L967 0H87" id="ar"/><path fill="#fff" d="M292-923l72-567h194L443-923H292" id="as"/><path fill="#fff" d="M66 0l185-1118h180L246 0H66zm307-1301c-71 0-117-55-106-119s74-119 145-119c65 0 117 50 106 118s-78 120-145 120" id="at"/><path fill="#fff" d="M492-1490L245 0H65l247-1490h180" id="au"/><path fill="#fff" d="M451 24C217 22 71-78 61-277l174-29c11 123 90 172 219 172 161 0 280-83 297-181 11-71-30-117-135-143l-179-44c-195-48-280-153-253-316 31-186 223-314 455-314 233 4 337 107 366 275l-165 30c-18-80-65-152-204-152-138 0-256 75-272 174-13 77 32 118 158 149l162 40c195 48 278 154 252 313C904-113 708 24 451 24" id="av"/><path fill="#fff" d="M481 24C202 24 45-202 104-557s293-575 571-575c216 0 263 132 291 193h15l29-179h181L1006 0H831l28-173h-21C788-107 693 24 481 24zm56-161c204 0 342-174 383-422s-41-412-245-412c-215 0-350 183-388 412-39 235 39 422 250 422" id="aw"/><path fill="#fff" d="M535 24C259 24 94-144 94-427c0-392 272-715 610-715 216 0 356 119 356 305 0 244-237 344-790 350-18 199 49 349 276 352 142 0 260-66 317-173l167 47C947-85 756 24 535 24zM294-623c447-4 586-57 586-218 0-85-78-141-194-141-220 0-342 177-392 359" id="ax"/><path fill="#fff" d="M66 0l185-1118h174l-28 172h12c78-136 219-209 411-185l-30 181c-211-47-398 67-428 250L246 0H66" id="ay"/><g id="l"><use transform="matrix(0.008173828125000001,0,0,0.008173828125000001,0,0)" xlink:href="#ar"/><use transform="matrix(0.008173828125000001,0,0,0.008173828125000001,7.944960937500001,0)" xlink:href="#as"/><use transform="matrix(0.008173828125000001,0,0,0.008173828125000001,12.963691406250001,0)" xlink:href="#T"/><use transform="matrix(0.008173828125000001,0,0,0.008173828125000001,22.870371093750002,0)" xlink:href="#U"/><use transform="matrix(0.008173828125000001,0,0,0.008173828125000001,28.36318359375,0)" xlink:href="#at"/><use transform="matrix(0.008173828125000001,0,0,0.008173828125000001,32.425576171875,0)" xlink:href="#au"/><use transform="matrix(0.008173828125000001,0,0,0.008173828125000001,36.479794921875,0)" xlink:href="#at"/><use transform="matrix(0.008173828125000001,0,0,0.008173828125000001,40.5421875,0)" xlink:href="#av"/><use transform="matrix(0.008173828125000001,0,0,0.008173828125000001,49.369921874999996,0)" xlink:href="#aw"/><use transform="matrix(0.008173828125000001,0,0,0.008173828125000001,59.644423828125,0)" xlink:href="#U"/><use transform="matrix(0.008173828125000001,0,0,0.008173828125000001,64.973759765625,0)" xlink:href="#ax"/><use transform="matrix(0.008173828125000001,0,0,0.008173828125000001,74.610703125,0)" xlink:href="#T"/><use transform="matrix(0.008173828125000001,0,0,0.008173828125000001,84.51738281250002,0)" xlink:href="#ay"/></g><path fill="#fff" d="M-4 418l255-1536h174l-30 179h9c47-68 143-193 355-193 246 0 401 170 401 447 0 348-211 709-568 709-219 0-274-140-300-202h-17l-99 596H-4zm572-555c267 0 411-296 411-543 0-170-78-291-250-291-269 0-405 284-405 542 0 177 81 292 244 292" id="az"/><g id="m"><use transform="matrix(0.008173828125000001,0,0,0.008173828125000001,0,0)" xlink:href="#az"/><use transform="matrix(0.008173828125000001,0,0,0.008173828125000001,10.258154296875,0)" xlink:href="#ax"/><use transform="matrix(0.008173828125000001,0,0,0.008173828125000001,19.89509765625,0)" xlink:href="#T"/><use transform="matrix(0.008173828125000001,0,0,0.008173828125000001,29.801777343750004,0)" xlink:href="#U"/></g><path fill="#fff" d="M356-664L245 0H65l186-1118h173l-32 197c96-152 219-211 366-211 232 0 366 145 319 428L960 0H779l117-701c29-174-48-269-198-269-165 0-310 115-342 306" id="aA"/><path fill="#fff" d="M528 24C258 24 94-156 94-433c0-354 228-699 603-699 222 0 381 120 410 314l-176 39c-14-114-95-192-238-192-272 0-419 288-419 536 0 167 76 298 258 298 155 0 277-90 329-211l166 58C935-93 745 24 528 24" id="aB"/><g id="n"><use transform="matrix(0.008173828125000001,0,0,0.008173828125000001,0,0)" xlink:href="#au"/><use transform="matrix(0.008173828125000001,0,0,0.008173828125000001,4.05421875,0)" xlink:href="#aw"/><use transform="matrix(0.008173828125000001,0,0,0.008173828125000001,14.328720703125002,0)" xlink:href="#aA"/><use transform="matrix(0.008173828125000001,0,0,0.008173828125000001,24.227226562500004,0)" xlink:href="#aB"/><use transform="matrix(0.008173828125000001,0,0,0.008173828125000001,33.798779296875004,0)" xlink:href="#ax"/><use transform="matrix(0.008173828125000001,0,0,0.008173828125000001,43.43572265625001,0)" xlink:href="#ay"/></g><g id="o"><use transform="matrix(0.008173828125000001,0,0,0.008173828125000001,0,0)" xlink:href="#T"/><use transform="matrix(0.008173828125000001,0,0,0.008173828125000001,9.9066796875,0)" xlink:href="#aA"/><use transform="matrix(0.008173828125000001,0,0,0.008173828125000001,19.805185546875002,0)" xlink:href="#ax"/></g><path fill="#fff" d="M528 24C258 24 94-156 94-433c0-355 229-699 603-699 270 0 436 178 436 458 0 359-234 698-605 698zm4-161c275 0 420-287 420-533 0-170-77-301-260-301-271 0-418 288-418 536 0 168 77 298 258 298" id="aC"/><g id="p"><use transform="matrix(0.008173828125000001,0,0,0.008173828125000001,0,0)" xlink:href="#av"/><use transform="matrix(0.008173828125000001,0,0,0.008173828125000001,8.827734375,0)" xlink:href="#aw"/><use transform="matrix(0.008173828125000001,0,0,0.008173828125000001,19.102236328125002,0)" xlink:href="#at"/><use transform="matrix(0.008173828125000001,0,0,0.008173828125000001,23.16462890625,0)" xlink:href="#av"/><use transform="matrix(0.008173828125000001,0,0,0.008173828125000001,31.99236328125,0)" xlink:href="#aC"/><use transform="matrix(0.008173828125000001,0,0,0.008173828125000001,42.037998046875,0)" xlink:href="#aA"/></g><path fill="#333" d="M180 0v-1490h190v1322h690V0H180" id="aD"/><path fill="#333" d="M232-923l-22-567h194l-22 567H232" id="aE"/><path fill="#333" d="M338-1490V0H158v-1490h180" id="aF"/><g id="q"><use transform="matrix(0.008173828125000001,0,0,0.008173828125000001,0,0)" xlink:href="#aD"/><use transform="matrix(0.008173828125000001,0,0,0.008173828125000001,7.944960937500001,0)" xlink:href="#aE"/><use transform="matrix(0.008173828125000001,0,0,0.008173828125000001,12.963691406250001,0)" xlink:href="#ai"/><use transform="matrix(0.008173828125000001,0,0,0.008173828125000001,22.862197265625003,0)" xlink:href="#ac"/><use transform="matrix(0.008173828125000001,0,0,0.008173828125000001,28.338662109375004,0)" xlink:href="#aa"/><use transform="matrix(0.008173828125000001,0,0,0.008173828125000001,32.392880859375005,0)" xlink:href="#aF"/><use transform="matrix(0.008173828125000001,0,0,0.008173828125000001,36.447099609375,0)" xlink:href="#aa"/><use transform="matrix(0.008173828125000001,0,0,0.008173828125000001,40.501318359375006,0)" xlink:href="#Y"/><use transform="matrix(0.008173828125000001,0,0,0.008173828125000001,49.33722656250001,0)" xlink:href="#Z"/><use transform="matrix(0.008173828125000001,0,0,0.008173828125000001,58.73712890625001,0)" xlink:href="#ac"/><use transform="matrix(0.008173828125000001,0,0,0.008173828125000001,64.0501171875,0)" xlink:href="#X"/><use transform="matrix(0.008173828125000001,0,0,0.008173828125000001,73.80966796875,0)" xlink:href="#ai"/><use transform="matrix(0.008173828125000001,0,0,0.008173828125000001,83.70817382812501,0)" xlink:href="#aj"/></g><path fill="#333" d="M158 0v-1118h175l1 205c55-151 181-225 313-225 147 0 245 90 285 228 53-141 190-228 352-228 194 0 352 125 352 384V0h-181v-749c0-161-105-225-225-225-151 0-243 103-243 244V0H807v-767c0-124-93-207-219-207-131 0-250 92-250 270V0H158" id="aG"/><g id="r"><use transform="matrix(0.008173828125000001,0,0,0.008173828125000001,0,0)" xlink:href="#ah"/><use transform="matrix(0.008173828125000001,0,0,0.008173828125000001,9.563378906250001,0)" xlink:href="#ab"/><use transform="matrix(0.008173828125000001,0,0,0.008173828125000001,19.600839843750002,0)" xlink:href="#aG"/><use transform="matrix(0.008173828125000001,0,0,0.008173828125000001,34.26468750000001,0)" xlink:href="#aG"/><use transform="matrix(0.008173828125000001,0,0,0.008173828125000001,48.92853515625001,0)" xlink:href="#X"/><use transform="matrix(0.008173828125000001,0,0,0.008173828125000001,58.688085937500006,0)" xlink:href="#W"/><use transform="matrix(0.008173828125000001,0,0,0.008173828125000001,68.57841796875,0)" xlink:href="#ah"/><use transform="matrix(0.008173828125000001,0,0,0.008173828125000001,78.14179687500001,0)" xlink:href="#X"/></g><g id="s"><use transform="matrix(0.008173828125000001,0,0,0.008173828125000001,0,0)" xlink:href="#ai"/><use transform="matrix(0.008173828125000001,0,0,0.008173828125000001,9.898505859375001,0)" xlink:href="#W"/><use transform="matrix(0.008173828125000001,0,0,0.008173828125000001,19.788837890625004,0)" xlink:href="#X"/></g><path fill="#fff" d="M356-670L245 0H65l247-1490h180l-94 565c97-150 219-207 362-207 226 0 365 139 318 422L960 0H779l116-695c29-174-53-275-208-275-158 0-299 107-331 300" id="aH"/><g id="t"><use transform="matrix(0.008173828125000001,0,0,0.008173828125000001,0,0)" xlink:href="#aB"/><use transform="matrix(0.008173828125000001,0,0,0.008173828125000001,9.571552734375,0)" xlink:href="#aH"/><use transform="matrix(0.008173828125000001,0,0,0.008173828125000001,19.470058593750004,0)" xlink:href="#aC"/><use transform="matrix(0.008173828125000001,0,0,0.008173828125000001,29.515693359375007,0)" xlink:href="#at"/><use transform="matrix(0.008173828125000001,0,0,0.008173828125000001,33.578085937500006,0)" xlink:href="#av"/><use transform="matrix(0.008173828125000001,0,0,0.008173828125000001,42.405820312500005,0)" xlink:href="#at"/><use transform="matrix(0.008173828125000001,0,0,0.008173828125000001,46.468212890625004,0)" xlink:href="#U"/></g><g id="u"><use transform="matrix(0.008173828125000001,0,0,0.008173828125000001,0,0)" xlink:href="#R"/><use transform="matrix(0.008173828125000001,0,0,0.008173828125000001,9.636943359375001,0)" xlink:href="#aB"/><use transform="matrix(0.008173828125000001,0,0,0.008173828125000001,19.20849609375,0)" xlink:href="#T"/><use transform="matrix(0.008173828125000001,0,0,0.008173828125000001,29.115175781250002,0)" xlink:href="#ay"/><use transform="matrix(0.008173828125000001,0,0,0.008173828125000001,35.686933593750005,0)" xlink:href="#at"/><use transform="matrix(0.008173828125000001,0,0,0.008173828125000001,39.749326171875005,0)" xlink:href="#ax"/></g><use transform="matrix(0.008173828125000001,0,0,0.008173828125000001,0,0)" xlink:href="#Z" id="v"/><path fill="#333" d="M338-670V0H158v-1490h180v566c73-149 190-208 336-208 226 0 379 139 379 422V0H872v-695c0-172-96-275-252-275-161 0-282 109-282 300" id="aI"/><g id="w"><use transform="matrix(0.008173828125000001,0,0,0.008173828125000001,0,0)" xlink:href="#ah"/><use transform="matrix(0.008173828125000001,0,0,0.008173828125000001,9.563378906250001,0)" xlink:href="#aI"/><use transform="matrix(0.008173828125000001,0,0,0.008173828125000001,19.461884765625,0)" xlink:href="#ab"/><use transform="matrix(0.008173828125000001,0,0,0.008173828125000001,29.499345703125005,0)" xlink:href="#aa"/><use transform="matrix(0.008173828125000001,0,0,0.008173828125000001,33.553564453125006,0)" xlink:href="#Y"/><use transform="matrix(0.008173828125000001,0,0,0.008173828125000001,42.38947265625001,0)" xlink:href="#aa"/></g><g id="x"><use transform="matrix(0.008173828125000001,0,0,0.008173828125000001,0,0)" xlink:href="#ai"/><use transform="matrix(0.008173828125000001,0,0,0.008173828125000001,9.898505859375001,0)" xlink:href="#W"/><use transform="matrix(0.008173828125000001,0,0,0.008173828125000001,19.788837890625004,0)" xlink:href="#X"/></g><g id="y"><use transform="matrix(0.008173828125000001,0,0,0.008173828125000001,0,0)" xlink:href="#ae"/><use transform="matrix(0.008173828125000001,0,0,0.008173828125000001,9.75955078125,0)" xlink:href="#ah"/><use transform="matrix(0.008173828125000001,0,0,0.008173828125000001,19.3229296875,0)" xlink:href="#ai"/><use transform="matrix(0.008173828125000001,0,0,0.008173828125000001,29.221435546875,0)" xlink:href="#aj"/><use transform="matrix(0.008173828125000001,0,0,0.008173828125000001,35.78501953125001,0)" xlink:href="#aa"/><use transform="matrix(0.008173828125000001,0,0,0.008173828125000001,39.839238281250005,0)" xlink:href="#X"/></g><path fill="#fff" d="M-41 0l788-1490h220L1268 0h-192l-80-416H383L169 0H-41zm509-582h497c-56-293-77-375-126-756-162 359-224 468-371 756" id="aJ"/><path fill="#fff" d="M780-1118l-24 146H497L317 116C281 334 148 448-56 448c-43 0-82-5-117-17l45-161c143 34 239 0 264-153L316-972H89l24-146h227l13-77c43-287 254-417 541-345l-50 154c-23-5-81-8-121-8-107 0-167 63-189 196l-13 80h259" id="aK"/><g id="z"><use transform="matrix(0.008173828125000001,0,0,0.008173828125000001,0,0)" xlink:href="#aJ"/><use transform="matrix(0.008173828125000001,0,0,0.008173828125000001,11.549619140625001,0)" xlink:href="#aK"/><use transform="matrix(0.008173828125000001,0,0,0.008173828125000001,17.140517578125003,0)" xlink:href="#aK"/><use transform="matrix(0.008173828125000001,0,0,0.008173828125000001,23.385322265625003,0)" xlink:href="#at"/><use transform="matrix(0.008173828125000001,0,0,0.008173828125000001,27.447714843750003,0)" xlink:href="#aB"/><use transform="matrix(0.008173828125000001,0,0,0.008173828125000001,37.019267578125,0)" xlink:href="#aH"/><use transform="matrix(0.008173828125000001,0,0,0.008173828125000001,46.9177734375,0)" xlink:href="#ax"/></g><g id="A"><use transform="matrix(0.008173828125000001,0,0,0.008173828125000001,0,0)" xlink:href="#T"/><use transform="matrix(0.008173828125000001,0,0,0.008173828125000001,9.9066796875,0)" xlink:href="#aA"/><use transform="matrix(0.008173828125000001,0,0,0.008173828125000001,19.805185546875002,0)" xlink:href="#ax"/></g><path fill="#fff" d="M65 0l186-1118h175l-31 195c80-148 212-215 337-215 153 0 236 96 255 228 75-143 223-228 382-228 199 0 341 131 298 390L1543 0h-181l126-756c27-162-65-218-177-218-160 0-274 111-297 250L894 0H714l128-773c21-127-57-201-174-201-136 0-277 97-307 277L245 0H65" id="aL"/><path fill="#fff" d="M456 442C197 442 73 327 25 209l155-84c33 60 86 160 280 160 184 0 332-89 363-272l37-218-16 4C793-134 707-18 498-18 260-18 96-170 96-443c0-341 216-689 568-689 222 0 274 139 301 198l21-5 30-179h175L999 35c-48 288-275 407-543 407zm75-620c274 0 401-267 401-512 0-170-80-281-247-281-260 0-408 269-408 518 0 167 83 275 254 275" id="aM"/><g id="B"><use transform="matrix(0.008173828125000001,0,0,0.008173828125000001,0,0)" xlink:href="#aL"/><use transform="matrix(0.008173828125000001,0,0,0.008173828125000001,14.663847656250002,0)" xlink:href="#ax"/><use transform="matrix(0.008173828125000001,0,0,0.008173828125000001,24.300791015625002,0)" xlink:href="#av"/><use transform="matrix(0.008173828125000001,0,0,0.008173828125000001,33.128525390625,0)" xlink:href="#av"/><use transform="matrix(0.008173828125000001,0,0,0.008173828125000001,41.956259765625,0)" xlink:href="#aw"/><use transform="matrix(0.008173828125000001,0,0,0.008173828125000001,52.23076171875,0)" xlink:href="#aM"/><use transform="matrix(0.008173828125000001,0,0,0.008173828125000001,62.497089843750004,0)" xlink:href="#ax"/></g><path fill="#fff" d="M61 0l23-137 583-537c198-182 297-283 319-421 25-157-68-250-224-250-169 0-311 109-339 278H242c44-263 264-443 530-443 267 0 433 185 393 418-28 164-126 293-428 566L353-179l-2 12h686L1010 0H61" id="aN"/><use transform="matrix(0.008173828125000001,0,0,0.008173828125000001,0,0)" xlink:href="#aN" id="C"/><g id="D"><use transform="matrix(0.008173828125000001,0,0,0.008173828125000001,0,0)" xlink:href="#az"/><use transform="matrix(0.008173828125000001,0,0,0.008173828125000001,10.258154296875,0)" xlink:href="#at"/><use transform="matrix(0.008173828125000001,0,0,0.008173828125000001,14.320546875000002,0)" xlink:href="#au"/><use transform="matrix(0.008173828125000001,0,0,0.008173828125000001,18.374765625000002,0)" xlink:href="#aC"/><use transform="matrix(0.008173828125000001,0,0,0.008173828125000001,28.420400390625005,0)" xlink:href="#U"/><use transform="matrix(0.008173828125000001,0,0,0.008173828125000001,33.749736328125,0)" xlink:href="#ax"/><use transform="matrix(0.008173828125000001,0,0,0.008173828125000001,43.386679687500006,0)" xlink:href="#av"/></g><path fill="#333" d="M154 0v-137l495-537c165-179 249-281 249-418 0-156-121-253-280-253-170 0-278 110-278 278H158c0-264 200-443 465-443 266 0 455 183 455 416 0 161-73 288-336 568L416-179v12h687V0H154" id="aO"/><use transform="matrix(0.008173828125000001,0,0,0.008173828125000001,0,0)" xlink:href="#aO" id="E"/><path fill="#333" d="M158 418v-1536h174v179h20c37-59 106-193 324-193 279 0 474 222 474 576 0 356-194 580-473 580-213 0-288-135-325-197h-14v591H158zm492-555c209 0 317-186 317-421 0-232-105-413-317-413-206 0-314 166-314 413 0 249 111 421 314 421" id="aP"/><g id="F"><use transform="matrix(0.008173828125000001,0,0,0.008173828125000001,0,0)" xlink:href="#aP"/><use transform="matrix(0.008173828125000001,0,0,0.008173828125000001,10.249980468750001,0)" xlink:href="#aa"/><use transform="matrix(0.008173828125000001,0,0,0.008173828125000001,14.304199218750002,0)" xlink:href="#aF"/><use transform="matrix(0.008173828125000001,0,0,0.008173828125000001,18.35841796875,0)" xlink:href="#ab"/><use transform="matrix(0.008173828125000001,0,0,0.008173828125000001,28.395878906250005,0)" xlink:href="#ac"/><use transform="matrix(0.008173828125000001,0,0,0.008173828125000001,33.708867187500005,0)" xlink:href="#X"/><use transform="matrix(0.008173828125000001,0,0,0.008173828125000001,43.46841796875,0)" xlink:href="#Y"/></g><g id="G"><use transform="matrix(0.008173828125000001,0,0,0.008173828125000001,0,0)" xlink:href="#ar"/><use transform="matrix(0.008173828125000001,0,0,0.008173828125000001,9.465292968750001,0)" xlink:href="#aw"/></g><g id="H"><use transform="matrix(0.008173828125000001,0,0,0.008173828125000001,0,0)" xlink:href="#av"/><use transform="matrix(0.008173828125000001,0,0,0.008173828125000001,8.827734375,0)" xlink:href="#aw"/><use transform="matrix(0.008173828125000001,0,0,0.008173828125000001,19.102236328125002,0)" xlink:href="#at"/><use transform="matrix(0.008173828125000001,0,0,0.008173828125000001,23.16462890625,0)" xlink:href="#av"/><use transform="matrix(0.008173828125000001,0,0,0.008173828125000001,31.99236328125,0)" xlink:href="#aC"/><use transform="matrix(0.008173828125000001,0,0,0.008173828125000001,42.037998046875,0)" xlink:href="#aA"/></g><g id="I"><use transform="matrix(0.008173828125000001,0,0,0.008173828125000001,0,0)" xlink:href="#av"/><use transform="matrix(0.008173828125000001,0,0,0.008173828125000001,8.827734375,0)" xlink:href="#ax"/></g><g id="J"><use transform="matrix(0.008173828125000001,0,0,0.008173828125000001,0,0)" xlink:href="#au"/><use transform="matrix(0.008173828125000001,0,0,0.008173828125000001,4.05421875,0)" xlink:href="#aw"/><use transform="matrix(0.008173828125000001,0,0,0.008173828125000001,14.328720703125002,0)" xlink:href="#aA"/><use transform="matrix(0.008173828125000001,0,0,0.008173828125000001,24.227226562500004,0)" xlink:href="#aB"/><use transform="matrix(0.008173828125000001,0,0,0.008173828125000001,33.798779296875004,0)" xlink:href="#ax"/></g><path fill="#333" d="M180 0v-1490h901v168H370v510h643v168H370V0H180" id="aQ"/><g id="K"><use transform="matrix(0.008173828125000001,0,0,0.008173828125000001,0,0)" xlink:href="#aQ"/><use transform="matrix(0.008173828125000001,0,0,0.008173828125000001,9.882158203125002,0)" xlink:href="#aa"/><use transform="matrix(0.008173828125000001,0,0,0.008173828125000001,13.936376953125002,0)" xlink:href="#W"/></g><path fill="#333" d="M481 0L54-1118h197c107 314 236 620 325 951 87-331 217-637 324-951h197L670 0H481" id="aR"/><g id="L"><use transform="matrix(0.008173828125000001,0,0,0.008173828125000001,0,0)" xlink:href="#aR"/><use transform="matrix(0.008173828125000001,0,0,0.008173828125000001,9.081123046875001,0)" xlink:href="#X"/><use transform="matrix(0.008173828125000001,0,0,0.008173828125000001,18.840673828125002,0)" xlink:href="#ai"/><use transform="matrix(0.008173828125000001,0,0,0.008173828125000001,28.739179687500005,0)" xlink:href="#ac"/></g><g id="M"><use transform="matrix(0.008173828125000001,0,0,0.008173828125000001,0,0)" xlink:href="#ah"/><use transform="matrix(0.008173828125000001,0,0,0.008173828125000001,9.563378906250001,0)" xlink:href="#ab"/><use transform="matrix(0.008173828125000001,0,0,0.008173828125000001,19.600839843750002,0)" xlink:href="#W"/><use transform="matrix(0.008173828125000001,0,0,0.008173828125000001,29.491171875000003,0)" xlink:href="#ac"/><use transform="matrix(0.008173828125000001,0,0,0.008173828125000001,34.96763671875001,0)" xlink:href="#aa"/><use transform="matrix(0.008173828125000001,0,0,0.008173828125000001,39.021855468750005,0)" xlink:href="#W"/><use transform="matrix(0.008173828125000001,0,0,0.008173828125000001,48.9121875,0)" xlink:href="#ai"/><use transform="matrix(0.008173828125000001,0,0,0.008173828125000001,58.810693359375,0)" xlink:href="#X"/><use transform="matrix(0.008173828125000001,0,0,0.008173828125000001,68.57024414062501,0)" xlink:href="#aj"/></g><g id="N"><use transform="matrix(0.008173828125000001,0,0,0.008173828125000001,0,0)" xlink:href="#aF"/><use transform="matrix(0.008173828125000001,0,0,0.008173828125000001,4.05421875,0)" xlink:href="#Z"/></g><g id="O"><use transform="matrix(0.0087890625,0,0,0.0087890625,0,0)" xlink:href="#al"/><use transform="matrix(0.0087890625,0,0,0.0087890625,13.763671875,0)" xlink:href="#am"/><use transform="matrix(0.0087890625,0,0,0.0087890625,24.4072265625,0)" xlink:href="#an"/></g><g id="P"><use transform="matrix(0.0087890625,0,0,0.0087890625,0,0)" xlink:href="#ao"/><use transform="matrix(0.0087890625,0,0,0.0087890625,13.5615234375,0)" xlink:href="#ap"/><use transform="matrix(0.0087890625,0,0,0.0087890625,24.3544921875,0)" xlink:href="#aq"/></g></defs></g></svg>